<svg xmlns="http://www.w3.org/2000/svg" width="1120" height="980" viewBox="0 0 1120 980">
<rect width="100%" height="100%" fill="#ffffff"/>
<style>text{font-family:Arial,sans-serif;fill:#111827}.title{font-size:26px;font-weight:700}.subtitle{font-size:16px;fill:#4b5563}.section{font-size:20px;font-weight:700}.panel-title{font-size:19px;font-weight:700}.tick{font-size:13px;fill:#4b5563}.label{font-size:15px}.label-strong{font-size:18px;font-weight:700}.value{font-size:15px;font-weight:700}.metric{font-size:28px;font-weight:700}.metric-label{font-size:14px;fill:#4b5563}.note{font-size:18px;font-weight:700;fill:#991b1b}.grid{stroke:#e5e7eb;stroke-width:1}.axis{stroke:#d1d5db;stroke-width:1}</style>
<text class="title" x="70" y="42">ISIC2020 ResNet50 baseline, image_size=224, epochs=8: Training Curves</text>
<text class="subtitle" x="70" y="68">Validation AUC is the main model-selection metric for this imbalanced binary task.</text>
<line x1="780" y1="42" x2="825" y2="42" stroke="#2563eb" stroke-width="3"/>
<text class="label" x="835" y="47">train</text>
<line x1="900" y1="42" x2="945" y2="42" stroke="#dc2626" stroke-width="3"/>
<text class="label" x="955" y="47">validation</text>
<text class="panel-title" x="120" y="78">Training and Validation Loss</text>
<rect x="120" y="100" width="850" height="210" fill="#ffffff" stroke="#d1d5db"/>
<line class="grid" x1="120" y1="310.0" x2="970" y2="310.0"/>
<text class="tick" x="62" y="315.0">0.00</text>
<line class="grid" x1="120" y1="268.0" x2="970" y2="268.0"/>
<text class="tick" x="62" y="273.0">0.12</text>
<line class="grid" x1="120" y1="226.0" x2="970" y2="226.0"/>
<text class="tick" x="62" y="231.0">0.24</text>
<line class="grid" x1="120" y1="184.0" x2="970" y2="184.0"/>
<text class="tick" x="62" y="189.0">0.35</text>
<line class="grid" x1="120" y1="142.0" x2="970" y2="142.0"/>
<text class="tick" x="62" y="147.0">0.47</text>
<line class="grid" x1="120" y1="100.0" x2="970" y2="100.0"/>
<text class="tick" x="62" y="105.0">0.59</text>
<text class="tick" x="120" y="338">epoch 1</text>
<text class="tick" x="904" y="338">epoch 8</text>
<polyline points="120.0,127.4 241.4,149.1 362.9,159.8 484.3,158.9 605.7,161.1 727.1,165.9 848.6,172.3 970.0,172.6" fill="none" stroke="#2563eb" stroke-width="3"/>
<circle cx="120.0" cy="127.4" r="4" fill="#2563eb" stroke="white" stroke-width="1.5"/>
<circle cx="241.4" cy="149.1" r="4" fill="#2563eb" stroke="white" stroke-width="1.5"/>
<circle cx="362.9" cy="159.8" r="4" fill="#2563eb" stroke="white" stroke-width="1.5"/>
<circle cx="484.3" cy="158.9" r="4" fill="#2563eb" stroke="white" stroke-width="1.5"/>
<circle cx="605.7" cy="161.1" r="4" fill="#2563eb" stroke="white" stroke-width="1.5"/>
<circle cx="727.1" cy="165.9" r="4" fill="#2563eb" stroke="white" stroke-width="1.5"/>
<circle cx="848.6" cy="172.3" r="4" fill="#2563eb" stroke="white" stroke-width="1.5"/>
<circle cx="970.0" cy="172.6" r="4" fill="#2563eb" stroke="white" stroke-width="1.5"/>
<polyline points="120.0,210.9 241.4,219.6 362.9,243.7 484.3,241.0 605.7,228.9 727.1,208.6 848.6,244.1 970.0,235.6" fill="none" stroke="#dc2626" stroke-width="3"/>
<circle cx="120.0" cy="210.9" r="4" fill="#dc2626" stroke="white" stroke-width="1.5"/>
<circle cx="241.4" cy="219.6" r="4" fill="#dc2626" stroke="white" stroke-width="1.5"/>
<circle cx="362.9" cy="243.7" r="4" fill="#dc2626" stroke="white" stroke-width="1.5"/>
<circle cx="484.3" cy="241.0" r="4" fill="#dc2626" stroke="white" stroke-width="1.5"/>
<circle cx="605.7" cy="228.9" r="4" fill="#dc2626" stroke="white" stroke-width="1.5"/>
<circle cx="727.1" cy="208.6" r="4" fill="#dc2626" stroke="white" stroke-width="1.5"/>
<circle cx="848.6" cy="244.1" r="4" fill="#dc2626" stroke="white" stroke-width="1.5"/>
<circle cx="970.0" cy="235.6" r="4" fill="#dc2626" stroke="white" stroke-width="1.5"/>
<text class="panel-title" x="120" y="368">Training and Validation AUC</text>
<rect x="120" y="390" width="850" height="210" fill="#ffffff" stroke="#d1d5db"/>
<line class="grid" x1="120" y1="600.0" x2="970" y2="600.0"/>
<text class="tick" x="62" y="605.0">0.69</text>
<line class="grid" x1="120" y1="558.0" x2="970" y2="558.0"/>
<text class="tick" x="62" y="563.0">0.74</text>
<line class="grid" x1="120" y1="516.0" x2="970" y2="516.0"/>
<text class="tick" x="62" y="521.0">0.78</text>
<line class="grid" x1="120" y1="474.0" x2="970" y2="474.0"/>
<text class="tick" x="62" y="479.0">0.83</text>
<line class="grid" x1="120" y1="432.0" x2="970" y2="432.0"/>
<text class="tick" x="62" y="437.0">0.88</text>
<line class="grid" x1="120" y1="390.0" x2="970" y2="390.0"/>
<text class="tick" x="62" y="395.0">0.93</text>
<text class="tick" x="120" y="628">epoch 1</text>
<text class="tick" x="904" y="628">epoch 8</text>
<polyline points="120.0,529.3 241.4,475.0 362.9,449.9 484.3,450.8 605.7,449.0 727.1,433.7 848.6,427.9 970.0,425.3" fill="none" stroke="#2563eb" stroke-width="3"/>
<circle cx="120.0" cy="529.3" r="4" fill="#2563eb" stroke="white" stroke-width="1.5"/>
<circle cx="241.4" cy="475.0" r="4" fill="#2563eb" stroke="white" stroke-width="1.5"/>
<circle cx="362.9" cy="449.9" r="4" fill="#2563eb" stroke="white" stroke-width="1.5"/>
<circle cx="484.3" cy="450.8" r="4" fill="#2563eb" stroke="white" stroke-width="1.5"/>
<circle cx="605.7" cy="449.0" r="4" fill="#2563eb" stroke="white" stroke-width="1.5"/>
<circle cx="727.1" cy="433.7" r="4" fill="#2563eb" stroke="white" stroke-width="1.5"/>
<circle cx="848.6" cy="427.9" r="4" fill="#2563eb" stroke="white" stroke-width="1.5"/>
<circle cx="970.0" cy="425.3" r="4" fill="#2563eb" stroke="white" stroke-width="1.5"/>
<polyline points="120.0,460.7 241.4,444.5 362.9,447.5 484.3,439.5 605.7,435.3 727.1,436.5 848.6,438.0 970.0,440.9" fill="none" stroke="#dc2626" stroke-width="3"/>
<circle cx="120.0" cy="460.7" r="4" fill="#dc2626" stroke="white" stroke-width="1.5"/>
<circle cx="241.4" cy="444.5" r="4" fill="#dc2626" stroke="white" stroke-width="1.5"/>
<circle cx="362.9" cy="447.5" r="4" fill="#dc2626" stroke="white" stroke-width="1.5"/>
<circle cx="484.3" cy="439.5" r="4" fill="#dc2626" stroke="white" stroke-width="1.5"/>
<circle cx="605.7" cy="435.3" r="4" fill="#dc2626" stroke="white" stroke-width="1.5"/>
<circle cx="727.1" cy="436.5" r="4" fill="#dc2626" stroke="white" stroke-width="1.5"/>
<circle cx="848.6" cy="438.0" r="4" fill="#dc2626" stroke="white" stroke-width="1.5"/>
<circle cx="970.0" cy="440.9" r="4" fill="#dc2626" stroke="white" stroke-width="1.5"/>
<circle cx="605.7" cy="435.3" r="7" fill="none" stroke="#111827" stroke-width="2"/>
<text class="value" x="623.7" y="419.3">Best val AUC 0.8742 at epoch 5</text>
<text class="panel-title" x="120" y="658">Training and Validation Accuracy</text>
<rect x="120" y="680" width="850" height="210" fill="#ffffff" stroke="#d1d5db"/>
<line class="grid" x1="120" y1="890.0" x2="970" y2="890.0"/>
<text class="tick" x="62" y="895.0">0.79</text>
<line class="grid" x1="120" y1="848.0" x2="970" y2="848.0"/>
<text class="tick" x="62" y="853.0">0.83</text>
<line class="grid" x1="120" y1="806.0" x2="970" y2="806.0"/>
<text class="tick" x="62" y="811.0">0.86</text>
<line class="grid" x1="120" y1="764.0" x2="970" y2="764.0"/>
<text class="tick" x="62" y="769.0">0.90</text>
<line class="grid" x1="120" y1="722.0" x2="970" y2="722.0"/>
<text class="tick" x="62" y="727.0">0.94</text>
<line class="grid" x1="120" y1="680.0" x2="970" y2="680.0"/>
<text class="tick" x="62" y="685.0">0.98</text>
<text class="tick" x="120" y="918">epoch 1</text>
<text class="tick" x="904" y="918">epoch 8</text>
<polyline points="120.0,734.7 241.4,786.7 362.9,792.3 484.3,791.8 605.7,785.1 727.1,791.6 848.6,785.6 970.0,786.3" fill="none" stroke="#2563eb" stroke-width="3"/>
<circle cx="120.0" cy="734.7" r="4" fill="#2563eb" stroke="white" stroke-width="1.5"/>
<circle cx="241.4" cy="786.7" r="4" fill="#2563eb" stroke="white" stroke-width="1.5"/>
<circle cx="362.9" cy="792.3" r="4" fill="#2563eb" stroke="white" stroke-width="1.5"/>
<circle cx="484.3" cy="791.8" r="4" fill="#2563eb" stroke="white" stroke-width="1.5"/>
<circle cx="605.7" cy="785.1" r="4" fill="#2563eb" stroke="white" stroke-width="1.5"/>
<circle cx="727.1" cy="791.6" r="4" fill="#2563eb" stroke="white" stroke-width="1.5"/>
<circle cx="848.6" cy="785.6" r="4" fill="#2563eb" stroke="white" stroke-width="1.5"/>
<circle cx="970.0" cy="786.3" r="4" fill="#2563eb" stroke="white" stroke-width="1.5"/>
<polyline points="120.0,764.0 241.4,765.3 362.9,722.6 484.3,731.7 605.7,747.4 727.1,804.7 848.6,726.8 970.0,744.5" fill="none" stroke="#dc2626" stroke-width="3"/>
<circle cx="120.0" cy="764.0" r="4" fill="#dc2626" stroke="white" stroke-width="1.5"/>
<circle cx="241.4" cy="765.3" r="4" fill="#dc2626" stroke="white" stroke-width="1.5"/>
<circle cx="362.9" cy="722.6" r="4" fill="#dc2626" stroke="white" stroke-width="1.5"/>
<circle cx="484.3" cy="731.7" r="4" fill="#dc2626" stroke="white" stroke-width="1.5"/>
<circle cx="605.7" cy="747.4" r="4" fill="#dc2626" stroke="white" stroke-width="1.5"/>
<circle cx="727.1" cy="804.7" r="4" fill="#dc2626" stroke="white" stroke-width="1.5"/>
<circle cx="848.6" cy="726.8" r="4" fill="#dc2626" stroke="white" stroke-width="1.5"/>
<circle cx="970.0" cy="744.5" r="4" fill="#dc2626" stroke="white" stroke-width="1.5"/>
</svg>