<svg xmlns="http://www.w3.org/2000/svg" width="760" height="590" viewBox="0 0 760 590">
<rect width="100%" height="100%" fill="#ffffff"/>
<style>text{font-family:Arial,sans-serif;fill:#111827}.title{font-size:26px;font-weight:700}.subtitle{font-size:16px;fill:#4b5563}.section{font-size:20px;font-weight:700}.panel-title{font-size:19px;font-weight:700}.tick{font-size:13px;fill:#4b5563}.label{font-size:15px}.label-strong{font-size:18px;font-weight:700}.value{font-size:15px;font-weight:700}.metric{font-size:28px;font-weight:700}.metric-label{font-size:14px;fill:#4b5563}.note{font-size:18px;font-weight:700;fill:#991b1b}.grid{stroke:#e5e7eb;stroke-width:1}.axis{stroke:#d1d5db;stroke-width:1}</style>
<text class="title" x="88" y="40">Precision-Recall Curve</text>
<line class="grid" x1="88.0" y1="70" x2="88.0" y2="480"/>
<line class="grid" x1="88" y1="480.0" x2="668" y2="480.0"/>
<text class="tick" x="78.0" y="506">0.0</text>
<text class="tick" x="43" y="485.0">0.0</text>
<line class="grid" x1="204.0" y1="70" x2="204.0" y2="480"/>
<line class="grid" x1="88" y1="398.0" x2="668" y2="398.0"/>
<text class="tick" x="194.0" y="506">0.2</text>
<text class="tick" x="43" y="403.0">0.2</text>
<line class="grid" x1="320.0" y1="70" x2="320.0" y2="480"/>
<line class="grid" x1="88" y1="316.0" x2="668" y2="316.0"/>
<text class="tick" x="310.0" y="506">0.4</text>
<text class="tick" x="43" y="321.0">0.4</text>
<line class="grid" x1="436.0" y1="70" x2="436.0" y2="480"/>
<line class="grid" x1="88" y1="234.0" x2="668" y2="234.0"/>
<text class="tick" x="426.0" y="506">0.6</text>
<text class="tick" x="43" y="239.0">0.6</text>
<line class="grid" x1="552.0" y1="70" x2="552.0" y2="480"/>
<line class="grid" x1="88" y1="152.0" x2="668" y2="152.0"/>
<text class="tick" x="542.0" y="506">0.8</text>
<text class="tick" x="43" y="157.0">0.8</text>
<line class="grid" x1="668.0" y1="70" x2="668.0" y2="480"/>
<line class="grid" x1="88" y1="70.0" x2="668" y2="70.0"/>
<text class="tick" x="658.0" y="506">1.0</text>
<text class="tick" x="43" y="75.0">1.0</text>
<line class="axis" x1="88" y1="480" x2="668" y2="480"/>
<line class="axis" x1="88" y1="70" x2="88" y2="480"/>
<polyline fill="none" stroke="#dc2626" stroke-width="3" points="88.0,480.0 93.0,275.0 93.0,343.3 93.0,377.5 97.9,316.0 97.9,343.3 102.9,304.3 102.9,326.2 102.9,343.3 102.9,357.0 102.9,368.2 107.8,343.3 107.8,353.8 107.8,362.9 107.8,370.7 112.8,351.9 112.8,359.4 112.8,366.1 112.8,372.1 117.7,357.0 117.7,362.9 117.7,368.2 122.7,355.2 122.7,360.4 127.7,348.8 127.7,353.8 127.7,358.5 127.7,362.9 127.7,366.9 127.7,370.7 127.7,374.2 127.7,377.5 127.7,380.6 127.7,383.5 127.7,386.3 127.7,388.9 127.7,391.4 127.7,393.7 132.6,385.4 132.6,387.8 132.6,390.0 132.6,392.1 137.6,384.7 137.6,386.8 137.6,388.9 137.6,390.9 137.6,392.8 137.6,394.6 142.5,388.0 142.5,389.8 142.5,391.6 147.5,385.4 152.4,379.4 157.4,373.7 162.4,368.2 162.4,370.2 162.4,372.1 162.4,374.0 162.4,375.8 162.4,377.5 162.4,379.2 162.4,380.8 162.4,382.4 167.3,377.5 167.3,379.1 167.3,380.6 167.3,382.1 172.3,377.5 172.3,379.0 177.2,374.6 177.2,376.1 177.2,377.5 177.2,378.9 177.2,380.3 177.2,381.6 182.2,377.5 182.2,378.8 182.2,380.1 182.2,381.4 182.2,382.6 187.1,378.8 187.1,380.0 187.1,381.2 187.1,382.4 187.1,383.5 187.1,384.7 187.1,385.7 187.1,386.8 187.1,387.9 192.1,384.3 192.1,385.4 192.1,386.4 197.1,383.0 202.0,379.7 202.0,380.7 207.0,377.5 207.0,378.6 207.0,379.6 211.9,376.5 216.9,373.4 216.9,374.5 216.9,375.5 216.9,376.5 216.9,377.5 216.9,378.5 216.9,379.4 216.9,380.4 216.9,381.3 216.9,382.2 216.9,383.1 216.9,384.0 221.8,381.2 221.8,382.0 221.8,382.9 221.8,383.7 221.8,384.6 221.8,385.4 221.8,386.2 226.8,383.5 226.8,384.3 226.8,385.1 226.8,385.9 226.8,386.7 226.8,387.4 226.8,388.2 226.8,388.9 226.8,389.6 231.8,387.1 236.7,384.7 241.7,382.2 246.6,379.8 251.6,377.5 251.6,378.3 256.5,376.0 256.5,376.7 256.5,377.5 256.5,378.2 261.5,376.0 261.5,376.8 261.5,377.5 261.5,378.2 261.5,378.9 261.5,379.7 261.5,380.3 266.5,378.2 266.5,378.9 266.5,379.6 266.5,380.3 266.5,380.9 271.4,378.9 271.4,379.5 271.4,380.2 271.4,380.8 271.4,381.5 271.4,382.1 271.4,382.8 271.4,383.4 271.4,384.0 271.4,384.6 271.4,385.2 271.4,385.8 271.4,386.4 271.4,386.9 271.4,387.5 271.4,388.1 271.4,388.6 271.4,389.2 271.4,389.7 271.4,390.2 271.4,390.8 271.4,391.3 276.4,389.4 281.3,387.6 281.3,388.1 281.3,388.6 281.3,389.1 281.3,389.7 281.3,390.2 281.3,390.7 281.3,391.2 281.3,391.7 281.3,392.1 281.3,392.6 281.3,393.1 281.3,393.6 281.3,394.0 286.3,392.3 286.3,392.8 286.3,393.2 286.3,393.7 291.2,392.0 291.2,392.4 291.2,392.9 291.2,393.4 291.2,393.8 291.2,394.2 291.2,394.7 291.2,395.1 291.2,395.5 291.2,395.9 291.2,396.4 291.2,396.8 291.2,397.2 291.2,397.6 291.2,398.0 296.2,396.4 296.2,396.8 301.2,395.2 301.2,395.6 301.2,396.0 301.2,396.4 301.2,396.8 301.2,397.2 301.2,397.6 301.2,398.0 306.1,396.5 306.1,396.9 306.1,397.2 306.1,397.6 306.1,398.0 306.1,398.4 306.1,398.7 306.1,399.1 306.1,399.5 306.1,399.8 306.1,400.2 306.1,400.5 306.1,400.9 306.1,401.2 306.1,401.6 306.1,401.9 306.1,402.2 306.1,402.6 306.1,402.9 306.1,403.2 306.1,403.6 311.1,402.2 311.1,402.5 311.1,402.8 311.1,403.1 311.1,403.4 311.1,403.8 311.1,404.1 311.1,404.4 311.1,404.7 311.1,405.0 311.1,405.3 311.1,405.6 311.1,405.9 311.1,406.2 311.1,406.5 311.1,406.8 311.1,407.1 311.1,407.4 311.1,407.6 311.1,407.9 311.1,408.2 311.1,408.5 311.1,408.8 311.1,409.0 316.0,407.7 316.0,408.0 316.0,408.3 316.0,408.6 316.0,408.8 316.0,409.1 316.0,409.4 316.0,409.6 316.0,409.9 316.0,410.1 316.0,410.4 316.0,410.7 316.0,410.9 316.0,411.2 321.0,409.9 321.0,410.2 321.0,410.4 321.0,410.7 321.0,410.9 321.0,411.2 321.0,411.4 321.0,411.7 325.9,410.5 325.9,410.7 325.9,410.9 325.9,411.2 325.9,411.4 325.9,411.7 325.9,411.9 325.9,412.1 325.9,412.4 325.9,412.6 325.9,412.8 325.9,413.1 325.9,413.3 325.9,413.5 325.9,413.7 325.9,414.0 325.9,414.2 325.9,414.4 330.9,413.3 330.9,413.5 330.9,413.7 330.9,413.9 330.9,414.1 330.9,414.3 330.9,414.6 330.9,414.8 330.9,415.0 330.9,415.2 330.9,415.4 330.9,415.6 330.9,415.8 330.9,416.0 330.9,416.2 330.9,416.4 330.9,416.6 330.9,416.8 330.9,417.0 330.9,417.2 330.9,417.4 330.9,417.6 330.9,417.8 330.9,418.0 330.9,418.2 330.9,418.4 330.9,418.6 330.9,418.8 330.9,418.9 330.9,419.1 330.9,419.3 330.9,419.5 330.9,419.7 330.9,419.9 330.9,420.0 330.9,420.2 330.9,420.4 330.9,420.6 330.9,420.7 330.9,420.9 330.9,421.1 330.9,421.3 330.9,421.4 330.9,421.6 330.9,421.8 330.9,421.9 330.9,422.1 330.9,422.3 330.9,422.4 330.9,422.6 330.9,422.8 330.9,422.9 330.9,423.1 330.9,423.2 335.9,422.3 335.9,422.4 340.8,421.4 340.8,421.6 340.8,421.8 340.8,421.9 340.8,422.1 340.8,422.2 340.8,422.4 340.8,422.6 340.8,422.7 340.8,422.9 345.8,421.9 345.8,422.1 345.8,422.2 345.8,422.4 345.8,422.5 345.8,422.7 345.8,422.8 345.8,423.0 345.8,423.1 345.8,423.3 345.8,423.4 345.8,423.6 345.8,423.7 345.8,423.9 345.8,424.0 345.8,424.2 350.7,423.3 350.7,423.4 350.7,423.6 350.7,423.7 350.7,423.9 350.7,424.0 350.7,424.1 350.7,424.3 350.7,424.4 350.7,424.6 350.7,424.7 350.7,424.8 350.7,425.0 350.7,425.1 350.7,425.3 350.7,425.4 350.7,425.5 350.7,425.7 350.7,425.8 350.7,425.9 350.7,426.1 350.7,426.2 350.7,426.3 350.7,426.5 350.7,426.6 350.7,426.7 350.7,426.9 350.7,427.0 350.7,427.1 350.7,427.3 350.7,427.4 350.7,427.5 350.7,427.6 350.7,427.8 355.7,426.9 355.7,427.0 355.7,427.2 355.7,427.3 355.7,427.4 355.7,427.5 355.7,427.7 355.7,427.8 355.7,427.9 355.7,428.0 355.7,428.1 355.7,428.3 355.7,428.4 355.7,428.5 355.7,428.6 355.7,428.8 355.7,428.9 360.6,428.0 360.6,428.2 360.6,428.3 360.6,428.4 360.6,428.5 360.6,428.6 360.6,428.8 360.6,428.9 360.6,429.0 360.6,429.1 360.6,429.2 360.6,429.3 360.6,429.4 360.6,429.6 360.6,429.7 360.6,429.8 360.6,429.9 360.6,430.0 360.6,430.1 360.6,430.2 360.6,430.3 360.6,430.4 360.6,430.5 360.6,430.7 360.6,430.8 360.6,430.9 360.6,431.0 360.6,431.1 360.6,431.2 360.6,431.3 360.6,431.4 360.6,431.5 365.6,430.7 365.6,430.8 365.6,430.9 365.6,431.0 365.6,431.1 365.6,431.3 370.6,430.5 370.6,430.6 370.6,430.7 370.6,430.8 370.6,430.9 370.6,431.0 375.5,430.3 375.5,430.4 375.5,430.5 375.5,430.6 375.5,430.7 375.5,430.8 375.5,430.9 375.5,431.0 375.5,431.1 375.5,431.2 375.5,431.3 375.5,431.4 375.5,431.5 375.5,431.6 375.5,431.7 375.5,431.8 375.5,431.9 375.5,432.0 375.5,432.1 375.5,432.2 375.5,432.2 375.5,432.3 375.5,432.4 375.5,432.5 375.5,432.6 375.5,432.7 375.5,432.8 380.5,432.1 380.5,432.2 380.5,432.3 380.5,432.4 380.5,432.5 380.5,432.6 380.5,432.7 380.5,432.8 380.5,432.8 380.5,432.9 380.5,433.0 385.4,432.3 385.4,432.4 385.4,432.5 385.4,432.6 385.4,432.7 385.4,432.8 385.4,432.9 385.4,433.0 385.4,433.1 385.4,433.1 385.4,433.2 385.4,433.3 385.4,433.4 385.4,433.5 385.4,433.6 385.4,433.7 385.4,433.8 390.4,433.1 390.4,433.2 390.4,433.3 390.4,433.3 390.4,433.4 395.4,432.8 400.3,432.1 400.3,432.2 400.3,432.3 400.3,432.3 400.3,432.4 400.3,432.5 400.3,432.6 400.3,432.7 400.3,432.8 400.3,432.9 400.3,433.0 400.3,433.0 400.3,433.1 400.3,433.2 400.3,433.3 400.3,433.4 400.3,433.5 400.3,433.5 400.3,433.6 400.3,433.7 400.3,433.8 400.3,433.9 400.3,434.0 400.3,434.0 400.3,434.1 405.3,433.5 405.3,433.6 405.3,433.6 405.3,433.7 405.3,433.8 405.3,433.9 405.3,434.0 405.3,434.0 405.3,434.1 405.3,434.2 405.3,434.3 405.3,434.4 405.3,434.4 405.3,434.5 405.3,434.6 405.3,434.7 405.3,434.8 405.3,434.8 405.3,434.9 405.3,435.0 405.3,435.1 405.3,435.1 405.3,435.2 405.3,435.3 405.3,435.4 405.3,435.4 405.3,435.5 405.3,435.6 405.3,435.7 405.3,435.8 405.3,435.8 405.3,435.9 405.3,436.0 405.3,436.0 405.3,436.1 405.3,436.2 405.3,436.3 405.3,436.3 405.3,436.4 405.3,436.5 405.3,436.6 405.3,436.6 405.3,436.7 405.3,436.8 405.3,436.8 405.3,436.9 405.3,437.0 405.3,437.1 405.3,437.1 405.3,437.2 405.3,437.3 405.3,437.3 405.3,437.4 405.3,437.5 405.3,437.5 405.3,437.6 405.3,437.7 405.3,437.7 405.3,437.8 405.3,437.9 405.3,437.9 405.3,438.0 410.2,437.4 410.2,437.5 410.2,437.6 410.2,437.6 410.2,437.7 410.2,437.8 410.2,437.8 410.2,437.9 410.2,438.0 410.2,438.0 410.2,438.1 410.2,438.2 410.2,438.2 410.2,438.3 410.2,438.4 410.2,438.4 410.2,438.5 410.2,438.6 410.2,438.6 410.2,438.7 410.2,438.7 410.2,438.8 410.2,438.9 410.2,438.9 410.2,439.0 410.2,439.1 410.2,439.1 410.2,439.2 410.2,439.3 410.2,439.3 410.2,439.4 410.2,439.4 410.2,439.5 410.2,439.6 410.2,439.6 410.2,439.7 410.2,439.7 410.2,439.8 410.2,439.9 410.2,439.9 410.2,440.0 410.2,440.0 410.2,440.1 410.2,440.2 410.2,440.2 410.2,440.3 410.2,440.3 410.2,440.4 410.2,440.5 415.2,439.9 415.2,440.0 415.2,440.0 415.2,440.1 415.2,440.1 415.2,440.2 415.2,440.3 415.2,440.3 415.2,440.4 415.2,440.4 415.2,440.5 415.2,440.6 415.2,440.6 415.2,440.7 415.2,440.7 415.2,440.8 415.2,440.8 415.2,440.9 415.2,441.0 415.2,441.0 415.2,441.1 415.2,441.1 415.2,441.2 415.2,441.2 415.2,441.3 415.2,441.3 415.2,441.4 415.2,441.5 415.2,441.5 415.2,441.6 415.2,441.6 415.2,441.7 415.2,441.7 415.2,441.8 415.2,441.8 415.2,441.9 415.2,441.9 415.2,442.0 415.2,442.0 415.2,442.1 415.2,442.2 415.2,442.2 415.2,442.3 415.2,442.3 415.2,442.4 415.2,442.4 415.2,442.5 415.2,442.5 415.2,442.6 415.2,442.6 415.2,442.7 415.2,442.7 415.2,442.8 415.2,442.8 415.2,442.9 415.2,442.9 415.2,443.0 415.2,443.0 415.2,443.1 415.2,443.1 420.1,442.6 420.1,442.7 420.1,442.7 420.1,442.8 425.1,442.3 425.1,442.3 425.1,442.4 425.1,442.4 425.1,442.5 425.1,442.5 425.1,442.6 425.1,442.6 425.1,442.7 425.1,442.7 425.1,442.8 430.1,442.3 430.1,442.3 430.1,442.4 430.1,442.4 430.1,442.5 430.1,442.5 430.1,442.6 430.1,442.6 430.1,442.7 430.1,442.7 430.1,442.8 430.1,442.8 430.1,442.9 430.1,442.9 430.1,443.0 435.0,442.5 435.0,442.5 435.0,442.6 435.0,442.6 435.0,442.7 435.0,442.7 435.0,442.8 435.0,442.8 435.0,442.9 435.0,442.9 435.0,443.0 435.0,443.0 435.0,443.1 435.0,443.1 435.0,443.2 440.0,442.7 440.0,442.7 444.9,442.3 444.9,442.3 444.9,442.3 444.9,442.4 444.9,442.4 444.9,442.5 444.9,442.5 444.9,442.6 444.9,442.6 444.9,442.7 444.9,442.7 444.9,442.8 444.9,442.8 444.9,442.9 449.9,442.4 449.9,442.4 449.9,442.5 449.9,442.5 449.9,442.6 449.9,442.6 449.9,442.7 449.9,442.7 449.9,442.8 449.9,442.8 449.9,442.9 449.9,442.9 449.9,443.0 449.9,443.0 454.8,442.5 454.8,442.6 454.8,442.6 454.8,442.7 454.8,442.7 454.8,442.8 454.8,442.8 459.8,442.4 459.8,442.4 459.8,442.5 459.8,442.5 459.8,442.5 459.8,442.6 459.8,442.6 459.8,442.7 459.8,442.7 459.8,442.8 459.8,442.8 459.8,442.9 459.8,442.9 459.8,443.0 459.8,443.0 459.8,443.0 459.8,443.1 459.8,443.1 459.8,443.2 459.8,443.2 459.8,443.3 459.8,443.3 459.8,443.3 459.8,443.4 459.8,443.4 459.8,443.5 459.8,443.5 459.8,443.6 459.8,443.6 459.8,443.7 459.8,443.7 459.8,443.7 459.8,443.8 459.8,443.8 459.8,443.9 459.8,443.9 459.8,444.0 459.8,444.0 459.8,444.0 459.8,444.1 459.8,444.1 459.8,444.2 459.8,444.2 459.8,444.2 459.8,444.3 459.8,444.3 459.8,444.4 464.8,443.9 464.8,444.0 464.8,444.0 464.8,444.1 464.8,444.1 464.8,444.1 464.8,444.2 464.8,444.2 464.8,444.3 464.8,444.3 464.8,444.3 464.8,444.4 464.8,444.4 464.8,444.5 464.8,444.5 464.8,444.6 464.8,444.6 464.8,444.6 464.8,444.7 469.7,444.2 469.7,444.3 469.7,444.3 469.7,444.4 469.7,444.4 469.7,444.4 469.7,444.5 469.7,444.5 469.7,444.6 469.7,444.6 469.7,444.6 469.7,444.7 469.7,444.7 469.7,444.8 469.7,444.8 469.7,444.8 469.7,444.9 469.7,444.9 469.7,445.0 469.7,445.0 469.7,445.0 469.7,445.1 469.7,445.1 469.7,445.2 469.7,445.2 469.7,445.2 469.7,445.3 469.7,445.3 469.7,445.3 469.7,445.4 469.7,445.4 469.7,445.5 469.7,445.5 469.7,445.5 469.7,445.6 469.7,445.6 469.7,445.6 469.7,445.7 469.7,445.7 469.7,445.8 469.7,445.8 469.7,445.8 469.7,445.9 469.7,445.9 469.7,445.9 469.7,446.0 469.7,446.0 469.7,446.1 469.7,446.1 469.7,446.1 469.7,446.2 469.7,446.2 469.7,446.2 469.7,446.3 469.7,446.3 469.7,446.3 469.7,446.4 469.7,446.4 469.7,446.5 474.7,446.1 474.7,446.1 474.7,446.1 474.7,446.2 474.7,446.2 474.7,446.2 474.7,446.3 474.7,446.3 474.7,446.3 474.7,446.4 474.7,446.4 474.7,446.4 474.7,446.5 474.7,446.5 474.7,446.5 474.7,446.6 474.7,446.6 474.7,446.7 474.7,446.7 474.7,446.7 474.7,446.8 474.7,446.8 474.7,446.8 474.7,446.9 474.7,446.9 474.7,446.9 474.7,447.0 474.7,447.0 474.7,447.0 474.7,447.1 474.7,447.1 474.7,447.1 474.7,447.2 474.7,447.2 474.7,447.2 474.7,447.3 474.7,447.3 474.7,447.3 474.7,447.4 474.7,447.4 474.7,447.4 474.7,447.5 474.7,447.5 474.7,447.5 474.7,447.6 474.7,447.6 474.7,447.6 474.7,447.7 474.7,447.7 474.7,447.7 479.6,447.3 479.6,447.4 479.6,447.4 479.6,447.4 479.6,447.5 479.6,447.5 484.6,447.1 484.6,447.2 484.6,447.2 484.6,447.2 484.6,447.3 484.6,447.3 484.6,447.3 484.6,447.4 484.6,447.4 484.6,447.4 484.6,447.5 484.6,447.5 484.6,447.5 484.6,447.6 484.6,447.6 484.6,447.6 484.6,447.7 484.6,447.7 484.6,447.7 484.6,447.7 484.6,447.8 484.6,447.8 484.6,447.8 484.6,447.9 484.6,447.9 484.6,447.9 484.6,448.0 484.6,448.0 484.6,448.0 484.6,448.1 484.6,448.1 484.6,448.1 484.6,448.2 484.6,448.2 484.6,448.2 484.6,448.2 484.6,448.3 484.6,448.3 484.6,448.3 484.6,448.4 484.6,448.4 484.6,448.4 484.6,448.5 484.6,448.5 484.6,448.5 484.6,448.6 484.6,448.6 489.5,448.2 489.5,448.3 489.5,448.3 489.5,448.3 489.5,448.3 489.5,448.4 489.5,448.4 489.5,448.4 489.5,448.5 489.5,448.5 489.5,448.5 489.5,448.6 489.5,448.6 489.5,448.6 494.5,448.3 494.5,448.3 494.5,448.3 494.5,448.3 494.5,448.4 494.5,448.4 494.5,448.4 494.5,448.5 494.5,448.5 494.5,448.5 494.5,448.6 494.5,448.6 494.5,448.6 494.5,448.6 494.5,448.7 494.5,448.7 499.5,448.3 499.5,448.4 499.5,448.4 499.5,448.4 499.5,448.5 499.5,448.5 499.5,448.5 499.5,448.5 499.5,448.6 499.5,448.6 499.5,448.6 499.5,448.7 499.5,448.7 499.5,448.7 499.5,448.8 499.5,448.8 499.5,448.8 499.5,448.8 499.5,448.9 499.5,448.9 499.5,448.9 499.5,449.0 499.5,449.0 499.5,449.0 499.5,449.0 499.5,449.1 499.5,449.1 499.5,449.1 499.5,449.1 499.5,449.2 499.5,449.2 504.4,448.9 504.4,448.9 504.4,448.9 504.4,448.9 504.4,449.0 504.4,449.0 504.4,449.0 504.4,449.1 504.4,449.1 504.4,449.1 504.4,449.1 504.4,449.2 504.4,449.2 504.4,449.2 504.4,449.2 504.4,449.3 504.4,449.3 504.4,449.3 509.4,449.0 509.4,449.0 509.4,449.0 509.4,449.1 509.4,449.1 509.4,449.1 509.4,449.2 509.4,449.2 509.4,449.2 514.3,448.9 514.3,448.9 514.3,448.9 514.3,449.0 514.3,449.0 514.3,449.0 514.3,449.0 514.3,449.1 514.3,449.1 514.3,449.1 514.3,449.2 519.3,448.8 519.3,448.8 519.3,448.9 519.3,448.9 519.3,448.9 519.3,449.0 519.3,449.0 519.3,449.0 519.3,449.0 519.3,449.1 519.3,449.1 519.3,449.1 519.3,449.1 519.3,449.2 524.2,448.8 524.2,448.9 524.2,448.9 524.2,448.9 524.2,449.0 524.2,449.0 524.2,449.0 524.2,449.0 524.2,449.1 524.2,449.1 524.2,449.1 524.2,449.1 524.2,449.2 524.2,449.2 524.2,449.2 529.2,448.9 529.2,448.9 529.2,448.9 529.2,449.0 529.2,449.0 529.2,449.0 529.2,449.1 529.2,449.1 529.2,449.1 529.2,449.1 529.2,449.2 529.2,449.2 529.2,449.2 529.2,449.2 529.2,449.3 529.2,449.3 529.2,449.3 529.2,449.3 529.2,449.4 529.2,449.4 534.2,449.1 534.2,449.1 534.2,449.1 534.2,449.1 534.2,449.2 534.2,449.2 534.2,449.2 534.2,449.2 534.2,449.3 534.2,449.3 534.2,449.3 534.2,449.4 534.2,449.4 534.2,449.4 534.2,449.4 534.2,449.5 534.2,449.5 534.2,449.5 534.2,449.5 534.2,449.6 534.2,449.6 534.2,449.6 534.2,449.6 534.2,449.7 534.2,449.7 534.2,449.7 534.2,449.7 534.2,449.8 534.2,449.8 534.2,449.8 534.2,449.8 534.2,449.9 534.2,449.9 534.2,449.9 534.2,449.9 534.2,450.0 534.2,450.0 534.2,450.0 534.2,450.0 534.2,450.0 534.2,450.1 534.2,450.1 534.2,450.1 534.2,450.1 534.2,450.2 534.2,450.2 534.2,450.2 534.2,450.2 534.2,450.3 534.2,450.3 534.2,450.3 534.2,450.3 534.2,450.4 534.2,450.4 534.2,450.4 534.2,450.4 534.2,450.5 534.2,450.5 534.2,450.5 534.2,450.5 534.2,450.6 534.2,450.6 534.2,450.6 534.2,450.6 534.2,450.6 534.2,450.7 534.2,450.7 534.2,450.7 534.2,450.7 534.2,450.8 534.2,450.8 534.2,450.8 534.2,450.8 534.2,450.9 534.2,450.9 534.2,450.9 534.2,450.9 534.2,450.9 534.2,451.0 534.2,451.0 534.2,451.0 534.2,451.0 534.2,451.1 534.2,451.1 534.2,451.1 534.2,451.1 534.2,451.1 534.2,451.2 534.2,451.2 534.2,451.2 534.2,451.2 534.2,451.3 534.2,451.3 539.1,451.0 539.1,451.0 539.1,451.0 539.1,451.1 539.1,451.1 539.1,451.1 539.1,451.1 539.1,451.1 539.1,451.2 539.1,451.2 539.1,451.2 539.1,451.2 539.1,451.3 539.1,451.3 539.1,451.3 539.1,451.3 539.1,451.3 539.1,451.4 539.1,451.4 539.1,451.4 539.1,451.4 539.1,451.5 539.1,451.5 539.1,451.5 539.1,451.5 539.1,451.5 539.1,451.6 539.1,451.6 539.1,451.6 539.1,451.6 539.1,451.6 539.1,451.7 539.1,451.7 539.1,451.7 539.1,451.7 539.1,451.8 539.1,451.8 539.1,451.8 539.1,451.8 539.1,451.8 539.1,451.9 539.1,451.9 539.1,451.9 539.1,451.9 539.1,451.9 539.1,452.0 539.1,452.0 539.1,452.0 539.1,452.0 539.1,452.1 539.1,452.1 539.1,452.1 539.1,452.1 539.1,452.1 539.1,452.2 539.1,452.2 539.1,452.2 539.1,452.2 539.1,452.2 539.1,452.3 539.1,452.3 539.1,452.3 539.1,452.3 539.1,452.3 539.1,452.4 539.1,452.4 539.1,452.4 539.1,452.4 539.1,452.4 539.1,452.5 539.1,452.5 539.1,452.5 539.1,452.5 539.1,452.5 539.1,452.6 539.1,452.6 544.1,452.3 544.1,452.3 544.1,452.3 544.1,452.4 544.1,452.4 544.1,452.4 544.1,452.4 544.1,452.4 544.1,452.5 544.1,452.5 549.0,452.2 549.0,452.2 549.0,452.2 549.0,452.3 549.0,452.3 549.0,452.3 549.0,452.3 549.0,452.3 549.0,452.4 549.0,452.4 549.0,452.4 549.0,452.4 549.0,452.4 549.0,452.5 549.0,452.5 549.0,452.5 549.0,452.5 549.0,452.5 549.0,452.6 549.0,452.6 549.0,452.6 549.0,452.6 549.0,452.6 549.0,452.7 549.0,452.7 549.0,452.7 549.0,452.7 554.0,452.5 554.0,452.5 554.0,452.5 554.0,452.5 554.0,452.5 554.0,452.5 554.0,452.6 554.0,452.6 554.0,452.6 554.0,452.6 554.0,452.6 554.0,452.7 554.0,452.7 554.0,452.7 554.0,452.7 554.0,452.7 554.0,452.8 554.0,452.8 554.0,452.8 554.0,452.8 554.0,452.8 554.0,452.9 554.0,452.9 554.0,452.9 554.0,452.9 554.0,452.9 554.0,453.0 554.0,453.0 554.0,453.0 554.0,453.0 554.0,453.0 554.0,453.0 554.0,453.1 554.0,453.1 554.0,453.1 554.0,453.1 554.0,453.1 554.0,453.2 554.0,453.2 554.0,453.2 554.0,453.2 554.0,453.2 554.0,453.3 554.0,453.3 554.0,453.3 554.0,453.3 554.0,453.3 554.0,453.3 554.0,453.4 554.0,453.4 554.0,453.4 554.0,453.4 558.9,453.2 558.9,453.2 558.9,453.2 558.9,453.2 558.9,453.2 558.9,453.2 558.9,453.3 558.9,453.3 558.9,453.3 558.9,453.3 558.9,453.3 558.9,453.4 558.9,453.4 558.9,453.4 558.9,453.4 558.9,453.4 558.9,453.4 558.9,453.5 558.9,453.5 558.9,453.5 558.9,453.5 558.9,453.5 558.9,453.6 558.9,453.6 558.9,453.6 558.9,453.6 558.9,453.6 558.9,453.6 558.9,453.7 558.9,453.7 558.9,453.7 558.9,453.7 558.9,453.7 558.9,453.8 558.9,453.8 558.9,453.8 558.9,453.8 558.9,453.8 558.9,453.8 558.9,453.9 558.9,453.9 558.9,453.9 558.9,453.9 558.9,453.9 558.9,453.9 558.9,454.0 558.9,454.0 558.9,454.0 558.9,454.0 563.9,453.8 563.9,453.8 563.9,453.8 563.9,453.8 563.9,453.8 563.9,453.8 563.9,453.9 563.9,453.9 563.9,453.9 563.9,453.9 563.9,453.9 563.9,454.0 563.9,454.0 563.9,454.0 563.9,454.0 563.9,454.0 563.9,454.0 563.9,454.1 563.9,454.1 563.9,454.1 563.9,454.1 563.9,454.1 563.9,454.1 563.9,454.2 563.9,454.2 563.9,454.2 563.9,454.2 563.9,454.2 568.9,454.0 568.9,454.0 568.9,454.0 568.9,454.0 568.9,454.0 568.9,454.1 568.9,454.1 568.9,454.1 568.9,454.1 568.9,454.1 568.9,454.1 568.9,454.2 568.9,454.2 568.9,454.2 568.9,454.2 568.9,454.2 568.9,454.2 568.9,454.3 568.9,454.3 568.9,454.3 568.9,454.3 568.9,454.3 568.9,454.3 568.9,454.4 568.9,454.4 568.9,454.4 568.9,454.4 568.9,454.4 568.9,454.4 568.9,454.5 568.9,454.5 568.9,454.5 568.9,454.5 568.9,454.5 568.9,454.5 568.9,454.6 573.8,454.3 573.8,454.3 573.8,454.3 573.8,454.4 573.8,454.4 573.8,454.4 573.8,454.4 573.8,454.4 573.8,454.4 573.8,454.5 573.8,454.5 573.8,454.5 573.8,454.5 573.8,454.5 573.8,454.5 573.8,454.6 573.8,454.6 573.8,454.6 573.8,454.6 573.8,454.6 573.8,454.6 573.8,454.6 573.8,454.7 573.8,454.7 573.8,454.7 573.8,454.7 573.8,454.7 573.8,454.7 573.8,454.8 573.8,454.8 573.8,454.8 573.8,454.8 573.8,454.8 573.8,454.8 573.8,454.9 573.8,454.9 573.8,454.9 573.8,454.9 573.8,454.9 573.8,454.9 573.8,455.0 573.8,455.0 573.8,455.0 573.8,455.0 573.8,455.0 573.8,455.0 573.8,455.0 573.8,455.1 578.8,454.8 578.8,454.8 578.8,454.9 578.8,454.9 578.8,454.9 578.8,454.9 578.8,454.9 578.8,454.9 578.8,454.9 578.8,455.0 578.8,455.0 578.8,455.0 578.8,455.0 578.8,455.0 578.8,455.0 578.8,455.1 578.8,455.1 578.8,455.1 578.8,455.1 578.8,455.1 578.8,455.1 578.8,455.1 578.8,455.2 578.8,455.2 578.8,455.2 578.8,455.2 578.8,455.2 578.8,455.2 578.8,455.2 578.8,455.3 578.8,455.3 578.8,455.3 578.8,455.3 578.8,455.3 578.8,455.3 578.8,455.4 578.8,455.4 578.8,455.4 578.8,455.4 578.8,455.4 578.8,455.4 578.8,455.4 578.8,455.5 578.8,455.5 578.8,455.5 578.8,455.5 578.8,455.5 578.8,455.5 578.8,455.5 578.8,455.6 578.8,455.6 578.8,455.6 578.8,455.6 578.8,455.6 578.8,455.6 578.8,455.7 578.8,455.7 578.8,455.7 578.8,455.7 578.8,455.7 578.8,455.7 578.8,455.7 578.8,455.8 578.8,455.8 578.8,455.8 578.8,455.8 578.8,455.8 578.8,455.8 578.8,455.8 578.8,455.9 578.8,455.9 578.8,455.9 578.8,455.9 578.8,455.9 578.8,455.9 578.8,455.9 578.8,456.0 578.8,456.0 578.8,456.0 578.8,456.0 578.8,456.0 578.8,456.0 578.8,456.0 578.8,456.1 578.8,456.1 578.8,456.1 578.8,456.1 578.8,456.1 578.8,456.1 578.8,456.1 578.8,456.2 578.8,456.2 578.8,456.2 578.8,456.2 578.8,456.2 578.8,456.2 578.8,456.2 578.8,456.2 578.8,456.3 578.8,456.3 578.8,456.3 578.8,456.3 578.8,456.3 578.8,456.3 578.8,456.3 578.8,456.4 578.8,456.4 578.8,456.4 578.8,456.4 578.8,456.4 578.8,456.4 578.8,456.4 578.8,456.5 578.8,456.5 578.8,456.5 578.8,456.5 578.8,456.5 578.8,456.5 578.8,456.5 578.8,456.6 578.8,456.6 578.8,456.6 578.8,456.6 578.8,456.6 578.8,456.6 578.8,456.6 578.8,456.6 578.8,456.7 578.8,456.7 578.8,456.7 578.8,456.7 578.8,456.7 578.8,456.7 578.8,456.7 578.8,456.8 578.8,456.8 578.8,456.8 578.8,456.8 578.8,456.8 578.8,456.8 578.8,456.8 578.8,456.8 578.8,456.9 578.8,456.9 578.8,456.9 578.8,456.9 578.8,456.9 578.8,456.9 578.8,456.9 578.8,457.0 578.8,457.0 578.8,457.0 578.8,457.0 578.8,457.0 583.7,456.8 583.7,456.8 583.7,456.8 583.7,456.8 583.7,456.8 583.7,456.8 583.7,456.9 583.7,456.9 583.7,456.9 583.7,456.9 583.7,456.9 583.7,456.9 583.7,457.0 583.7,457.0 583.7,457.0 583.7,457.0 583.7,457.0 583.7,457.0 583.7,457.0 583.7,457.0 583.7,457.1 583.7,457.1 583.7,457.1 583.7,457.1 583.7,457.1 583.7,457.1 583.7,457.1 583.7,457.1 583.7,457.2 583.7,457.2 583.7,457.2 583.7,457.2 583.7,457.2 583.7,457.2 583.7,457.2 583.7,457.2 583.7,457.3 583.7,457.3 583.7,457.3 583.7,457.3 583.7,457.3 583.7,457.3 583.7,457.3 583.7,457.3 583.7,457.4 583.7,457.4 583.7,457.4 583.7,457.4 583.7,457.4 583.7,457.4 583.7,457.4 583.7,457.4 583.7,457.5 583.7,457.5 583.7,457.5 583.7,457.5 583.7,457.5 583.7,457.5 583.7,457.5 583.7,457.5 583.7,457.6 583.7,457.6 583.7,457.6 583.7,457.6 583.7,457.6 583.7,457.6 583.7,457.6 583.7,457.6 583.7,457.7 583.7,457.7 583.7,457.7 583.7,457.7 583.7,457.7 583.7,457.7 583.7,457.7 583.7,457.7 583.7,457.8 583.7,457.8 583.7,457.8 583.7,457.8 583.7,457.8 583.7,457.8 583.7,457.8 583.7,457.8 583.7,457.8 583.7,457.9 583.7,457.9 583.7,457.9 583.7,457.9 583.7,457.9 583.7,457.9 583.7,457.9 583.7,457.9 583.7,458.0 583.7,458.0 583.7,458.0 583.7,458.0 583.7,458.0 583.7,458.0 583.7,458.0 583.7,458.0 583.7,458.1 583.7,458.1 583.7,458.1 583.7,458.1 583.7,458.1 583.7,458.1 583.7,458.1 583.7,458.1 583.7,458.1 583.7,458.2 583.7,458.2 583.7,458.2 583.7,458.2 583.7,458.2 583.7,458.2 583.7,458.2 583.7,458.2 583.7,458.2 583.7,458.3 583.7,458.3 583.7,458.3 583.7,458.3 583.7,458.3 583.7,458.3 583.7,458.3 583.7,458.3 583.7,458.4 583.7,458.4 583.7,458.4 583.7,458.4 583.7,458.4 583.7,458.4 583.7,458.4 583.7,458.4 583.7,458.4 583.7,458.5 583.7,458.5 583.7,458.5 583.7,458.5 583.7,458.5 583.7,458.5 583.7,458.5 583.7,458.5 583.7,458.5 583.7,458.6 583.7,458.6 583.7,458.6 583.7,458.6 583.7,458.6 583.7,458.6 583.7,458.6 583.7,458.6 583.7,458.6 583.7,458.7 583.7,458.7 583.7,458.7 583.7,458.7 583.7,458.7 583.7,458.7 583.7,458.7 583.7,458.7 583.7,458.7 588.7,458.5 588.7,458.6 588.7,458.6 588.7,458.6 588.7,458.6 588.7,458.6 588.7,458.6 588.7,458.6 588.7,458.6 588.7,458.6 588.7,458.7 588.7,458.7 588.7,458.7 588.7,458.7 588.7,458.7 588.7,458.7 593.6,458.5 593.6,458.5 593.6,458.5 593.6,458.5 593.6,458.6 593.6,458.6 593.6,458.6 593.6,458.6 593.6,458.6 598.6,458.4 598.6,458.4 598.6,458.4 598.6,458.4 598.6,458.4 598.6,458.5 598.6,458.5 598.6,458.5 598.6,458.5 598.6,458.5 598.6,458.5 598.6,458.5 598.6,458.5 598.6,458.5 598.6,458.6 598.6,458.6 598.6,458.6 598.6,458.6 598.6,458.6 598.6,458.6 598.6,458.6 598.6,458.6 598.6,458.6 598.6,458.7 598.6,458.7 598.6,458.7 598.6,458.7 598.6,458.7 598.6,458.7 598.6,458.7 598.6,458.7 598.6,458.7 598.6,458.7 598.6,458.8 598.6,458.8 598.6,458.8 598.6,458.8 598.6,458.8 598.6,458.8 598.6,458.8 598.6,458.8 598.6,458.8 598.6,458.9 598.6,458.9 598.6,458.9 598.6,458.9 598.6,458.9 598.6,458.9 598.6,458.9 598.6,458.9 598.6,458.9 598.6,458.9 598.6,459.0 598.6,459.0 598.6,459.0 603.6,458.8 603.6,458.8 603.6,458.8 603.6,458.8 603.6,458.8 603.6,458.8 603.6,458.8 603.6,458.9 603.6,458.9 603.6,458.9 603.6,458.9 603.6,458.9 603.6,458.9 603.6,458.9 603.6,458.9 603.6,458.9 603.6,459.0 603.6,459.0 603.6,459.0 603.6,459.0 603.6,459.0 603.6,459.0 603.6,459.0 603.6,459.0 603.6,459.0 603.6,459.0 603.6,459.1 603.6,459.1 603.6,459.1 603.6,459.1 603.6,459.1 603.6,459.1 603.6,459.1 603.6,459.1 603.6,459.1 603.6,459.1 603.6,459.2 603.6,459.2 603.6,459.2 603.6,459.2 603.6,459.2 603.6,459.2 603.6,459.2 603.6,459.2 603.6,459.2 603.6,459.3 603.6,459.3 603.6,459.3 603.6,459.3 603.6,459.3 603.6,459.3 603.6,459.3 603.6,459.3 603.6,459.3 603.6,459.3 603.6,459.4 603.6,459.4 603.6,459.4 603.6,459.4 603.6,459.4 603.6,459.4 603.6,459.4 603.6,459.4 603.6,459.4 603.6,459.4 603.6,459.5 603.6,459.5 603.6,459.5 603.6,459.5 603.6,459.5 603.6,459.5 603.6,459.5 603.6,459.5 603.6,459.5 603.6,459.5 603.6,459.5 603.6,459.6 603.6,459.6 603.6,459.6 603.6,459.6 603.6,459.6 603.6,459.6 603.6,459.6 603.6,459.6 603.6,459.6 603.6,459.6 608.5,459.5 608.5,459.5 608.5,459.5 608.5,459.5 608.5,459.5 608.5,459.5 608.5,459.5 608.5,459.5 608.5,459.5 608.5,459.5 608.5,459.6 608.5,459.6 608.5,459.6 608.5,459.6 608.5,459.6 608.5,459.6 608.5,459.6 608.5,459.6 608.5,459.6 608.5,459.6 613.5,459.5 613.5,459.5 613.5,459.5 613.5,459.5 613.5,459.5 613.5,459.5 613.5,459.5 613.5,459.5 613.5,459.5 613.5,459.5 613.5,459.6 613.5,459.6 613.5,459.6 613.5,459.6 613.5,459.6 613.5,459.6 613.5,459.6 613.5,459.6 613.5,459.6 613.5,459.6 613.5,459.7 613.5,459.7 613.5,459.7 613.5,459.7 613.5,459.7 613.5,459.7 613.5,459.7 613.5,459.7 613.5,459.7 613.5,459.7 613.5,459.7 613.5,459.8 613.5,459.8 613.5,459.8 613.5,459.8 613.5,459.8 613.5,459.8 613.5,459.8 613.5,459.8 613.5,459.8 613.5,459.8 613.5,459.9 613.5,459.9 613.5,459.9 613.5,459.9 618.4,459.7 618.4,459.7 618.4,459.7 618.4,459.7 618.4,459.7 618.4,459.7 618.4,459.8 618.4,459.8 618.4,459.8 618.4,459.8 618.4,459.8 618.4,459.8 618.4,459.8 618.4,459.8 618.4,459.8 618.4,459.8 618.4,459.8 618.4,459.9 618.4,459.9 618.4,459.9 618.4,459.9 618.4,459.9 618.4,459.9 618.4,459.9 618.4,459.9 618.4,459.9 618.4,459.9 618.4,459.9 618.4,460.0 618.4,460.0 618.4,460.0 618.4,460.0 618.4,460.0 618.4,460.0 618.4,460.0 618.4,460.0 618.4,460.0 618.4,460.0 618.4,460.1 618.4,460.1 618.4,460.1 618.4,460.1 618.4,460.1 618.4,460.1 618.4,460.1 618.4,460.1 618.4,460.1 618.4,460.1 618.4,460.1 618.4,460.1 618.4,460.2 618.4,460.2 618.4,460.2 618.4,460.2 618.4,460.2 618.4,460.2 618.4,460.2 618.4,460.2 618.4,460.2 618.4,460.2 618.4,460.2 618.4,460.3 618.4,460.3 618.4,460.3 618.4,460.3 618.4,460.3 618.4,460.3 618.4,460.3 618.4,460.3 618.4,460.3 618.4,460.3 618.4,460.3 618.4,460.4 618.4,460.4 618.4,460.4 618.4,460.4 618.4,460.4 618.4,460.4 618.4,460.4 618.4,460.4 618.4,460.4 618.4,460.4 618.4,460.4 618.4,460.5 623.4,460.3 623.4,460.3 623.4,460.3 623.4,460.3 623.4,460.3 623.4,460.3 623.4,460.3 623.4,460.3 623.4,460.3 623.4,460.4 623.4,460.4 623.4,460.4 623.4,460.4 623.4,460.4 623.4,460.4 623.4,460.4 623.4,460.4 623.4,460.4 623.4,460.4 623.4,460.4 623.4,460.5 623.4,460.5 623.4,460.5 623.4,460.5 623.4,460.5 623.4,460.5 623.4,460.5 623.4,460.5 623.4,460.5 623.4,460.5 623.4,460.5 623.4,460.5 623.4,460.6 623.4,460.6 623.4,460.6 623.4,460.6 623.4,460.6 623.4,460.6 623.4,460.6 623.4,460.6 623.4,460.6 623.4,460.6 623.4,460.6 623.4,460.6 623.4,460.7 623.4,460.7 623.4,460.7 623.4,460.7 623.4,460.7 623.4,460.7 623.4,460.7 623.4,460.7 623.4,460.7 623.4,460.7 623.4,460.7 623.4,460.7 623.4,460.8 623.4,460.8 623.4,460.8 623.4,460.8 623.4,460.8 623.4,460.8 623.4,460.8 623.4,460.8 623.4,460.8 623.4,460.8 623.4,460.8 623.4,460.8 623.4,460.9 623.4,460.9 623.4,460.9 623.4,460.9 623.4,460.9 623.4,460.9 623.4,460.9 623.4,460.9 623.4,460.9 623.4,460.9 623.4,460.9 623.4,460.9 623.4,461.0 623.4,461.0 623.4,461.0 623.4,461.0 623.4,461.0 623.4,461.0 623.4,461.0 623.4,461.0 623.4,461.0 623.4,461.0 623.4,461.0 623.4,461.0 623.4,461.1 623.4,461.1 623.4,461.1 623.4,461.1 623.4,461.1 623.4,461.1 623.4,461.1 623.4,461.1 623.4,461.1 623.4,461.1 623.4,461.1 623.4,461.1 623.4,461.1 623.4,461.2 623.4,461.2 623.4,461.2 623.4,461.2 623.4,461.2 623.4,461.2 623.4,461.2 623.4,461.2 623.4,461.2 623.4,461.2 623.4,461.2 623.4,461.2 623.4,461.3 623.4,461.3 623.4,461.3 623.4,461.3 623.4,461.3 623.4,461.3 623.4,461.3 623.4,461.3 623.4,461.3 623.4,461.3 623.4,461.3 623.4,461.3 623.4,461.3 623.4,461.4 623.4,461.4 623.4,461.4 623.4,461.4 623.4,461.4 623.4,461.4 623.4,461.4 623.4,461.4 623.4,461.4 623.4,461.4 623.4,461.4 623.4,461.4 623.4,461.4 623.4,461.5 623.4,461.5 623.4,461.5 623.4,461.5 623.4,461.5 623.4,461.5 623.4,461.5 623.4,461.5 623.4,461.5 623.4,461.5 623.4,461.5 623.4,461.5 623.4,461.6 623.4,461.6 623.4,461.6 623.4,461.6 623.4,461.6 623.4,461.6 623.4,461.6 623.4,461.6 623.4,461.6 623.4,461.6 623.4,461.6 623.4,461.6 623.4,461.6 623.4,461.7 623.4,461.7 623.4,461.7 623.4,461.7 623.4,461.7 623.4,461.7 623.4,461.7 623.4,461.7 623.4,461.7 623.4,461.7 623.4,461.7 623.4,461.7 623.4,461.7 623.4,461.8 623.4,461.8 623.4,461.8 623.4,461.8 623.4,461.8 623.4,461.8 623.4,461.8 623.4,461.8 623.4,461.8 623.4,461.8 623.4,461.8 623.4,461.8 623.4,461.8 623.4,461.9 623.4,461.9 623.4,461.9 623.4,461.9 623.4,461.9 623.4,461.9 623.4,461.9 623.4,461.9 623.4,461.9 623.4,461.9 623.4,461.9 623.4,461.9 623.4,461.9 623.4,461.9 623.4,462.0 623.4,462.0 623.4,462.0 623.4,462.0 623.4,462.0 623.4,462.0 623.4,462.0 623.4,462.0 623.4,462.0 623.4,462.0 623.4,462.0 623.4,462.0 623.4,462.0 623.4,462.1 623.4,462.1 623.4,462.1 623.4,462.1 623.4,462.1 623.4,462.1 623.4,462.1 623.4,462.1 623.4,462.1 623.4,462.1 623.4,462.1 623.4,462.1 623.4,462.1 623.4,462.1 623.4,462.2 623.4,462.2 623.4,462.2 623.4,462.2 623.4,462.2 623.4,462.2 623.4,462.2 623.4,462.2 623.4,462.2 623.4,462.2 623.4,462.2 623.4,462.2 623.4,462.2 628.3,462.1 628.3,462.1 628.3,462.1 628.3,462.1 628.3,462.1 628.3,462.1 628.3,462.1 628.3,462.1 628.3,462.1 628.3,462.1 628.3,462.2 628.3,462.2 628.3,462.2 628.3,462.2 628.3,462.2 628.3,462.2 628.3,462.2 628.3,462.2 628.3,462.2 628.3,462.2 628.3,462.2 628.3,462.2 628.3,462.2 628.3,462.2 628.3,462.3 628.3,462.3 628.3,462.3 628.3,462.3 628.3,462.3 628.3,462.3 628.3,462.3 628.3,462.3 628.3,462.3 628.3,462.3 628.3,462.3 628.3,462.3 628.3,462.3 628.3,462.3 628.3,462.3 628.3,462.4 628.3,462.4 628.3,462.4 628.3,462.4 628.3,462.4 628.3,462.4 628.3,462.4 628.3,462.4 628.3,462.4 628.3,462.4 628.3,462.4 628.3,462.4 628.3,462.4 628.3,462.4 628.3,462.5 628.3,462.5 628.3,462.5 628.3,462.5 628.3,462.5 628.3,462.5 628.3,462.5 628.3,462.5 628.3,462.5 628.3,462.5 628.3,462.5 628.3,462.5 628.3,462.5 628.3,462.5 628.3,462.5 628.3,462.6 628.3,462.6 628.3,462.6 628.3,462.6 628.3,462.6 628.3,462.6 628.3,462.6 628.3,462.6 628.3,462.6 628.3,462.6 628.3,462.6 628.3,462.6 628.3,462.6 628.3,462.6 628.3,462.7 628.3,462.7 628.3,462.7 628.3,462.7 628.3,462.7 628.3,462.7 628.3,462.7 628.3,462.7 628.3,462.7 628.3,462.7 628.3,462.7 628.3,462.7 628.3,462.7 628.3,462.7 628.3,462.7 628.3,462.8 628.3,462.8 628.3,462.8 628.3,462.8 628.3,462.8 628.3,462.8 628.3,462.8 628.3,462.8 628.3,462.8 628.3,462.8 628.3,462.8 628.3,462.8 628.3,462.8 628.3,462.8 628.3,462.8 628.3,462.9 628.3,462.9 628.3,462.9 628.3,462.9 628.3,462.9 628.3,462.9 628.3,462.9 628.3,462.9 628.3,462.9 628.3,462.9 628.3,462.9 628.3,462.9 628.3,462.9 628.3,462.9 628.3,462.9 628.3,462.9 628.3,463.0 628.3,463.0 628.3,463.0 628.3,463.0 628.3,463.0 628.3,463.0 628.3,463.0 628.3,463.0 628.3,463.0 628.3,463.0 628.3,463.0 628.3,463.0 628.3,463.0 628.3,463.0 628.3,463.0 628.3,463.1 628.3,463.1 628.3,463.1 628.3,463.1 628.3,463.1 628.3,463.1 628.3,463.1 628.3,463.1 628.3,463.1 628.3,463.1 628.3,463.1 628.3,463.1 628.3,463.1 628.3,463.1 628.3,463.1 628.3,463.1 628.3,463.2 628.3,463.2 628.3,463.2 628.3,463.2 628.3,463.2 628.3,463.2 628.3,463.2 628.3,463.2 628.3,463.2 628.3,463.2 628.3,463.2 628.3,463.2 628.3,463.2 628.3,463.2 628.3,463.2 628.3,463.2 628.3,463.3 628.3,463.3 628.3,463.3 628.3,463.3 628.3,463.3 628.3,463.3 628.3,463.3 628.3,463.3 628.3,463.3 628.3,463.3 628.3,463.3 628.3,463.3 628.3,463.3 628.3,463.3 628.3,463.3 628.3,463.3 628.3,463.4 628.3,463.4 628.3,463.4 628.3,463.4 628.3,463.4 628.3,463.4 628.3,463.4 628.3,463.4 628.3,463.4 628.3,463.4 628.3,463.4 628.3,463.4 628.3,463.4 628.3,463.4 628.3,463.4 628.3,463.5 628.3,463.5 628.3,463.5 628.3,463.5 628.3,463.5 628.3,463.5 628.3,463.5 628.3,463.5 628.3,463.5 628.3,463.5 628.3,463.5 628.3,463.5 628.3,463.5 628.3,463.5 628.3,463.5 628.3,463.5 628.3,463.6 628.3,463.6 628.3,463.6 628.3,463.6 628.3,463.6 628.3,463.6 628.3,463.6 628.3,463.6 628.3,463.6 628.3,463.6 628.3,463.6 628.3,463.6 628.3,463.6 628.3,463.6 628.3,463.6 628.3,463.6 633.3,463.5 633.3,463.5 633.3,463.5 633.3,463.5 633.3,463.5 633.3,463.5 633.3,463.5 633.3,463.5 633.3,463.5 633.3,463.6 633.3,463.6 633.3,463.6 633.3,463.6 633.3,463.6 633.3,463.6 633.3,463.6 633.3,463.6 633.3,463.6 633.3,463.6 633.3,463.6 633.3,463.6 633.3,463.6 633.3,463.6 633.3,463.6 633.3,463.6 633.3,463.6 633.3,463.7 633.3,463.7 633.3,463.7 633.3,463.7 633.3,463.7 633.3,463.7 633.3,463.7 633.3,463.7 633.3,463.7 633.3,463.7 633.3,463.7 633.3,463.7 633.3,463.7 633.3,463.7 633.3,463.7 633.3,463.7 633.3,463.7 633.3,463.8 633.3,463.8 633.3,463.8 633.3,463.8 633.3,463.8 633.3,463.8 633.3,463.8 633.3,463.8 633.3,463.8 633.3,463.8 633.3,463.8 633.3,463.8 633.3,463.8 633.3,463.8 633.3,463.8 633.3,463.8 633.3,463.8 633.3,463.9 633.3,463.9 633.3,463.9 633.3,463.9 633.3,463.9 633.3,463.9 633.3,463.9 633.3,463.9 633.3,463.9 633.3,463.9 633.3,463.9 633.3,463.9 633.3,463.9 633.3,463.9 633.3,463.9 633.3,463.9 633.3,463.9 633.3,464.0 633.3,464.0 633.3,464.0 633.3,464.0 633.3,464.0 633.3,464.0 633.3,464.0 633.3,464.0 633.3,464.0 633.3,464.0 633.3,464.0 633.3,464.0 633.3,464.0 633.3,464.0 633.3,464.0 633.3,464.0 633.3,464.0 633.3,464.0 633.3,464.1 633.3,464.1 633.3,464.1 633.3,464.1 633.3,464.1 633.3,464.1 633.3,464.1 633.3,464.1 633.3,464.1 633.3,464.1 633.3,464.1 633.3,464.1 633.3,464.1 633.3,464.1 633.3,464.1 633.3,464.1 633.3,464.1 633.3,464.1 633.3,464.2 633.3,464.2 633.3,464.2 633.3,464.2 633.3,464.2 633.3,464.2 633.3,464.2 633.3,464.2 633.3,464.2 633.3,464.2 633.3,464.2 633.3,464.2 633.3,464.2 633.3,464.2 633.3,464.2 633.3,464.2 633.3,464.2 633.3,464.2 633.3,464.3 633.3,464.3 633.3,464.3 633.3,464.3 633.3,464.3 633.3,464.3 633.3,464.3 633.3,464.3 633.3,464.3 633.3,464.3 633.3,464.3 633.3,464.3 633.3,464.3 633.3,464.3 633.3,464.3 633.3,464.3 633.3,464.3 633.3,464.4 633.3,464.4 633.3,464.4 633.3,464.4 633.3,464.4 633.3,464.4 633.3,464.4 633.3,464.4 633.3,464.4 633.3,464.4 633.3,464.4 633.3,464.4 633.3,464.4 633.3,464.4 633.3,464.4 638.3,464.3 638.3,464.3 638.3,464.3 638.3,464.3 638.3,464.3 638.3,464.3 638.3,464.3 638.3,464.3 638.3,464.3 638.3,464.3 638.3,464.3 638.3,464.4 638.3,464.4 638.3,464.4 638.3,464.4 638.3,464.4 638.3,464.4 638.3,464.4 638.3,464.4 638.3,464.4 638.3,464.4 638.3,464.4 638.3,464.4 638.3,464.4 638.3,464.4 638.3,464.4 638.3,464.4 638.3,464.4 638.3,464.4 638.3,464.4 638.3,464.5 638.3,464.5 638.3,464.5 638.3,464.5 638.3,464.5 638.3,464.5 638.3,464.5 638.3,464.5 638.3,464.5 638.3,464.5 638.3,464.5 638.3,464.5 638.3,464.5 638.3,464.5 638.3,464.5 638.3,464.5 638.3,464.5 638.3,464.5 638.3,464.5 638.3,464.6 638.3,464.6 638.3,464.6 638.3,464.6 638.3,464.6 638.3,464.6 638.3,464.6 638.3,464.6 638.3,464.6 638.3,464.6 638.3,464.6 638.3,464.6 638.3,464.6 638.3,464.6 638.3,464.6 638.3,464.6 638.3,464.6 638.3,464.6 638.3,464.6 638.3,464.7 638.3,464.7 638.3,464.7 643.2,464.5 643.2,464.5 643.2,464.5 643.2,464.5 643.2,464.5 643.2,464.6 643.2,464.6 643.2,464.6 643.2,464.6 643.2,464.6 643.2,464.6 643.2,464.6 643.2,464.6 643.2,464.6 643.2,464.6 643.2,464.6 643.2,464.6 643.2,464.6 643.2,464.6 643.2,464.6 643.2,464.6 643.2,464.6 643.2,464.6 643.2,464.6 643.2,464.7 643.2,464.7 643.2,464.7 643.2,464.7 643.2,464.7 643.2,464.7 643.2,464.7 643.2,464.7 643.2,464.7 643.2,464.7 643.2,464.7 643.2,464.7 643.2,464.7 643.2,464.7 643.2,464.7 643.2,464.7 643.2,464.7 643.2,464.7 643.2,464.7 643.2,464.7 643.2,464.8 643.2,464.8 643.2,464.8 643.2,464.8 643.2,464.8 643.2,464.8 643.2,464.8 643.2,464.8 643.2,464.8 643.2,464.8 643.2,464.8 643.2,464.8 643.2,464.8 643.2,464.8 643.2,464.8 643.2,464.8 643.2,464.8 643.2,464.8 643.2,464.8 643.2,464.8 643.2,464.9 643.2,464.9 643.2,464.9 643.2,464.9 643.2,464.9 643.2,464.9 643.2,464.9 643.2,464.9 643.2,464.9 643.2,464.9 643.2,464.9 643.2,464.9 643.2,464.9 643.2,464.9 643.2,464.9 643.2,464.9 643.2,464.9 643.2,464.9 643.2,464.9 643.2,464.9 643.2,465.0 643.2,465.0 643.2,465.0 643.2,465.0 643.2,465.0 643.2,465.0 643.2,465.0 643.2,465.0 643.2,465.0 643.2,465.0 643.2,465.0 643.2,465.0 643.2,465.0 643.2,465.0 643.2,465.0 643.2,465.0 643.2,465.0 643.2,465.0 643.2,465.0 643.2,465.0 643.2,465.1 643.2,465.1 643.2,465.1 643.2,465.1 643.2,465.1 643.2,465.1 643.2,465.1 643.2,465.1 643.2,465.1 643.2,465.1 643.2,465.1 643.2,465.1 643.2,465.1 643.2,465.1 643.2,465.1 643.2,465.1 643.2,465.1 643.2,465.1 643.2,465.1 643.2,465.1 643.2,465.1 643.2,465.2 643.2,465.2 643.2,465.2 643.2,465.2 643.2,465.2 643.2,465.2 643.2,465.2 643.2,465.2 643.2,465.2 643.2,465.2 643.2,465.2 643.2,465.2 643.2,465.2 643.2,465.2 643.2,465.2 643.2,465.2 643.2,465.2 643.2,465.2 643.2,465.2 643.2,465.2 643.2,465.2 643.2,465.3 643.2,465.3 643.2,465.3 643.2,465.3 643.2,465.3 643.2,465.3 643.2,465.3 643.2,465.3 643.2,465.3 643.2,465.3 643.2,465.3 643.2,465.3 643.2,465.3 643.2,465.3 643.2,465.3 643.2,465.3 643.2,465.3 643.2,465.3 643.2,465.3 643.2,465.3 643.2,465.3 643.2,465.4 643.2,465.4 643.2,465.4 643.2,465.4 643.2,465.4 643.2,465.4 643.2,465.4 643.2,465.4 643.2,465.4 643.2,465.4 643.2,465.4 643.2,465.4 643.2,465.4 643.2,465.4 643.2,465.4 643.2,465.4 643.2,465.4 643.2,465.4 643.2,465.4 643.2,465.4 643.2,465.4 643.2,465.4 643.2,465.5 643.2,465.5 643.2,465.5 643.2,465.5 643.2,465.5 643.2,465.5 643.2,465.5 643.2,465.5 643.2,465.5 643.2,465.5 643.2,465.5 643.2,465.5 643.2,465.5 643.2,465.5 643.2,465.5 643.2,465.5 643.2,465.5 643.2,465.5 643.2,465.5 643.2,465.5 643.2,465.5 643.2,465.6 643.2,465.6 643.2,465.6 643.2,465.6 643.2,465.6 643.2,465.6 643.2,465.6 643.2,465.6 643.2,465.6 643.2,465.6 643.2,465.6 643.2,465.6 643.2,465.6 643.2,465.6 643.2,465.6 643.2,465.6 643.2,465.6 643.2,465.6 643.2,465.6 643.2,465.6 643.2,465.6 643.2,465.6 643.2,465.6 643.2,465.7 643.2,465.7 643.2,465.7 643.2,465.7 643.2,465.7 643.2,465.7 643.2,465.7 643.2,465.7 643.2,465.7 643.2,465.7 643.2,465.7 643.2,465.7 643.2,465.7 643.2,465.7 643.2,465.7 643.2,465.7 643.2,465.7 643.2,465.7 643.2,465.7 643.2,465.7 643.2,465.7 643.2,465.7 643.2,465.8 643.2,465.8 643.2,465.8 643.2,465.8 643.2,465.8 643.2,465.8 643.2,465.8 643.2,465.8 643.2,465.8 643.2,465.8 643.2,465.8 643.2,465.8 643.2,465.8 643.2,465.8 643.2,465.8 643.2,465.8 643.2,465.8 643.2,465.8 643.2,465.8 643.2,465.8 643.2,465.8 643.2,465.8 643.2,465.8 643.2,465.9 643.2,465.9 643.2,465.9 643.2,465.9 643.2,465.9 643.2,465.9 643.2,465.9 643.2,465.9 643.2,465.9 643.2,465.9 643.2,465.9 643.2,465.9 643.2,465.9 643.2,465.9 643.2,465.9 643.2,465.9 643.2,465.9 643.2,465.9 643.2,465.9 643.2,465.9 643.2,465.9 643.2,465.9 643.2,465.9 643.2,466.0 643.2,466.0 643.2,466.0 643.2,466.0 643.2,466.0 643.2,466.0 643.2,466.0 643.2,466.0 643.2,466.0 643.2,466.0 643.2,466.0 643.2,466.0 643.2,466.0 643.2,466.0 643.2,466.0 643.2,466.0 643.2,466.0 643.2,466.0 643.2,466.0 643.2,466.0 643.2,466.0 643.2,466.0 643.2,466.0 643.2,466.1 643.2,466.1 643.2,466.1 643.2,466.1 643.2,466.1 643.2,466.1 643.2,466.1 643.2,466.1 643.2,466.1 643.2,466.1 643.2,466.1 643.2,466.1 643.2,466.1 643.2,466.1 643.2,466.1 643.2,466.1 643.2,466.1 643.2,466.1 643.2,466.1 643.2,466.1 643.2,466.1 643.2,466.1 643.2,466.1 643.2,466.1 643.2,466.2 643.2,466.2 643.2,466.2 643.2,466.2 643.2,466.2 643.2,466.2 643.2,466.2 643.2,466.2 643.2,466.2 643.2,466.2 643.2,466.2 643.2,466.2 643.2,466.2 643.2,466.2 643.2,466.2 643.2,466.2 643.2,466.2 643.2,466.2 643.2,466.2 643.2,466.2 643.2,466.2 643.2,466.2 643.2,466.2 643.2,466.2 643.2,466.3 643.2,466.3 643.2,466.3 643.2,466.3 643.2,466.3 643.2,466.3 643.2,466.3 643.2,466.3 643.2,466.3 643.2,466.3 643.2,466.3 643.2,466.3 643.2,466.3 643.2,466.3 643.2,466.3 643.2,466.3 643.2,466.3 643.2,466.3 643.2,466.3 643.2,466.3 643.2,466.3 643.2,466.3 643.2,466.3 643.2,466.3 643.2,466.3 643.2,466.4 643.2,466.4 643.2,466.4 643.2,466.4 643.2,466.4 643.2,466.4 643.2,466.4 643.2,466.4 643.2,466.4 643.2,466.4 643.2,466.4 643.2,466.4 643.2,466.4 643.2,466.4 643.2,466.4 643.2,466.4 643.2,466.4 643.2,466.4 643.2,466.4 643.2,466.4 643.2,466.4 643.2,466.4 643.2,466.4 643.2,466.4 643.2,466.5 643.2,466.5 643.2,466.5 643.2,466.5 643.2,466.5 643.2,466.5 643.2,466.5 643.2,466.5 643.2,466.5 643.2,466.5 643.2,466.5 643.2,466.5 643.2,466.5 643.2,466.5 643.2,466.5 643.2,466.5 643.2,466.5 643.2,466.5 643.2,466.5 643.2,466.5 643.2,466.5 643.2,466.5 643.2,466.5 643.2,466.5 643.2,466.5 643.2,466.5 643.2,466.6 643.2,466.6 643.2,466.6 643.2,466.6 643.2,466.6 643.2,466.6 643.2,466.6 643.2,466.6 643.2,466.6 643.2,466.6 643.2,466.6 643.2,466.6 643.2,466.6 643.2,466.6 643.2,466.6 643.2,466.6 643.2,466.6 643.2,466.6 643.2,466.6 643.2,466.6 643.2,466.6 643.2,466.6 643.2,466.6 643.2,466.6 643.2,466.6 643.2,466.7 643.2,466.7 643.2,466.7 643.2,466.7 643.2,466.7 643.2,466.7 643.2,466.7 643.2,466.7 643.2,466.7 643.2,466.7 643.2,466.7 643.2,466.7 643.2,466.7 643.2,466.7 643.2,466.7 643.2,466.7 643.2,466.7 643.2,466.7 643.2,466.7 643.2,466.7 643.2,466.7 643.2,466.7 643.2,466.7 643.2,466.7 643.2,466.7 643.2,466.7 643.2,466.8 643.2,466.8 643.2,466.8 643.2,466.8 643.2,466.8 643.2,466.8 643.2,466.8 643.2,466.8 643.2,466.8 643.2,466.8 643.2,466.8 643.2,466.8 643.2,466.8 643.2,466.8 643.2,466.8 643.2,466.8 643.2,466.8 643.2,466.8 643.2,466.8 643.2,466.8 643.2,466.8 643.2,466.8 643.2,466.8 643.2,466.8 643.2,466.8 643.2,466.8 643.2,466.8 643.2,466.9 643.2,466.9 643.2,466.9 643.2,466.9 643.2,466.9 643.2,466.9 643.2,466.9 643.2,466.9 643.2,466.9 643.2,466.9 643.2,466.9 643.2,466.9 643.2,466.9 643.2,466.9 643.2,466.9 643.2,466.9 643.2,466.9 643.2,466.9 643.2,466.9 643.2,466.9 643.2,466.9 643.2,466.9 643.2,466.9 643.2,466.9 643.2,466.9 643.2,467.0 643.2,467.0 643.2,467.0 643.2,467.0 643.2,467.0 643.2,467.0 643.2,467.0 643.2,467.0 643.2,467.0 643.2,467.0 643.2,467.0 643.2,467.0 643.2,467.0 643.2,467.0 643.2,467.0 643.2,467.0 643.2,467.0 643.2,467.0 643.2,467.0 643.2,467.0 643.2,467.0 643.2,467.0 643.2,467.0 643.2,467.0 643.2,467.0 643.2,467.0 643.2,467.0 643.2,467.1 643.2,467.1 643.2,467.1 643.2,467.1 643.2,467.1 643.2,467.1 643.2,467.1 643.2,467.1 643.2,467.1 643.2,467.1 643.2,467.1 643.2,467.1 643.2,467.1 643.2,467.1 643.2,467.1 643.2,467.1 643.2,467.1 643.2,467.1 643.2,467.1 643.2,467.1 643.2,467.1 643.2,467.1 643.2,467.1 643.2,467.1 643.2,467.1 643.2,467.1 643.2,467.1 643.2,467.2 643.2,467.2 643.2,467.2 643.2,467.2 643.2,467.2 643.2,467.2 643.2,467.2 643.2,467.2 643.2,467.2 643.2,467.2 643.2,467.2 643.2,467.2 643.2,467.2 643.2,467.2 643.2,467.2 643.2,467.2 643.2,467.2 643.2,467.2 643.2,467.2 643.2,467.2 643.2,467.2 643.2,467.2 643.2,467.2 643.2,467.2 643.2,467.2 643.2,467.2 643.2,467.2 643.2,467.2 643.2,467.3 643.2,467.3 643.2,467.3 643.2,467.3 643.2,467.3 643.2,467.3 643.2,467.3 643.2,467.3 643.2,467.3 643.2,467.3 643.2,467.3 643.2,467.3 643.2,467.3 643.2,467.3 643.2,467.3 643.2,467.3 643.2,467.3 643.2,467.3 643.2,467.3 643.2,467.3 643.2,467.3 643.2,467.3 643.2,467.3 643.2,467.3 643.2,467.3 643.2,467.3 643.2,467.3 643.2,467.3 643.2,467.3 643.2,467.4 643.2,467.4 643.2,467.4 643.2,467.4 643.2,467.4 643.2,467.4 643.2,467.4 643.2,467.4 643.2,467.4 643.2,467.4 643.2,467.4 643.2,467.4 643.2,467.4 643.2,467.4 643.2,467.4 643.2,467.4 643.2,467.4 643.2,467.4 643.2,467.4 643.2,467.4 643.2,467.4 643.2,467.4 643.2,467.4 643.2,467.4 643.2,467.4 643.2,467.4 643.2,467.4 643.2,467.4 643.2,467.5 643.2,467.5 643.2,467.5 643.2,467.5 643.2,467.5 643.2,467.5 643.2,467.5 643.2,467.5 643.2,467.5 643.2,467.5 643.2,467.5 643.2,467.5 643.2,467.5 643.2,467.5 643.2,467.5 643.2,467.5 643.2,467.5 643.2,467.5 643.2,467.5 643.2,467.5 643.2,467.5 643.2,467.5 643.2,467.5 643.2,467.5 643.2,467.5 643.2,467.5 643.2,467.5 643.2,467.5 643.2,467.5 643.2,467.5 643.2,467.6 643.2,467.6 643.2,467.6 643.2,467.6 643.2,467.6 643.2,467.6 643.2,467.6 643.2,467.6 643.2,467.6 643.2,467.6 643.2,467.6 643.2,467.6 643.2,467.6 643.2,467.6 643.2,467.6 643.2,467.6 643.2,467.6 643.2,467.6 643.2,467.6 643.2,467.6 643.2,467.6 643.2,467.6 643.2,467.6 643.2,467.6 643.2,467.6 643.2,467.6 643.2,467.6 643.2,467.6 643.2,467.6 643.2,467.6 643.2,467.7 643.2,467.7 643.2,467.7 643.2,467.7 643.2,467.7 643.2,467.7 643.2,467.7 643.2,467.7 643.2,467.7 643.2,467.7 643.2,467.7 643.2,467.7 643.2,467.7 643.2,467.7 643.2,467.7 643.2,467.7 643.2,467.7 643.2,467.7 643.2,467.7 643.2,467.7 643.2,467.7 643.2,467.7 643.2,467.7 643.2,467.7 643.2,467.7 643.2,467.7 643.2,467.7 643.2,467.7 643.2,467.7 643.2,467.7 643.2,467.8 643.2,467.8 643.2,467.8 643.2,467.8 643.2,467.8 643.2,467.8 643.2,467.8 643.2,467.8 643.2,467.8 643.2,467.8 643.2,467.8 643.2,467.8 643.2,467.8 643.2,467.8 643.2,467.8 643.2,467.8 643.2,467.8 643.2,467.8 643.2,467.8 643.2,467.8 643.2,467.8 643.2,467.8 643.2,467.8 643.2,467.8 643.2,467.8 643.2,467.8 643.2,467.8 643.2,467.8 643.2,467.8 643.2,467.8 643.2,467.8 643.2,467.9 643.2,467.9 643.2,467.9 643.2,467.9 643.2,467.9 643.2,467.9 643.2,467.9 643.2,467.9 643.2,467.9 643.2,467.9 643.2,467.9 643.2,467.9 643.2,467.9 643.2,467.9 643.2,467.9 643.2,467.9 643.2,467.9 643.2,467.9 643.2,467.9 643.2,467.9 643.2,467.9 643.2,467.9 643.2,467.9 643.2,467.9 643.2,467.9 643.2,467.9 643.2,467.9 643.2,467.9 643.2,467.9 643.2,467.9 643.2,467.9 643.2,468.0 643.2,468.0 643.2,468.0 643.2,468.0 643.2,468.0 643.2,468.0 643.2,468.0 643.2,468.0 643.2,468.0 643.2,468.0 643.2,468.0 643.2,468.0 643.2,468.0 643.2,468.0 643.2,468.0 643.2,468.0 643.2,468.0 643.2,468.0 643.2,468.0 643.2,468.0 643.2,468.0 643.2,468.0 643.2,468.0 643.2,468.0 643.2,468.0 643.2,468.0 643.2,468.0 643.2,468.0 643.2,468.0 643.2,468.0 643.2,468.0 643.2,468.0 643.2,468.1 643.2,468.1 643.2,468.1 643.2,468.1 643.2,468.1 643.2,468.1 643.2,468.1 643.2,468.1 643.2,468.1 643.2,468.1 643.2,468.1 643.2,468.1 643.2,468.1 643.2,468.1 643.2,468.1 643.2,468.1 643.2,468.1 643.2,468.1 643.2,468.1 643.2,468.1 643.2,468.1 643.2,468.1 643.2,468.1 643.2,468.1 643.2,468.1 643.2,468.1 643.2,468.1 643.2,468.1 643.2,468.1 643.2,468.1 643.2,468.1 643.2,468.1 643.2,468.1 643.2,468.2 643.2,468.2 643.2,468.2 643.2,468.2 643.2,468.2 643.2,468.2 643.2,468.2 643.2,468.2 643.2,468.2 643.2,468.2 643.2,468.2 643.2,468.2 643.2,468.2 643.2,468.2 643.2,468.2 643.2,468.2 643.2,468.2 643.2,468.2 643.2,468.2 643.2,468.2 643.2,468.2 643.2,468.2 643.2,468.2 643.2,468.2 643.2,468.2 643.2,468.2 643.2,468.2 643.2,468.2 643.2,468.2 643.2,468.2 643.2,468.2 643.2,468.2 643.2,468.2 643.2,468.3 643.2,468.3 643.2,468.3 643.2,468.3 643.2,468.3 643.2,468.3 643.2,468.3 643.2,468.3 643.2,468.3 643.2,468.3 643.2,468.3 643.2,468.3 643.2,468.3 643.2,468.3 643.2,468.3 643.2,468.3 643.2,468.3 643.2,468.3 643.2,468.3 643.2,468.3 643.2,468.3 643.2,468.3 643.2,468.3 643.2,468.3 643.2,468.3 643.2,468.3 643.2,468.3 643.2,468.3 643.2,468.3 643.2,468.3 643.2,468.3 643.2,468.3 643.2,468.3 643.2,468.4 643.2,468.4 643.2,468.4 643.2,468.4 643.2,468.4 643.2,468.4 643.2,468.4 643.2,468.4 643.2,468.4 643.2,468.4 643.2,468.4 643.2,468.4 643.2,468.4 643.2,468.4 643.2,468.4 643.2,468.4 643.2,468.4 643.2,468.4 643.2,468.4 643.2,468.4 643.2,468.4 643.2,468.4 643.2,468.4 643.2,468.4 643.2,468.4 643.2,468.4 643.2,468.4 643.2,468.4 643.2,468.4 643.2,468.4 643.2,468.4 643.2,468.4 643.2,468.4 643.2,468.4 643.2,468.5 643.2,468.5 643.2,468.5 643.2,468.5 643.2,468.5 643.2,468.5 643.2,468.5 643.2,468.5 643.2,468.5 643.2,468.5 643.2,468.5 643.2,468.5 643.2,468.5 643.2,468.5 643.2,468.5 643.2,468.5 643.2,468.5 643.2,468.5 643.2,468.5 643.2,468.5 643.2,468.5 643.2,468.5 643.2,468.5 643.2,468.5 643.2,468.5 643.2,468.5 643.2,468.5 643.2,468.5 643.2,468.5 643.2,468.5 643.2,468.5 643.2,468.5 643.2,468.5 643.2,468.5 643.2,468.6 643.2,468.6 643.2,468.6 643.2,468.6 643.2,468.6 643.2,468.6 643.2,468.6 643.2,468.6 643.2,468.6 643.2,468.6 643.2,468.6 643.2,468.6 643.2,468.6 643.2,468.6 643.2,468.6 643.2,468.6 643.2,468.6 643.2,468.6 643.2,468.6 643.2,468.6 643.2,468.6 648.2,468.5 648.2,468.5 648.2,468.5 648.2,468.5 648.2,468.5 648.2,468.5 648.2,468.5 648.2,468.5 648.2,468.5 648.2,468.5 648.2,468.5 648.2,468.5 648.2,468.5 648.2,468.5 648.2,468.6 648.2,468.6 648.2,468.6 648.2,468.6 648.2,468.6 648.2,468.6 648.2,468.6 648.2,468.6 648.2,468.6 648.2,468.6 648.2,468.6 648.2,468.6 648.2,468.6 648.2,468.6 648.2,468.6 648.2,468.6 653.1,468.5 653.1,468.5 653.1,468.5 653.1,468.5 653.1,468.5 653.1,468.5 658.1,468.4 658.1,468.4 658.1,468.4 658.1,468.4 658.1,468.4 658.1,468.4 658.1,468.4 658.1,468.4 658.1,468.4 658.1,468.4 658.1,468.4 658.1,468.4 658.1,468.4 658.1,468.4 658.1,468.5 658.1,468.5 658.1,468.5 658.1,468.5 658.1,468.5 658.1,468.5 658.1,468.5 658.1,468.5 658.1,468.5 658.1,468.5 658.1,468.5 658.1,468.5 658.1,468.5 658.1,468.5 658.1,468.5 658.1,468.5 658.1,468.5 658.1,468.5 658.1,468.5 658.1,468.5 658.1,468.5 658.1,468.5 658.1,468.5 658.1,468.5 658.1,468.5 658.1,468.5 658.1,468.5 658.1,468.5 658.1,468.5 658.1,468.5 658.1,468.5 658.1,468.5 658.1,468.5 658.1,468.5 658.1,468.5 658.1,468.6 658.1,468.6 658.1,468.6 658.1,468.6 658.1,468.6 658.1,468.6 658.1,468.6 658.1,468.6 658.1,468.6 658.1,468.6 658.1,468.6 658.1,468.6 658.1,468.6 658.1,468.6 658.1,468.6 658.1,468.6 658.1,468.6 658.1,468.6 658.1,468.6 658.1,468.6 658.1,468.6 658.1,468.6 658.1,468.6 658.1,468.6 658.1,468.6 658.1,468.6 658.1,468.6 658.1,468.6 658.1,468.6 658.1,468.6 658.1,468.6 658.1,468.6 658.1,468.6 658.1,468.6 658.1,468.6 658.1,468.6 658.1,468.6 658.1,468.7 658.1,468.7 658.1,468.7 658.1,468.7 658.1,468.7 658.1,468.7 658.1,468.7 658.1,468.7 658.1,468.7 658.1,468.7 658.1,468.7 658.1,468.7 658.1,468.7 658.1,468.7 658.1,468.7 658.1,468.7 658.1,468.7 658.1,468.7 658.1,468.7 658.1,468.7 658.1,468.7 658.1,468.7 658.1,468.7 658.1,468.7 658.1,468.7 658.1,468.7 658.1,468.7 658.1,468.7 658.1,468.7 658.1,468.7 658.1,468.7 658.1,468.7 658.1,468.7 658.1,468.7 658.1,468.7 658.1,468.7 658.1,468.7 658.1,468.8 658.1,468.8 658.1,468.8 658.1,468.8 658.1,468.8 658.1,468.8 658.1,468.8 658.1,468.8 658.1,468.8 658.1,468.8 658.1,468.8 658.1,468.8 658.1,468.8 658.1,468.8 658.1,468.8 658.1,468.8 658.1,468.8 658.1,468.8 658.1,468.8 658.1,468.8 658.1,468.8 658.1,468.8 658.1,468.8 658.1,468.8 658.1,468.8 658.1,468.8 658.1,468.8 658.1,468.8 658.1,468.8 658.1,468.8 658.1,468.8 658.1,468.8 658.1,468.8 658.1,468.8 658.1,468.8 658.1,468.8 658.1,468.8 658.1,468.9 658.1,468.9 658.1,468.9 658.1,468.9 658.1,468.9 658.1,468.9 658.1,468.9 658.1,468.9 658.1,468.9 658.1,468.9 658.1,468.9 658.1,468.9 658.1,468.9 658.1,468.9 658.1,468.9 658.1,468.9 658.1,468.9 658.1,468.9 658.1,468.9 658.1,468.9 658.1,468.9 658.1,468.9 658.1,468.9 658.1,468.9 658.1,468.9 658.1,468.9 658.1,468.9 658.1,468.9 658.1,468.9 658.1,468.9 658.1,468.9 658.1,468.9 658.1,468.9 658.1,468.9 658.1,468.9 658.1,468.9 658.1,468.9 658.1,468.9 658.1,469.0 658.1,469.0 658.1,469.0 658.1,469.0 658.1,469.0 658.1,469.0 658.1,469.0 658.1,469.0 658.1,469.0 658.1,469.0 658.1,469.0 658.1,469.0 658.1,469.0 658.1,469.0 658.1,469.0 658.1,469.0 658.1,469.0 658.1,469.0 658.1,469.0 658.1,469.0 658.1,469.0 658.1,469.0 658.1,469.0 658.1,469.0 658.1,469.0 658.1,469.0 658.1,469.0 658.1,469.0 658.1,469.0 658.1,469.0 658.1,469.0 658.1,469.0 658.1,469.0 658.1,469.0 658.1,469.0 658.1,469.0 658.1,469.0 658.1,469.0 658.1,469.0 658.1,469.1 658.1,469.1 658.1,469.1 658.1,469.1 658.1,469.1 658.1,469.1 658.1,469.1 658.1,469.1 658.1,469.1 658.1,469.1 658.1,469.1 658.1,469.1 658.1,469.1 658.1,469.1 658.1,469.1 658.1,469.1 658.1,469.1 658.1,469.1 658.1,469.1 658.1,469.1 658.1,469.1 658.1,469.1 658.1,469.1 658.1,469.1 658.1,469.1 658.1,469.1 658.1,469.1 658.1,469.1 658.1,469.1 658.1,469.1 658.1,469.1 658.1,469.1 658.1,469.1 658.1,469.1 658.1,469.1 658.1,469.1 658.1,469.1 658.1,469.1 658.1,469.1 658.1,469.1 658.1,469.2 658.1,469.2 658.1,469.2 658.1,469.2 658.1,469.2 658.1,469.2 658.1,469.2 658.1,469.2 658.1,469.2 658.1,469.2 658.1,469.2 658.1,469.2 658.1,469.2 658.1,469.2 658.1,469.2 658.1,469.2 658.1,469.2 658.1,469.2 658.1,469.2 658.1,469.2 658.1,469.2 658.1,469.2 658.1,469.2 658.1,469.2 658.1,469.2 658.1,469.2 658.1,469.2 658.1,469.2 658.1,469.2 658.1,469.2 658.1,469.2 658.1,469.2 658.1,469.2 658.1,469.2 658.1,469.2 658.1,469.2 658.1,469.2 658.1,469.2 658.1,469.2 658.1,469.2 658.1,469.2 658.1,469.3 658.1,469.3 658.1,469.3 658.1,469.3 658.1,469.3 658.1,469.3 658.1,469.3 658.1,469.3 658.1,469.3 658.1,469.3 658.1,469.3 658.1,469.3 658.1,469.3 658.1,469.3 658.1,469.3 658.1,469.3 658.1,469.3 658.1,469.3 658.1,469.3 658.1,469.3 658.1,469.3 658.1,469.3 658.1,469.3 658.1,469.3 658.1,469.3 658.1,469.3 658.1,469.3 658.1,469.3 658.1,469.3 658.1,469.3 658.1,469.3 658.1,469.3 658.1,469.3 658.1,469.3 658.1,469.3 658.1,469.3 658.1,469.3 658.1,469.3 658.1,469.3 658.1,469.3 658.1,469.4 658.1,469.4 658.1,469.4 658.1,469.4 658.1,469.4 658.1,469.4 658.1,469.4 658.1,469.4 658.1,469.4 658.1,469.4 658.1,469.4 658.1,469.4 658.1,469.4 658.1,469.4 658.1,469.4 658.1,469.4 658.1,469.4 658.1,469.4 658.1,469.4 658.1,469.4 658.1,469.4 658.1,469.4 658.1,469.4 658.1,469.4 658.1,469.4 658.1,469.4 658.1,469.4 658.1,469.4 658.1,469.4 658.1,469.4 658.1,469.4 658.1,469.4 658.1,469.4 658.1,469.4 658.1,469.4 658.1,469.4 658.1,469.4 658.1,469.4 658.1,469.4 658.1,469.4 658.1,469.4 658.1,469.4 658.1,469.5 658.1,469.5 658.1,469.5 658.1,469.5 658.1,469.5 658.1,469.5 658.1,469.5 658.1,469.5 658.1,469.5 658.1,469.5 658.1,469.5 658.1,469.5 658.1,469.5 658.1,469.5 658.1,469.5 658.1,469.5 658.1,469.5 658.1,469.5 658.1,469.5 658.1,469.5 658.1,469.5 658.1,469.5 658.1,469.5 658.1,469.5 658.1,469.5 658.1,469.5 658.1,469.5 658.1,469.5 658.1,469.5 658.1,469.5 658.1,469.5 658.1,469.5 658.1,469.5 658.1,469.5 658.1,469.5 658.1,469.5 658.1,469.5 658.1,469.5 658.1,469.5 658.1,469.5 658.1,469.5 658.1,469.5 658.1,469.6 658.1,469.6 658.1,469.6 658.1,469.6 658.1,469.6 658.1,469.6 658.1,469.6 658.1,469.6 658.1,469.6 658.1,469.6 658.1,469.6 658.1,469.6 658.1,469.6 658.1,469.6 658.1,469.6 658.1,469.6 658.1,469.6 658.1,469.6 658.1,469.6 658.1,469.6 658.1,469.6 658.1,469.6 658.1,469.6 658.1,469.6 658.1,469.6 658.1,469.6 658.1,469.6 658.1,469.6 658.1,469.6 658.1,469.6 658.1,469.6 658.1,469.6 658.1,469.6 658.1,469.6 658.1,469.6 658.1,469.6 658.1,469.6 658.1,469.6 658.1,469.6 658.1,469.6 658.1,469.6 658.1,469.6 658.1,469.6 658.1,469.6 658.1,469.7 658.1,469.7 658.1,469.7 658.1,469.7 658.1,469.7 658.1,469.7 658.1,469.7 658.1,469.7 658.1,469.7 658.1,469.7 658.1,469.7 658.1,469.7 658.1,469.7 658.1,469.7 658.1,469.7 658.1,469.7 658.1,469.7 658.1,469.7 658.1,469.7 658.1,469.7 658.1,469.7 658.1,469.7 658.1,469.7 658.1,469.7 658.1,469.7 658.1,469.7 658.1,469.7 658.1,469.7 658.1,469.7 658.1,469.7 658.1,469.7 658.1,469.7 658.1,469.7 658.1,469.7 658.1,469.7 658.1,469.7 658.1,469.7 658.1,469.7 658.1,469.7 658.1,469.7 658.1,469.7 658.1,469.7 658.1,469.7 658.1,469.7 658.1,469.8 658.1,469.8 658.1,469.8 658.1,469.8 658.1,469.8 658.1,469.8 658.1,469.8 658.1,469.8 658.1,469.8 658.1,469.8 658.1,469.8 658.1,469.8 658.1,469.8 658.1,469.8 658.1,469.8 658.1,469.8 658.1,469.8 658.1,469.8 658.1,469.8 658.1,469.8 658.1,469.8 658.1,469.8 658.1,469.8 658.1,469.8 658.1,469.8 658.1,469.8 658.1,469.8 658.1,469.8 658.1,469.8 658.1,469.8 658.1,469.8 658.1,469.8 658.1,469.8 658.1,469.8 658.1,469.8 658.1,469.8 658.1,469.8 658.1,469.8 658.1,469.8 658.1,469.8 658.1,469.8 658.1,469.8 658.1,469.8 658.1,469.8 658.1,469.8 658.1,469.8 658.1,469.9 658.1,469.9 658.1,469.9 658.1,469.9 658.1,469.9 658.1,469.9 658.1,469.9 658.1,469.9 658.1,469.9 658.1,469.9 658.1,469.9 658.1,469.9 658.1,469.9 658.1,469.9 658.1,469.9 658.1,469.9 658.1,469.9 658.1,469.9 658.1,469.9 658.1,469.9 658.1,469.9 658.1,469.9 658.1,469.9 658.1,469.9 658.1,469.9 658.1,469.9 658.1,469.9 658.1,469.9 658.1,469.9 658.1,469.9 658.1,469.9 658.1,469.9 658.1,469.9 658.1,469.9 658.1,469.9 658.1,469.9 658.1,469.9 658.1,469.9 658.1,469.9 658.1,469.9 658.1,469.9 658.1,469.9 658.1,469.9 658.1,469.9 658.1,469.9 658.1,469.9 658.1,470.0 658.1,470.0 658.1,470.0 658.1,470.0 658.1,470.0 658.1,470.0 658.1,470.0 658.1,470.0 658.1,470.0 658.1,470.0 658.1,470.0 658.1,470.0 658.1,470.0 658.1,470.0 658.1,470.0 658.1,470.0 658.1,470.0 658.1,470.0 658.1,470.0 658.1,470.0 658.1,470.0 658.1,470.0 658.1,470.0 658.1,470.0 658.1,470.0 658.1,470.0 658.1,470.0 658.1,470.0 658.1,470.0 658.1,470.0 658.1,470.0 658.1,470.0 658.1,470.0 658.1,470.0 658.1,470.0 658.1,470.0 658.1,470.0 658.1,470.0 658.1,470.0 658.1,470.0 658.1,470.0 658.1,470.0 658.1,470.0 658.1,470.0 658.1,470.0 658.1,470.0 658.1,470.0 658.1,470.1 658.1,470.1 658.1,470.1 658.1,470.1 658.1,470.1 658.1,470.1 658.1,470.1 658.1,470.1 658.1,470.1 658.1,470.1 658.1,470.1 658.1,470.1 658.1,470.1 658.1,470.1 658.1,470.1 658.1,470.1 658.1,470.1 658.1,470.1 658.1,470.1 658.1,470.1 658.1,470.1 658.1,470.1 658.1,470.1 658.1,470.1 658.1,470.1 658.1,470.1 658.1,470.1 658.1,470.1 658.1,470.1 658.1,470.1 658.1,470.1 658.1,470.1 658.1,470.1 658.1,470.1 658.1,470.1 658.1,470.1 658.1,470.1 658.1,470.1 658.1,470.1 658.1,470.1 658.1,470.1 658.1,470.1 658.1,470.1 658.1,470.1 658.1,470.1 658.1,470.1 658.1,470.1 658.1,470.1 658.1,470.2 658.1,470.2 658.1,470.2 658.1,470.2 658.1,470.2 658.1,470.2 658.1,470.2 658.1,470.2 658.1,470.2 658.1,470.2 658.1,470.2 658.1,470.2 658.1,470.2 658.1,470.2 658.1,470.2 658.1,470.2 658.1,470.2 658.1,470.2 658.1,470.2 658.1,470.2 658.1,470.2 658.1,470.2 658.1,470.2 658.1,470.2 658.1,470.2 658.1,470.2 658.1,470.2 658.1,470.2 658.1,470.2 658.1,470.2 658.1,470.2 658.1,470.2 658.1,470.2 658.1,470.2 658.1,470.2 658.1,470.2 658.1,470.2 658.1,470.2 658.1,470.2 658.1,470.2 658.1,470.2 658.1,470.2 658.1,470.2 658.1,470.2 658.1,470.2 658.1,470.2 658.1,470.2 658.1,470.2 658.1,470.2 658.1,470.3 658.1,470.3 658.1,470.3 658.1,470.3 658.1,470.3 658.1,470.3 658.1,470.3 658.1,470.3 658.1,470.3 658.1,470.3 658.1,470.3 658.1,470.3 658.1,470.3 658.1,470.3 658.1,470.3 658.1,470.3 658.1,470.3 658.1,470.3 658.1,470.3 658.1,470.3 658.1,470.3 658.1,470.3 658.1,470.3 658.1,470.3 658.1,470.3 658.1,470.3 658.1,470.3 658.1,470.3 658.1,470.3 658.1,470.3 658.1,470.3 658.1,470.3 658.1,470.3 658.1,470.3 658.1,470.3 658.1,470.3 658.1,470.3 658.1,470.3 658.1,470.3 658.1,470.3 658.1,470.3 658.1,470.3 658.1,470.3 658.1,470.3 658.1,470.3 658.1,470.3 658.1,470.3 658.1,470.3 658.1,470.3 658.1,470.3 658.1,470.4 658.1,470.4 658.1,470.4 658.1,470.4 658.1,470.4 658.1,470.4 658.1,470.4 658.1,470.4 658.1,470.4 658.1,470.4 658.1,470.4 658.1,470.4 658.1,470.4 658.1,470.4 658.1,470.4 658.1,470.4 658.1,470.4 658.1,470.4 658.1,470.4 658.1,470.4 658.1,470.4 658.1,470.4 658.1,470.4 658.1,470.4 658.1,470.4 658.1,470.4 658.1,470.4 658.1,470.4 658.1,470.4 658.1,470.4 658.1,470.4 658.1,470.4 658.1,470.4 658.1,470.4 658.1,470.4 658.1,470.4 658.1,470.4 658.1,470.4 658.1,470.4 658.1,470.4 658.1,470.4 658.1,470.4 658.1,470.4 658.1,470.4 658.1,470.4 658.1,470.4 658.1,470.4 658.1,470.4 658.1,470.4 658.1,470.4 658.1,470.5 658.1,470.5 658.1,470.5 658.1,470.5 658.1,470.5 658.1,470.5 658.1,470.5 658.1,470.5 658.1,470.5 658.1,470.5 658.1,470.5 658.1,470.5 658.1,470.5 658.1,470.5 658.1,470.5 658.1,470.5 658.1,470.5 658.1,470.5 658.1,470.5 658.1,470.5 658.1,470.5 658.1,470.5 658.1,470.5 658.1,470.5 658.1,470.5 658.1,470.5 658.1,470.5 658.1,470.5 658.1,470.5 658.1,470.5 658.1,470.5 658.1,470.5 658.1,470.5 658.1,470.5 658.1,470.5 658.1,470.5 658.1,470.5 658.1,470.5 658.1,470.5 658.1,470.5 658.1,470.5 658.1,470.5 658.1,470.5 658.1,470.5 658.1,470.5 658.1,470.5 658.1,470.5 658.1,470.5 658.1,470.5 658.1,470.5 658.1,470.5 658.1,470.5 658.1,470.6 658.1,470.6 658.1,470.6 658.1,470.6 658.1,470.6 658.1,470.6 658.1,470.6 658.1,470.6 658.1,470.6 658.1,470.6 658.1,470.6 658.1,470.6 658.1,470.6 658.1,470.6 658.1,470.6 658.1,470.6 658.1,470.6 658.1,470.6 658.1,470.6 658.1,470.6 658.1,470.6 658.1,470.6 658.1,470.6 658.1,470.6 658.1,470.6 658.1,470.6 658.1,470.6 658.1,470.6 658.1,470.6 658.1,470.6 658.1,470.6 658.1,470.6 658.1,470.6 658.1,470.6 658.1,470.6 658.1,470.6 658.1,470.6 658.1,470.6 658.1,470.6 658.1,470.6 658.1,470.6 658.1,470.6 658.1,470.6 658.1,470.6 658.1,470.6 658.1,470.6 658.1,470.6 658.1,470.6 658.1,470.6 658.1,470.6 658.1,470.6 658.1,470.6 658.1,470.7 658.1,470.7 658.1,470.7 658.1,470.7 658.1,470.7 658.1,470.7 658.1,470.7 658.1,470.7 658.1,470.7 658.1,470.7 658.1,470.7 658.1,470.7 658.1,470.7 658.1,470.7 658.1,470.7 658.1,470.7 658.1,470.7 658.1,470.7 658.1,470.7 658.1,470.7 658.1,470.7 658.1,470.7 658.1,470.7 658.1,470.7 658.1,470.7 658.1,470.7 658.1,470.7 658.1,470.7 658.1,470.7 658.1,470.7 658.1,470.7 658.1,470.7 658.1,470.7 658.1,470.7 658.1,470.7 658.1,470.7 658.1,470.7 658.1,470.7 658.1,470.7 658.1,470.7 658.1,470.7 658.1,470.7 658.1,470.7 658.1,470.7 658.1,470.7 658.1,470.7 658.1,470.7 658.1,470.7 658.1,470.7 658.1,470.7 658.1,470.7 658.1,470.7 658.1,470.7 658.1,470.7 658.1,470.7 658.1,470.8 658.1,470.8 658.1,470.8 658.1,470.8 658.1,470.8 658.1,470.8 658.1,470.8 658.1,470.8 658.1,470.8 658.1,470.8 658.1,470.8 658.1,470.8 658.1,470.8 658.1,470.8 658.1,470.8 658.1,470.8 658.1,470.8 658.1,470.8 658.1,470.8 658.1,470.8 658.1,470.8 658.1,470.8 658.1,470.8 658.1,470.8 658.1,470.8 658.1,470.8 658.1,470.8 658.1,470.8 658.1,470.8 658.1,470.8 658.1,470.8 658.1,470.8 658.1,470.8 658.1,470.8 658.1,470.8 658.1,470.8 658.1,470.8 658.1,470.8 658.1,470.8 658.1,470.8 658.1,470.8 658.1,470.8 658.1,470.8 658.1,470.8 658.1,470.8 658.1,470.8 658.1,470.8 658.1,470.8 658.1,470.8 658.1,470.8 658.1,470.8 658.1,470.8 658.1,470.8 658.1,470.8 658.1,470.8 658.1,470.8 658.1,470.9 658.1,470.9 658.1,470.9 658.1,470.9 658.1,470.9 658.1,470.9 658.1,470.9 658.1,470.9 658.1,470.9 658.1,470.9 658.1,470.9 658.1,470.9 658.1,470.9 658.1,470.9 658.1,470.9 658.1,470.9 658.1,470.9 658.1,470.9 658.1,470.9 658.1,470.9 658.1,470.9 658.1,470.9 658.1,470.9 658.1,470.9 658.1,470.9 658.1,470.9 658.1,470.9 658.1,470.9 658.1,470.9 658.1,470.9 658.1,470.9 658.1,470.9 658.1,470.9 658.1,470.9 658.1,470.9 658.1,470.9 658.1,470.9 658.1,470.9 658.1,470.9 658.1,470.9 658.1,470.9 658.1,470.9 658.1,470.9 658.1,470.9 658.1,470.9 658.1,470.9 658.1,470.9 658.1,470.9 658.1,470.9 658.1,470.9 658.1,470.9 658.1,470.9 658.1,470.9 658.1,470.9 658.1,470.9 658.1,470.9 658.1,471.0 658.1,471.0 658.1,471.0 658.1,471.0 658.1,471.0 658.1,471.0 658.1,471.0 658.1,471.0 658.1,471.0 658.1,471.0 658.1,471.0 658.1,471.0 658.1,471.0 658.1,471.0 658.1,471.0 658.1,471.0 658.1,471.0 658.1,471.0 658.1,471.0 658.1,471.0 658.1,471.0 658.1,471.0 658.1,471.0 658.1,471.0 658.1,471.0 658.1,471.0 658.1,471.0 658.1,471.0 658.1,471.0 658.1,471.0 658.1,471.0 658.1,471.0 658.1,471.0 658.1,471.0 658.1,471.0 658.1,471.0 658.1,471.0 658.1,471.0 658.1,471.0 658.1,471.0 658.1,471.0 658.1,471.0 658.1,471.0 658.1,471.0 658.1,471.0 658.1,471.0 658.1,471.0 658.1,471.0 658.1,471.0 658.1,471.0 658.1,471.0 658.1,471.0 658.1,471.0 658.1,471.0 658.1,471.0 658.1,471.0 658.1,471.0 658.1,471.0 658.1,471.0 658.1,471.1 658.1,471.1 658.1,471.1 658.1,471.1 658.1,471.1 658.1,471.1 658.1,471.1 658.1,471.1 658.1,471.1 658.1,471.1 658.1,471.1 658.1,471.1 658.1,471.1 658.1,471.1 658.1,471.1 658.1,471.1 658.1,471.1 658.1,471.1 658.1,471.1 658.1,471.1 658.1,471.1 658.1,471.1 658.1,471.1 658.1,471.1 658.1,471.1 658.1,471.1 658.1,471.1 658.1,471.1 658.1,471.1 658.1,471.1 658.1,471.1 658.1,471.1 658.1,471.1 658.1,471.1 658.1,471.1 658.1,471.1 658.1,471.1 658.1,471.1 658.1,471.1 658.1,471.1 658.1,471.1 658.1,471.1 658.1,471.1 658.1,471.1 658.1,471.1 658.1,471.1 658.1,471.1 658.1,471.1 658.1,471.1 658.1,471.1 658.1,471.1 658.1,471.1 658.1,471.1 658.1,471.1 658.1,471.1 658.1,471.1 658.1,471.1 658.1,471.1 658.1,471.1 658.1,471.2 658.1,471.2 658.1,471.2 658.1,471.2 658.1,471.2 658.1,471.2 658.1,471.2 658.1,471.2 658.1,471.2 658.1,471.2 658.1,471.2 658.1,471.2 658.1,471.2 658.1,471.2 658.1,471.2 658.1,471.2 658.1,471.2 658.1,471.2 658.1,471.2 658.1,471.2 658.1,471.2 658.1,471.2 658.1,471.2 658.1,471.2 658.1,471.2 658.1,471.2 658.1,471.2 658.1,471.2 658.1,471.2 658.1,471.2 658.1,471.2 658.1,471.2 658.1,471.2 658.1,471.2 658.1,471.2 658.1,471.2 658.1,471.2 658.1,471.2 658.1,471.2 658.1,471.2 658.1,471.2 658.1,471.2 658.1,471.2 658.1,471.2 658.1,471.2 658.1,471.2 658.1,471.2 658.1,471.2 658.1,471.2 658.1,471.2 658.1,471.2 658.1,471.2 658.1,471.2 658.1,471.2 658.1,471.2 658.1,471.2 658.1,471.2 658.1,471.2 658.1,471.2 658.1,471.2 658.1,471.2 658.1,471.3 658.1,471.3 658.1,471.3 658.1,471.3 658.1,471.3 658.1,471.3 658.1,471.3 658.1,471.3 658.1,471.3 658.1,471.3 658.1,471.3 658.1,471.3 658.1,471.3 658.1,471.3 658.1,471.3 658.1,471.3 658.1,471.3 658.1,471.3 658.1,471.3 658.1,471.3 658.1,471.3 658.1,471.3 658.1,471.3 658.1,471.3 658.1,471.3 658.1,471.3 658.1,471.3 658.1,471.3 658.1,471.3 658.1,471.3 658.1,471.3 658.1,471.3 658.1,471.3 658.1,471.3 658.1,471.3 658.1,471.3 658.1,471.3 658.1,471.3 658.1,471.3 658.1,471.3 658.1,471.3 658.1,471.3 658.1,471.3 658.1,471.3 658.1,471.3 658.1,471.3 658.1,471.3 658.1,471.3 658.1,471.3 658.1,471.3 658.1,471.3 658.1,471.3 658.1,471.3 658.1,471.3 658.1,471.3 658.1,471.3 658.1,471.3 658.1,471.3 658.1,471.3 658.1,471.3 658.1,471.3 658.1,471.3 658.1,471.4 658.1,471.4 658.1,471.4 658.1,471.4 658.1,471.4 658.1,471.4 658.1,471.4 658.1,471.4 658.1,471.4 663.0,471.3 663.0,471.3 663.0,471.3 663.0,471.3 663.0,471.3 663.0,471.3 663.0,471.3 663.0,471.3 663.0,471.3 663.0,471.3 663.0,471.3 663.0,471.3 663.0,471.3 663.0,471.3 663.0,471.3 663.0,471.3 663.0,471.3 663.0,471.3 663.0,471.3 663.0,471.3 663.0,471.3 663.0,471.3 663.0,471.3 663.0,471.3 663.0,471.3 663.0,471.3 663.0,471.3 663.0,471.3 663.0,471.3 663.0,471.3 663.0,471.3 663.0,471.3 663.0,471.3 663.0,471.3 663.0,471.3 663.0,471.3 663.0,471.3 663.0,471.3 663.0,471.3 663.0,471.4 663.0,471.4 663.0,471.4 663.0,471.4 663.0,471.4 663.0,471.4 663.0,471.4 663.0,471.4 663.0,471.4 663.0,471.4 663.0,471.4 663.0,471.4 663.0,471.4 663.0,471.4 663.0,471.4 663.0,471.4 663.0,471.4 663.0,471.4 663.0,471.4 663.0,471.4 663.0,471.4 663.0,471.4 663.0,471.4 663.0,471.4 663.0,471.4 663.0,471.4 663.0,471.4 663.0,471.4 663.0,471.4 663.0,471.4 663.0,471.4 663.0,471.4 663.0,471.4 663.0,471.4 663.0,471.4 663.0,471.4 663.0,471.4 663.0,471.4 663.0,471.4 663.0,471.4 663.0,471.4 663.0,471.4 663.0,471.4 663.0,471.4 663.0,471.4 663.0,471.4 663.0,471.4 663.0,471.4 663.0,471.4 663.0,471.4 663.0,471.4 663.0,471.4 663.0,471.4 663.0,471.4 663.0,471.4 663.0,471.4 663.0,471.4 663.0,471.4 663.0,471.4 663.0,471.4 663.0,471.4 663.0,471.4 663.0,471.4 663.0,471.5 663.0,471.5 663.0,471.5 663.0,471.5 663.0,471.5 663.0,471.5 663.0,471.5 663.0,471.5 663.0,471.5 663.0,471.5 663.0,471.5 663.0,471.5 663.0,471.5 663.0,471.5 663.0,471.5 663.0,471.5 663.0,471.5 663.0,471.5 663.0,471.5 663.0,471.5 663.0,471.5 663.0,471.5 663.0,471.5 663.0,471.5 663.0,471.5 663.0,471.5 663.0,471.5 663.0,471.5 663.0,471.5 663.0,471.5 663.0,471.5 663.0,471.5 663.0,471.5 663.0,471.5 663.0,471.5 663.0,471.5 663.0,471.5 663.0,471.5 663.0,471.5 663.0,471.5 663.0,471.5 663.0,471.5 663.0,471.5 663.0,471.5 663.0,471.5 663.0,471.5 663.0,471.5 663.0,471.5 663.0,471.5 663.0,471.5 663.0,471.5 663.0,471.5 663.0,471.5 663.0,471.5 663.0,471.5 663.0,471.5 663.0,471.5 663.0,471.5 663.0,471.5 663.0,471.5 663.0,471.5 663.0,471.5 663.0,471.5 663.0,471.5 663.0,471.5 663.0,471.5 663.0,471.6 663.0,471.6 663.0,471.6 663.0,471.6 663.0,471.6 663.0,471.6 663.0,471.6 663.0,471.6 663.0,471.6 663.0,471.6 663.0,471.6 663.0,471.6 663.0,471.6 663.0,471.6 663.0,471.6 663.0,471.6 663.0,471.6 663.0,471.6 663.0,471.6 663.0,471.6 663.0,471.6 663.0,471.6 663.0,471.6 663.0,471.6 663.0,471.6 663.0,471.6 663.0,471.6 663.0,471.6 663.0,471.6 663.0,471.6 663.0,471.6 663.0,471.6 663.0,471.6 663.0,471.6 663.0,471.6 663.0,471.6 663.0,471.6 663.0,471.6 663.0,471.6 663.0,471.6 663.0,471.6 663.0,471.6 663.0,471.6 663.0,471.6 663.0,471.6 663.0,471.6 663.0,471.6 663.0,471.6 663.0,471.6 663.0,471.6 663.0,471.6 663.0,471.6 663.0,471.6 663.0,471.6 663.0,471.6 663.0,471.6 663.0,471.6 663.0,471.6 663.0,471.6 663.0,471.6 663.0,471.6 663.0,471.6 663.0,471.6 663.0,471.6 663.0,471.6 663.0,471.6 663.0,471.6 663.0,471.7 663.0,471.7 663.0,471.7 663.0,471.7 663.0,471.7 663.0,471.7 663.0,471.7 663.0,471.7 663.0,471.7 663.0,471.7 663.0,471.7 663.0,471.7 663.0,471.7 663.0,471.7 663.0,471.7 663.0,471.7 663.0,471.7 663.0,471.7 663.0,471.7 663.0,471.7 663.0,471.7 663.0,471.7 663.0,471.7 663.0,471.7 663.0,471.7 663.0,471.7 663.0,471.7 663.0,471.7 663.0,471.7 663.0,471.7 663.0,471.7 663.0,471.7 663.0,471.7 663.0,471.7 663.0,471.7 663.0,471.7 663.0,471.7 663.0,471.7 663.0,471.7 663.0,471.7 663.0,471.7 663.0,471.7 663.0,471.7 663.0,471.7 663.0,471.7 663.0,471.7 663.0,471.7 663.0,471.7 663.0,471.7 663.0,471.7 663.0,471.7 663.0,471.7 663.0,471.7 663.0,471.7 663.0,471.7 663.0,471.7 663.0,471.7 663.0,471.7 663.0,471.7 663.0,471.7 663.0,471.7 663.0,471.7 663.0,471.7 663.0,471.7 663.0,471.7 663.0,471.7 663.0,471.7 663.0,471.7 663.0,471.8 663.0,471.8 663.0,471.8 663.0,471.8 663.0,471.8 663.0,471.8 663.0,471.8 663.0,471.8 663.0,471.8 663.0,471.8 663.0,471.8 663.0,471.8 663.0,471.8 663.0,471.8 663.0,471.8 663.0,471.8 663.0,471.8 663.0,471.8 663.0,471.8 663.0,471.8 663.0,471.8 663.0,471.8 663.0,471.8 663.0,471.8 663.0,471.8 663.0,471.8 663.0,471.8 663.0,471.8 663.0,471.8 663.0,471.8 663.0,471.8 663.0,471.8 663.0,471.8 663.0,471.8 663.0,471.8 663.0,471.8 663.0,471.8 663.0,471.8 663.0,471.8 663.0,471.8 663.0,471.8 663.0,471.8 663.0,471.8 663.0,471.8 663.0,471.8 663.0,471.8 663.0,471.8 663.0,471.8 663.0,471.8 663.0,471.8 663.0,471.8 663.0,471.8 663.0,471.8 663.0,471.8 663.0,471.8 663.0,471.8 663.0,471.8 663.0,471.8 663.0,471.8 663.0,471.8 663.0,471.8 663.0,471.8 663.0,471.8 663.0,471.8 663.0,471.8 663.0,471.8 663.0,471.8 663.0,471.8 663.0,471.8 663.0,471.8 663.0,471.8 663.0,471.9 663.0,471.9 663.0,471.9 663.0,471.9 663.0,471.9 663.0,471.9 663.0,471.9 663.0,471.9 663.0,471.9 663.0,471.9 663.0,471.9 663.0,471.9 663.0,471.9 663.0,471.9 663.0,471.9 663.0,471.9 663.0,471.9 663.0,471.9 663.0,471.9 663.0,471.9 663.0,471.9 663.0,471.9 663.0,471.9 663.0,471.9 663.0,471.9 663.0,471.9 663.0,471.9 663.0,471.9 663.0,471.9 663.0,471.9 663.0,471.9 663.0,471.9 663.0,471.9 663.0,471.9 663.0,471.9 663.0,471.9 663.0,471.9 663.0,471.9 663.0,471.9 663.0,471.9 663.0,471.9 663.0,471.9 663.0,471.9 663.0,471.9 663.0,471.9 663.0,471.9 663.0,471.9 663.0,471.9 663.0,471.9 663.0,471.9 663.0,471.9 663.0,471.9 663.0,471.9 663.0,471.9 663.0,471.9 663.0,471.9 663.0,471.9 663.0,471.9 663.0,471.9 663.0,471.9 663.0,471.9 663.0,471.9 663.0,471.9 663.0,471.9 663.0,471.9 663.0,471.9 663.0,471.9 663.0,471.9 663.0,471.9 663.0,471.9 663.0,471.9 663.0,471.9 663.0,471.9 663.0,472.0 663.0,472.0 663.0,472.0 663.0,472.0 663.0,472.0 663.0,472.0 663.0,472.0 663.0,472.0 663.0,472.0 663.0,472.0 663.0,472.0 663.0,472.0 663.0,472.0 663.0,472.0 663.0,472.0 663.0,472.0 663.0,472.0 663.0,472.0 663.0,472.0 663.0,472.0 663.0,472.0 663.0,472.0 663.0,472.0 663.0,472.0 663.0,472.0 663.0,472.0 663.0,472.0 663.0,472.0 663.0,472.0 663.0,472.0 663.0,472.0 663.0,472.0 663.0,472.0 663.0,472.0 663.0,472.0 663.0,472.0 663.0,472.0 663.0,472.0 663.0,472.0 663.0,472.0 663.0,472.0 663.0,472.0 663.0,472.0 663.0,472.0 663.0,472.0 663.0,472.0 663.0,472.0 663.0,472.0 663.0,472.0 663.0,472.0 663.0,472.0 663.0,472.0 663.0,472.0 663.0,472.0 663.0,472.0 663.0,472.0 663.0,472.0 663.0,472.0 663.0,472.0 663.0,472.0 663.0,472.0 663.0,472.0 663.0,472.0 663.0,472.0 663.0,472.0 663.0,472.0 663.0,472.0 663.0,472.0 663.0,472.0 663.0,472.0 663.0,472.0 663.0,472.0 663.0,472.0 663.0,472.0 663.0,472.1 663.0,472.1 663.0,472.1 663.0,472.1 663.0,472.1 663.0,472.1 663.0,472.1 663.0,472.1 663.0,472.1 663.0,472.1 663.0,472.1 663.0,472.1 663.0,472.1 663.0,472.1 663.0,472.1 663.0,472.1 663.0,472.1 663.0,472.1 663.0,472.1 663.0,472.1 663.0,472.1 663.0,472.1 663.0,472.1 663.0,472.1 663.0,472.1 663.0,472.1 663.0,472.1 663.0,472.1 663.0,472.1 663.0,472.1 663.0,472.1 663.0,472.1 663.0,472.1 663.0,472.1 663.0,472.1 663.0,472.1 663.0,472.1 663.0,472.1 663.0,472.1 663.0,472.1 663.0,472.1 663.0,472.1 663.0,472.1 663.0,472.1 663.0,472.1 663.0,472.1 663.0,472.1 663.0,472.1 663.0,472.1 663.0,472.1 663.0,472.1 663.0,472.1 663.0,472.1 663.0,472.1 663.0,472.1 663.0,472.1 663.0,472.1 663.0,472.1 663.0,472.1 663.0,472.1 663.0,472.1 663.0,472.1 668.0,472.1 668.0,472.1 668.0,472.1 668.0,472.1 668.0,472.1 668.0,472.1 668.0,472.1 668.0,472.1 668.0,472.1 668.0,472.1 668.0,472.1 668.0,472.1 668.0,472.1 668.0,472.1 668.0,472.1 668.0,472.1 668.0,472.1 668.0,472.1 668.0,472.1 668.0,472.1 668.0,472.1 668.0,472.1 668.0,472.1 668.0,472.1 668.0,472.1 668.0,472.1 668.0,472.1 668.0,472.1 668.0,472.1 668.0,472.1 668.0,472.1 668.0,472.1 668.0,472.1 668.0,472.1 668.0,472.1 668.0,472.1 668.0,472.1 668.0,472.1 668.0,472.1 668.0,472.1 668.0,472.1 668.0,472.1 668.0,472.1 668.0,472.1 668.0,472.1 668.0,472.1 668.0,472.1 668.0,472.1 668.0,472.1 668.0,472.1 668.0,472.1 668.0,472.1 668.0,472.1 668.0,472.1 668.0,472.1 668.0,472.1 668.0,472.1 668.0,472.1 668.0,472.1 668.0,472.1 668.0,472.1 668.0,472.1 668.0,472.1 668.0,472.1 668.0,472.1 668.0,472.1 668.0,472.2 668.0,472.2 668.0,472.2 668.0,472.2 668.0,472.2 668.0,472.2 668.0,472.2 668.0,472.2 668.0,472.2 668.0,472.2 668.0,472.2 668.0,472.2 668.0,472.2 668.0,472.2 668.0,472.2 668.0,472.2 668.0,472.2 668.0,472.2 668.0,472.2 668.0,472.2 668.0,472.2 668.0,472.2 668.0,472.2 668.0,472.2 668.0,472.2 668.0,472.2 668.0,472.2 668.0,472.2 668.0,472.2 668.0,472.2 668.0,472.2 668.0,472.2 668.0,472.2 668.0,472.2 668.0,472.2 668.0,472.2 668.0,472.2 668.0,472.2 668.0,472.2 668.0,472.2 668.0,472.2 668.0,472.2 668.0,472.2 668.0,472.2 668.0,472.2 668.0,472.2 668.0,472.2 668.0,472.2 668.0,472.2 668.0,472.2 668.0,472.2 668.0,472.2 668.0,472.2 668.0,472.2 668.0,472.2 668.0,472.2 668.0,472.2 668.0,472.2 668.0,472.2 668.0,472.2 668.0,472.2 668.0,472.2 668.0,472.2 668.0,472.2 668.0,472.2 668.0,472.2 668.0,472.2 668.0,472.2 668.0,472.2 668.0,472.2 668.0,472.2 668.0,472.2 668.0,472.2 668.0,472.2 668.0,472.2 668.0,472.2 668.0,472.2 668.0,472.2 668.0,472.2 668.0,472.3 668.0,472.3 668.0,472.3 668.0,472.3 668.0,472.3 668.0,472.3 668.0,472.3 668.0,472.3 668.0,472.3 668.0,472.3 668.0,472.3 668.0,472.3 668.0,472.3 668.0,472.3 668.0,472.3 668.0,472.3 668.0,472.3 668.0,472.3 668.0,472.3 668.0,472.3 668.0,472.3 668.0,472.3 668.0,472.3 668.0,472.3 668.0,472.3 668.0,472.3 668.0,472.3 668.0,472.3 668.0,472.3 668.0,472.3 668.0,472.3 668.0,472.3 668.0,472.3 668.0,472.3 668.0,472.3 668.0,472.3 668.0,472.3 668.0,472.3 668.0,472.3 668.0,472.3 668.0,472.3 668.0,472.3 668.0,472.3 668.0,472.3 668.0,472.3 668.0,472.3 668.0,472.3 668.0,472.3 668.0,472.3 668.0,472.3 668.0,472.3 668.0,472.3 668.0,472.3 668.0,472.3 668.0,472.3 668.0,472.3 668.0,472.3 668.0,472.3 668.0,472.3 668.0,472.3 668.0,472.3 668.0,472.3 668.0,472.3 668.0,472.3 668.0,472.3 668.0,472.3 668.0,472.3 668.0,472.3 668.0,472.3 668.0,472.3 668.0,472.3 668.0,472.3 668.0,472.3 668.0,472.3 668.0,472.3 668.0,472.3 668.0,472.3 668.0,472.3 668.0,472.3 668.0,472.3 668.0,472.4 668.0,472.4 668.0,472.4 668.0,472.4 668.0,472.4 668.0,472.4 668.0,472.4 668.0,472.4 668.0,472.4 668.0,472.4 668.0,472.4 668.0,472.4 668.0,472.4 668.0,472.4 668.0,472.4 668.0,472.4 668.0,472.4 668.0,472.4 668.0,472.4 668.0,472.4 668.0,472.4 668.0,472.4 668.0,472.4 668.0,472.4 668.0,472.4 668.0,472.4 668.0,472.4 668.0,472.4 668.0,472.4 668.0,472.4 668.0,472.4 668.0,472.4 668.0,472.4 668.0,472.4 668.0,472.4 668.0,472.4 668.0,472.4 668.0,472.4 668.0,472.4 668.0,472.4 668.0,472.4 668.0,472.4 668.0,472.4 668.0,472.4 668.0,472.4 668.0,472.4 668.0,472.4 668.0,472.4 668.0,472.4 668.0,472.4 668.0,472.4 668.0,472.4 668.0,472.4 668.0,472.4 668.0,472.4 668.0,472.4 668.0,472.4 668.0,472.4 668.0,472.4 668.0,472.4 668.0,472.4 668.0,472.4 668.0,472.4 668.0,472.4 668.0,472.4 668.0,472.4 668.0,472.4 668.0,472.4 668.0,472.4 668.0,472.4 668.0,472.4 668.0,472.4 668.0,472.4 668.0,472.4 668.0,472.4 668.0,472.4 668.0,472.4 668.0,472.4 668.0,472.4 668.0,472.4 668.0,472.4 668.0,472.4 668.0,472.4 668.0,472.5 668.0,472.5 668.0,472.5 668.0,472.5 668.0,472.5 668.0,472.5 668.0,472.5 668.0,472.5 668.0,472.5 668.0,472.5 668.0,472.5 668.0,472.5 668.0,472.5 668.0,472.5 668.0,472.5 668.0,472.5 668.0,472.5 668.0,472.5 668.0,472.5 668.0,472.5 668.0,472.5 668.0,472.5 668.0,472.5 668.0,472.5 668.0,472.5 668.0,472.5 668.0,472.5 668.0,472.5 668.0,472.5 668.0,472.5 668.0,472.5 668.0,472.5 668.0,472.5 668.0,472.5 668.0,472.5 668.0,472.5 668.0,472.5 668.0,472.5 668.0,472.5 668.0,472.5 668.0,472.5 668.0,472.5 668.0,472.5 668.0,472.5 668.0,472.5 668.0,472.5 668.0,472.5 668.0,472.5 668.0,472.5 668.0,472.5 668.0,472.5 668.0,472.5 668.0,472.5 668.0,472.5 668.0,472.5 668.0,472.5 668.0,472.5 668.0,472.5 668.0,472.5 668.0,472.5 668.0,472.5 668.0,472.5 668.0,472.5 668.0,472.5 668.0,472.5 668.0,472.5 668.0,472.5 668.0,472.5 668.0,472.5 668.0,472.5 668.0,472.5 668.0,472.5 668.0,472.5 668.0,472.5 668.0,472.5 668.0,472.5 668.0,472.5 668.0,472.5 668.0,472.5 668.0,472.5 668.0,472.5 668.0,472.5 668.0,472.5 668.0,472.5 668.0,472.5 668.0,472.6 668.0,472.6 668.0,472.6 668.0,472.6 668.0,472.6 668.0,472.6 668.0,472.6 668.0,472.6 668.0,472.6 668.0,472.6 668.0,472.6 668.0,472.6 668.0,472.6 668.0,472.6 668.0,472.6 668.0,472.6 668.0,472.6 668.0,472.6 668.0,472.6 668.0,472.6 668.0,472.6 668.0,472.6 668.0,472.6 668.0,472.6 668.0,472.6 668.0,472.6 668.0,472.6 668.0,472.6 668.0,472.6 668.0,472.6 668.0,472.6 668.0,472.6 668.0,472.6 668.0,472.6 668.0,472.6 668.0,472.6 668.0,472.6 668.0,472.6 668.0,472.6 668.0,472.6 668.0,472.6 668.0,472.6 668.0,472.6 668.0,472.6 668.0,472.6 668.0,472.6 668.0,472.6 668.0,472.6 668.0,472.6 668.0,472.6 668.0,472.6 668.0,472.6 668.0,472.6 668.0,472.6 668.0,472.6 668.0,472.6 668.0,472.6 668.0,472.6 668.0,472.6 668.0,472.6 668.0,472.6 668.0,472.6 668.0,472.6 668.0,472.6 668.0,472.6 668.0,472.6 668.0,472.6 668.0,472.6 668.0,472.6 668.0,472.6 668.0,472.6 668.0,472.6 668.0,472.6 668.0,472.6 668.0,472.6 668.0,472.6 668.0,472.6 668.0,472.6 668.0,472.6 668.0,472.6 668.0,472.6 668.0,472.6 668.0,472.6 668.0,472.6 668.0,472.6 668.0,472.6 668.0,472.6 668.0,472.7 668.0,472.7 668.0,472.7 668.0,472.7 668.0,472.7 668.0,472.7 668.0,472.7 668.0,472.7 668.0,472.7 668.0,472.7 668.0,472.7 668.0,472.7 668.0,472.7 668.0,472.7 668.0,472.7 668.0,472.7 668.0,472.7 668.0,472.7 668.0,472.7 668.0,472.7 668.0,472.7 668.0,472.7 668.0,472.7 668.0,472.7 668.0,472.7 668.0,472.7 668.0,472.7 668.0,472.7 668.0,472.7 668.0,472.7 668.0,472.7 668.0,472.7 668.0,472.7 668.0,472.7 668.0,472.7 668.0,472.7 668.0,472.7 668.0,472.7 668.0,472.7 668.0,472.7 668.0,472.7 668.0,472.7 668.0,472.7 668.0,472.7 668.0,472.7 668.0,472.7 668.0,472.7 668.0,472.7 668.0,472.7 668.0,472.7 668.0,472.7 668.0,472.7 668.0,472.7 668.0,472.7 668.0,472.7 668.0,472.7 668.0,472.7 668.0,472.7 668.0,472.7 668.0,472.7 668.0,472.7 668.0,472.7 668.0,472.7 668.0,472.7 668.0,472.7 668.0,472.7 668.0,472.7 668.0,472.7 668.0,472.7 668.0,472.7 668.0,472.7 668.0,472.7 668.0,472.7 668.0,472.7 668.0,472.7 668.0,472.7 668.0,472.7 668.0,472.7 668.0,472.7 668.0,472.7 668.0,472.7 668.0,472.7 668.0,472.7 668.0,472.7 668.0,472.7 668.0,472.7 668.0,472.7 668.0,472.7 668.0,472.7 668.0,472.7 668.0,472.8 668.0,472.8 668.0,472.8 668.0,472.8 668.0,472.8 668.0,472.8 668.0,472.8 668.0,472.8 668.0,472.8 668.0,472.8"/>
<text class="label" x="333.0" y="554">Recall</text>
<text class="label" transform="translate(28 320.0) rotate(-90)">Precision</text>
</svg>