<svg xmlns="http://www.w3.org/2000/svg" width="980" height="620" viewBox="0 0 980 620">
<rect width="100%" height="100%" fill="#ffffff"/>
<style>text{font-family:Arial,sans-serif;fill:#111827}.title{font-size:26px;font-weight:700}.subtitle{font-size:16px;fill:#4b5563}.section{font-size:20px;font-weight:700}.panel-title{font-size:19px;font-weight:700}.tick{font-size:13px;fill:#4b5563}.label{font-size:15px}.label-strong{font-size:18px;font-weight:700}.value{font-size:15px;font-weight:700}.metric{font-size:28px;font-weight:700}.metric-label{font-size:14px;fill:#4b5563}.note{font-size:18px;font-weight:700;fill:#991b1b}.grid{stroke:#e5e7eb;stroke-width:1}.axis{stroke:#d1d5db;stroke-width:1}</style>
<text class="title" x="70" y="45">Threshold Sweep</text>
<text class="subtitle" x="70" y="73">Shows the trade-off between malignant sensitivity, specificity, precision, and F1.</text>
<line class="grid" x1="95.0" y1="90" x2="95.0" y2="490"/>
<line class="grid" x1="95" y1="490.0" x2="885" y2="490.0"/>
<text class="tick" x="85.0" y="516">0.0</text>
<text class="tick" x="50" y="495.0">0.0</text>
<line class="grid" x1="253.0" y1="90" x2="253.0" y2="490"/>
<line class="grid" x1="95" y1="410.0" x2="885" y2="410.0"/>
<text class="tick" x="243.0" y="516">0.2</text>
<text class="tick" x="50" y="415.0">0.2</text>
<line class="grid" x1="411.0" y1="90" x2="411.0" y2="490"/>
<line class="grid" x1="95" y1="330.0" x2="885" y2="330.0"/>
<text class="tick" x="401.0" y="516">0.4</text>
<text class="tick" x="50" y="335.0">0.4</text>
<line class="grid" x1="569.0" y1="90" x2="569.0" y2="490"/>
<line class="grid" x1="95" y1="250.0" x2="885" y2="250.0"/>
<text class="tick" x="559.0" y="516">0.6</text>
<text class="tick" x="50" y="255.0">0.6</text>
<line class="grid" x1="727.0" y1="90" x2="727.0" y2="490"/>
<line class="grid" x1="95" y1="170.0" x2="885" y2="170.0"/>
<text class="tick" x="717.0" y="516">0.8</text>
<text class="tick" x="50" y="175.0">0.8</text>
<line class="grid" x1="885.0" y1="90" x2="885.0" y2="490"/>
<line class="grid" x1="95" y1="90.0" x2="885" y2="90.0"/>
<text class="tick" x="875.0" y="516">1.0</text>
<text class="tick" x="50" y="95.0">1.0</text>
<polyline points="95.0,90.0 102.9,93.4 110.8,96.8 118.7,96.8 126.6,96.8 134.5,96.8 142.4,107.1 150.3,107.1 158.2,107.1 166.1,107.1 174.0,107.1 181.9,107.1 189.8,107.1 197.7,110.5 205.6,113.9 213.5,117.4 221.4,117.4 229.3,117.4 237.2,120.8 245.1,120.8 253.0,124.2 260.9,127.6 268.8,134.4 276.7,141.3 284.6,148.1 292.5,148.1 300.4,151.5 308.3,151.5 316.2,155.0 324.1,158.4 332.0,165.2 339.9,168.6 347.8,178.9 355.7,182.3 363.6,182.3 371.5,189.1 379.4,202.8 387.3,209.7 395.2,216.5 403.1,223.3 411.0,226.8 418.9,230.2 426.8,233.6 434.7,243.8 442.6,254.1 450.5,264.4 458.4,264.4 466.3,267.8 474.2,271.2 482.1,271.2 490.0,274.6 497.9,288.3 505.8,291.7 513.7,302.0 521.6,308.8 529.5,312.2 537.4,315.6 545.3,322.5 553.2,322.5 561.1,325.9 569.0,332.7 576.9,336.2 584.8,339.6 592.7,343.0 600.6,349.8 608.5,360.1 616.4,363.5 624.3,370.3 632.2,394.3 640.1,397.7 648.0,414.8 655.9,421.6 663.8,425.0 671.7,431.9 679.6,438.7 687.5,449.0 695.4,455.8 703.3,462.6 711.2,462.6 719.1,462.6 727.0,462.6 734.9,469.5 742.8,472.9 750.7,479.7 758.6,479.7 766.5,483.2 774.4,483.2 782.3,486.6 790.2,490.0 798.1,490.0 806.0,490.0 813.9,490.0 821.8,490.0 829.7,490.0 837.6,490.0 845.5,490.0 853.4,490.0 861.3,490.0 869.2,490.0 877.1,490.0 885.0,490.0" fill="none" stroke="#dc2626" stroke-width="3"/>
<line x1="620" y1="42" x2="654" y2="42" stroke="#dc2626" stroke-width="3"/>
<text class="label" x="663" y="47">sensitivity</text>
<polyline points="95.0,490.0 102.9,430.6 110.8,393.6 118.7,369.6 126.6,351.6 134.5,335.7 142.4,322.6 150.3,309.1 158.2,299.9 166.1,290.9 174.0,282.9 181.9,274.9 189.8,267.8 197.7,261.5 205.6,255.3 213.5,249.0 221.4,243.0 229.3,236.6 237.2,230.4 245.1,224.2 253.0,217.8 260.9,213.6 268.8,208.5 276.7,203.5 284.6,199.0 292.5,195.5 300.4,190.9 308.3,186.3 316.2,182.4 324.1,178.5 332.0,175.7 339.9,171.0 347.8,167.1 355.7,163.0 363.6,159.8 371.5,155.9 379.4,153.8 387.3,150.9 395.2,148.1 403.1,144.8 411.0,141.9 418.9,139.5 426.8,136.7 434.7,134.3 442.6,132.4 450.5,130.4 458.4,127.4 466.3,125.5 474.2,123.3 482.1,121.0 490.0,119.4 497.9,117.8 505.8,116.0 513.7,114.2 521.6,112.2 529.5,110.2 537.4,109.1 545.3,107.7 553.2,106.2 561.1,104.8 569.0,104.0 576.9,102.8 584.8,101.7 592.7,100.4 600.6,99.3 608.5,98.2 616.4,97.2 624.3,96.5 632.2,96.1 640.1,95.3 648.0,94.4 655.9,93.9 663.8,93.6 671.7,93.2 679.6,92.9 687.5,92.5 695.4,92.0 703.3,91.7 711.2,91.4 719.1,91.3 727.0,91.1 734.9,90.9 742.8,90.7 750.7,90.4 758.6,90.3 766.5,90.2 774.4,90.2 782.3,90.1 790.2,90.1 798.1,90.1 806.0,90.1 813.9,90.0 821.8,90.0 829.7,90.0 837.6,90.0 845.5,90.0 853.4,90.0 861.3,90.0 869.2,90.0 877.1,90.0 885.0,90.0" fill="none" stroke="#2563eb" stroke-width="3"/>
<line x1="620" y1="66" x2="654" y2="66" stroke="#2563eb" stroke-width="3"/>
<text class="label" x="663" y="71">specificity</text>
<polyline points="95.0,482.9 102.9,481.8 110.8,480.9 118.7,480.1 126.6,479.5 134.5,478.8 142.4,478.5 150.3,477.8 158.2,477.3 166.1,476.7 174.0,476.2 181.9,475.6 189.8,475.1 197.7,474.7 205.6,474.3 213.5,473.8 221.4,473.2 229.3,472.5 237.2,471.9 245.1,471.1 253.0,470.4 260.9,470.0 268.8,469.5 276.7,469.1 284.6,468.6 292.5,468.0 300.4,467.2 308.3,466.2 316.2,465.5 324.1,464.8 332.0,464.5 339.9,463.4 347.8,462.9 355.7,461.8 363.6,460.6 371.5,459.7 379.4,460.1 387.3,459.4 395.2,458.8 403.1,457.8 411.0,456.6 418.9,455.5 426.8,454.1 434.7,453.7 442.6,453.6 450.5,453.5 458.4,450.9 466.3,449.5 474.2,447.8 482.1,445.0 490.0,443.4 497.9,443.8 505.8,441.8 513.7,440.9 521.6,438.9 529.5,435.3 537.4,433.5 545.3,431.8 553.2,427.2 561.1,423.6 569.0,422.6 576.9,419.1 584.8,415.1 592.7,409.2 600.6,405.0 608.5,401.6 616.4,393.9 624.3,390.7 632.2,401.8 640.1,395.3 648.0,395.4 655.9,393.6 663.8,391.3 671.7,391.4 679.6,393.2 687.5,397.7 695.4,397.0 703.3,401.1 711.2,386.8 719.1,379.7 727.0,366.9 734.9,375.7 742.8,372.4 750.7,356.7 758.6,340.0 766.5,356.7 774.4,330.0 782.3,290.0 790.2,490.0 798.1,490.0 806.0,490.0 813.9,490.0 821.8,490.0 829.7,490.0 837.6,490.0 845.5,490.0 853.4,490.0 861.3,490.0 869.2,490.0 877.1,490.0 885.0,490.0" fill="none" stroke="#0f766e" stroke-width="3"/>
<line x1="620" y1="90" x2="654" y2="90" stroke="#0f766e" stroke-width="3"/>
<text class="label" x="663" y="95">precision</text>
<polyline points="95.0,476.1 102.9,473.9 110.8,472.2 118.7,470.8 126.6,469.5 134.5,468.3 142.4,467.7 150.3,466.4 158.2,465.4 166.1,464.4 174.0,463.4 181.9,462.3 189.8,461.3 197.7,460.6 205.6,459.8 213.5,459.0 221.4,457.9 229.3,456.6 237.2,455.6 245.1,454.1 253.0,452.8 260.9,452.0 268.8,451.3 276.7,450.5 284.6,449.8 292.5,448.6 300.4,447.4 308.3,445.6 316.2,444.4 324.1,443.1 332.0,442.7 339.9,440.8 347.8,440.2 355.7,438.4 363.6,436.3 371.5,434.9 379.4,435.8 387.3,434.9 395.2,434.0 403.1,432.6 411.0,430.7 418.9,429.1 426.8,427.0 434.7,426.7 442.6,427.0 450.5,427.1 458.4,423.3 466.3,421.5 474.2,419.2 482.1,415.4 490.0,413.4 497.9,414.8 505.8,412.4 513.7,412.1 521.6,410.3 529.5,406.3 537.4,404.6 545.3,403.7 553.2,398.6 561.1,395.4 569.0,395.6 576.9,393.0 584.8,390.0 592.7,385.8 600.6,384.2 608.5,384.8 616.4,380.8 624.3,381.5 632.2,398.2 640.1,396.5 648.0,406.2 655.9,410.0 663.8,411.6 671.7,416.9 679.6,423.0 687.5,433.2 695.4,440.0 703.3,448.2 711.2,446.8 719.1,446.2 727.0,445.2 734.9,455.2 742.8,460.1 750.7,471.0 758.6,470.8 766.5,477.0 774.4,476.9 782.3,483.3 790.2,490.0 798.1,490.0 806.0,490.0 813.9,490.0 821.8,490.0 829.7,490.0 837.6,490.0 845.5,490.0 853.4,490.0 861.3,490.0 869.2,490.0 877.1,490.0 885.0,490.0" fill="none" stroke="#7c3aed" stroke-width="3"/>
<line x1="620" y1="114" x2="654" y2="114" stroke="#7c3aed" stroke-width="3"/>
<text class="label" x="663" y="119">f1</text>
<line class="axis" x1="95" y1="490" x2="885" y2="490"/>
<line class="axis" x1="95" y1="90" x2="95" y2="490"/>
<text class="label" x="458.0" y="582">Threshold</text>
<text class="label" transform="translate(28 310.0) rotate(-90)">Metric value</text>
</svg>