<svg xmlns="http://www.w3.org/2000/svg" width="1100" height="760" viewBox="0 0 1100 760">
<rect width="100%" height="100%" fill="#ffffff"/>
<style>text{font-family:Arial,sans-serif;fill:#111827}.title{font-size:26px;font-weight:700}.subtitle{font-size:16px;fill:#4b5563}.section{font-size:20px;font-weight:700}.panel-title{font-size:19px;font-weight:700}.tick{font-size:13px;fill:#4b5563}.label{font-size:15px}.label-strong{font-size:18px;font-weight:700}.value{font-size:15px;font-weight:700}.metric{font-size:28px;font-weight:700}.metric-label{font-size:14px;fill:#4b5563}.note{font-size:18px;font-weight:700;fill:#991b1b}.grid{stroke:#e5e7eb;stroke-width:1}.axis{stroke:#d1d5db;stroke-width:1}</style>
<text class="title" x="60" y="45">ISIC2020 Clinical Metadata Overview</text>
<text class="subtitle" x="60" y="73">Total images: 33,126; mean age: 48.77 years.</text>
<text class="section" x="60" y="125">Sex distribution</text>
<text class="label" x="60" y="172">male</text>
<rect x="220" y="150" width="300.0" height="28" fill="#0f766e" rx="4"/>
<text class="value" x="530.0" y="170">17,080 (51.6%)</text>
<text class="label" x="60" y="214">female</text>
<rect x="220" y="192" width="280.7" height="28" fill="#0f766e" rx="4"/>
<text class="value" x="510.7" y="212">15,981 (48.2%)</text>
<text class="label" x="60" y="256">unknown</text>
<rect x="220" y="234" width="1.1" height="28" fill="#0f766e" rx="4"/>
<text class="value" x="231.1" y="254">65 (0.2%)</text>
<text class="section" x="60" y="330">Anatomical site distribution</text>
<text class="label" x="60" y="382">torso</text>
<rect x="260" y="360" width="620.0" height="30" fill="#7c3aed" rx="4"/>
<text class="value" x="890.0" y="382">16,845 (50.9%)</text>
<text class="label" x="60" y="426">lower extremity</text>
<rect x="260" y="404" width="309.8" height="30" fill="#7c3aed" rx="4"/>
<text class="value" x="579.8" y="426">8,417 (25.4%)</text>
<text class="label" x="60" y="470">upper extremity</text>
<rect x="260" y="448" width="183.4" height="30" fill="#7c3aed" rx="4"/>
<text class="value" x="453.4" y="470">4,983 (15.0%)</text>
<text class="label" x="60" y="514">head/neck</text>
<rect x="260" y="492" width="68.3" height="30" fill="#7c3aed" rx="4"/>
<text class="value" x="338.3" y="514">1,855 (5.6%)</text>
<text class="label" x="60" y="558">unknown</text>
<rect x="260" y="536" width="19.4" height="30" fill="#7c3aed" rx="4"/>
<text class="value" x="289.4" y="558">527 (1.6%)</text>
<text class="label" x="60" y="602">palms/soles</text>
<rect x="260" y="580" width="13.8" height="30" fill="#7c3aed" rx="4"/>
<text class="value" x="283.8" y="602">375 (1.1%)</text>
<text class="label" x="60" y="646">oral/genital</text>
<rect x="260" y="624" width="4.6" height="30" fill="#7c3aed" rx="4"/>
<text class="value" x="274.6" y="646">124 (0.4%)</text>
</svg>