<svg xmlns="http://www.w3.org/2000/svg" width="760" height="590" viewBox="0 0 760 590">
<rect width="100%" height="100%" fill="#ffffff"/>
<style>text{font-family:Arial,sans-serif;fill:#111827}.title{font-size:26px;font-weight:700}.subtitle{font-size:16px;fill:#4b5563}.section{font-size:20px;font-weight:700}.panel-title{font-size:19px;font-weight:700}.tick{font-size:13px;fill:#4b5563}.label{font-size:15px}.label-strong{font-size:18px;font-weight:700}.value{font-size:15px;font-weight:700}.metric{font-size:28px;font-weight:700}.metric-label{font-size:14px;fill:#4b5563}.note{font-size:18px;font-weight:700;fill:#991b1b}.grid{stroke:#e5e7eb;stroke-width:1}.axis{stroke:#d1d5db;stroke-width:1}</style>
<text class="title" x="88" y="40">ROC Curve</text>
<line class="grid" x1="88.0" y1="70" x2="88.0" y2="480"/>
<line class="grid" x1="88" y1="480.0" x2="668" y2="480.0"/>
<text class="tick" x="78.0" y="506">0.0</text>
<text class="tick" x="43" y="485.0">0.0</text>
<line class="grid" x1="204.0" y1="70" x2="204.0" y2="480"/>
<line class="grid" x1="88" y1="398.0" x2="668" y2="398.0"/>
<text class="tick" x="194.0" y="506">0.2</text>
<text class="tick" x="43" y="403.0">0.2</text>
<line class="grid" x1="320.0" y1="70" x2="320.0" y2="480"/>
<line class="grid" x1="88" y1="316.0" x2="668" y2="316.0"/>
<text class="tick" x="310.0" y="506">0.4</text>
<text class="tick" x="43" y="321.0">0.4</text>
<line class="grid" x1="436.0" y1="70" x2="436.0" y2="480"/>
<line class="grid" x1="88" y1="234.0" x2="668" y2="234.0"/>
<text class="tick" x="426.0" y="506">0.6</text>
<text class="tick" x="43" y="239.0">0.6</text>
<line class="grid" x1="552.0" y1="70" x2="552.0" y2="480"/>
<line class="grid" x1="88" y1="152.0" x2="668" y2="152.0"/>
<text class="tick" x="542.0" y="506">0.8</text>
<text class="tick" x="43" y="157.0">0.8</text>
<line class="grid" x1="668.0" y1="70" x2="668.0" y2="480"/>
<line class="grid" x1="88" y1="70.0" x2="668" y2="70.0"/>
<text class="tick" x="658.0" y="506">1.0</text>
<text class="tick" x="43" y="75.0">1.0</text>
<line class="axis" x1="88" y1="480" x2="668" y2="480"/>
<line class="axis" x1="88" y1="70" x2="88" y2="480"/>
<polyline fill="none" stroke="#2563eb" stroke-width="3" points="88.0,480.0 88.1,480.0 88.1,476.5 88.2,476.5 88.2,473.0 88.3,473.0 88.4,473.0 88.4,469.5 88.4,469.5 88.5,469.5 88.6,469.5 88.7,469.5 88.8,469.5 88.8,466.0 88.8,462.5 88.8,459.0 88.9,459.0 89.0,459.0 89.0,455.5 89.0,452.0 89.0,448.5 89.1,448.5 89.2,448.5 89.2,448.5 89.3,448.5 89.4,448.5 89.4,445.0 89.5,445.0 89.6,445.0 89.7,445.0 89.8,445.0 89.9,445.0 89.9,441.5 90.0,441.5 90.0,441.5 90.1,441.5 90.2,441.5 90.3,441.5 90.4,441.5 90.4,437.9 90.5,437.9 90.6,437.9 90.7,437.9 90.8,437.9 90.9,437.9 90.9,437.9 91.0,437.9 91.1,437.9 91.2,437.9 91.3,437.9 91.4,437.9 91.5,437.9 91.6,437.9 91.6,434.4 91.7,434.4 91.7,434.4 91.7,430.9 91.8,430.9 91.8,427.4 91.9,427.4 92.0,427.4 92.1,427.4 92.2,427.4 92.3,427.4 92.4,427.4 92.5,427.4 92.5,423.9 92.5,423.9 92.5,420.4 92.6,420.4 92.7,420.4 92.8,420.4 92.9,420.4 93.0,420.4 93.1,420.4 93.2,420.4 93.3,420.4 93.3,420.4 93.4,420.4 93.5,420.4 93.6,420.4 93.7,420.4 93.8,420.4 93.9,420.4 94.0,420.4 94.1,420.4 94.1,420.4 94.2,420.4 94.3,420.4 94.4,420.4 94.5,420.4 94.6,420.4 94.6,416.9 94.7,416.9 94.8,416.9 94.9,416.9 95.0,416.9 95.0,416.9 95.1,416.9 95.2,416.9 95.2,413.4 95.3,413.4 95.3,409.9 95.3,406.4 95.4,406.4 95.5,406.4 95.6,406.4 95.7,406.4 95.8,406.4 95.8,406.4 95.9,406.4 95.9,402.9 96.0,402.9 96.1,402.9 96.2,402.9 96.3,402.9 96.4,402.9 96.4,399.4 96.5,399.4 96.6,399.4 96.6,395.9 96.6,395.9 96.7,395.9 96.8,395.9 96.9,395.9 97.0,395.9 97.1,395.9 97.2,395.9 97.3,395.9 97.4,395.9 97.4,392.4 97.4,392.4 97.5,392.4 97.6,392.4 97.6,388.9 97.7,388.9 97.8,388.9 97.9,388.9 98.0,388.9 98.1,388.9 98.2,388.9 98.2,388.9 98.3,388.9 98.4,388.9 98.5,388.9 98.6,388.9 98.7,388.9 98.8,388.9 98.9,388.9 99.0,388.9 99.1,388.9 99.1,388.9 99.2,388.9 99.3,388.9 99.4,388.9 99.5,388.9 99.6,388.9 99.6,385.4 99.7,385.4 99.8,385.4 99.9,385.4 99.9,385.4 99.9,381.9 100.0,381.9 100.1,381.9 100.2,381.9 100.3,381.9 100.4,381.9 100.5,381.9 100.6,381.9 100.7,381.9 100.7,381.9 100.8,381.9 100.9,381.9 101.0,381.9 101.1,381.9 101.1,378.4 101.2,378.4 101.3,378.4 101.4,378.4 101.5,378.4 101.5,378.4 101.6,378.4 101.7,378.4 101.8,378.4 101.9,378.4 102.0,378.4 102.1,378.4 102.2,378.4 102.3,378.4 102.3,378.4 102.4,378.4 102.5,378.4 102.6,378.4 102.7,378.4 102.8,378.4 102.9,378.4 103.0,378.4 103.1,378.4 103.2,378.4 103.2,378.4 103.2,374.9 103.3,374.9 103.4,374.9 103.5,374.9 103.6,374.9 103.7,374.9 103.8,374.9 103.9,374.9 104.0,374.9 104.0,374.9 104.1,374.9 104.2,374.9 104.3,374.9 104.4,374.9 104.5,374.9 104.6,374.9 104.7,374.9 104.8,374.9 104.8,374.9 104.8,371.4 104.9,371.4 105.0,371.4 105.1,371.4 105.2,371.4 105.3,371.4 105.4,371.4 105.5,371.4 105.6,371.4 105.6,371.4 105.7,371.4 105.8,371.4 105.9,371.4 106.0,371.4 106.1,371.4 106.2,371.4 106.3,371.4 106.4,371.4 106.4,371.4 106.5,371.4 106.6,371.4 106.7,371.4 106.8,371.4 106.9,371.4 107.0,371.4 107.1,371.4 107.1,367.9 107.2,367.9 107.2,364.4 107.3,364.4 107.3,364.4 107.4,364.4 107.5,364.4 107.6,364.4 107.7,364.4 107.8,364.4 107.9,364.4 108.0,364.4 108.1,364.4 108.1,364.4 108.2,364.4 108.3,364.4 108.4,364.4 108.5,364.4 108.6,364.4 108.7,364.4 108.8,364.4 108.9,364.4 108.9,364.4 108.9,360.9 109.0,360.9 109.1,360.9 109.2,360.9 109.3,360.9 109.4,360.9 109.5,360.9 109.6,360.9 109.7,360.9 109.7,357.4 109.7,357.4 109.8,357.4 109.8,353.8 109.9,353.8 110.0,353.8 110.0,350.3 110.1,350.3 110.2,350.3 110.2,346.8 110.3,346.8 110.4,346.8 110.5,346.8 110.5,346.8 110.6,346.8 110.6,343.3 110.7,343.3 110.8,343.3 110.9,343.3 111.0,343.3 111.1,343.3 111.2,343.3 111.3,343.3 111.3,343.3 111.4,343.3 111.5,343.3 111.6,343.3 111.7,343.3 111.8,343.3 111.9,343.3 112.0,343.3 112.1,343.3 112.2,343.3 112.2,343.3 112.3,343.3 112.4,343.3 112.5,343.3 112.6,343.3 112.7,343.3 112.8,343.3 112.8,339.8 112.9,339.8 113.0,339.8 113.0,339.8 113.1,339.8 113.2,339.8 113.3,339.8 113.3,336.3 113.4,336.3 113.5,336.3 113.6,336.3 113.7,336.3 113.8,336.3 113.8,336.3 113.9,336.3 114.0,336.3 114.1,336.3 114.2,336.3 114.3,336.3 114.4,336.3 114.5,336.3 114.5,332.8 114.6,332.8 114.6,332.8 114.7,332.8 114.8,332.8 114.9,332.8 115.0,332.8 115.1,332.8 115.2,332.8 115.3,332.8 115.4,332.8 115.4,332.8 115.5,332.8 115.6,332.8 115.7,332.8 115.8,332.8 115.9,332.8 116.0,332.8 116.1,332.8 116.2,332.8 116.2,329.3 116.3,329.3 116.3,329.3 116.3,325.8 116.4,325.8 116.5,325.8 116.6,325.8 116.7,325.8 116.8,325.8 116.9,325.8 117.0,325.8 117.1,325.8 117.1,325.8 117.2,325.8 117.3,325.8 117.4,325.8 117.5,325.8 117.6,325.8 117.7,325.8 117.8,325.8 117.9,325.8 117.9,325.8 118.0,325.8 118.1,325.8 118.2,325.8 118.3,325.8 118.4,325.8 118.5,325.8 118.6,325.8 118.7,325.8 118.7,325.8 118.8,325.8 118.9,325.8 119.0,325.8 119.1,325.8 119.2,325.8 119.3,325.8 119.4,325.8 119.5,325.8 119.5,325.8 119.5,322.3 119.6,322.3 119.7,322.3 119.8,322.3 119.9,322.3 120.0,322.3 120.0,318.8 120.1,318.8 120.2,318.8 120.3,318.8 120.4,318.8 120.4,318.8 120.4,315.3 120.5,315.3 120.6,315.3 120.7,315.3 120.8,315.3 120.9,315.3 121.0,315.3 121.1,315.3 121.2,315.3 121.2,315.3 121.3,315.3 121.4,315.3 121.5,315.3 121.6,315.3 121.7,315.3 121.8,315.3 121.9,315.3 122.0,315.3 122.0,315.3 122.1,315.3 122.2,315.3 122.3,315.3 122.4,315.3 122.5,315.3 122.6,315.3 122.7,315.3 122.8,315.3 122.8,315.3 122.9,315.3 123.0,315.3 123.1,315.3 123.1,311.8 123.2,311.8 123.3,311.8 123.4,311.8 123.5,311.8 123.6,311.8 123.6,311.8 123.7,311.8 123.8,311.8 123.8,308.3 123.8,304.8 123.9,304.8 124.0,304.8 124.1,304.8 124.2,304.8 124.3,304.8 124.4,304.8 124.5,304.8 124.5,304.8 124.6,304.8 124.7,304.8 124.8,304.8 124.9,304.8 125.0,304.8 125.1,304.8 125.2,304.8 125.3,304.8 125.3,304.8 125.4,304.8 125.5,304.8 125.6,304.8 125.7,304.8 125.8,304.8 125.9,304.8 126.0,304.8 126.1,304.8 126.1,304.8 126.2,304.8 126.3,304.8 126.4,304.8 126.5,304.8 126.6,304.8 126.7,304.8 126.8,304.8 126.9,304.8 126.9,301.3 126.9,301.3 127.0,301.3 127.1,301.3 127.2,301.3 127.3,301.3 127.4,301.3 127.5,301.3 127.6,301.3 127.7,301.3 127.7,301.3 127.8,301.3 127.9,301.3 128.0,301.3 128.1,301.3 128.2,301.3 128.3,301.3 128.4,301.3 128.5,301.3 128.6,301.3 128.6,301.3 128.7,301.3 128.8,301.3 128.9,301.3 129.0,301.3 129.1,301.3 129.2,301.3 129.3,301.3 129.4,301.3 129.4,301.3 129.5,301.3 129.6,301.3 129.7,301.3 129.8,301.3 129.9,301.3 130.0,301.3 130.1,301.3 130.2,301.3 130.2,297.8 130.2,297.8 130.3,297.8 130.4,297.8 130.5,297.8 130.6,297.8 130.7,297.8 130.8,297.8 130.9,297.8 131.0,297.8 131.0,297.8 131.1,297.8 131.2,297.8 131.3,297.8 131.4,297.8 131.5,297.8 131.6,297.8 131.7,297.8 131.7,294.3 131.8,294.3 131.8,294.3 131.9,294.3 132.0,294.3 132.1,294.3 132.2,294.3 132.3,294.3 132.4,294.3 132.5,294.3 132.6,294.3 132.6,294.3 132.7,294.3 132.8,294.3 132.8,290.8 132.9,290.8 133.0,290.8 133.1,290.8 133.2,290.8 133.3,290.8 133.4,290.8 133.5,290.8 133.5,290.8 133.6,290.8 133.7,290.8 133.8,290.8 133.9,290.8 134.0,290.8 134.1,290.8 134.2,290.8 134.3,290.8 134.3,290.8 134.4,290.8 134.5,290.8 134.6,290.8 134.7,290.8 134.8,290.8 134.9,290.8 135.0,290.8 135.1,290.8 135.1,290.8 135.2,290.8 135.3,290.8 135.4,290.8 135.5,290.8 135.6,290.8 135.7,290.8 135.8,290.8 135.9,290.8 135.9,290.8 136.0,290.8 136.1,290.8 136.2,290.8 136.3,290.8 136.4,290.8 136.5,290.8 136.6,290.8 136.7,290.8 136.7,290.8 136.8,290.8 136.9,290.8 137.0,290.8 137.1,290.8 137.2,290.8 137.3,290.8 137.4,290.8 137.5,290.8 137.5,287.3 137.6,287.3 137.6,287.3 137.7,287.3 137.8,287.3 137.9,287.3 138.0,287.3 138.1,287.3 138.2,287.3 138.3,287.3 138.4,287.3 138.4,287.3 138.5,287.3 138.6,287.3 138.7,287.3 138.8,287.3 138.8,283.8 138.8,280.3 138.9,280.3 139.0,280.3 139.1,280.3 139.2,280.3 139.2,280.3 139.3,280.3 139.4,280.3 139.5,280.3 139.6,280.3 139.7,280.3 139.8,280.3 139.9,280.3 140.0,280.3 140.0,280.3 140.1,280.3 140.2,280.3 140.2,276.8 140.3,276.8 140.4,276.8 140.5,276.8 140.6,276.8 140.7,276.8 140.8,276.8 140.8,276.8 140.9,276.8 141.0,276.8 141.1,276.8 141.2,276.8 141.3,276.8 141.4,276.8 141.5,276.8 141.6,276.8 141.7,276.8 141.7,276.8 141.7,273.2 141.8,273.2 141.9,273.2 142.0,273.2 142.1,273.2 142.1,269.7 142.2,269.7 142.3,269.7 142.4,269.7 142.5,269.7 142.5,269.7 142.6,269.7 142.7,269.7 142.8,269.7 142.9,269.7 143.0,269.7 143.1,269.7 143.2,269.7 143.3,269.7 143.3,269.7 143.4,269.7 143.5,269.7 143.6,269.7 143.7,269.7 143.8,269.7 143.9,269.7 144.0,269.7 144.1,269.7 144.1,269.7 144.2,269.7 144.3,269.7 144.4,269.7 144.5,269.7 144.6,269.7 144.7,269.7 144.8,269.7 144.9,269.7 144.9,269.7 145.0,269.7 145.1,269.7 145.2,269.7 145.2,266.2 145.3,266.2 145.4,266.2 145.5,266.2 145.6,266.2 145.7,266.2 145.8,266.2 145.8,266.2 145.9,266.2 146.0,266.2 146.1,266.2 146.1,262.7 146.2,262.7 146.3,262.7 146.4,262.7 146.5,262.7 146.6,262.7 146.6,262.7 146.7,262.7 146.8,262.7 146.9,262.7 147.0,262.7 147.1,262.7 147.2,262.7 147.3,262.7 147.4,262.7 147.4,262.7 147.4,259.2 147.4,255.7 147.5,255.7 147.6,255.7 147.7,255.7 147.8,255.7 147.9,255.7 148.0,255.7 148.1,255.7 148.2,255.7 148.2,255.7 148.3,255.7 148.3,252.2 148.4,252.2 148.5,252.2 148.6,252.2 148.7,252.2 148.8,252.2 148.9,252.2 149.0,252.2 149.0,252.2 149.1,252.2 149.2,252.2 149.3,252.2 149.4,252.2 149.5,252.2 149.6,252.2 149.7,252.2 149.8,252.2 149.9,252.2 149.9,252.2 150.0,252.2 150.1,252.2 150.2,252.2 150.3,252.2 150.4,252.2 150.5,252.2 150.6,252.2 150.7,252.2 150.7,252.2 150.8,252.2 150.9,252.2 151.0,252.2 151.1,252.2 151.2,252.2 151.3,252.2 151.4,252.2 151.5,252.2 151.5,252.2 151.6,252.2 151.7,252.2 151.8,252.2 151.9,252.2 152.0,252.2 152.1,252.2 152.2,252.2 152.3,252.2 152.3,252.2 152.4,252.2 152.5,252.2 152.6,252.2 152.7,252.2 152.8,252.2 152.9,252.2 153.0,252.2 153.1,252.2 153.1,252.2 153.2,252.2 153.3,252.2 153.3,248.7 153.4,248.7 153.5,248.7 153.6,248.7 153.7,248.7 153.8,248.7 153.9,248.7 153.9,248.7 154.0,248.7 154.1,248.7 154.2,248.7 154.3,248.7 154.4,248.7 154.5,248.7 154.6,248.7 154.7,248.7 154.8,248.7 154.8,248.7 154.9,248.7 155.0,248.7 155.1,248.7 155.2,248.7 155.3,248.7 155.4,248.7 155.5,248.7 155.6,248.7 155.6,248.7 155.7,248.7 155.8,248.7 155.9,248.7 156.0,248.7 156.1,248.7 156.2,248.7 156.3,248.7 156.4,248.7 156.4,248.7 156.5,248.7 156.6,248.7 156.7,248.7 156.8,248.7 156.9,248.7 157.0,248.7 157.1,248.7 157.2,248.7 157.2,248.7 157.3,248.7 157.4,248.7 157.5,248.7 157.6,248.7 157.7,248.7 157.8,248.7 157.9,248.7 158.0,248.7 158.0,248.7 158.1,248.7 158.2,248.7 158.3,248.7 158.4,248.7 158.4,245.2 158.5,245.2 158.6,245.2 158.7,245.2 158.8,245.2 158.9,245.2 158.9,245.2 159.0,245.2 159.1,245.2 159.2,245.2 159.3,245.2 159.4,245.2 159.5,245.2 159.6,245.2 159.7,245.2 159.7,245.2 159.8,245.2 159.9,245.2 160.0,245.2 160.1,245.2 160.2,245.2 160.3,245.2 160.4,245.2 160.5,245.2 160.5,245.2 160.6,245.2 160.7,245.2 160.7,241.7 160.8,241.7 160.9,241.7 161.0,241.7 161.1,241.7 161.1,238.2 161.2,238.2 161.3,238.2 161.3,238.2 161.4,238.2 161.5,238.2 161.6,238.2 161.7,238.2 161.8,238.2 161.8,234.7 161.9,234.7 162.0,234.7 162.1,234.7 162.1,234.7 162.2,234.7 162.3,234.7 162.4,234.7 162.5,234.7 162.6,234.7 162.7,234.7 162.8,234.7 162.9,234.7 163.0,234.7 163.0,234.7 163.1,234.7 163.2,234.7 163.3,234.7 163.4,234.7 163.5,234.7 163.6,234.7 163.7,234.7 163.8,234.7 163.8,234.7 163.9,234.7 164.0,234.7 164.1,234.7 164.2,234.7 164.3,234.7 164.4,234.7 164.5,234.7 164.6,234.7 164.6,231.2 164.6,231.2 164.7,231.2 164.8,231.2 164.9,231.2 165.0,231.2 165.1,231.2 165.2,231.2 165.3,231.2 165.4,231.2 165.4,231.2 165.5,231.2 165.6,231.2 165.7,231.2 165.8,231.2 165.8,227.7 165.9,227.7 166.0,227.7 166.1,227.7 166.2,227.7 166.2,227.7 166.3,227.7 166.4,227.7 166.5,227.7 166.6,227.7 166.7,227.7 166.8,227.7 166.9,227.7 167.0,227.7 167.1,227.7 167.1,227.7 167.2,227.7 167.3,227.7 167.4,227.7 167.5,227.7 167.6,227.7 167.7,227.7 167.8,227.7 167.9,227.7 167.9,227.7 168.0,227.7 168.1,227.7 168.2,227.7 168.3,227.7 168.4,227.7 168.5,227.7 168.6,227.7 168.7,227.7 168.7,227.7 168.8,227.7 168.9,227.7 169.0,227.7 169.1,227.7 169.2,227.7 169.3,227.7 169.4,227.7 169.5,227.7 169.5,227.7 169.6,227.7 169.7,227.7 169.8,227.7 169.9,227.7 170.0,227.7 170.1,227.7 170.2,227.7 170.3,227.7 170.3,227.7 170.4,227.7 170.5,227.7 170.6,227.7 170.7,227.7 170.8,227.7 170.9,227.7 171.0,227.7 171.1,227.7 171.1,227.7 171.2,227.7 171.3,227.7 171.4,227.7 171.5,227.7 171.6,227.7 171.7,227.7 171.8,227.7 171.9,227.7 172.0,227.7 172.0,227.7 172.0,224.2 172.1,224.2 172.2,224.2 172.3,224.2 172.4,224.2 172.5,224.2 172.6,224.2 172.7,224.2 172.8,224.2 172.8,224.2 172.9,224.2 173.0,224.2 173.1,224.2 173.2,224.2 173.3,224.2 173.4,224.2 173.5,224.2 173.6,224.2 173.6,224.2 173.7,224.2 173.8,224.2 173.9,224.2 174.0,224.2 174.1,224.2 174.1,220.7 174.2,220.7 174.3,220.7 174.4,220.7 174.4,220.7 174.5,220.7 174.6,220.7 174.7,220.7 174.8,220.7 174.9,220.7 175.0,220.7 175.1,220.7 175.2,220.7 175.2,220.7 175.3,220.7 175.4,220.7 175.5,220.7 175.6,220.7 175.7,220.7 175.8,220.7 175.9,220.7 176.0,220.7 176.1,220.7 176.1,217.2 176.1,217.2 176.2,217.2 176.3,217.2 176.4,217.2 176.5,217.2 176.6,217.2 176.7,217.2 176.8,217.2 176.9,217.2 176.9,217.2 177.0,217.2 177.1,217.2 177.2,217.2 177.3,217.2 177.4,217.2 177.5,217.2 177.6,217.2 177.7,217.2 177.7,217.2 177.8,217.2 177.9,217.2 178.0,217.2 178.1,217.2 178.2,217.2 178.3,217.2 178.4,217.2 178.5,217.2 178.5,217.2 178.6,217.2 178.6,213.7 178.7,213.7 178.8,213.7 178.9,213.7 179.0,213.7 179.1,213.7 179.2,213.7 179.3,213.7 179.3,213.7 179.4,213.7 179.4,210.2 179.5,210.2 179.6,210.2 179.7,210.2 179.8,210.2 179.9,210.2 180.0,210.2 180.1,210.2 180.2,210.2 180.2,210.2 180.3,210.2 180.4,210.2 180.4,206.7 180.5,206.7 180.6,206.7 180.7,206.7 180.8,206.7 180.9,206.7 181.0,206.7 181.0,206.7 181.1,206.7 181.2,206.7 181.3,206.7 181.4,206.7 181.5,206.7 181.6,206.7 181.7,206.7 181.8,206.7 181.8,206.7 181.9,206.7 181.9,203.2 182.0,203.2 182.1,203.2 182.2,203.2 182.3,203.2 182.4,203.2 182.5,203.2 182.6,203.2 182.6,203.2 182.7,203.2 182.8,203.2 182.9,203.2 183.0,203.2 183.1,203.2 183.2,203.2 183.3,203.2 183.4,203.2 183.4,203.2 183.5,203.2 183.6,203.2 183.7,203.2 183.8,203.2 183.9,203.2 184.0,203.2 184.1,203.2 184.2,203.2 184.3,203.2 184.3,203.2 184.4,203.2 184.5,203.2 184.6,203.2 184.7,203.2 184.8,203.2 184.8,199.7 184.8,196.2 184.9,196.2 185.0,196.2 185.1,196.2 185.1,196.2 185.2,196.2 185.3,196.2 185.4,196.2 185.5,196.2 185.6,196.2 185.7,196.2 185.8,196.2 185.9,196.2 185.9,196.2 186.0,196.2 186.1,196.2 186.1,192.6 186.2,192.6 186.3,192.6 186.4,192.6 186.5,192.6 186.6,192.6 186.7,192.6 186.7,192.6 186.8,192.6 186.9,192.6 187.0,192.6 187.1,192.6 187.2,192.6 187.3,192.6 187.4,192.6 187.5,192.6 187.5,192.6 187.6,192.6 187.7,192.6 187.8,192.6 187.9,192.6 188.0,192.6 188.1,192.6 188.2,192.6 188.3,192.6 188.3,189.1 188.4,189.1 188.4,189.1 188.5,189.1 188.6,189.1 188.7,189.1 188.8,189.1 188.9,189.1 189.0,189.1 189.1,189.1 189.2,189.1 189.2,189.1 189.3,189.1 189.4,189.1 189.4,185.6 189.5,185.6 189.6,185.6 189.7,185.6 189.8,185.6 189.9,185.6 190.0,185.6 190.0,185.6 190.1,185.6 190.2,185.6 190.3,185.6 190.4,185.6 190.5,185.6 190.6,185.6 190.7,185.6 190.8,185.6 190.8,185.6 190.9,185.6 191.0,185.6 191.1,185.6 191.2,185.6 191.3,185.6 191.4,185.6 191.5,185.6 191.6,185.6 191.6,185.6 191.7,185.6 191.9,185.6 192.0,185.6 192.1,185.6 192.2,185.6 192.3,185.6 192.4,185.6 192.4,185.6 192.5,185.6 192.6,185.6 192.7,185.6 192.8,185.6 192.9,185.6 193.0,185.6 193.1,185.6 193.2,185.6 193.3,185.6 193.3,185.6 193.4,185.6 193.5,185.6 193.6,185.6 193.7,185.6 193.8,185.6 193.9,185.6 194.0,185.6 194.1,185.6 194.1,185.6 194.2,185.6 194.3,185.6 194.4,185.6 194.5,185.6 194.6,185.6 194.7,185.6 194.8,185.6 194.9,185.6 194.9,185.6 195.0,185.6 195.1,185.6 195.2,185.6 195.3,185.6 195.4,185.6 195.5,185.6 195.6,185.6 195.7,185.6 195.7,185.6 195.8,185.6 195.9,185.6 196.0,185.6 196.1,185.6 196.2,185.6 196.3,185.6 196.4,185.6 196.5,185.6 196.5,185.6 196.6,185.6 196.7,185.6 196.8,185.6 196.9,185.6 197.0,185.6 197.1,185.6 197.2,185.6 197.3,185.6 197.4,185.6 197.4,185.6 197.5,185.6 197.6,185.6 197.7,185.6 197.8,185.6 197.9,185.6 198.0,185.6 198.1,185.6 198.2,185.6 198.2,185.6 198.3,185.6 198.4,185.6 198.5,185.6 198.6,185.6 198.7,185.6 198.8,185.6 198.9,185.6 199.0,185.6 199.0,185.6 199.1,185.6 199.2,185.6 199.3,185.6 199.4,185.6 199.5,185.6 199.6,185.6 199.7,185.6 199.8,185.6 199.8,185.6 199.9,185.6 200.0,185.6 200.1,185.6 200.2,185.6 200.3,185.6 200.4,185.6 200.5,185.6 200.6,185.6 200.6,185.6 200.7,185.6 200.8,185.6 200.9,185.6 200.9,182.1 201.0,182.1 201.1,182.1 201.2,182.1 201.3,182.1 201.4,182.1 201.5,182.1 201.5,182.1 201.6,182.1 201.7,182.1 201.8,182.1 201.9,182.1 202.0,182.1 202.1,182.1 202.2,182.1 202.3,182.1 202.3,182.1 202.4,182.1 202.5,182.1 202.6,182.1 202.7,182.1 202.8,182.1 202.9,182.1 203.0,182.1 203.1,182.1 203.1,182.1 203.2,182.1 203.3,182.1 203.4,182.1 203.5,182.1 203.6,182.1 203.7,182.1 203.8,182.1 203.9,182.1 203.9,182.1 204.0,182.1 204.1,182.1 204.2,182.1 204.3,182.1 204.4,182.1 204.5,182.1 204.6,182.1 204.7,182.1 204.7,182.1 204.8,182.1 204.9,182.1 205.0,182.1 205.1,182.1 205.2,182.1 205.3,182.1 205.4,182.1 205.5,182.1 205.6,182.1 205.6,182.1 205.7,182.1 205.8,182.1 205.9,182.1 205.9,178.6 206.0,178.6 206.1,178.6 206.2,178.6 206.3,178.6 206.4,178.6 206.4,178.6 206.5,178.6 206.6,178.6 206.7,178.6 206.8,178.6 206.9,178.6 206.9,175.1 207.0,175.1 207.1,175.1 207.2,175.1 207.2,175.1 207.3,175.1 207.4,175.1 207.5,175.1 207.5,171.6 207.6,171.6 207.7,171.6 207.8,171.6 207.9,171.6 208.0,171.6 208.0,171.6 208.1,171.6 208.2,171.6 208.3,171.6 208.4,171.6 208.5,171.6 208.6,171.6 208.7,171.6 208.8,171.6 208.8,171.6 208.9,171.6 208.9,168.1 209.0,168.1 209.1,168.1 209.1,164.6 209.2,164.6 209.3,164.6 209.4,164.6 209.5,164.6 209.6,164.6 209.7,164.6 209.7,164.6 209.8,164.6 209.9,164.6 210.0,164.6 210.1,164.6 210.2,164.6 210.3,164.6 210.4,164.6 210.5,164.6 210.5,164.6 210.6,164.6 210.7,164.6 210.8,164.6 210.9,164.6 211.0,164.6 211.1,164.6 211.2,164.6 211.3,164.6 211.3,164.6 211.4,164.6 211.5,164.6 211.6,164.6 211.7,164.6 211.8,164.6 211.9,164.6 212.0,164.6 212.1,164.6 212.1,164.6 212.2,164.6 212.3,164.6 212.4,164.6 212.5,164.6 212.6,164.6 212.7,164.6 212.8,164.6 212.9,164.6 212.9,164.6 213.0,164.6 213.1,164.6 213.2,164.6 213.3,164.6 213.4,164.6 213.5,164.6 213.6,164.6 213.7,164.6 213.7,164.6 213.8,164.6 213.9,164.6 214.0,164.6 214.1,164.6 214.2,164.6 214.3,164.6 214.4,164.6 214.5,164.6 214.6,164.6 214.6,164.6 214.7,164.6 214.8,164.6 214.9,164.6 215.0,164.6 215.1,164.6 215.2,164.6 215.3,164.6 215.4,164.6 215.4,164.6 215.5,164.6 215.6,164.6 215.7,164.6 215.8,164.6 215.9,164.6 216.0,164.6 216.1,164.6 216.2,164.6 216.2,164.6 216.3,164.6 216.4,164.6 216.5,164.6 216.6,164.6 216.7,164.6 216.8,164.6 216.9,164.6 217.0,164.6 217.0,164.6 217.1,164.6 217.2,164.6 217.3,164.6 217.4,164.6 217.5,164.6 217.6,164.6 217.7,164.6 217.8,164.6 217.8,164.6 217.9,164.6 218.0,164.6 218.1,164.6 218.1,161.1 218.2,161.1 218.3,161.1 218.4,161.1 218.5,161.1 218.6,161.1 218.6,157.6 218.7,157.6 218.7,157.6 218.8,157.6 218.9,157.6 219.0,157.6 219.1,157.6 219.2,157.6 219.3,157.6 219.4,157.6 219.5,157.6 219.5,154.1 219.5,154.1 219.6,154.1 219.7,154.1 219.8,154.1 219.9,154.1 220.0,154.1 220.1,154.1 220.2,154.1 220.3,154.1 220.3,154.1 220.4,154.1 220.5,154.1 220.6,154.1 220.7,154.1 220.8,154.1 220.9,154.1 221.0,154.1 221.1,154.1 221.1,154.1 221.2,154.1 221.3,154.1 221.4,154.1 221.5,154.1 221.6,154.1 221.7,154.1 221.8,154.1 221.9,154.1 221.9,154.1 222.0,154.1 222.1,154.1 222.2,154.1 222.3,154.1 222.4,154.1 222.4,150.6 222.5,150.6 222.6,150.6 222.7,150.6 222.8,150.6 222.8,150.6 222.9,150.6 223.0,150.6 223.1,150.6 223.2,150.6 223.3,150.6 223.4,150.6 223.5,150.6 223.6,150.6 223.6,150.6 223.7,150.6 223.8,150.6 223.9,150.6 224.0,150.6 224.1,150.6 224.2,150.6 224.3,150.6 224.4,150.6 224.4,150.6 224.5,150.6 224.6,150.6 224.7,150.6 224.8,150.6 224.9,150.6 225.0,150.6 225.1,150.6 225.2,150.6 225.2,150.6 225.3,150.6 225.4,150.6 225.5,150.6 225.6,150.6 225.7,150.6 225.8,150.6 225.9,150.6 226.0,150.6 226.0,150.6 226.1,150.6 226.2,150.6 226.3,150.6 226.4,150.6 226.5,150.6 226.6,150.6 226.7,150.6 226.8,150.6 226.9,150.6 226.9,150.6 227.0,150.6 227.1,150.6 227.2,150.6 227.3,150.6 227.4,150.6 227.5,150.6 227.6,150.6 227.7,150.6 227.7,150.6 227.8,150.6 227.9,150.6 228.0,150.6 228.1,150.6 228.2,150.6 228.3,150.6 228.4,150.6 228.5,150.6 228.5,150.6 228.6,150.6 228.7,150.6 228.8,150.6 228.9,150.6 229.0,150.6 229.0,147.1 229.1,147.1 229.2,147.1 229.3,147.1 229.3,147.1 229.4,147.1 229.5,147.1 229.6,147.1 229.6,143.6 229.7,143.6 229.8,143.6 229.9,143.6 230.0,143.6 230.1,143.6 230.1,143.6 230.2,143.6 230.3,143.6 230.4,143.6 230.5,143.6 230.6,143.6 230.7,143.6 230.7,140.1 230.8,140.1 230.9,140.1 231.0,140.1 231.0,140.1 231.1,140.1 231.2,140.1 231.3,140.1 231.4,140.1 231.5,140.1 231.6,140.1 231.7,140.1 231.8,140.1 231.8,140.1 231.9,140.1 232.0,140.1 232.1,140.1 232.2,140.1 232.3,140.1 232.4,140.1 232.5,140.1 232.6,140.1 232.6,140.1 232.7,140.1 232.8,140.1 232.9,140.1 233.0,140.1 233.1,140.1 233.2,140.1 233.3,140.1 233.4,140.1 233.4,140.1 233.5,140.1 233.6,140.1 233.7,140.1 233.8,140.1 233.9,140.1 234.0,140.1 234.1,140.1 234.2,140.1 234.2,140.1 234.3,140.1 234.4,140.1 234.5,140.1 234.6,140.1 234.7,140.1 234.8,140.1 234.9,140.1 235.0,140.1 235.0,140.1 235.1,140.1 235.2,140.1 235.3,140.1 235.4,140.1 235.4,136.6 235.5,136.6 235.6,136.6 235.7,136.6 235.8,136.6 235.9,136.6 235.9,136.6 236.0,136.6 236.1,136.6 236.2,136.6 236.3,136.6 236.4,136.6 236.5,136.6 236.6,136.6 236.7,136.6 236.7,136.6 236.8,136.6 236.9,136.6 237.0,136.6 237.1,136.6 237.2,136.6 237.3,136.6 237.4,136.6 237.5,136.6 237.5,136.6 237.6,136.6 237.7,136.6 237.8,136.6 237.9,136.6 238.0,136.6 238.1,136.6 238.2,136.6 238.3,136.6 238.3,136.6 238.4,136.6 238.5,136.6 238.6,136.6 238.7,136.6 238.8,136.6 238.9,136.6 239.0,136.6 239.1,136.6 239.1,136.6 239.2,136.6 239.3,136.6 239.4,136.6 239.5,136.6 239.6,136.6 239.7,136.6 239.8,136.6 239.9,136.6 240.0,136.6 240.0,136.6 240.1,136.6 240.2,136.6 240.3,136.6 240.4,136.6 240.5,136.6 240.6,136.6 240.7,136.6 240.8,136.6 240.8,136.6 240.9,136.6 241.0,136.6 241.1,136.6 241.2,136.6 241.3,136.6 241.4,136.6 241.5,136.6 241.6,136.6 241.6,136.6 241.7,136.6 241.8,136.6 241.9,136.6 242.0,136.6 242.1,136.6 242.2,136.6 242.3,136.6 242.4,136.6 242.4,136.6 242.5,136.6 242.6,136.6 242.7,136.6 242.8,136.6 242.9,136.6 243.0,136.6 243.1,136.6 243.2,136.6 243.2,136.6 243.3,136.6 243.4,136.6 243.5,136.6 243.6,136.6 243.7,136.6 243.8,136.6 243.9,136.6 244.0,136.6 244.1,136.6 244.1,136.6 244.2,136.6 244.3,136.6 244.4,136.6 244.5,136.6 244.6,136.6 244.7,136.6 244.8,136.6 244.9,136.6 244.9,136.6 245.0,136.6 245.1,136.6 245.2,136.6 245.3,136.6 245.4,136.6 245.5,136.6 245.6,136.6 245.6,133.1 245.7,133.1 245.7,133.1 245.8,133.1 245.9,133.1 246.0,133.1 246.1,133.1 246.2,133.1 246.3,133.1 246.4,133.1 246.5,133.1 246.5,133.1 246.6,133.1 246.7,133.1 246.8,133.1 246.9,133.1 247.0,133.1 247.1,133.1 247.2,133.1 247.3,133.1 247.3,133.1 247.4,133.1 247.5,133.1 247.6,133.1 247.7,133.1 247.8,133.1 247.9,133.1 248.0,133.1 248.1,133.1 248.2,133.1 248.2,133.1 248.3,133.1 248.4,133.1 248.5,133.1 248.6,133.1 248.7,133.1 248.8,133.1 248.9,133.1 249.0,133.1 249.0,133.1 249.0,129.6 249.1,129.6 249.2,129.6 249.3,129.6 249.4,129.6 249.5,129.6 249.6,129.6 249.7,129.6 249.8,129.6 249.8,129.6 249.9,129.6 250.0,129.6 250.1,129.6 250.2,129.6 250.3,129.6 250.4,129.6 250.5,129.6 250.6,129.6 250.6,129.6 250.7,129.6 250.8,129.6 250.9,129.6 251.0,129.6 251.1,129.6 251.2,129.6 251.3,129.6 251.4,129.6 251.4,129.6 251.5,129.6 251.6,129.6 251.7,129.6 251.8,129.6 251.9,129.6 252.0,129.6 252.1,129.6 252.2,129.6 252.3,129.6 252.3,129.6 252.4,129.6 252.5,129.6 252.6,129.6 252.7,129.6 252.8,129.6 252.9,129.6 253.0,129.6 253.1,129.6 253.1,129.6 253.2,129.6 253.3,129.6 253.4,129.6 253.5,129.6 253.6,129.6 253.7,129.6 253.8,129.6 253.9,129.6 253.9,129.6 254.0,129.6 254.1,129.6 254.2,129.6 254.3,129.6 254.4,129.6 254.5,129.6 254.6,129.6 254.7,129.6 254.7,129.6 254.8,129.6 254.9,129.6 255.0,129.6 255.1,129.6 255.2,129.6 255.3,129.6 255.4,129.6 255.5,129.6 255.5,129.6 255.7,129.6 255.8,129.6 255.9,129.6 256.0,129.6 256.1,129.6 256.2,129.6 256.3,129.6 256.3,129.6 256.4,129.6 256.5,129.6 256.6,129.6 256.7,129.6 256.8,129.6 256.9,129.6 257.0,129.6 257.1,129.6 257.2,129.6 257.2,126.1 257.2,126.1 257.3,126.1 257.4,126.1 257.5,126.1 257.6,126.1 257.7,126.1 257.8,126.1 257.9,126.1 258.0,126.1 258.0,126.1 258.1,126.1 258.2,126.1 258.3,126.1 258.4,126.1 258.5,126.1 258.6,126.1 258.7,126.1 258.8,126.1 258.8,126.1 258.9,126.1 259.0,126.1 259.1,126.1 259.2,126.1 259.3,126.1 259.4,126.1 259.5,126.1 259.6,126.1 259.6,126.1 259.7,126.1 259.8,126.1 259.9,126.1 260.0,126.1 260.1,126.1 260.2,126.1 260.3,126.1 260.4,126.1 260.4,126.1 260.5,126.1 260.6,126.1 260.7,126.1 260.8,126.1 260.9,126.1 261.0,126.1 261.1,126.1 261.2,126.1 261.3,126.1 261.3,126.1 261.4,126.1 261.5,126.1 261.6,126.1 261.7,126.1 261.8,126.1 261.9,126.1 262.0,126.1 262.1,126.1 262.1,126.1 262.2,126.1 262.3,126.1 262.4,126.1 262.5,126.1 262.6,126.1 262.7,126.1 262.8,126.1 262.9,126.1 262.9,126.1 263.0,126.1 263.1,126.1 263.2,126.1 263.3,126.1 263.4,126.1 263.5,126.1 263.6,126.1 263.7,126.1 263.7,126.1 263.8,126.1 263.9,126.1 264.0,126.1 264.1,126.1 264.2,126.1 264.3,126.1 264.4,126.1 264.5,126.1 264.5,126.1 264.6,126.1 264.7,126.1 264.8,126.1 264.9,126.1 265.0,126.1 265.1,126.1 265.2,126.1 265.3,126.1 265.4,126.1 265.4,126.1 265.5,126.1 265.6,126.1 265.7,126.1 265.8,126.1 265.9,126.1 266.0,126.1 266.1,126.1 266.1,122.6 266.2,122.6 266.2,122.6 266.3,122.6 266.4,122.6 266.5,122.6 266.6,122.6 266.7,122.6 266.8,122.6 266.9,122.6 267.0,122.6 267.0,122.6 267.1,122.6 267.2,122.6 267.3,122.6 267.4,122.6 267.5,122.6 267.5,119.1 267.6,119.1 267.7,119.1 267.8,119.1 267.8,119.1 267.9,119.1 268.0,119.1 268.1,119.1 268.2,119.1 268.3,119.1 268.4,119.1 268.5,119.1 268.6,119.1 268.6,119.1 268.7,119.1 268.8,119.1 268.9,119.1 269.0,119.1 269.1,119.1 269.2,119.1 269.3,119.1 269.4,119.1 269.5,119.1 269.5,119.1 269.6,119.1 269.7,119.1 269.8,119.1 269.9,119.1 270.0,119.1 270.1,119.1 270.2,119.1 270.3,119.1 270.3,119.1 270.4,119.1 270.5,119.1 270.6,119.1 270.7,119.1 270.8,119.1 270.9,119.1 271.0,119.1 271.1,119.1 271.1,119.1 271.2,119.1 271.3,119.1 271.4,119.1 271.5,119.1 271.6,119.1 271.7,119.1 271.8,119.1 271.9,119.1 271.9,119.1 272.0,119.1 272.1,119.1 272.2,119.1 272.3,119.1 272.4,119.1 272.5,119.1 272.6,119.1 272.7,119.1 272.7,119.1 272.8,119.1 272.9,119.1 273.0,119.1 273.1,119.1 273.2,119.1 273.3,119.1 273.4,119.1 273.5,119.1 273.6,119.1 273.6,119.1 273.7,119.1 273.8,119.1 273.9,119.1 274.0,119.1 274.1,119.1 274.2,119.1 274.3,119.1 274.4,119.1 274.4,119.1 274.5,119.1 274.6,119.1 274.7,119.1 274.8,119.1 274.9,119.1 275.0,119.1 275.1,119.1 275.2,119.1 275.2,119.1 275.3,119.1 275.4,119.1 275.5,119.1 275.6,119.1 275.7,119.1 275.8,119.1 275.9,119.1 276.0,119.1 276.0,119.1 276.1,119.1 276.2,119.1 276.3,119.1 276.4,119.1 276.5,119.1 276.6,119.1 276.7,119.1 276.8,119.1 276.8,119.1 276.9,119.1 277.0,119.1 277.1,119.1 277.2,119.1 277.3,119.1 277.4,119.1 277.5,119.1 277.6,119.1 277.6,119.1 277.7,119.1 277.8,119.1 277.9,119.1 278.0,119.1 278.1,119.1 278.2,119.1 278.3,119.1 278.4,119.1 278.5,119.1 278.5,119.1 278.6,119.1 278.7,119.1 278.8,119.1 278.9,119.1 279.0,119.1 279.1,119.1 279.2,119.1 279.3,119.1 279.3,115.6 279.3,115.6 279.4,115.6 279.5,115.6 279.6,115.6 279.7,115.6 279.8,115.6 279.9,115.6 280.0,115.6 280.1,115.6 280.1,115.6 280.2,115.6 280.3,115.6 280.4,115.6 280.5,115.6 280.6,115.6 280.6,112.1 280.7,112.1 280.8,112.1 280.9,112.1 280.9,112.1 281.0,112.1 281.1,112.1 281.2,112.1 281.3,112.1 281.4,112.1 281.5,112.1 281.6,112.1 281.7,112.1 281.7,112.1 281.8,112.1 281.8,108.5 281.9,108.5 282.0,108.5 282.1,108.5 282.2,108.5 282.3,108.5 282.4,108.5 282.5,108.5 282.6,108.5 282.6,108.5 282.7,108.5 282.8,108.5 282.9,108.5 283.0,108.5 283.1,108.5 283.2,108.5 283.3,108.5 283.4,108.5 283.4,108.5 283.5,108.5 283.6,108.5 283.7,108.5 283.8,108.5 283.9,108.5 284.0,108.5 284.1,108.5 284.2,108.5 284.2,108.5 284.3,108.5 284.4,108.5 284.5,108.5 284.6,108.5 284.7,108.5 284.8,108.5 284.9,108.5 285.0,108.5 285.0,108.5 285.1,108.5 285.2,108.5 285.3,108.5 285.4,108.5 285.5,108.5 285.6,108.5 285.7,108.5 285.8,108.5 285.8,108.5 285.9,108.5 286.0,108.5 286.1,108.5 286.2,108.5 286.3,108.5 286.4,108.5 286.5,108.5 286.6,108.5 286.7,108.5 286.7,108.5 286.8,108.5 286.9,108.5 287.0,108.5 287.1,108.5 287.2,108.5 287.3,108.5 287.4,108.5 287.5,108.5 287.5,108.5 287.6,108.5 287.7,108.5 287.8,108.5 287.9,108.5 288.0,108.5 288.1,108.5 288.2,108.5 288.3,108.5 288.3,108.5 288.4,108.5 288.5,108.5 288.6,108.5 288.7,108.5 288.8,108.5 288.9,108.5 289.0,108.5 289.1,108.5 289.1,108.5 289.2,108.5 289.3,108.5 289.4,108.5 289.5,108.5 289.6,108.5 289.7,108.5 289.8,108.5 289.9,108.5 289.9,108.5 290.0,108.5 290.1,108.5 290.2,108.5 290.3,108.5 290.4,108.5 290.5,108.5 290.6,108.5 290.7,108.5 290.8,108.5 290.8,108.5 290.9,108.5 291.0,108.5 291.1,108.5 291.2,108.5 291.3,108.5 291.4,108.5 291.5,108.5 291.6,108.5 291.6,108.5 291.7,108.5 291.8,108.5 291.9,108.5 292.0,108.5 292.1,108.5 292.2,108.5 292.3,108.5 292.4,108.5 292.4,108.5 292.5,108.5 292.6,108.5 292.7,108.5 292.8,108.5 292.9,108.5 293.0,108.5 293.1,108.5 293.2,108.5 293.2,108.5 293.3,108.5 293.3,105.0 293.4,105.0 293.5,105.0 293.6,105.0 293.7,105.0 293.8,105.0 293.9,105.0 294.0,105.0 294.0,105.0 294.1,105.0 294.2,105.0 294.3,105.0 294.4,105.0 294.5,105.0 294.6,105.0 294.7,105.0 294.8,105.0 294.9,105.0 294.9,105.0 295.0,105.0 295.1,105.0 295.2,105.0 295.3,105.0 295.4,105.0 295.5,105.0 295.6,105.0 295.7,105.0 295.7,105.0 295.8,105.0 295.9,105.0 296.0,105.0 296.1,105.0 296.2,105.0 296.3,105.0 296.4,105.0 296.5,105.0 296.5,105.0 296.6,105.0 296.7,105.0 296.8,105.0 296.9,105.0 297.0,105.0 297.1,105.0 297.2,105.0 297.3,105.0 297.3,105.0 297.4,105.0 297.5,105.0 297.6,105.0 297.6,101.5 297.7,101.5 297.8,101.5 297.9,101.5 298.0,101.5 298.1,101.5 298.1,101.5 298.2,101.5 298.3,101.5 298.4,101.5 298.5,101.5 298.6,101.5 298.7,101.5 298.8,101.5 298.9,101.5 298.9,101.5 299.0,101.5 299.1,101.5 299.2,101.5 299.3,101.5 299.4,101.5 299.5,101.5 299.6,101.5 299.7,101.5 299.8,101.5 299.8,101.5 299.9,101.5 300.0,101.5 300.1,101.5 300.2,101.5 300.3,101.5 300.4,101.5 300.5,101.5 300.6,101.5 300.6,101.5 300.7,101.5 300.8,101.5 300.9,101.5 301.0,101.5 301.1,101.5 301.2,101.5 301.3,101.5 301.4,101.5 301.4,101.5 301.5,101.5 301.6,101.5 301.7,101.5 301.8,101.5 301.9,101.5 302.0,101.5 302.1,101.5 302.2,101.5 302.2,101.5 302.3,101.5 302.4,101.5 302.5,101.5 302.6,101.5 302.7,101.5 302.8,101.5 302.9,101.5 303.0,101.5 303.0,101.5 303.1,101.5 303.2,101.5 303.3,101.5 303.4,101.5 303.5,101.5 303.6,101.5 303.7,101.5 303.8,101.5 303.9,101.5 303.9,101.5 304.0,101.5 304.1,101.5 304.2,101.5 304.3,101.5 304.4,101.5 304.5,101.5 304.6,101.5 304.7,101.5 304.7,101.5 304.8,101.5 304.9,101.5 305.0,101.5 305.1,101.5 305.2,101.5 305.3,101.5 305.4,101.5 305.5,101.5 305.5,101.5 305.6,101.5 305.7,101.5 305.7,98.0 305.8,98.0 305.9,98.0 306.0,98.0 306.1,98.0 306.2,98.0 306.3,98.0 306.3,98.0 306.4,98.0 306.5,98.0 306.6,98.0 306.7,98.0 306.8,98.0 306.9,98.0 307.0,98.0 307.1,98.0 307.1,98.0 307.2,98.0 307.3,98.0 307.4,98.0 307.5,98.0 307.6,98.0 307.7,98.0 307.8,98.0 307.9,98.0 308.0,98.0 308.0,98.0 308.1,98.0 308.2,98.0 308.3,98.0 308.4,98.0 308.5,98.0 308.6,98.0 308.7,98.0 308.8,98.0 308.8,98.0 308.9,98.0 309.0,98.0 309.1,98.0 309.2,98.0 309.3,98.0 309.4,98.0 309.5,98.0 309.6,98.0 309.6,98.0 309.7,98.0 309.8,98.0 309.9,98.0 310.0,98.0 310.1,98.0 310.2,98.0 310.3,98.0 310.4,98.0 310.4,98.0 310.5,98.0 310.6,98.0 310.7,98.0 310.8,98.0 310.9,98.0 311.0,98.0 311.0,94.5 311.1,94.5 311.2,94.5 311.2,94.5 311.3,94.5 311.4,94.5 311.5,94.5 311.6,94.5 311.7,94.5 311.8,94.5 311.9,94.5 312.0,94.5 312.1,94.5 312.1,94.5 312.2,94.5 312.3,94.5 312.4,94.5 312.5,94.5 312.6,94.5 312.7,94.5 312.8,94.5 312.9,94.5 312.9,94.5 313.0,94.5 313.1,94.5 313.2,94.5 313.3,94.5 313.4,94.5 313.5,94.5 313.6,94.5 313.7,94.5 313.7,94.5 313.8,94.5 313.9,94.5 314.0,94.5 314.1,94.5 314.2,94.5 314.3,94.5 314.4,94.5 314.5,94.5 314.5,94.5 314.6,94.5 314.7,94.5 314.8,94.5 314.9,94.5 315.0,94.5 315.1,94.5 315.2,94.5 315.3,94.5 315.3,94.5 315.4,94.5 315.5,94.5 315.6,94.5 315.7,94.5 315.8,94.5 315.9,94.5 316.0,94.5 316.1,94.5 316.1,94.5 316.2,94.5 316.3,94.5 316.4,94.5 316.5,94.5 316.6,94.5 316.7,94.5 316.8,94.5 316.9,94.5 317.0,94.5 317.0,94.5 317.1,94.5 317.2,94.5 317.3,94.5 317.4,94.5 317.5,94.5 317.6,94.5 317.7,94.5 317.8,94.5 317.8,94.5 317.9,94.5 318.0,94.5 318.1,94.5 318.2,94.5 318.3,94.5 318.4,94.5 318.5,94.5 318.6,94.5 318.6,94.5 318.7,94.5 318.8,94.5 318.9,94.5 319.0,94.5 319.1,94.5 319.2,94.5 319.3,94.5 319.4,94.5 319.4,94.5 319.5,94.5 319.6,94.5 319.7,94.5 319.8,94.5 319.9,94.5 320.0,94.5 320.1,94.5 320.2,94.5 320.2,94.5 320.3,94.5 320.4,94.5 320.5,94.5 320.6,94.5 320.7,94.5 320.8,94.5 320.9,94.5 321.0,94.5 321.1,94.5 321.1,94.5 321.2,94.5 321.3,94.5 321.4,94.5 321.5,94.5 321.6,94.5 321.7,94.5 321.8,94.5 321.9,94.5 321.9,94.5 322.0,94.5 322.1,94.5 322.2,94.5 322.3,94.5 322.4,94.5 322.5,94.5 322.6,94.5 322.7,94.5 322.7,94.5 322.8,94.5 322.9,94.5 323.0,94.5 323.1,94.5 323.2,94.5 323.3,94.5 323.4,94.5 323.5,94.5 323.5,94.5 323.6,94.5 323.7,94.5 323.8,94.5 323.9,94.5 324.0,94.5 324.1,94.5 324.2,94.5 324.3,94.5 324.3,94.5 324.4,94.5 324.5,94.5 324.6,94.5 324.7,94.5 324.8,94.5 324.9,94.5 325.0,94.5 325.1,94.5 325.2,94.5 325.2,94.5 325.3,94.5 325.4,94.5 325.5,94.5 325.6,94.5 325.7,94.5 325.8,94.5 325.9,94.5 326.0,94.5 326.0,94.5 326.1,94.5 326.2,94.5 326.3,94.5 326.4,94.5 326.5,94.5 326.6,94.5 326.7,94.5 326.8,94.5 326.8,94.5 326.9,94.5 327.0,94.5 327.1,94.5 327.2,94.5 327.3,94.5 327.4,94.5 327.5,94.5 327.6,94.5 327.6,94.5 327.7,94.5 327.8,94.5 327.9,94.5 328.0,94.5 328.1,94.5 328.2,94.5 328.3,94.5 328.4,94.5 328.4,94.5 328.5,94.5 328.6,94.5 328.7,94.5 328.8,94.5 328.9,94.5 328.9,91.0 329.0,91.0 329.1,91.0 329.2,91.0 329.3,91.0 329.3,91.0 329.4,91.0 329.5,91.0 329.6,91.0 329.7,91.0 329.8,91.0 329.9,91.0 330.0,91.0 330.1,91.0 330.1,91.0 330.2,91.0 330.3,91.0 330.4,91.0 330.5,91.0 330.6,91.0 330.7,91.0 330.8,91.0 330.9,91.0 330.9,91.0 331.0,91.0 331.1,91.0 331.2,91.0 331.3,91.0 331.4,91.0 331.5,91.0 331.6,91.0 331.7,91.0 331.7,91.0 331.8,91.0 331.9,91.0 332.0,91.0 332.1,91.0 332.2,91.0 332.3,91.0 332.4,91.0 332.5,91.0 332.5,91.0 332.6,91.0 332.7,91.0 332.8,91.0 332.9,91.0 333.0,91.0 333.1,91.0 333.2,91.0 333.3,91.0 333.4,91.0 333.4,91.0 333.5,91.0 333.6,91.0 333.7,91.0 333.8,91.0 333.9,91.0 334.0,91.0 334.1,91.0 334.2,91.0 334.2,91.0 334.3,91.0 334.4,91.0 334.5,91.0 334.6,91.0 334.7,91.0 334.8,91.0 334.9,91.0 335.0,91.0 335.0,91.0 335.1,91.0 335.2,91.0 335.3,91.0 335.4,91.0 335.5,91.0 335.6,91.0 335.7,91.0 335.8,91.0 335.8,91.0 335.9,91.0 336.0,91.0 336.1,91.0 336.2,91.0 336.3,91.0 336.4,91.0 336.5,91.0 336.6,91.0 336.6,91.0 336.7,91.0 336.8,91.0 336.9,91.0 337.0,91.0 337.1,91.0 337.2,91.0 337.3,91.0 337.4,91.0 337.4,91.0 337.5,91.0 337.6,91.0 337.7,91.0 337.8,91.0 337.9,91.0 338.0,91.0 338.1,91.0 338.2,91.0 338.3,91.0 338.3,91.0 338.4,91.0 338.5,91.0 338.6,91.0 338.7,91.0 338.8,91.0 338.9,91.0 339.0,91.0 339.1,91.0 339.1,91.0 339.2,91.0 339.3,91.0 339.4,91.0 339.5,91.0 339.6,91.0 339.7,91.0 339.8,91.0 339.9,91.0 339.9,91.0 340.0,91.0 340.1,91.0 340.2,91.0 340.3,91.0 340.4,91.0 340.5,91.0 340.6,91.0 340.7,91.0 340.7,91.0 340.8,91.0 340.9,91.0 341.0,91.0 341.1,91.0 341.2,91.0 341.3,91.0 341.4,91.0 341.5,91.0 341.5,91.0 341.6,91.0 341.7,91.0 341.8,91.0 341.9,91.0 342.0,91.0 342.1,91.0 342.2,91.0 342.3,91.0 342.4,91.0 342.4,91.0 342.5,91.0 342.6,91.0 342.7,91.0 342.8,91.0 342.9,91.0 343.0,91.0 343.1,91.0 343.2,91.0 343.2,91.0 343.3,91.0 343.4,91.0 343.5,91.0 343.6,91.0 343.7,91.0 343.8,91.0 343.9,91.0 344.0,91.0 344.0,91.0 344.1,91.0 344.2,91.0 344.3,91.0 344.4,91.0 344.5,91.0 344.6,91.0 344.7,91.0 344.8,91.0 344.8,91.0 344.9,91.0 345.0,91.0 345.1,91.0 345.2,91.0 345.3,91.0 345.4,91.0 345.5,91.0 345.6,91.0 345.6,91.0 345.7,91.0 345.8,91.0 345.9,91.0 346.0,91.0 346.1,91.0 346.2,91.0 346.3,91.0 346.4,91.0 346.5,91.0 346.5,91.0 346.6,91.0 346.7,91.0 346.8,91.0 346.9,91.0 347.0,91.0 347.1,91.0 347.2,91.0 347.3,91.0 347.3,91.0 347.4,91.0 347.5,91.0 347.6,91.0 347.7,91.0 347.8,91.0 347.9,91.0 348.0,91.0 348.1,91.0 348.1,91.0 348.2,91.0 348.3,91.0 348.4,91.0 348.5,91.0 348.7,91.0 348.8,91.0 348.9,91.0 348.9,91.0 349.0,91.0 349.1,91.0 349.2,91.0 349.3,91.0 349.4,91.0 349.5,91.0 349.6,91.0 349.7,91.0 349.7,91.0 349.8,91.0 349.9,91.0 350.0,91.0 350.1,91.0 350.2,91.0 350.3,91.0 350.4,91.0 350.5,91.0 350.6,91.0 350.6,91.0 350.7,91.0 350.8,91.0 350.9,91.0 351.0,91.0 351.1,91.0 351.2,91.0 351.3,91.0 351.4,91.0 351.4,91.0 351.6,91.0 351.7,91.0 351.8,91.0 351.9,91.0 352.0,91.0 352.1,91.0 352.2,91.0 352.2,91.0 352.3,91.0 352.4,91.0 352.5,91.0 352.6,91.0 352.7,91.0 352.8,91.0 352.9,91.0 353.0,91.0 353.0,91.0 353.1,91.0 353.2,91.0 353.3,91.0 353.4,91.0 353.5,91.0 353.6,91.0 353.7,91.0 353.8,91.0 353.8,91.0 353.9,91.0 354.0,91.0 354.1,91.0 354.2,91.0 354.3,91.0 354.4,91.0 354.5,91.0 354.6,91.0 354.7,91.0 354.7,91.0 354.8,91.0 354.9,91.0 355.0,91.0 355.1,91.0 355.2,91.0 355.3,91.0 355.4,91.0 355.5,91.0 355.5,91.0 355.6,91.0 355.7,91.0 355.8,91.0 355.9,91.0 356.0,91.0 356.1,91.0 356.2,91.0 356.3,91.0 356.3,91.0 356.4,91.0 356.5,91.0 356.6,91.0 356.7,91.0 356.8,91.0 356.9,91.0 357.0,91.0 357.1,91.0 357.1,91.0 357.2,91.0 357.3,91.0 357.4,91.0 357.5,91.0 357.6,91.0 357.7,91.0 357.8,91.0 357.9,91.0 357.9,91.0 358.0,91.0 358.1,91.0 358.2,91.0 358.3,91.0 358.4,91.0 358.5,91.0 358.6,91.0 358.7,91.0 358.7,91.0 358.8,91.0 358.9,91.0 359.0,91.0 359.1,91.0 359.2,91.0 359.3,91.0 359.5,91.0 359.6,91.0 359.6,91.0 359.7,91.0 359.8,91.0 359.9,91.0 360.0,91.0 360.1,91.0 360.2,91.0 360.3,91.0 360.4,91.0 360.4,91.0 360.5,91.0 360.6,91.0 360.7,91.0 360.8,91.0 360.9,91.0 361.0,91.0 361.1,91.0 361.2,91.0 361.2,91.0 361.3,91.0 361.4,91.0 361.5,91.0 361.6,91.0 361.7,91.0 361.8,91.0 361.9,91.0 362.0,91.0 362.0,91.0 362.1,91.0 362.2,91.0 362.3,91.0 362.4,91.0 362.5,91.0 362.6,91.0 362.7,91.0 362.8,91.0 362.8,91.0 362.9,91.0 363.0,91.0 363.1,91.0 363.2,91.0 363.3,91.0 363.4,91.0 363.5,91.0 363.6,91.0 363.7,91.0 363.7,91.0 363.8,91.0 363.9,91.0 364.0,91.0 364.1,91.0 364.2,91.0 364.3,91.0 364.4,91.0 364.5,91.0 364.5,91.0 364.6,91.0 364.7,91.0 364.8,91.0 364.9,91.0 365.0,91.0 365.1,91.0 365.2,91.0 365.3,91.0 365.3,91.0 365.4,91.0 365.5,91.0 365.6,91.0 365.7,91.0 365.8,91.0 365.9,91.0 366.0,91.0 366.1,91.0 366.1,91.0 366.2,91.0 366.3,91.0 366.4,91.0 366.5,91.0 366.6,91.0 366.7,91.0 366.8,91.0 366.9,91.0 366.9,91.0 367.0,91.0 367.1,91.0 367.2,91.0 367.3,91.0 367.4,91.0 367.4,87.5 367.5,87.5 367.6,87.5 367.7,87.5 367.8,87.5 367.8,87.5 367.9,87.5 368.0,87.5 368.1,87.5 368.2,87.5 368.3,87.5 368.4,87.5 368.5,87.5 368.6,87.5 368.6,87.5 368.7,87.5 368.8,87.5 368.9,87.5 369.0,87.5 369.1,87.5 369.2,87.5 369.3,87.5 369.4,87.5 369.4,87.5 369.5,87.5 369.6,87.5 369.7,87.5 369.8,87.5 369.9,87.5 370.0,87.5 370.1,87.5 370.2,87.5 370.2,87.5 370.3,87.5 370.4,87.5 370.5,87.5 370.6,87.5 370.7,87.5 370.8,87.5 370.9,87.5 371.0,87.5 371.0,87.5 371.1,87.5 371.2,87.5 371.3,87.5 371.4,87.5 371.5,87.5 371.6,87.5 371.7,87.5 371.8,87.5 371.9,87.5 371.9,87.5 372.0,87.5 372.1,87.5 372.2,87.5 372.3,87.5 372.4,87.5 372.5,87.5 372.6,87.5 372.7,87.5 372.7,87.5 372.8,87.5 372.9,87.5 373.0,87.5 373.1,87.5 373.2,87.5 373.3,87.5 373.4,87.5 373.5,87.5 373.5,87.5 373.6,87.5 373.7,87.5 373.8,87.5 373.9,87.5 374.0,87.5 374.1,87.5 374.2,87.5 374.3,87.5 374.3,87.5 374.4,87.5 374.5,87.5 374.6,87.5 374.7,87.5 374.8,87.5 374.9,87.5 375.0,87.5 375.1,87.5 375.1,87.5 375.2,87.5 375.3,87.5 375.4,87.5 375.5,87.5 375.6,87.5 375.7,87.5 375.8,87.5 375.9,87.5 376.0,87.5 376.0,87.5 376.1,87.5 376.2,87.5 376.3,87.5 376.4,87.5 376.5,87.5 376.6,87.5 376.7,87.5 376.8,87.5 376.8,87.5 376.9,87.5 377.0,87.5 377.1,87.5 377.2,87.5 377.3,87.5 377.4,87.5 377.5,87.5 377.6,87.5 377.6,87.5 377.7,87.5 377.8,87.5 377.9,87.5 378.0,87.5 378.1,87.5 378.2,87.5 378.3,87.5 378.4,87.5 378.4,87.5 378.5,87.5 378.6,87.5 378.7,87.5 378.8,87.5 378.9,87.5 379.0,87.5 379.1,87.5 379.2,87.5 379.2,87.5 379.3,87.5 379.4,87.5 379.5,87.5 379.6,87.5 379.7,87.5 379.8,87.5 379.9,87.5 380.0,87.5 380.0,87.5 380.1,87.5 380.2,87.5 380.3,87.5 380.4,87.5 380.5,87.5 380.6,87.5 380.7,87.5 380.8,87.5 380.9,87.5 380.9,87.5 381.0,87.5 381.1,87.5 381.2,87.5 381.3,87.5 381.4,87.5 381.5,87.5 381.6,87.5 381.7,87.5 381.7,87.5 381.8,87.5 381.9,87.5 382.0,87.5 382.1,87.5 382.2,87.5 382.3,87.5 382.4,87.5 382.5,87.5 382.5,87.5 382.6,87.5 382.7,87.5 382.8,87.5 382.9,87.5 383.0,87.5 383.1,87.5 383.2,87.5 383.3,87.5 383.3,87.5 383.4,87.5 383.5,87.5 383.6,87.5 383.7,87.5 383.8,87.5 383.9,87.5 384.0,87.5 384.1,87.5 384.1,87.5 384.2,87.5 384.3,87.5 384.4,87.5 384.5,87.5 384.6,87.5 384.7,87.5 384.8,87.5 384.9,87.5 385.0,87.5 385.0,87.5 385.1,87.5 385.2,87.5 385.3,87.5 385.4,87.5 385.5,87.5 385.6,87.5 385.7,87.5 385.8,87.5 385.8,87.5 385.9,87.5 386.0,87.5 386.1,87.5 386.2,87.5 386.3,87.5 386.4,87.5 386.5,87.5 386.6,87.5 386.6,87.5 386.7,87.5 386.8,87.5 386.9,87.5 387.0,87.5 387.2,87.5 387.3,87.5 387.4,87.5 387.4,87.5 387.5,87.5 387.6,87.5 387.7,87.5 387.8,87.5 387.9,87.5 388.0,87.5 388.1,87.5 388.2,87.5 388.2,87.5 388.3,87.5 388.4,87.5 388.5,87.5 388.6,87.5 388.7,87.5 388.8,87.5 388.9,87.5 389.0,87.5 389.1,87.5 389.1,87.5 389.2,87.5 389.3,87.5 389.4,87.5 389.5,87.5 389.6,87.5 389.7,87.5 389.8,87.5 389.9,87.5 389.9,87.5 390.0,87.5 390.1,87.5 390.2,87.5 390.3,87.5 390.4,87.5 390.5,87.5 390.6,87.5 390.7,87.5 390.7,87.5 390.8,87.5 390.9,87.5 391.0,87.5 391.1,87.5 391.2,87.5 391.3,87.5 391.4,87.5 391.5,87.5 391.5,87.5 391.6,87.5 391.7,87.5 391.8,87.5 391.9,87.5 392.0,87.5 392.1,87.5 392.2,87.5 392.3,87.5 392.3,87.5 392.4,87.5 392.5,87.5 392.6,87.5 392.7,87.5 392.8,87.5 392.9,87.5 393.0,87.5 393.1,87.5 393.2,87.5 393.2,87.5 393.3,87.5 393.4,87.5 393.5,87.5 393.6,87.5 393.7,87.5 393.8,87.5 393.9,87.5 394.0,87.5 394.0,87.5 394.1,87.5 394.2,87.5 394.3,87.5 394.4,87.5 394.5,87.5 394.6,87.5 394.7,87.5 394.8,87.5 394.8,87.5 394.9,87.5 395.0,87.5 395.1,87.5 395.2,87.5 395.3,87.5 395.4,87.5 395.5,87.5 395.6,87.5 395.6,87.5 395.7,87.5 395.8,87.5 395.9,87.5 396.0,87.5 396.1,87.5 396.2,87.5 396.3,87.5 396.4,87.5 396.4,87.5 396.5,87.5 396.6,87.5 396.7,87.5 396.8,87.5 396.9,87.5 397.0,87.5 397.1,87.5 397.2,87.5 397.3,87.5 397.3,87.5 397.4,87.5 397.5,87.5 397.6,87.5 397.7,87.5 397.8,87.5 397.9,87.5 398.0,87.5 398.1,87.5 398.1,87.5 398.2,87.5 398.3,87.5 398.4,87.5 398.5,87.5 398.6,87.5 398.7,87.5 398.8,87.5 398.9,87.5 398.9,87.5 399.0,87.5 399.1,87.5 399.2,87.5 399.3,87.5 399.4,87.5 399.5,87.5 399.6,87.5 399.7,87.5 399.7,87.5 399.8,87.5 399.9,87.5 400.0,87.5 400.1,87.5 400.2,87.5 400.3,87.5 400.4,87.5 400.5,87.5 400.5,87.5 400.6,87.5 400.7,87.5 400.8,87.5 400.9,87.5 401.0,87.5 401.1,87.5 401.2,87.5 401.3,87.5 401.3,87.5 401.4,87.5 401.5,87.5 401.6,87.5 401.7,87.5 401.8,87.5 401.9,87.5 402.0,87.5 402.1,87.5 402.2,87.5 402.2,87.5 402.3,87.5 402.4,87.5 402.5,87.5 402.6,87.5 402.7,87.5 402.8,87.5 402.9,87.5 403.0,87.5 403.0,87.5 403.1,87.5 403.2,87.5 403.3,87.5 403.4,87.5 403.5,87.5 403.7,87.5 403.8,87.5 403.8,87.5 403.9,87.5 404.0,87.5 404.1,87.5 404.2,87.5 404.3,87.5 404.4,87.5 404.5,87.5 404.6,87.5 404.6,87.5 404.7,87.5 404.8,87.5 404.9,87.5 405.0,87.5 405.1,87.5 405.2,87.5 405.3,87.5 405.4,87.5 405.4,87.5 405.5,87.5 405.6,87.5 405.7,87.5 405.8,87.5 405.9,87.5 406.0,87.5 406.1,87.5 406.2,87.5 406.3,87.5 406.3,87.5 406.4,87.5 406.5,87.5 406.6,87.5 406.7,87.5 406.8,87.5 406.9,87.5 407.0,87.5 407.1,87.5 407.1,87.5 407.2,87.5 407.3,87.5 407.4,87.5 407.5,87.5 407.6,87.5 407.7,87.5 407.8,87.5 407.9,87.5 407.9,87.5 408.0,87.5 408.1,87.5 408.2,87.5 408.3,87.5 408.4,87.5 408.5,87.5 408.6,87.5 408.7,87.5 408.7,87.5 408.8,87.5 408.9,87.5 409.0,87.5 409.1,87.5 409.2,87.5 409.3,87.5 409.4,87.5 409.5,87.5 409.5,87.5 409.6,87.5 409.7,87.5 409.8,87.5 409.9,87.5 410.0,87.5 410.1,87.5 410.2,87.5 410.3,87.5 410.4,87.5 410.4,87.5 410.5,87.5 410.6,87.5 410.7,87.5 410.8,87.5 410.9,87.5 411.0,87.5 411.1,87.5 411.2,87.5 411.2,87.5 411.3,87.5 411.4,87.5 411.5,87.5 411.6,87.5 411.7,87.5 411.8,87.5 411.9,87.5 412.0,87.5 412.0,87.5 412.1,87.5 412.2,87.5 412.3,87.5 412.4,87.5 412.5,87.5 412.6,87.5 412.7,87.5 412.8,87.5 412.8,87.5 412.9,87.5 413.0,87.5 413.1,87.5 413.2,87.5 413.3,87.5 413.4,87.5 413.5,87.5 413.6,87.5 413.6,87.5 413.7,87.5 413.8,87.5 413.9,87.5 414.0,87.5 414.1,87.5 414.2,87.5 414.3,87.5 414.4,87.5 414.5,87.5 414.5,87.5 414.6,87.5 414.7,87.5 414.8,87.5 414.9,87.5 415.0,87.5 415.1,87.5 415.2,87.5 415.3,87.5 415.3,87.5 415.4,87.5 415.5,87.5 415.6,87.5 415.7,87.5 415.8,87.5 415.9,87.5 416.0,87.5 416.1,87.5 416.1,87.5 416.2,87.5 416.3,87.5 416.4,87.5 416.5,87.5 416.6,87.5 416.7,87.5 416.8,87.5 416.9,87.5 416.9,87.5 417.0,87.5 417.1,87.5 417.2,87.5 417.3,87.5 417.4,87.5 417.5,87.5 417.6,87.5 417.7,87.5 417.7,87.5 417.8,87.5 417.9,87.5 418.0,87.5 418.1,87.5 418.2,87.5 418.3,87.5 418.4,87.5 418.5,87.5 418.6,87.5 418.6,87.5 418.7,87.5 418.8,87.5 418.9,87.5 419.0,87.5 419.1,87.5 419.2,87.5 419.3,87.5 419.4,87.5 419.4,87.5 419.5,87.5 419.6,87.5 419.7,87.5 419.8,87.5 419.9,87.5 420.0,87.5 420.1,87.5 420.2,87.5 420.2,87.5 420.3,87.5 420.4,87.5 420.5,87.5 420.6,87.5 420.7,87.5 420.8,87.5 420.9,87.5 421.0,87.5 421.0,87.5 421.1,87.5 421.2,87.5 421.3,87.5 421.4,87.5 421.5,87.5 421.6,87.5 421.7,87.5 421.8,87.5 421.8,87.5 421.9,87.5 422.0,87.5 422.1,87.5 422.2,87.5 422.3,87.5 422.4,87.5 422.5,87.5 422.6,87.5 422.6,87.5 422.7,87.5 422.8,87.5 422.9,87.5 423.0,87.5 423.1,87.5 423.2,87.5 423.3,87.5 423.4,87.5 423.5,87.5 423.5,87.5 423.6,87.5 423.7,87.5 423.8,87.5 423.9,87.5 424.0,87.5 424.1,87.5 424.2,87.5 424.3,87.5 424.3,87.5 424.4,87.5 424.5,87.5 424.6,87.5 424.7,87.5 424.8,87.5 424.9,87.5 425.0,87.5 425.1,87.5 425.1,87.5 425.2,87.5 425.3,87.5 425.4,87.5 425.5,87.5 425.6,87.5 425.7,87.5 425.8,87.5 425.9,87.5 425.9,87.5 426.0,87.5 426.1,87.5 426.2,87.5 426.3,87.5 426.4,87.5 426.5,87.5 426.6,87.5 426.7,87.5 426.7,87.5 426.8,87.5 426.9,87.5 427.0,87.5 427.1,87.5 427.2,87.5 427.3,87.5 427.4,87.5 427.5,87.5 427.6,87.5 427.6,87.5 427.7,87.5 427.8,87.5 427.9,87.5 428.0,87.5 428.1,87.5 428.2,87.5 428.3,87.5 428.4,87.5 428.4,87.5 428.5,87.5 428.6,87.5 428.7,87.5 428.8,87.5 428.9,87.5 429.0,87.5 429.1,87.5 429.2,87.5 429.2,87.5 429.3,87.5 429.4,87.5 429.5,87.5 429.6,87.5 429.7,87.5 429.8,87.5 429.9,87.5 430.0,87.5 430.0,87.5 430.1,87.5 430.2,87.5 430.3,87.5 430.4,87.5 430.5,87.5 430.6,87.5 430.7,87.5 430.8,87.5 430.8,87.5 430.9,87.5 431.0,87.5 431.1,87.5 431.2,87.5 431.3,87.5 431.4,87.5 431.5,87.5 431.6,87.5 431.7,87.5 431.7,87.5 431.8,87.5 431.9,87.5 432.0,87.5 432.1,87.5 432.2,87.5 432.3,87.5 432.4,87.5 432.5,87.5 432.5,87.5 432.6,87.5 432.7,87.5 432.8,87.5 432.9,87.5 433.0,87.5 433.1,87.5 433.2,87.5 433.3,87.5 433.3,87.5 433.4,87.5 433.5,87.5 433.6,87.5 433.7,87.5 433.8,87.5 433.9,87.5 434.0,87.5 434.1,87.5 434.1,87.5 434.2,87.5 434.3,87.5 434.4,87.5 434.5,87.5 434.6,87.5 434.7,87.5 434.8,87.5 434.9,87.5 434.9,87.5 435.0,87.5 435.1,87.5 435.2,87.5 435.3,87.5 435.4,87.5 435.5,87.5 435.6,87.5 435.7,87.5 435.8,87.5 435.8,87.5 435.9,87.5 436.0,87.5 436.1,87.5 436.2,87.5 436.3,87.5 436.4,87.5 436.5,87.5 436.6,87.5 436.6,87.5 436.7,87.5 436.8,87.5 436.9,87.5 437.0,87.5 437.1,87.5 437.2,87.5 437.3,87.5 437.4,87.5 437.4,87.5 437.5,87.5 437.6,87.5 437.7,87.5 437.8,87.5 437.9,87.5 438.0,87.5 438.1,87.5 438.2,87.5 438.2,87.5 438.3,87.5 438.4,87.5 438.5,87.5 438.6,87.5 438.7,87.5 438.8,87.5 438.9,87.5 439.0,87.5 439.0,87.5 439.1,87.5 439.2,87.5 439.3,87.5 439.4,87.5 439.5,87.5 439.6,87.5 439.7,87.5 439.8,87.5 439.9,87.5 439.9,87.5 440.0,87.5 440.1,87.5 440.2,87.5 440.3,87.5 440.4,87.5 440.5,87.5 440.6,87.5 440.7,87.5 440.7,87.5 440.8,87.5 440.9,87.5 441.0,87.5 441.1,87.5 441.2,87.5 441.3,87.5 441.4,87.5 441.5,87.5 441.5,87.5 441.6,87.5 441.7,87.5 441.8,87.5 441.9,87.5 442.0,87.5 442.1,87.5 442.2,87.5 442.3,87.5 442.3,87.5 442.4,87.5 442.5,87.5 442.6,87.5 442.7,87.5 442.8,87.5 442.9,87.5 443.0,87.5 443.1,87.5 443.1,87.5 443.2,87.5 443.3,87.5 443.4,87.5 443.5,87.5 443.6,87.5 443.7,87.5 443.8,87.5 443.9,87.5 443.9,87.5 444.0,87.5 444.1,87.5 444.2,87.5 444.3,87.5 444.4,87.5 444.5,87.5 444.6,87.5 444.7,87.5 444.8,87.5 444.8,87.5 444.9,87.5 445.0,87.5 445.1,87.5 445.2,87.5 445.3,87.5 445.4,87.5 445.5,87.5 445.6,87.5 445.6,87.5 445.7,87.5 445.8,87.5 445.9,87.5 446.0,87.5 446.1,87.5 446.2,87.5 446.3,87.5 446.4,87.5 446.4,87.5 446.5,87.5 446.6,87.5 446.7,87.5 446.8,87.5 446.9,87.5 447.0,87.5 447.1,87.5 447.2,87.5 447.2,87.5 447.3,87.5 447.4,87.5 447.5,87.5 447.6,87.5 447.7,87.5 447.8,87.5 447.9,87.5 448.0,87.5 448.0,87.5 448.1,87.5 448.2,87.5 448.3,87.5 448.4,87.5 448.5,87.5 448.6,87.5 448.7,87.5 448.8,87.5 448.9,87.5 448.9,87.5 449.0,87.5 449.1,87.5 449.1,84.0 449.2,84.0 449.3,84.0 449.4,84.0 449.5,84.0 449.6,84.0 449.7,84.0 449.7,84.0 449.8,84.0 449.9,84.0 450.0,84.0 450.1,84.0 450.2,84.0 450.3,84.0 450.4,84.0 450.5,84.0 450.5,84.0 450.6,84.0 450.7,84.0 450.8,84.0 450.9,84.0 451.0,84.0 451.1,84.0 451.2,84.0 451.3,84.0 451.3,84.0 451.4,84.0 451.5,84.0 451.6,84.0 451.7,84.0 451.8,84.0 451.9,84.0 452.0,84.0 452.1,84.0 452.1,84.0 452.2,84.0 452.3,84.0 452.4,84.0 452.5,84.0 452.6,84.0 452.7,84.0 452.8,84.0 452.9,84.0 453.0,84.0 453.0,84.0 453.1,84.0 453.2,84.0 453.3,84.0 453.4,84.0 453.5,84.0 453.6,84.0 453.7,84.0 453.8,84.0 453.8,84.0 453.9,84.0 454.0,84.0 454.1,84.0 454.2,84.0 454.3,84.0 454.4,84.0 454.5,84.0 454.6,84.0 454.6,84.0 454.7,84.0 454.8,84.0 454.9,84.0 455.0,84.0 455.1,84.0 455.2,84.0 455.3,84.0 455.4,84.0 455.4,84.0 455.5,84.0 455.6,84.0 455.7,84.0 455.8,84.0 455.9,84.0 456.0,84.0 456.1,84.0 456.2,84.0 456.2,84.0 456.3,84.0 456.4,84.0 456.5,84.0 456.6,84.0 456.7,84.0 456.8,84.0 456.9,84.0 457.0,84.0 457.1,84.0 457.1,84.0 457.2,84.0 457.3,84.0 457.4,84.0 457.5,84.0 457.6,84.0 457.7,84.0 457.8,84.0 457.9,84.0 457.9,84.0 458.0,84.0 458.1,84.0 458.2,84.0 458.3,84.0 458.4,84.0 458.5,84.0 458.6,84.0 458.7,84.0 458.7,84.0 458.8,84.0 458.9,84.0 459.0,84.0 459.1,84.0 459.2,84.0 459.3,84.0 459.4,84.0 459.5,84.0 459.5,84.0 459.6,84.0 459.7,84.0 459.8,84.0 459.9,84.0 460.0,84.0 460.1,84.0 460.2,84.0 460.3,84.0 460.3,84.0 460.4,84.0 460.5,84.0 460.6,84.0 460.7,84.0 460.8,84.0 460.9,84.0 461.0,84.0 461.1,84.0 461.1,84.0 461.2,84.0 461.3,84.0 461.4,84.0 461.5,84.0 461.6,84.0 461.7,84.0 461.8,84.0 461.9,84.0 462.0,84.0 462.0,84.0 462.1,84.0 462.2,84.0 462.3,84.0 462.4,84.0 462.5,84.0 462.6,84.0 462.7,84.0 462.8,84.0 462.8,84.0 462.9,84.0 463.0,84.0 463.1,84.0 463.2,84.0 463.3,84.0 463.4,84.0 463.5,84.0 463.6,84.0 463.6,84.0 463.7,84.0 463.8,84.0 463.9,84.0 464.0,84.0 464.1,84.0 464.2,84.0 464.3,84.0 464.4,84.0 464.4,84.0 464.4,80.5 464.5,80.5 464.6,80.5 464.7,80.5 464.8,80.5 464.9,80.5 465.0,80.5 465.1,80.5 465.2,80.5 465.2,80.5 465.3,80.5 465.4,80.5 465.5,80.5 465.6,80.5 465.7,80.5 465.8,80.5 465.9,80.5 466.0,80.5 466.1,80.5 466.1,80.5 466.2,80.5 466.3,80.5 466.4,80.5 466.6,80.5 466.7,80.5 466.8,80.5 466.9,80.5 466.9,80.5 467.0,80.5 467.1,80.5 467.2,80.5 467.3,80.5 467.4,80.5 467.5,80.5 467.6,80.5 467.7,80.5 467.7,80.5 467.8,80.5 467.9,80.5 468.0,80.5 468.1,80.5 468.2,80.5 468.3,80.5 468.4,80.5 468.5,80.5 468.5,80.5 468.6,80.5 468.7,80.5 468.8,80.5 468.9,80.5 469.0,80.5 469.1,80.5 469.2,80.5 469.3,80.5 469.3,80.5 469.4,80.5 469.5,80.5 469.6,80.5 469.7,80.5 469.8,80.5 469.9,80.5 470.0,80.5 470.1,80.5 470.2,80.5 470.2,80.5 470.3,80.5 470.4,80.5 470.5,80.5 470.6,80.5 470.7,80.5 470.8,80.5 470.9,80.5 471.0,80.5 471.0,80.5 471.1,80.5 471.2,80.5 471.3,80.5 471.4,80.5 471.5,80.5 471.6,80.5 471.7,80.5 471.8,80.5 471.8,80.5 471.9,80.5 472.0,80.5 472.1,80.5 472.2,80.5 472.3,80.5 472.4,80.5 472.5,80.5 472.6,80.5 472.6,80.5 472.7,80.5 472.8,80.5 472.9,80.5 473.0,80.5 473.1,80.5 473.2,80.5 473.3,80.5 473.4,80.5 473.4,80.5 473.5,80.5 473.6,80.5 473.7,80.5 473.8,80.5 473.9,80.5 474.0,80.5 474.1,80.5 474.2,80.5 474.3,80.5 474.3,80.5 474.4,80.5 474.5,80.5 474.6,80.5 474.7,80.5 474.8,80.5 474.9,80.5 475.0,80.5 475.1,80.5 475.1,80.5 475.2,80.5 475.3,80.5 475.4,80.5 475.5,80.5 475.6,80.5 475.7,80.5 475.8,80.5 475.9,80.5 475.9,80.5 476.0,80.5 476.1,80.5 476.2,80.5 476.3,80.5 476.4,80.5 476.5,80.5 476.6,80.5 476.7,80.5 476.7,80.5 476.8,80.5 476.9,80.5 477.0,80.5 477.1,80.5 477.2,80.5 477.3,80.5 477.4,80.5 477.5,80.5 477.5,80.5 477.6,80.5 477.7,80.5 477.8,80.5 477.9,80.5 478.0,80.5 478.1,80.5 478.2,80.5 478.3,80.5 478.4,80.5 478.4,80.5 478.5,80.5 478.6,80.5 478.7,80.5 478.8,80.5 478.9,80.5 479.0,80.5 479.1,80.5 479.2,80.5 479.2,80.5 479.3,80.5 479.4,80.5 479.5,80.5 479.6,80.5 479.7,80.5 479.8,80.5 479.9,80.5 480.0,80.5 480.0,80.5 480.1,80.5 480.2,80.5 480.3,80.5 480.4,80.5 480.5,80.5 480.6,80.5 480.7,80.5 480.8,80.5 480.8,80.5 480.9,80.5 481.0,80.5 481.1,80.5 481.2,80.5 481.3,80.5 481.4,80.5 481.5,80.5 481.6,80.5 481.6,80.5 481.7,80.5 481.8,80.5 481.9,80.5 482.0,80.5 482.1,80.5 482.2,80.5 482.3,80.5 482.4,80.5 482.4,80.5 482.5,80.5 482.6,80.5 482.7,80.5 482.8,80.5 482.9,80.5 483.0,80.5 483.1,80.5 483.2,80.5 483.3,80.5 483.3,80.5 483.4,80.5 483.5,80.5 483.6,80.5 483.7,80.5 483.8,80.5 483.9,80.5 484.0,80.5 484.1,80.5 484.1,80.5 484.2,80.5 484.3,80.5 484.4,80.5 484.5,80.5 484.6,80.5 484.7,80.5 484.8,80.5 484.9,80.5 484.9,80.5 485.0,80.5 485.1,80.5 485.2,80.5 485.3,80.5 485.4,80.5 485.5,80.5 485.6,80.5 485.7,80.5 485.7,80.5 485.8,80.5 485.9,80.5 486.0,80.5 486.1,80.5 486.2,80.5 486.3,80.5 486.4,80.5 486.5,80.5 486.5,80.5 486.6,80.5 486.7,80.5 486.8,80.5 486.9,80.5 487.0,80.5 487.1,80.5 487.2,80.5 487.3,80.5 487.4,80.5 487.4,80.5 487.5,80.5 487.6,80.5 487.7,80.5 487.8,80.5 487.9,80.5 488.0,80.5 488.1,80.5 488.2,80.5 488.2,80.5 488.3,80.5 488.4,80.5 488.5,80.5 488.6,80.5 488.6,77.0 488.8,77.0 488.9,77.0 489.0,77.0 489.0,77.0 489.1,77.0 489.3,77.0 489.4,77.0 489.5,77.0 489.6,77.0 489.7,77.0 489.8,77.0 489.8,77.0 489.9,77.0 490.0,77.0 490.1,77.0 490.2,77.0 490.3,77.0 490.4,77.0 490.5,77.0 490.6,77.0 490.6,77.0 490.7,77.0 490.8,77.0 490.9,77.0 491.0,77.0 491.1,77.0 491.2,77.0 491.3,77.0 491.4,77.0 491.5,77.0 491.5,77.0 491.6,77.0 491.7,77.0 491.8,77.0 491.9,77.0 492.0,77.0 492.1,77.0 492.2,77.0 492.3,77.0 492.3,77.0 492.4,77.0 492.5,77.0 492.6,77.0 492.7,77.0 492.8,77.0 492.9,77.0 493.0,77.0 493.1,77.0 493.1,77.0 493.2,77.0 493.3,77.0 493.4,77.0 493.5,77.0 493.6,77.0 493.7,77.0 493.9,77.0 493.9,77.0 494.0,77.0 494.1,77.0 494.2,77.0 494.3,77.0 494.4,77.0 494.5,77.0 494.6,77.0 494.7,77.0 494.7,77.0 494.8,77.0 494.9,77.0 495.0,77.0 495.1,77.0 495.2,77.0 495.3,77.0 495.4,77.0 495.5,77.0 495.6,77.0 495.6,77.0 495.7,77.0 495.8,77.0 495.9,77.0 496.0,77.0 496.1,77.0 496.2,77.0 496.3,77.0 496.4,77.0 496.4,77.0 496.5,77.0 496.6,77.0 496.7,77.0 496.8,77.0 496.9,77.0 497.0,77.0 497.1,77.0 497.2,77.0 497.2,77.0 497.3,77.0 497.4,77.0 497.5,77.0 497.6,77.0 497.7,77.0 497.8,77.0 497.9,77.0 498.0,77.0 498.0,77.0 498.1,77.0 498.2,77.0 498.3,77.0 498.4,77.0 498.5,77.0 498.6,77.0 498.7,77.0 498.8,77.0 498.8,77.0 498.9,77.0 499.0,77.0 499.1,77.0 499.2,77.0 499.3,77.0 499.4,77.0 499.5,77.0 499.6,77.0 499.7,77.0 499.7,77.0 499.8,77.0 499.9,77.0 500.0,77.0 500.1,77.0 500.2,77.0 500.3,77.0 500.4,77.0 500.5,77.0 500.5,77.0 500.6,77.0 500.7,77.0 500.8,77.0 500.9,77.0 501.0,77.0 501.1,77.0 501.2,77.0 501.3,77.0 501.3,77.0 501.4,77.0 501.5,77.0 501.6,77.0 501.7,77.0 501.8,77.0 501.9,77.0 502.0,77.0 502.1,77.0 502.1,77.0 502.2,77.0 502.3,77.0 502.4,77.0 502.5,77.0 502.6,77.0 502.7,77.0 502.8,77.0 502.9,77.0 502.9,77.0 503.0,77.0 503.1,77.0 503.2,77.0 503.3,77.0 503.4,77.0 503.5,77.0 503.6,77.0 503.7,77.0 503.7,77.0 503.8,77.0 503.9,77.0 504.0,77.0 504.1,77.0 504.2,77.0 504.3,77.0 504.4,77.0 504.5,77.0 504.6,77.0 504.6,77.0 504.7,77.0 504.8,77.0 504.9,77.0 505.0,77.0 505.1,77.0 505.2,77.0 505.3,77.0 505.4,77.0 505.4,77.0 505.5,77.0 505.6,77.0 505.7,77.0 505.8,77.0 505.9,77.0 506.0,77.0 506.1,77.0 506.2,77.0 506.2,77.0 506.3,77.0 506.4,77.0 506.5,77.0 506.6,77.0 506.7,77.0 506.8,77.0 506.9,77.0 507.0,77.0 507.0,77.0 507.1,77.0 507.2,77.0 507.3,77.0 507.4,77.0 507.5,77.0 507.6,77.0 507.7,77.0 507.8,77.0 507.8,77.0 507.9,77.0 508.0,77.0 508.1,77.0 508.2,77.0 508.4,77.0 508.5,77.0 508.6,77.0 508.7,77.0 508.7,77.0 508.8,77.0 508.9,77.0 509.0,77.0 509.1,77.0 509.2,77.0 509.3,77.0 509.4,77.0 509.5,77.0 509.5,77.0 509.6,77.0 509.7,77.0 509.8,77.0 509.9,77.0 510.0,77.0 510.1,77.0 510.2,77.0 510.3,77.0 510.3,77.0 510.4,77.0 510.5,77.0 510.6,77.0 510.7,77.0 510.8,77.0 510.9,77.0 511.0,77.0 511.1,77.0 511.1,77.0 511.2,77.0 511.3,77.0 511.4,77.0 511.5,77.0 511.6,77.0 511.7,77.0 511.8,77.0 511.9,77.0 511.9,77.0 512.0,77.0 512.1,77.0 512.2,77.0 512.3,77.0 512.4,77.0 512.5,77.0 512.6,77.0 512.7,77.0 512.8,77.0 512.8,77.0 512.9,77.0 513.0,77.0 513.1,77.0 513.2,77.0 513.3,77.0 513.4,77.0 513.5,77.0 513.6,77.0 513.6,77.0 513.7,77.0 513.8,77.0 513.9,77.0 514.0,77.0 514.1,77.0 514.2,77.0 514.3,77.0 514.4,77.0 514.4,77.0 514.5,77.0 514.6,77.0 514.7,77.0 514.8,77.0 514.9,77.0 515.0,77.0 515.1,77.0 515.2,77.0 515.2,77.0 515.3,77.0 515.4,77.0 515.5,77.0 515.6,77.0 515.7,77.0 515.8,77.0 515.9,77.0 516.0,77.0 516.0,77.0 516.1,77.0 516.2,77.0 516.3,77.0 516.4,77.0 516.5,77.0 516.6,77.0 516.7,77.0 516.8,77.0 516.9,77.0 516.9,77.0 517.0,77.0 517.1,77.0 517.2,77.0 517.3,77.0 517.4,77.0 517.5,77.0 517.6,77.0 517.7,77.0 517.8,77.0 517.9,77.0 518.0,77.0 518.1,77.0 518.2,77.0 518.3,77.0 518.4,77.0 518.5,77.0 518.5,77.0 518.6,77.0 518.7,77.0 518.8,77.0 518.9,77.0 519.0,77.0 519.1,77.0 519.2,77.0 519.3,77.0 519.3,77.0 519.4,77.0 519.5,77.0 519.6,77.0 519.7,77.0 519.8,77.0 519.9,77.0 520.0,77.0 520.1,77.0 520.1,77.0 520.2,77.0 520.3,77.0 520.4,77.0 520.5,77.0 520.6,77.0 520.7,77.0 520.8,77.0 520.9,77.0 521.0,77.0 521.0,77.0 521.1,77.0 521.2,77.0 521.3,77.0 521.4,77.0 521.5,77.0 521.6,77.0 521.7,77.0 521.8,77.0 521.8,77.0 521.9,77.0 522.0,77.0 522.1,77.0 522.2,77.0 522.3,77.0 522.4,77.0 522.5,77.0 522.6,77.0 522.6,77.0 522.7,77.0 522.8,77.0 522.9,77.0 523.0,77.0 523.1,77.0 523.2,77.0 523.3,77.0 523.4,77.0 523.4,77.0 523.5,77.0 523.6,77.0 523.7,77.0 523.8,77.0 523.9,77.0 524.0,77.0 524.1,77.0 524.2,77.0 524.2,77.0 524.3,77.0 524.4,77.0 524.5,77.0 524.6,77.0 524.7,77.0 524.8,77.0 524.9,77.0 525.0,77.0 525.0,77.0 525.1,77.0 525.2,77.0 525.3,77.0 525.4,77.0 525.5,77.0 525.6,77.0 525.7,77.0 525.8,77.0 525.9,77.0 525.9,77.0 526.0,77.0 526.1,77.0 526.2,77.0 526.3,77.0 526.4,77.0 526.5,77.0 526.6,77.0 526.7,77.0 526.7,77.0 526.8,77.0 526.9,77.0 527.0,77.0 527.1,77.0 527.2,77.0 527.3,77.0 527.4,77.0 527.5,77.0 527.5,77.0 527.6,77.0 527.7,77.0 527.8,77.0 527.9,77.0 528.0,77.0 528.1,77.0 528.2,77.0 528.3,77.0 528.3,77.0 528.4,77.0 528.5,77.0 528.6,77.0 528.7,77.0 528.8,77.0 528.9,77.0 529.0,77.0 529.1,77.0 529.1,77.0 529.2,77.0 529.3,77.0 529.4,77.0 529.5,77.0 529.6,77.0 529.7,77.0 529.8,77.0 529.9,77.0 530.0,77.0 530.0,77.0 530.1,77.0 530.2,77.0 530.3,77.0 530.4,77.0 530.5,77.0 530.6,77.0 530.7,77.0 530.8,77.0 530.8,77.0 530.9,77.0 531.0,77.0 531.1,77.0 531.2,77.0 531.3,77.0 531.4,77.0 531.5,77.0 531.6,77.0 531.6,77.0 531.7,77.0 531.8,77.0 531.9,77.0 532.0,77.0 532.1,77.0 532.2,77.0 532.3,77.0 532.4,77.0 532.4,77.0 532.5,77.0 532.6,77.0 532.7,77.0 532.8,77.0 532.9,77.0 533.0,77.0 533.1,77.0 533.2,77.0 533.2,77.0 533.3,77.0 533.4,77.0 533.5,77.0 533.6,77.0 533.7,77.0 533.8,77.0 533.9,77.0 534.0,77.0 534.1,77.0 534.1,77.0 534.2,77.0 534.3,77.0 534.4,77.0 534.5,77.0 534.6,77.0 534.7,77.0 534.8,77.0 534.9,77.0 534.9,77.0 535.0,77.0 535.1,77.0 535.2,77.0 535.3,77.0 535.4,77.0 535.5,77.0 535.6,77.0 535.7,77.0 535.7,77.0 535.8,77.0 535.9,77.0 536.0,77.0 536.1,77.0 536.2,77.0 536.3,77.0 536.4,77.0 536.5,77.0 536.5,77.0 536.6,77.0 536.7,77.0 536.8,77.0 536.9,77.0 537.0,77.0 537.1,77.0 537.2,77.0 537.3,77.0 537.3,77.0 537.4,77.0 537.5,77.0 537.6,77.0 537.7,77.0 537.8,77.0 537.9,77.0 538.0,77.0 538.1,77.0 538.2,77.0 538.2,77.0 538.3,77.0 538.4,77.0 538.5,77.0 538.6,77.0 538.7,77.0 538.8,77.0 538.9,77.0 539.0,77.0 539.0,77.0 539.1,77.0 539.2,77.0 539.3,77.0 539.4,77.0 539.5,77.0 539.6,77.0 539.7,77.0 539.8,77.0 539.8,77.0 539.9,77.0 540.0,77.0 540.1,77.0 540.2,77.0 540.3,77.0 540.4,77.0 540.5,77.0 540.6,77.0 540.6,77.0 540.7,77.0 540.8,77.0 540.9,77.0 541.0,77.0 541.2,77.0 541.3,77.0 541.4,77.0 541.4,77.0 541.5,77.0 541.6,77.0 541.7,77.0 541.8,77.0 541.9,77.0 542.0,77.0 542.1,77.0 542.2,77.0 542.3,77.0 542.3,77.0 542.4,77.0 542.5,77.0 542.6,77.0 542.7,77.0 542.8,77.0 542.9,77.0 543.0,77.0 543.1,77.0 543.1,77.0 543.2,77.0 543.3,77.0 543.4,77.0 543.5,77.0 543.6,77.0 543.7,77.0 543.8,77.0 543.9,77.0 543.9,77.0 544.0,77.0 544.1,77.0 544.2,77.0 544.3,77.0 544.4,77.0 544.5,77.0 544.6,77.0 544.7,77.0 544.7,77.0 544.8,77.0 544.9,77.0 545.0,77.0 545.1,77.0 545.2,77.0 545.3,77.0 545.4,77.0 545.5,77.0 545.5,77.0 545.6,77.0 545.7,77.0 545.8,77.0 545.9,77.0 546.0,77.0 546.1,77.0 546.2,77.0 546.3,77.0 546.3,77.0 546.4,77.0 546.5,77.0 546.6,77.0 546.7,77.0 546.8,77.0 546.9,77.0 547.0,77.0 547.1,77.0 547.2,77.0 547.2,77.0 547.3,77.0 547.4,77.0 547.5,77.0 547.6,77.0 547.7,77.0 547.8,77.0 547.9,77.0 548.0,77.0 548.0,77.0 548.1,77.0 548.2,77.0 548.3,77.0 548.4,77.0 548.5,77.0 548.6,77.0 548.7,77.0 548.8,77.0 548.8,77.0 548.9,77.0 549.0,77.0 549.1,77.0 549.2,77.0 549.3,77.0 549.4,77.0 549.5,77.0 549.6,77.0 549.6,77.0 549.7,77.0 549.8,77.0 549.9,77.0 550.0,77.0 550.1,77.0 550.2,77.0 550.3,77.0 550.4,77.0 550.4,77.0 550.5,77.0 550.6,77.0 550.7,77.0 550.8,77.0 550.9,77.0 551.0,77.0 551.1,77.0 551.2,77.0 551.3,77.0 551.3,77.0 551.4,77.0 551.5,77.0 551.6,77.0 551.7,77.0 551.8,77.0 551.9,77.0 552.0,77.0 552.1,77.0 552.1,77.0 552.2,77.0 552.3,77.0 552.4,77.0 552.5,77.0 552.6,77.0 552.7,77.0 552.8,77.0 552.9,77.0 552.9,77.0 553.0,77.0 553.1,77.0 553.2,77.0 553.3,77.0 553.4,77.0 553.5,77.0 553.5,73.5 553.6,73.5 553.7,73.5 553.7,73.5 553.8,73.5 553.9,73.5 554.0,73.5 554.1,73.5 554.2,73.5 554.3,73.5 554.4,73.5 554.5,73.5 554.5,73.5 554.6,73.5 554.7,73.5 554.8,73.5 554.9,73.5 555.0,73.5 555.1,73.5 555.2,73.5 555.3,73.5 555.4,73.5 555.4,73.5 555.5,73.5 555.6,73.5 555.7,73.5 555.8,73.5 555.9,73.5 556.0,73.5 556.1,73.5 556.2,73.5 556.2,73.5 556.3,73.5 556.4,73.5 556.5,73.5 556.6,73.5 556.7,73.5 556.8,73.5 556.9,73.5 557.0,73.5 557.0,73.5 557.1,73.5 557.2,73.5 557.3,73.5 557.4,73.5 557.5,73.5 557.6,73.5 557.7,73.5 557.8,73.5 557.8,73.5 557.9,73.5 558.0,73.5 558.1,73.5 558.2,73.5 558.3,73.5 558.4,73.5 558.5,73.5 558.6,73.5 558.6,73.5 558.7,73.5 558.8,73.5 558.9,73.5 559.0,73.5 559.1,73.5 559.2,73.5 559.3,73.5 559.4,73.5 559.5,73.5 559.5,73.5 559.6,73.5 559.7,73.5 559.8,73.5 559.9,73.5 560.0,73.5 560.1,73.5 560.2,73.5 560.3,73.5 560.3,73.5 560.4,73.5 560.5,73.5 560.6,73.5 560.7,73.5 560.8,73.5 560.9,73.5 561.0,73.5 561.1,73.5 561.1,73.5 561.2,73.5 561.3,73.5 561.4,73.5 561.5,73.5 561.6,73.5 561.7,73.5 561.8,73.5 561.9,73.5 561.9,73.5 562.0,73.5 562.1,73.5 562.2,73.5 562.3,73.5 562.4,73.5 562.5,73.5 562.6,73.5 562.7,73.5 562.7,73.5 562.8,73.5 562.9,73.5 563.0,73.5 563.1,73.5 563.2,73.5 563.3,73.5 563.4,73.5 563.5,73.5 563.6,73.5 563.6,73.5 563.7,73.5 563.8,73.5 563.9,73.5 564.0,73.5 564.1,73.5 564.2,73.5 564.3,73.5 564.4,73.5 564.4,73.5 564.5,73.5 564.6,73.5 564.7,73.5 564.8,73.5 564.9,73.5 565.0,73.5 565.1,73.5 565.2,73.5 565.2,73.5 565.3,73.5 565.4,73.5 565.5,73.5 565.6,73.5 565.7,73.5 565.8,73.5 565.9,73.5 566.0,73.5 566.0,73.5 566.1,73.5 566.2,73.5 566.3,73.5 566.4,73.5 566.5,73.5 566.6,73.5 566.7,73.5 566.8,73.5 566.8,73.5 566.9,73.5 567.0,73.5 567.1,73.5 567.2,73.5 567.3,73.5 567.4,73.5 567.5,73.5 567.6,73.5 567.6,73.5 567.7,73.5 567.8,73.5 567.9,73.5 568.0,73.5 568.1,73.5 568.2,73.5 568.3,73.5 568.4,73.5 568.5,73.5 568.5,73.5 568.6,73.5 568.7,73.5 568.8,73.5 568.9,73.5 569.0,73.5 569.1,73.5 569.2,73.5 569.3,73.5 569.3,73.5 569.4,73.5 569.5,73.5 569.6,73.5 569.7,73.5 569.8,73.5 569.9,73.5 570.0,73.5 570.1,73.5 570.1,73.5 570.2,73.5 570.3,73.5 570.4,73.5 570.5,73.5 570.6,73.5 570.7,73.5 570.8,73.5 570.9,73.5 570.9,73.5 571.0,73.5 571.1,73.5 571.2,73.5 571.3,73.5 571.4,73.5 571.5,73.5 571.6,73.5 571.7,73.5 571.7,73.5 571.8,73.5 571.9,73.5 572.0,73.5 572.1,73.5 572.2,73.5 572.3,73.5 572.4,73.5 572.5,73.5 572.6,73.5 572.6,73.5 572.7,73.5 572.8,73.5 572.9,73.5 573.0,73.5 573.1,73.5 573.2,73.5 573.3,73.5 573.4,73.5 573.4,73.5 573.5,73.5 573.6,73.5 573.7,73.5 573.8,73.5 573.9,73.5 574.0,73.5 574.1,73.5 574.2,73.5 574.2,73.5 574.3,73.5 574.4,73.5 574.5,73.5 574.6,73.5 574.7,73.5 574.8,73.5 574.9,73.5 575.0,73.5 575.0,73.5 575.1,73.5 575.2,73.5 575.3,73.5 575.4,73.5 575.5,73.5 575.6,73.5 575.7,73.5 575.8,73.5 575.8,73.5 575.9,73.5 576.0,73.5 576.1,73.5 576.2,73.5 576.3,73.5 576.4,73.5 576.5,73.5 576.6,73.5 576.7,73.5 576.7,73.5 576.8,73.5 576.9,73.5 577.0,73.5 577.1,73.5 577.2,73.5 577.3,73.5 577.4,73.5 577.5,73.5 577.5,73.5 577.6,73.5 577.7,73.5 577.8,73.5 577.9,73.5 578.0,73.5 578.1,73.5 578.2,73.5 578.3,73.5 578.3,73.5 578.4,73.5 578.5,73.5 578.6,73.5 578.7,73.5 578.8,73.5 578.9,73.5 579.0,73.5 579.1,73.5 579.1,73.5 579.2,73.5 579.3,73.5 579.4,73.5 579.5,73.5 579.6,73.5 579.7,73.5 579.8,73.5 579.9,73.5 579.9,73.5 580.0,73.5 580.1,73.5 580.2,73.5 580.3,73.5 580.4,73.5 580.5,73.5 580.6,73.5 580.7,73.5 580.8,73.5 580.8,73.5 580.9,73.5 581.0,73.5 581.1,73.5 581.2,73.5 581.3,73.5 581.4,73.5 581.5,73.5 581.6,73.5 581.6,73.5 581.7,73.5 581.8,73.5 581.9,73.5 582.0,73.5 582.1,73.5 582.2,73.5 582.3,73.5 582.4,73.5 582.4,73.5 582.5,73.5 582.6,73.5 582.7,73.5 582.8,73.5 582.9,73.5 583.0,73.5 583.1,73.5 583.2,73.5 583.2,73.5 583.3,73.5 583.4,73.5 583.5,73.5 583.6,73.5 583.7,73.5 583.8,73.5 583.9,73.5 584.0,73.5 584.0,73.5 584.1,73.5 584.2,73.5 584.3,73.5 584.4,73.5 584.5,73.5 584.6,73.5 584.7,73.5 584.8,73.5 584.9,73.5 584.9,73.5 585.0,73.5 585.1,73.5 585.2,73.5 585.3,73.5 585.4,73.5 585.5,73.5 585.6,73.5 585.7,73.5 585.7,73.5 585.8,73.5 585.9,73.5 586.0,73.5 586.1,73.5 586.2,73.5 586.3,73.5 586.4,73.5 586.5,73.5 586.5,73.5 586.6,73.5 586.7,73.5 586.8,73.5 586.9,73.5 587.0,73.5 587.1,73.5 587.2,73.5 587.3,73.5 587.3,73.5 587.4,73.5 587.5,73.5 587.6,73.5 587.7,73.5 587.8,73.5 587.9,73.5 588.0,73.5 588.1,73.5 588.1,73.5 588.2,73.5 588.3,73.5 588.4,73.5 588.5,73.5 588.6,73.5 588.7,73.5 588.8,73.5 588.9,73.5 588.9,73.5 589.0,73.5 589.1,73.5 589.2,73.5 589.3,73.5 589.4,73.5 589.5,73.5 589.6,73.5 589.7,73.5 589.8,73.5 589.8,73.5 589.9,73.5 590.0,73.5 590.1,73.5 590.2,73.5 590.3,73.5 590.4,73.5 590.5,73.5 590.6,73.5 590.6,73.5 590.7,73.5 590.8,73.5 590.9,73.5 591.1,73.5 591.2,73.5 591.3,73.5 591.4,73.5 591.4,73.5 591.5,73.5 591.6,73.5 591.7,73.5 591.8,73.5 591.9,73.5 592.0,73.5 592.1,73.5 592.2,73.5 592.2,73.5 592.3,73.5 592.4,73.5 592.5,73.5 592.6,73.5 592.7,73.5 592.8,73.5 592.9,73.5 593.0,73.5 593.0,73.5 593.1,73.5 593.2,73.5 593.3,73.5 593.4,73.5 593.5,73.5 593.6,73.5 593.7,73.5 593.8,73.5 593.9,73.5 593.9,73.5 594.0,73.5 594.1,73.5 594.2,73.5 594.3,73.5 594.4,73.5 594.5,73.5 594.6,73.5 594.7,73.5 594.7,73.5 594.8,73.5 594.9,73.5 595.0,73.5 595.1,73.5 595.2,73.5 595.3,73.5 595.4,73.5 595.5,73.5 595.5,73.5 595.6,73.5 595.7,73.5 595.8,73.5 595.9,73.5 596.0,73.5 596.1,73.5 596.2,73.5 596.3,73.5 596.3,73.5 596.4,73.5 596.5,73.5 596.6,73.5 596.7,73.5 596.8,73.5 596.9,73.5 597.0,73.5 597.1,73.5 597.1,73.5 597.2,73.5 597.3,73.5 597.4,73.5 597.5,73.5 597.6,73.5 597.7,73.5 597.8,73.5 597.9,73.5 598.0,73.5 598.0,73.5 598.1,73.5 598.2,73.5 598.3,73.5 598.4,73.5 598.5,73.5 598.6,73.5 598.7,73.5 598.8,73.5 598.8,73.5 598.9,73.5 599.0,73.5 599.1,73.5 599.2,73.5 599.3,73.5 599.4,73.5 599.5,73.5 599.6,73.5 599.6,73.5 599.7,73.5 599.8,73.5 599.9,73.5 600.0,73.5 600.1,73.5 600.2,73.5 600.3,73.5 600.4,73.5 600.4,73.5 600.5,73.5 600.6,73.5 600.7,73.5 600.8,73.5 600.9,73.5 601.0,73.5 601.1,73.5 601.2,73.5 601.2,73.5 601.3,73.5 601.4,73.5 601.5,73.5 601.6,73.5 601.7,73.5 601.8,73.5 601.9,73.5 602.0,73.5 602.1,73.5 602.1,73.5 602.2,73.5 602.3,73.5 602.4,73.5 602.5,73.5 602.7,73.5 602.8,73.5 602.9,73.5 602.9,73.5 603.0,73.5 603.1,73.5 603.2,73.5 603.3,73.5 603.4,73.5 603.5,73.5 603.6,73.5 603.7,73.5 603.7,73.5 603.8,73.5 603.9,73.5 604.0,73.5 604.1,73.5 604.2,73.5 604.3,73.5 604.4,73.5 604.5,73.5 604.5,73.5 604.6,73.5 604.7,73.5 604.8,73.5 604.9,73.5 605.0,73.5 605.1,73.5 605.2,73.5 605.3,73.5 605.3,73.5 605.4,73.5 605.5,73.5 605.6,73.5 605.7,73.5 605.8,73.5 605.9,73.5 606.0,73.5 606.1,73.5 606.1,73.5 606.2,73.5 606.3,73.5 606.4,73.5 606.5,73.5 606.6,73.5 606.7,73.5 606.8,73.5 606.9,73.5 607.0,73.5 607.0,73.5 607.1,73.5 607.2,73.5 607.3,73.5 607.4,73.5 607.5,73.5 607.6,73.5 607.7,73.5 607.8,73.5 607.8,73.5 607.9,73.5 608.0,73.5 608.1,73.5 608.2,73.5 608.3,73.5 608.4,73.5 608.5,73.5 608.6,73.5 608.6,73.5 608.7,73.5 608.8,73.5 608.9,73.5 609.0,73.5 609.1,73.5 609.2,73.5 609.3,73.5 609.4,73.5 609.4,73.5 609.5,73.5 609.6,73.5 609.7,73.5 609.8,73.5 609.9,73.5 610.0,73.5 610.1,73.5 610.2,73.5 610.2,73.5 610.3,73.5 610.4,73.5 610.5,73.5 610.6,73.5 610.7,73.5 610.8,73.5 610.9,73.5 611.0,73.5 611.1,73.5 611.1,73.5 611.2,73.5 611.3,73.5 611.4,73.5 611.5,73.5 611.6,73.5 611.7,73.5 611.8,73.5 611.9,73.5 611.9,73.5 612.0,73.5 612.1,73.5 612.2,73.5 612.3,73.5 612.4,73.5 612.5,73.5 612.6,73.5 612.7,73.5 612.7,73.5 612.8,73.5 612.9,73.5 613.0,73.5 613.1,73.5 613.2,73.5 613.3,73.5 613.4,73.5 613.5,73.5 613.5,73.5 613.6,73.5 613.7,73.5 613.8,73.5 613.9,73.5 614.0,73.5 614.1,73.5 614.2,73.5 614.3,73.5 614.3,73.5 614.4,73.5 614.5,73.5 614.6,73.5 614.7,73.5 614.8,73.5 614.9,73.5 615.0,73.5 615.1,73.5 615.2,73.5 615.2,73.5 615.3,73.5 615.4,73.5 615.5,73.5 615.6,73.5 615.7,73.5 615.8,73.5 615.9,73.5 616.0,73.5 616.0,73.5 616.1,73.5 616.2,73.5 616.3,73.5 616.4,73.5 616.5,73.5 616.6,73.5 616.7,73.5 616.8,73.5 616.8,73.5 616.9,73.5 617.0,73.5 617.1,73.5 617.2,73.5 617.3,73.5 617.4,73.5 617.5,73.5 617.6,73.5 617.6,73.5 617.7,73.5 617.8,73.5 617.9,73.5 618.0,73.5 618.1,73.5 618.2,73.5 618.3,73.5 618.4,73.5 618.4,73.5 618.5,73.5 618.6,73.5 618.7,73.5 618.8,73.5 618.9,73.5 619.0,73.5 619.1,73.5 619.2,73.5 619.3,73.5 619.3,73.5 619.4,73.5 619.5,73.5 619.6,73.5 619.7,73.5 619.8,73.5 619.9,73.5 620.0,73.5 620.1,73.5 620.1,73.5 620.2,73.5 620.3,73.5 620.4,73.5 620.5,73.5 620.6,73.5 620.7,73.5 620.8,73.5 620.9,73.5 620.9,73.5 621.0,73.5 621.1,73.5 621.2,73.5 621.3,73.5 621.4,73.5 621.5,73.5 621.5,70.0 621.6,70.0 621.7,70.0 621.7,70.0 621.8,70.0 621.9,70.0 622.0,70.0 622.1,70.0 622.2,70.0 622.3,70.0 622.4,70.0 622.5,70.0 622.5,70.0 622.6,70.0 622.7,70.0 622.8,70.0 622.9,70.0 623.0,70.0 623.1,70.0 623.2,70.0 623.3,70.0 623.4,70.0 623.4,70.0 623.5,70.0 623.6,70.0 623.7,70.0 623.8,70.0 623.9,70.0 624.0,70.0 624.1,70.0 624.2,70.0 624.2,70.0 624.3,70.0 624.4,70.0 624.5,70.0 624.6,70.0 624.7,70.0 624.8,70.0 624.9,70.0 625.0,70.0 625.0,70.0 625.1,70.0 625.2,70.0 625.3,70.0 625.4,70.0 625.5,70.0 625.6,70.0 625.7,70.0 625.8,70.0 625.8,70.0 625.9,70.0 626.0,70.0 626.1,70.0 626.2,70.0 626.3,70.0 626.4,70.0 626.5,70.0 626.6,70.0 626.6,70.0 626.7,70.0 626.8,70.0 626.9,70.0 627.0,70.0 627.1,70.0 627.2,70.0 627.3,70.0 627.4,70.0 627.4,70.0 627.5,70.0 627.6,70.0 627.7,70.0 627.8,70.0 627.9,70.0 628.0,70.0 628.1,70.0 628.2,70.0 628.3,70.0 628.3,70.0 628.4,70.0 628.5,70.0 628.6,70.0 628.7,70.0 628.8,70.0 628.9,70.0 629.0,70.0 629.1,70.0 629.1,70.0 629.2,70.0 629.3,70.0 629.4,70.0 629.5,70.0 629.6,70.0 629.7,70.0 629.8,70.0 629.9,70.0 629.9,70.0 630.0,70.0 630.1,70.0 630.2,70.0 630.3,70.0 630.4,70.0 630.5,70.0 630.6,70.0 630.7,70.0 630.7,70.0 630.8,70.0 630.9,70.0 631.0,70.0 631.1,70.0 631.2,70.0 631.3,70.0 631.4,70.0 631.5,70.0 631.5,70.0 631.6,70.0 631.7,70.0 631.8,70.0 631.9,70.0 632.0,70.0 632.1,70.0 632.2,70.0 632.3,70.0 632.4,70.0 632.4,70.0 632.5,70.0 632.6,70.0 632.7,70.0 632.8,70.0 632.9,70.0 633.0,70.0 633.1,70.0 633.2,70.0 633.2,70.0 633.3,70.0 633.4,70.0 633.5,70.0 633.6,70.0 633.7,70.0 633.8,70.0 633.9,70.0 634.0,70.0 634.0,70.0 634.1,70.0 634.2,70.0 634.3,70.0 634.4,70.0 634.5,70.0 634.6,70.0 634.7,70.0 634.8,70.0 634.8,70.0 634.9,70.0 635.0,70.0 635.1,70.0 635.2,70.0 635.3,70.0 635.4,70.0 635.5,70.0 635.6,70.0 635.6,70.0 635.7,70.0 635.8,70.0 635.9,70.0 636.0,70.0 636.1,70.0 636.2,70.0 636.3,70.0 636.4,70.0 636.5,70.0 636.5,70.0 636.6,70.0 636.7,70.0 636.8,70.0 636.9,70.0 637.0,70.0 637.1,70.0 637.2,70.0 637.3,70.0 637.3,70.0 637.4,70.0 637.5,70.0 637.6,70.0 637.7,70.0 637.8,70.0 637.9,70.0 638.0,70.0 638.1,70.0 638.1,70.0 638.2,70.0 638.3,70.0 638.4,70.0 638.5,70.0 638.6,70.0 638.7,70.0 638.8,70.0 638.9,70.0 638.9,70.0 639.0,70.0 639.1,70.0 639.2,70.0 639.3,70.0 639.4,70.0 639.5,70.0 639.6,70.0 639.7,70.0 639.7,70.0 639.8,70.0 639.9,70.0 640.0,70.0 640.1,70.0 640.2,70.0 640.3,70.0 640.4,70.0 640.5,70.0 640.6,70.0 640.6,70.0 640.7,70.0 640.8,70.0 640.9,70.0 641.0,70.0 641.1,70.0 641.2,70.0 641.3,70.0 641.4,70.0 641.4,70.0 641.5,70.0 641.6,70.0 641.7,70.0 641.8,70.0 641.9,70.0 642.0,70.0 642.1,70.0 642.2,70.0 642.2,70.0 642.3,70.0 642.4,70.0 642.5,70.0 642.6,70.0 642.7,70.0 642.8,70.0 642.9,70.0 643.0,70.0 643.0,70.0 643.1,70.0 643.2,70.0 643.3,70.0 643.4,70.0 643.5,70.0 643.6,70.0 643.7,70.0 643.8,70.0 643.8,70.0 643.9,70.0 644.0,70.0 644.1,70.0 644.2,70.0 644.3,70.0 644.4,70.0 644.5,70.0 644.6,70.0 644.7,70.0 644.7,70.0 644.8,70.0 644.9,70.0 645.0,70.0 645.1,70.0 645.2,70.0 645.3,70.0 645.4,70.0 645.5,70.0 645.5,70.0 645.6,70.0 645.7,70.0 645.8,70.0 645.9,70.0 646.0,70.0 646.1,70.0 646.2,70.0 646.3,70.0 646.3,70.0 646.4,70.0 646.5,70.0 646.6,70.0 646.7,70.0 646.8,70.0 646.9,70.0 647.0,70.0 647.1,70.0 647.1,70.0 647.2,70.0 647.3,70.0 647.4,70.0 647.5,70.0 647.6,70.0 647.7,70.0 647.8,70.0 647.9,70.0 647.9,70.0 648.0,70.0 648.1,70.0 648.2,70.0 648.3,70.0 648.4,70.0 648.5,70.0 648.6,70.0 648.7,70.0 648.7,70.0 648.8,70.0 648.9,70.0 649.0,70.0 649.1,70.0 649.2,70.0 649.3,70.0 649.4,70.0 649.5,70.0 649.6,70.0 649.6,70.0 649.7,70.0 649.8,70.0 649.9,70.0 650.0,70.0 650.1,70.0 650.2,70.0 650.3,70.0 650.4,70.0 650.4,70.0 650.5,70.0 650.6,70.0 650.7,70.0 650.8,70.0 650.9,70.0 651.0,70.0 651.1,70.0 651.2,70.0 651.2,70.0 651.3,70.0 651.4,70.0 651.5,70.0 651.6,70.0 651.7,70.0 651.8,70.0 651.9,70.0 652.0,70.0 652.0,70.0 652.1,70.0 652.2,70.0 652.3,70.0 652.4,70.0 652.5,70.0 652.6,70.0 652.7,70.0 652.8,70.0 652.8,70.0 652.9,70.0 653.0,70.0 653.1,70.0 653.2,70.0 653.4,70.0 653.5,70.0 653.6,70.0 653.7,70.0 653.7,70.0 653.8,70.0 653.9,70.0 654.0,70.0 654.1,70.0 654.2,70.0 654.3,70.0 654.4,70.0 654.5,70.0 654.5,70.0 654.6,70.0 654.7,70.0 654.8,70.0 654.9,70.0 655.0,70.0 655.1,70.0 655.2,70.0 655.3,70.0 655.3,70.0 655.4,70.0 655.5,70.0 655.6,70.0 655.7,70.0 655.8,70.0 655.9,70.0 656.0,70.0 656.1,70.0 656.1,70.0 656.2,70.0 656.3,70.0 656.4,70.0 656.5,70.0 656.6,70.0 656.7,70.0 656.8,70.0 656.9,70.0 656.9,70.0 657.0,70.0 657.1,70.0 657.2,70.0 657.3,70.0 657.4,70.0 657.5,70.0 657.6,70.0 657.7,70.0 657.8,70.0 657.8,70.0 657.9,70.0 658.0,70.0 658.1,70.0 658.2,70.0 658.3,70.0 658.4,70.0 658.5,70.0 658.6,70.0 658.6,70.0 658.7,70.0 658.8,70.0 658.9,70.0 659.0,70.0 659.1,70.0 659.2,70.0 659.3,70.0 659.4,70.0 659.4,70.0 659.5,70.0 659.6,70.0 659.7,70.0 659.8,70.0 659.9,70.0 660.0,70.0 660.1,70.0 660.2,70.0 660.2,70.0 660.3,70.0 660.4,70.0 660.5,70.0 660.6,70.0 660.7,70.0 660.8,70.0 660.9,70.0 661.0,70.0 661.0,70.0 661.1,70.0 661.2,70.0 661.3,70.0 661.4,70.0 661.5,70.0 661.6,70.0 661.7,70.0 661.8,70.0 661.9,70.0 661.9,70.0 662.0,70.0 662.1,70.0 662.2,70.0 662.3,70.0 662.4,70.0 662.5,70.0 662.6,70.0 662.7,70.0 662.7,70.0 662.8,70.0 662.9,70.0 663.0,70.0 663.1,70.0 663.2,70.0 663.3,70.0 663.4,70.0 663.5,70.0 663.5,70.0 663.6,70.0 663.7,70.0 663.8,70.0 663.9,70.0 664.0,70.0 664.1,70.0 664.2,70.0 664.3,70.0 664.3,70.0 664.4,70.0 664.5,70.0 664.6,70.0 664.7,70.0 664.8,70.0 664.9,70.0 665.0,70.0 665.1,70.0 665.1,70.0 665.2,70.0 665.3,70.0 665.4,70.0 665.5,70.0 665.6,70.0 665.7,70.0 665.8,70.0 665.9,70.0 666.0,70.0 666.0,70.0 666.1,70.0 666.2,70.0 666.3,70.0 666.4,70.0 666.5,70.0 666.6,70.0 666.7,70.0 666.8,70.0 666.8,70.0 666.9,70.0 667.0,70.0 667.1,70.0 667.2,70.0 667.3,70.0 667.4,70.0 667.5,70.0 667.6,70.0 667.6,70.0 667.7,70.0 667.8,70.0 667.9,70.0 668.0,70.0 668.0,70.0"/>
<text class="label" x="333.0" y="554">False Positive Rate</text>
<text class="label" transform="translate(28 320.0) rotate(-90)">True Positive Rate</text>
</svg>