<svg xmlns="http://www.w3.org/2000/svg" width="760" height="590" viewBox="0 0 760 590">
<rect width="100%" height="100%" fill="#ffffff"/>
<style>text{font-family:Arial,sans-serif;fill:#111827}.title{font-size:26px;font-weight:700}.subtitle{font-size:16px;fill:#4b5563}.section{font-size:20px;font-weight:700}.panel-title{font-size:19px;font-weight:700}.tick{font-size:13px;fill:#4b5563}.label{font-size:15px}.label-strong{font-size:18px;font-weight:700}.value{font-size:15px;font-weight:700}.metric{font-size:28px;font-weight:700}.metric-label{font-size:14px;fill:#4b5563}.note{font-size:18px;font-weight:700;fill:#991b1b}.grid{stroke:#e5e7eb;stroke-width:1}.axis{stroke:#d1d5db;stroke-width:1}</style>
<text class="title" x="88" y="40">Precision-Recall Curve</text>
<line class="grid" x1="88.0" y1="70" x2="88.0" y2="480"/>
<line class="grid" x1="88" y1="480.0" x2="668" y2="480.0"/>
<text class="tick" x="78.0" y="506">0.0</text>
<text class="tick" x="43" y="485.0">0.0</text>
<line class="grid" x1="204.0" y1="70" x2="204.0" y2="480"/>
<line class="grid" x1="88" y1="398.0" x2="668" y2="398.0"/>
<text class="tick" x="194.0" y="506">0.2</text>
<text class="tick" x="43" y="403.0">0.2</text>
<line class="grid" x1="320.0" y1="70" x2="320.0" y2="480"/>
<line class="grid" x1="88" y1="316.0" x2="668" y2="316.0"/>
<text class="tick" x="310.0" y="506">0.4</text>
<text class="tick" x="43" y="321.0">0.4</text>
<line class="grid" x1="436.0" y1="70" x2="436.0" y2="480"/>
<line class="grid" x1="88" y1="234.0" x2="668" y2="234.0"/>
<text class="tick" x="426.0" y="506">0.6</text>
<text class="tick" x="43" y="239.0">0.6</text>
<line class="grid" x1="552.0" y1="70" x2="552.0" y2="480"/>
<line class="grid" x1="88" y1="152.0" x2="668" y2="152.0"/>
<text class="tick" x="542.0" y="506">0.8</text>
<text class="tick" x="43" y="157.0">0.8</text>
<line class="grid" x1="668.0" y1="70" x2="668.0" y2="480"/>
<line class="grid" x1="88" y1="70.0" x2="668" y2="70.0"/>
<text class="tick" x="658.0" y="506">1.0</text>
<text class="tick" x="43" y="75.0">1.0</text>
<line class="axis" x1="88" y1="480" x2="668" y2="480"/>
<line class="axis" x1="88" y1="70" x2="88" y2="480"/>
<polyline fill="none" stroke="#dc2626" stroke-width="3" points="88.0,480.0 93.0,275.0 93.0,343.3 97.9,275.0 97.9,316.0 97.9,343.3 102.9,304.3 102.9,326.2 102.9,343.3 102.9,357.0 102.9,368.2 102.9,377.5 107.8,353.8 112.8,333.6 117.7,316.0 117.7,326.2 117.7,335.3 122.7,320.6 127.7,307.4 132.6,295.5 132.6,304.3 132.6,312.3 132.6,319.6 132.6,326.2 132.6,332.4 137.6,322.3 137.6,328.1 137.6,333.6 137.6,338.6 137.6,343.3 137.6,347.7 142.5,339.1 142.5,343.3 142.5,347.4 142.5,351.1 142.5,354.7 142.5,358.1 142.5,361.3 147.5,353.8 147.5,357.0 147.5,360.0 147.5,362.9 147.5,365.6 147.5,368.2 147.5,370.7 147.5,373.0 147.5,375.3 147.5,377.5 147.5,379.6 147.5,381.6 147.5,383.5 147.5,385.4 152.4,379.4 152.4,381.3 152.4,383.1 157.4,377.5 157.4,379.3 162.4,374.0 162.4,375.8 162.4,377.5 162.4,379.2 162.4,380.8 162.4,382.4 162.4,383.9 162.4,385.4 167.3,380.6 167.3,382.1 172.3,377.5 172.3,379.0 172.3,380.4 172.3,381.8 172.3,383.2 172.3,384.5 172.3,385.8 172.3,387.1 172.3,388.3 172.3,389.5 172.3,390.6 172.3,391.8 172.3,392.9 172.3,394.0 172.3,395.0 172.3,396.0 172.3,397.0 172.3,398.0 172.3,399.0 172.3,399.9 172.3,400.8 172.3,401.7 172.3,402.6 172.3,403.4 177.2,399.8 177.2,400.6 177.2,401.5 177.2,402.3 177.2,403.1 177.2,403.9 177.2,404.7 177.2,405.5 182.2,402.1 182.2,402.9 187.1,399.6 192.1,396.4 192.1,397.2 192.1,398.0 192.1,398.8 192.1,399.5 192.1,400.3 192.1,401.0 192.1,401.7 197.1,398.7 197.1,399.5 197.1,400.2 197.1,400.9 197.1,401.6 197.1,402.2 202.0,399.4 202.0,400.1 202.0,400.8 207.0,398.0 207.0,398.7 207.0,399.3 207.0,400.0 207.0,400.6 207.0,401.3 207.0,401.9 207.0,402.5 207.0,403.1 207.0,403.7 211.9,401.2 211.9,401.8 211.9,402.3 211.9,402.9 216.9,400.4 216.9,401.0 216.9,401.6 216.9,402.2 216.9,402.8 216.9,403.3 216.9,403.9 216.9,404.4 216.9,404.9 216.9,405.5 216.9,406.0 216.9,406.5 216.9,407.0 216.9,407.5 216.9,408.0 216.9,408.5 216.9,408.9 216.9,409.4 216.9,409.9 216.9,410.3 216.9,410.8 216.9,411.2 216.9,411.7 221.8,409.5 221.8,409.9 221.8,410.4 221.8,410.8 221.8,411.2 226.8,409.1 226.8,409.6 226.8,410.0 226.8,410.4 226.8,410.8 226.8,411.3 226.8,411.7 226.8,412.1 226.8,412.5 226.8,412.9 226.8,413.3 226.8,413.6 226.8,414.0 226.8,414.4 231.8,412.4 231.8,412.8 231.8,413.2 231.8,413.6 231.8,413.9 231.8,414.3 231.8,414.7 231.8,415.0 231.8,415.4 231.8,415.7 231.8,416.1 231.8,416.4 231.8,416.8 231.8,417.1 231.8,417.4 231.8,417.7 231.8,418.1 231.8,418.4 231.8,418.7 231.8,419.0 231.8,419.3 231.8,419.6 231.8,419.9 231.8,420.3 231.8,420.6 236.7,418.8 236.7,419.1 236.7,419.4 236.7,419.7 236.7,420.0 236.7,420.3 236.7,420.6 236.7,420.9 236.7,421.1 236.7,421.4 236.7,421.7 236.7,422.0 236.7,422.3 236.7,422.5 236.7,422.8 236.7,423.1 236.7,423.3 236.7,423.6 236.7,423.8 241.7,422.2 241.7,422.5 241.7,422.7 241.7,423.0 241.7,423.3 241.7,423.5 241.7,423.8 241.7,424.0 241.7,424.3 241.7,424.5 241.7,424.7 241.7,425.0 241.7,425.2 241.7,425.5 241.7,425.7 241.7,425.9 241.7,426.1 241.7,426.4 241.7,426.6 241.7,426.8 241.7,427.0 241.7,427.3 241.7,427.5 241.7,427.7 241.7,427.9 241.7,428.1 246.6,426.7 246.6,426.9 251.6,425.4 251.6,425.7 251.6,425.9 251.6,426.1 251.6,426.3 251.6,426.5 251.6,426.7 251.6,426.9 251.6,427.1 251.6,427.4 251.6,427.6 251.6,427.8 251.6,428.0 251.6,428.2 251.6,428.4 251.6,428.6 251.6,428.8 251.6,428.9 251.6,429.1 251.6,429.3 251.6,429.5 256.5,428.2 256.5,428.4 256.5,428.6 256.5,428.8 256.5,428.9 256.5,429.1 256.5,429.3 256.5,429.5 256.5,429.7 261.5,428.4 261.5,428.6 261.5,428.8 266.5,427.5 266.5,427.7 266.5,427.8 271.4,426.6 271.4,426.8 271.4,427.0 276.4,425.7 276.4,425.9 276.4,426.1 276.4,426.3 276.4,426.5 276.4,426.6 281.3,425.4 281.3,425.6 281.3,425.8 281.3,426.0 281.3,426.2 281.3,426.3 281.3,426.5 281.3,426.7 281.3,426.9 281.3,427.1 281.3,427.2 281.3,427.4 281.3,427.6 281.3,427.7 281.3,427.9 281.3,428.1 281.3,428.3 281.3,428.4 281.3,428.6 281.3,428.8 281.3,428.9 281.3,429.1 281.3,429.2 281.3,429.4 281.3,429.6 286.3,428.4 286.3,428.6 286.3,428.8 286.3,428.9 286.3,429.1 286.3,429.2 286.3,429.4 291.2,428.3 291.2,428.4 291.2,428.6 291.2,428.8 291.2,428.9 291.2,429.1 291.2,429.2 291.2,429.4 291.2,429.5 291.2,429.7 291.2,429.8 291.2,430.0 291.2,430.1 291.2,430.3 296.2,429.2 296.2,429.4 296.2,429.5 296.2,429.6 296.2,429.8 296.2,429.9 296.2,430.1 296.2,430.2 296.2,430.4 296.2,430.5 296.2,430.7 296.2,430.8 296.2,430.9 296.2,431.1 296.2,431.2 296.2,431.4 296.2,431.5 296.2,431.6 296.2,431.8 296.2,431.9 301.2,430.9 301.2,431.0 301.2,431.2 306.1,430.2 306.1,430.3 306.1,430.4 306.1,430.6 306.1,430.7 306.1,430.8 306.1,431.0 306.1,431.1 306.1,431.2 306.1,431.4 306.1,431.5 306.1,431.6 306.1,431.8 306.1,431.9 306.1,432.0 306.1,432.1 306.1,432.3 306.1,432.4 306.1,432.5 306.1,432.7 306.1,432.8 306.1,432.9 306.1,433.0 306.1,433.1 306.1,433.3 306.1,433.4 306.1,433.5 306.1,433.6 306.1,433.7 306.1,433.9 306.1,434.0 306.1,434.1 306.1,434.2 306.1,434.3 306.1,434.4 306.1,434.6 306.1,434.7 311.1,433.8 311.1,433.9 311.1,434.0 311.1,434.1 311.1,434.2 311.1,434.3 316.0,433.4 316.0,433.5 316.0,433.7 316.0,433.8 316.0,433.9 316.0,434.0 321.0,433.1 321.0,433.2 321.0,433.3 321.0,433.5 321.0,433.6 321.0,433.7 321.0,433.8 321.0,433.9 321.0,434.0 321.0,434.1 321.0,434.2 321.0,434.3 321.0,434.4 321.0,434.6 321.0,434.7 321.0,434.8 321.0,434.9 321.0,435.0 321.0,435.1 321.0,435.2 321.0,435.3 321.0,435.4 321.0,435.5 321.0,435.6 321.0,435.7 321.0,435.8 321.0,435.9 321.0,436.0 321.0,436.1 321.0,436.2 321.0,436.3 325.9,435.5 325.9,435.6 325.9,435.7 325.9,435.8 325.9,435.9 325.9,436.0 325.9,436.1 325.9,436.2 325.9,436.3 330.9,435.5 335.9,434.6 335.9,434.7 335.9,434.8 335.9,434.9 335.9,435.0 335.9,435.1 335.9,435.2 335.9,435.3 335.9,435.4 335.9,435.5 335.9,435.6 335.9,435.7 335.9,435.8 335.9,435.9 335.9,436.0 335.9,436.1 335.9,436.2 335.9,436.3 335.9,436.4 335.9,436.5 335.9,436.6 335.9,436.7 335.9,436.8 335.9,436.8 335.9,436.9 335.9,437.0 335.9,437.1 335.9,437.2 335.9,437.3 335.9,437.4 335.9,437.5 335.9,437.6 335.9,437.6 335.9,437.7 335.9,437.8 340.8,437.1 340.8,437.2 340.8,437.2 340.8,437.3 340.8,437.4 340.8,437.5 340.8,437.6 340.8,437.7 340.8,437.8 340.8,437.8 340.8,437.9 340.8,438.0 340.8,438.1 340.8,438.2 340.8,438.3 340.8,438.3 340.8,438.4 340.8,438.5 340.8,438.6 340.8,438.7 340.8,438.8 340.8,438.8 340.8,438.9 340.8,439.0 340.8,439.1 340.8,439.2 340.8,439.2 340.8,439.3 340.8,439.4 340.8,439.5 340.8,439.6 340.8,439.6 340.8,439.7 340.8,439.8 340.8,439.9 340.8,439.9 340.8,440.0 340.8,440.1 345.8,439.4 345.8,439.5 345.8,439.5 345.8,439.6 345.8,439.7 345.8,439.8 345.8,439.8 345.8,439.9 345.8,440.0 345.8,440.1 345.8,440.1 345.8,440.2 345.8,440.3 345.8,440.4 345.8,440.4 345.8,440.5 345.8,440.6 345.8,440.7 350.7,440.0 350.7,440.1 350.7,440.1 350.7,440.2 350.7,440.3 350.7,440.3 350.7,440.4 350.7,440.5 350.7,440.6 350.7,440.6 350.7,440.7 350.7,440.8 350.7,440.8 350.7,440.9 355.7,440.3 355.7,440.3 355.7,440.4 355.7,440.5 355.7,440.5 355.7,440.6 355.7,440.7 355.7,440.7 355.7,440.8 355.7,440.9 355.7,441.0 355.7,441.0 355.7,441.1 355.7,441.2 355.7,441.2 355.7,441.3 355.7,441.4 355.7,441.4 355.7,441.5 355.7,441.6 355.7,441.6 355.7,441.7 355.7,441.8 355.7,441.8 355.7,441.9 355.7,442.0 355.7,442.0 355.7,442.1 355.7,442.2 355.7,442.2 355.7,442.3 355.7,442.3 355.7,442.4 355.7,442.5 355.7,442.5 355.7,442.6 355.7,442.7 355.7,442.7 355.7,442.8 355.7,442.9 355.7,442.9 355.7,443.0 355.7,443.0 355.7,443.1 355.7,443.2 355.7,443.2 355.7,443.3 355.7,443.3 355.7,443.4 355.7,443.5 355.7,443.5 355.7,443.6 355.7,443.6 360.6,443.0 360.6,443.1 360.6,443.2 360.6,443.2 360.6,443.3 360.6,443.3 360.6,443.4 360.6,443.5 360.6,443.5 360.6,443.6 360.6,443.6 360.6,443.7 360.6,443.7 360.6,443.8 360.6,443.9 360.6,443.9 365.6,443.3 370.6,442.7 370.6,442.8 370.6,442.8 370.6,442.9 370.6,443.0 370.6,443.0 370.6,443.1 370.6,443.1 370.6,443.2 370.6,443.3 370.6,443.3 370.6,443.4 370.6,443.4 370.6,443.5 370.6,443.5 370.6,443.6 370.6,443.7 375.5,443.1 375.5,443.1 375.5,443.2 375.5,443.2 375.5,443.3 375.5,443.4 375.5,443.4 375.5,443.5 375.5,443.5 375.5,443.6 375.5,443.6 375.5,443.7 375.5,443.8 375.5,443.8 375.5,443.9 375.5,443.9 375.5,444.0 375.5,444.0 380.5,443.5 380.5,443.5 380.5,443.6 380.5,443.6 380.5,443.7 385.4,443.1 385.4,443.2 385.4,443.2 385.4,443.3 385.4,443.3 385.4,443.4 385.4,443.4 385.4,443.5 385.4,443.6 385.4,443.6 385.4,443.7 385.4,443.7 385.4,443.8 385.4,443.8 385.4,443.9 385.4,443.9 385.4,444.0 385.4,444.0 385.4,444.1 385.4,444.1 385.4,444.2 385.4,444.2 385.4,444.3 385.4,444.3 385.4,444.4 385.4,444.5 385.4,444.5 385.4,444.6 385.4,444.6 385.4,444.7 385.4,444.7 385.4,444.8 385.4,444.8 385.4,444.9 385.4,444.9 385.4,445.0 390.4,444.4 390.4,444.5 390.4,444.5 390.4,444.6 390.4,444.6 390.4,444.7 390.4,444.7 390.4,444.8 390.4,444.8 390.4,444.9 390.4,444.9 395.4,444.4 395.4,444.4 395.4,444.5 395.4,444.5 395.4,444.6 395.4,444.6 395.4,444.7 395.4,444.7 395.4,444.8 395.4,444.8 395.4,444.9 395.4,444.9 395.4,445.0 395.4,445.0 395.4,445.1 395.4,445.1 400.3,444.6 405.3,444.1 405.3,444.2 405.3,444.2 405.3,444.3 405.3,444.3 405.3,444.3 405.3,444.4 405.3,444.4 405.3,444.5 405.3,444.5 405.3,444.6 410.2,444.1 410.2,444.1 410.2,444.2 410.2,444.2 410.2,444.3 410.2,444.3 410.2,444.4 410.2,444.4 410.2,444.5 410.2,444.5 410.2,444.6 410.2,444.6 410.2,444.7 410.2,444.7 410.2,444.7 410.2,444.8 410.2,444.8 410.2,444.9 410.2,444.9 410.2,445.0 410.2,445.0 410.2,445.1 410.2,445.1 410.2,445.2 410.2,445.2 410.2,445.3 410.2,445.3 410.2,445.3 410.2,445.4 410.2,445.4 410.2,445.5 410.2,445.5 410.2,445.6 410.2,445.6 410.2,445.7 410.2,445.7 410.2,445.7 410.2,445.8 410.2,445.8 410.2,445.9 410.2,445.9 410.2,446.0 410.2,446.0 410.2,446.1 410.2,446.1 410.2,446.1 410.2,446.2 410.2,446.2 410.2,446.3 410.2,446.3 410.2,446.4 410.2,446.4 410.2,446.4 410.2,446.5 410.2,446.5 410.2,446.6 410.2,446.6 415.2,446.1 415.2,446.2 415.2,446.2 415.2,446.3 415.2,446.3 415.2,446.3 415.2,446.4 415.2,446.4 415.2,446.5 415.2,446.5 415.2,446.6 415.2,446.6 415.2,446.6 415.2,446.7 415.2,446.7 415.2,446.8 415.2,446.8 415.2,446.8 415.2,446.9 415.2,446.9 415.2,447.0 415.2,447.0 415.2,447.0 415.2,447.1 415.2,447.1 415.2,447.2 415.2,447.2 415.2,447.2 415.2,447.3 415.2,447.3 415.2,447.4 415.2,447.4 415.2,447.4 415.2,447.5 415.2,447.5 415.2,447.6 415.2,447.6 415.2,447.6 415.2,447.7 415.2,447.7 415.2,447.7 415.2,447.8 415.2,447.8 415.2,447.9 415.2,447.9 415.2,447.9 415.2,448.0 415.2,448.0 415.2,448.1 415.2,448.1 415.2,448.1 415.2,448.2 415.2,448.2 415.2,448.2 415.2,448.3 415.2,448.3 415.2,448.4 415.2,448.4 420.1,447.9 420.1,448.0 420.1,448.0 420.1,448.1 420.1,448.1 420.1,448.1 420.1,448.2 420.1,448.2 420.1,448.2 420.1,448.3 420.1,448.3 420.1,448.4 420.1,448.4 420.1,448.4 420.1,448.5 420.1,448.5 420.1,448.5 420.1,448.6 420.1,448.6 420.1,448.6 420.1,448.7 420.1,448.7 420.1,448.7 420.1,448.8 420.1,448.8 420.1,448.9 420.1,448.9 425.1,448.5 425.1,448.5 425.1,448.5 425.1,448.6 425.1,448.6 430.1,448.2 430.1,448.2 430.1,448.2 430.1,448.3 430.1,448.3 430.1,448.4 430.1,448.4 430.1,448.4 430.1,448.5 435.0,448.0 435.0,448.1 435.0,448.1 435.0,448.1 435.0,448.2 435.0,448.2 435.0,448.3 435.0,448.3 435.0,448.3 435.0,448.4 435.0,448.4 435.0,448.4 435.0,448.5 435.0,448.5 435.0,448.5 435.0,448.6 435.0,448.6 435.0,448.6 435.0,448.7 435.0,448.7 435.0,448.7 435.0,448.8 435.0,448.8 435.0,448.8 435.0,448.9 435.0,448.9 435.0,448.9 435.0,449.0 435.0,449.0 435.0,449.0 435.0,449.1 435.0,449.1 440.0,448.7 440.0,448.7 440.0,448.8 440.0,448.8 440.0,448.8 440.0,448.9 440.0,448.9 440.0,448.9 440.0,449.0 440.0,449.0 440.0,449.0 440.0,449.1 440.0,449.1 440.0,449.1 440.0,449.2 444.9,448.8 444.9,448.8 444.9,448.8 444.9,448.9 444.9,448.9 444.9,448.9 444.9,449.0 444.9,449.0 444.9,449.0 444.9,449.1 444.9,449.1 444.9,449.1 444.9,449.2 444.9,449.2 444.9,449.2 444.9,449.2 444.9,449.3 444.9,449.3 444.9,449.3 444.9,449.4 444.9,449.4 444.9,449.4 444.9,449.5 444.9,449.5 444.9,449.5 444.9,449.6 444.9,449.6 444.9,449.6 444.9,449.7 444.9,449.7 444.9,449.7 444.9,449.8 444.9,449.8 444.9,449.8 444.9,449.8 444.9,449.9 444.9,449.9 444.9,449.9 444.9,450.0 444.9,450.0 444.9,450.0 444.9,450.1 444.9,450.1 444.9,450.1 444.9,450.2 444.9,450.2 444.9,450.2 444.9,450.2 444.9,450.3 444.9,450.3 444.9,450.3 444.9,450.4 444.9,450.4 444.9,450.4 444.9,450.5 444.9,450.5 444.9,450.5 444.9,450.5 444.9,450.6 444.9,450.6 444.9,450.6 444.9,450.7 444.9,450.7 444.9,450.7 444.9,450.7 444.9,450.8 444.9,450.8 444.9,450.8 444.9,450.9 444.9,450.9 444.9,450.9 449.9,450.5 449.9,450.6 449.9,450.6 449.9,450.6 449.9,450.7 449.9,450.7 449.9,450.7 449.9,450.7 449.9,450.8 449.9,450.8 449.9,450.8 449.9,450.9 449.9,450.9 449.9,450.9 449.9,450.9 449.9,451.0 449.9,451.0 449.9,451.0 449.9,451.1 449.9,451.1 449.9,451.1 449.9,451.1 449.9,451.2 449.9,451.2 454.8,450.8 454.8,450.9 454.8,450.9 454.8,450.9 454.8,450.9 454.8,451.0 454.8,451.0 454.8,451.0 454.8,451.0 454.8,451.1 454.8,451.1 454.8,451.1 454.8,451.2 454.8,451.2 454.8,451.2 454.8,451.2 454.8,451.3 454.8,451.3 454.8,451.3 454.8,451.4 454.8,451.4 454.8,451.4 454.8,451.4 459.8,451.1 459.8,451.1 459.8,451.1 459.8,451.2 459.8,451.2 459.8,451.2 459.8,451.2 459.8,451.3 459.8,451.3 459.8,451.3 459.8,451.3 459.8,451.4 459.8,451.4 459.8,451.4 459.8,451.4 459.8,451.5 459.8,451.5 459.8,451.5 459.8,451.6 459.8,451.6 459.8,451.6 459.8,451.6 459.8,451.7 459.8,451.7 459.8,451.7 459.8,451.7 459.8,451.8 459.8,451.8 459.8,451.8 459.8,451.8 464.8,451.5 464.8,451.5 464.8,451.5 464.8,451.6 464.8,451.6 464.8,451.6 464.8,451.6 464.8,451.7 464.8,451.7 464.8,451.7 469.7,451.4 469.7,451.4 469.7,451.4 469.7,451.5 469.7,451.5 469.7,451.5 469.7,451.5 469.7,451.6 469.7,451.6 469.7,451.6 469.7,451.6 469.7,451.7 474.7,451.3 474.7,451.3 474.7,451.4 474.7,451.4 474.7,451.4 474.7,451.4 474.7,451.5 474.7,451.5 474.7,451.5 474.7,451.5 474.7,451.6 474.7,451.6 474.7,451.6 474.7,451.6 474.7,451.7 474.7,451.7 474.7,451.7 474.7,451.7 479.6,451.4 479.6,451.4 479.6,451.5 479.6,451.5 479.6,451.5 479.6,451.5 479.6,451.6 479.6,451.6 479.6,451.6 479.6,451.6 479.6,451.7 479.6,451.7 479.6,451.7 479.6,451.7 479.6,451.8 479.6,451.8 479.6,451.8 479.6,451.8 479.6,451.9 479.6,451.9 479.6,451.9 479.6,451.9 479.6,452.0 479.6,452.0 479.6,452.0 479.6,452.0 479.6,452.1 479.6,452.1 479.6,452.1 479.6,452.1 479.6,452.1 479.6,452.2 479.6,452.2 484.6,451.9 489.5,451.5 489.5,451.6 489.5,451.6 489.5,451.6 489.5,451.6 489.5,451.7 489.5,451.7 489.5,451.7 489.5,451.7 489.5,451.8 489.5,451.8 489.5,451.8 489.5,451.8 489.5,451.9 489.5,451.9 489.5,451.9 494.5,451.6 494.5,451.6 494.5,451.6 494.5,451.7 494.5,451.7 494.5,451.7 494.5,451.7 494.5,451.7 494.5,451.8 494.5,451.8 494.5,451.8 494.5,451.8 494.5,451.9 494.5,451.9 494.5,451.9 494.5,451.9 494.5,452.0 494.5,452.0 494.5,452.0 494.5,452.0 494.5,452.1 494.5,452.1 494.5,452.1 494.5,452.1 494.5,452.1 499.5,451.8 499.5,451.9 499.5,451.9 499.5,451.9 499.5,451.9 499.5,451.9 499.5,452.0 499.5,452.0 499.5,452.0 499.5,452.0 499.5,452.1 499.5,452.1 499.5,452.1 499.5,452.1 504.4,451.8 504.4,451.8 504.4,451.9 504.4,451.9 504.4,451.9 504.4,451.9 504.4,452.0 504.4,452.0 504.4,452.0 504.4,452.0 504.4,452.0 504.4,452.1 504.4,452.1 504.4,452.1 504.4,452.1 504.4,452.2 504.4,452.2 504.4,452.2 504.4,452.2 504.4,452.2 504.4,452.3 504.4,452.3 504.4,452.3 504.4,452.3 504.4,452.4 504.4,452.4 504.4,452.4 504.4,452.4 504.4,452.5 504.4,452.5 504.4,452.5 504.4,452.5 504.4,452.6 504.4,452.6 504.4,452.6 504.4,452.6 504.4,452.6 504.4,452.7 504.4,452.7 504.4,452.7 504.4,452.7 504.4,452.8 504.4,452.8 504.4,452.8 504.4,452.8 504.4,452.8 504.4,452.9 504.4,452.9 504.4,452.9 504.4,452.9 504.4,452.9 504.4,453.0 504.4,453.0 504.4,453.0 504.4,453.0 504.4,453.1 504.4,453.1 504.4,453.1 504.4,453.1 504.4,453.1 504.4,453.2 504.4,453.2 504.4,453.2 504.4,453.2 504.4,453.2 504.4,453.3 504.4,453.3 504.4,453.3 504.4,453.3 504.4,453.3 504.4,453.4 504.4,453.4 504.4,453.4 504.4,453.4 504.4,453.4 504.4,453.5 504.4,453.5 504.4,453.5 504.4,453.5 504.4,453.5 504.4,453.6 504.4,453.6 504.4,453.6 504.4,453.6 504.4,453.6 504.4,453.7 504.4,453.7 504.4,453.7 504.4,453.7 504.4,453.8 504.4,453.8 504.4,453.8 504.4,453.8 504.4,453.8 504.4,453.8 504.4,453.9 504.4,453.9 504.4,453.9 504.4,453.9 504.4,453.9 504.4,454.0 504.4,454.0 504.4,454.0 504.4,454.0 504.4,454.0 504.4,454.1 504.4,454.1 504.4,454.1 504.4,454.1 504.4,454.1 504.4,454.2 504.4,454.2 504.4,454.2 504.4,454.2 504.4,454.2 504.4,454.3 504.4,454.3 504.4,454.3 504.4,454.3 504.4,454.3 504.4,454.4 504.4,454.4 504.4,454.4 504.4,454.4 504.4,454.4 504.4,454.5 504.4,454.5 504.4,454.5 504.4,454.5 509.4,454.2 509.4,454.2 509.4,454.3 509.4,454.3 509.4,454.3 509.4,454.3 509.4,454.3 509.4,454.4 509.4,454.4 509.4,454.4 509.4,454.4 509.4,454.4 509.4,454.5 509.4,454.5 509.4,454.5 509.4,454.5 509.4,454.5 509.4,454.5 509.4,454.6 509.4,454.6 509.4,454.6 509.4,454.6 509.4,454.6 509.4,454.7 509.4,454.7 509.4,454.7 509.4,454.7 509.4,454.7 509.4,454.7 509.4,454.8 509.4,454.8 509.4,454.8 509.4,454.8 509.4,454.8 509.4,454.9 509.4,454.9 509.4,454.9 509.4,454.9 509.4,454.9 509.4,454.9 509.4,455.0 509.4,455.0 509.4,455.0 509.4,455.0 509.4,455.0 509.4,455.1 509.4,455.1 509.4,455.1 509.4,455.1 509.4,455.1 509.4,455.1 509.4,455.2 509.4,455.2 509.4,455.2 509.4,455.2 509.4,455.2 509.4,455.2 514.3,455.0 514.3,455.0 514.3,455.0 514.3,455.0 514.3,455.0 514.3,455.1 514.3,455.1 514.3,455.1 514.3,455.1 514.3,455.1 514.3,455.2 514.3,455.2 519.3,454.9 519.3,454.9 519.3,454.9 519.3,455.0 519.3,455.0 519.3,455.0 519.3,455.0 519.3,455.0 524.2,454.8 524.2,454.8 524.2,454.8 524.2,454.8 524.2,454.8 524.2,454.8 524.2,454.9 524.2,454.9 524.2,454.9 524.2,454.9 524.2,454.9 524.2,454.9 524.2,455.0 524.2,455.0 524.2,455.0 524.2,455.0 524.2,455.0 529.2,454.8 529.2,454.8 529.2,454.8 534.2,454.5 534.2,454.6 534.2,454.6 534.2,454.6 534.2,454.6 534.2,454.6 534.2,454.6 534.2,454.7 534.2,454.7 534.2,454.7 534.2,454.7 534.2,454.7 534.2,454.7 534.2,454.8 534.2,454.8 534.2,454.8 534.2,454.8 534.2,454.8 534.2,454.8 534.2,454.9 534.2,454.9 534.2,454.9 534.2,454.9 534.2,454.9 534.2,454.9 534.2,455.0 534.2,455.0 534.2,455.0 534.2,455.0 534.2,455.0 534.2,455.1 534.2,455.1 534.2,455.1 534.2,455.1 534.2,455.1 534.2,455.1 534.2,455.2 534.2,455.2 534.2,455.2 534.2,455.2 534.2,455.2 534.2,455.2 534.2,455.3 534.2,455.3 534.2,455.3 534.2,455.3 534.2,455.3 534.2,455.3 534.2,455.4 534.2,455.4 534.2,455.4 534.2,455.4 534.2,455.4 534.2,455.4 534.2,455.4 534.2,455.5 534.2,455.5 534.2,455.5 534.2,455.5 534.2,455.5 534.2,455.5 534.2,455.6 534.2,455.6 534.2,455.6 534.2,455.6 534.2,455.6 534.2,455.6 534.2,455.7 534.2,455.7 534.2,455.7 534.2,455.7 534.2,455.7 534.2,455.7 534.2,455.8 534.2,455.8 534.2,455.8 534.2,455.8 534.2,455.8 534.2,455.8 534.2,455.9 534.2,455.9 534.2,455.9 534.2,455.9 534.2,455.9 534.2,455.9 534.2,455.9 534.2,456.0 534.2,456.0 534.2,456.0 534.2,456.0 534.2,456.0 534.2,456.0 534.2,456.1 534.2,456.1 534.2,456.1 534.2,456.1 534.2,456.1 534.2,456.1 534.2,456.1 534.2,456.2 534.2,456.2 534.2,456.2 539.1,455.9 539.1,456.0 539.1,456.0 539.1,456.0 539.1,456.0 539.1,456.0 544.1,455.8 544.1,455.8 544.1,455.8 544.1,455.8 544.1,455.8 544.1,455.9 544.1,455.9 544.1,455.9 544.1,455.9 544.1,455.9 544.1,455.9 549.0,455.7 549.0,455.7 549.0,455.7 549.0,455.7 549.0,455.7 549.0,455.8 549.0,455.8 549.0,455.8 549.0,455.8 549.0,455.8 549.0,455.8 549.0,455.9 549.0,455.9 549.0,455.9 549.0,455.9 549.0,455.9 549.0,455.9 549.0,455.9 549.0,456.0 549.0,456.0 549.0,456.0 549.0,456.0 549.0,456.0 549.0,456.0 549.0,456.0 549.0,456.1 549.0,456.1 549.0,456.1 549.0,456.1 549.0,456.1 549.0,456.1 549.0,456.2 549.0,456.2 549.0,456.2 554.0,455.9 554.0,456.0 554.0,456.0 554.0,456.0 554.0,456.0 554.0,456.0 554.0,456.0 554.0,456.0 554.0,456.1 554.0,456.1 554.0,456.1 554.0,456.1 554.0,456.1 554.0,456.1 554.0,456.2 554.0,456.2 554.0,456.2 554.0,456.2 554.0,456.2 554.0,456.2 554.0,456.2 554.0,456.3 554.0,456.3 554.0,456.3 554.0,456.3 554.0,456.3 554.0,456.3 554.0,456.3 554.0,456.4 554.0,456.4 554.0,456.4 554.0,456.4 554.0,456.4 554.0,456.4 554.0,456.4 554.0,456.5 554.0,456.5 554.0,456.5 554.0,456.5 554.0,456.5 554.0,456.5 554.0,456.5 554.0,456.6 554.0,456.6 554.0,456.6 554.0,456.6 554.0,456.6 554.0,456.6 554.0,456.6 554.0,456.7 554.0,456.7 554.0,456.7 554.0,456.7 554.0,456.7 554.0,456.7 554.0,456.7 554.0,456.8 554.0,456.8 554.0,456.8 554.0,456.8 554.0,456.8 554.0,456.8 554.0,456.8 554.0,456.9 554.0,456.9 554.0,456.9 554.0,456.9 554.0,456.9 554.0,456.9 554.0,456.9 554.0,456.9 554.0,457.0 554.0,457.0 554.0,457.0 554.0,457.0 558.9,456.8 558.9,456.8 558.9,456.8 558.9,456.8 558.9,456.8 558.9,456.8 558.9,456.9 558.9,456.9 563.9,456.6 563.9,456.7 563.9,456.7 563.9,456.7 563.9,456.7 563.9,456.7 563.9,456.7 563.9,456.7 563.9,456.8 563.9,456.8 563.9,456.8 563.9,456.8 563.9,456.8 568.9,456.6 568.9,456.6 568.9,456.6 568.9,456.6 568.9,456.6 568.9,456.6 568.9,456.7 568.9,456.7 568.9,456.7 568.9,456.7 568.9,456.7 568.9,456.7 568.9,456.7 568.9,456.8 568.9,456.8 568.9,456.8 568.9,456.8 568.9,456.8 568.9,456.8 568.9,456.8 568.9,456.9 568.9,456.9 568.9,456.9 568.9,456.9 568.9,456.9 568.9,456.9 568.9,456.9 568.9,456.9 568.9,457.0 568.9,457.0 568.9,457.0 568.9,457.0 568.9,457.0 568.9,457.0 568.9,457.0 568.9,457.1 568.9,457.1 568.9,457.1 568.9,457.1 568.9,457.1 568.9,457.1 568.9,457.1 568.9,457.1 568.9,457.2 568.9,457.2 568.9,457.2 568.9,457.2 568.9,457.2 568.9,457.2 568.9,457.2 568.9,457.2 568.9,457.3 568.9,457.3 568.9,457.3 573.8,457.1 573.8,457.1 573.8,457.1 573.8,457.1 573.8,457.1 573.8,457.1 573.8,457.1 573.8,457.2 573.8,457.2 573.8,457.2 573.8,457.2 573.8,457.2 573.8,457.2 573.8,457.2 573.8,457.2 573.8,457.3 573.8,457.3 573.8,457.3 573.8,457.3 573.8,457.3 573.8,457.3 573.8,457.3 573.8,457.4 573.8,457.4 573.8,457.4 573.8,457.4 573.8,457.4 573.8,457.4 573.8,457.4 573.8,457.4 573.8,457.5 573.8,457.5 573.8,457.5 573.8,457.5 573.8,457.5 573.8,457.5 573.8,457.5 573.8,457.5 573.8,457.6 573.8,457.6 573.8,457.6 573.8,457.6 573.8,457.6 573.8,457.6 573.8,457.6 573.8,457.6 573.8,457.7 573.8,457.7 573.8,457.7 573.8,457.7 573.8,457.7 573.8,457.7 573.8,457.7 573.8,457.7 573.8,457.8 573.8,457.8 573.8,457.8 573.8,457.8 573.8,457.8 573.8,457.8 573.8,457.8 573.8,457.8 573.8,457.9 573.8,457.9 573.8,457.9 573.8,457.9 573.8,457.9 573.8,457.9 573.8,457.9 573.8,457.9 573.8,457.9 573.8,458.0 573.8,458.0 573.8,458.0 573.8,458.0 573.8,458.0 573.8,458.0 573.8,458.0 573.8,458.0 573.8,458.1 573.8,458.1 573.8,458.1 573.8,458.1 573.8,458.1 573.8,458.1 573.8,458.1 573.8,458.1 573.8,458.2 573.8,458.2 573.8,458.2 573.8,458.2 573.8,458.2 573.8,458.2 573.8,458.2 573.8,458.2 573.8,458.2 573.8,458.3 573.8,458.3 573.8,458.3 573.8,458.3 573.8,458.3 573.8,458.3 573.8,458.3 573.8,458.3 573.8,458.4 573.8,458.4 573.8,458.4 573.8,458.4 573.8,458.4 573.8,458.4 573.8,458.4 573.8,458.4 573.8,458.4 573.8,458.5 573.8,458.5 578.8,458.3 578.8,458.3 578.8,458.3 578.8,458.3 578.8,458.3 578.8,458.3 578.8,458.3 578.8,458.3 578.8,458.4 578.8,458.4 578.8,458.4 578.8,458.4 578.8,458.4 578.8,458.4 578.8,458.4 578.8,458.4 578.8,458.4 578.8,458.5 578.8,458.5 578.8,458.5 578.8,458.5 578.8,458.5 578.8,458.5 578.8,458.5 578.8,458.5 578.8,458.5 578.8,458.6 578.8,458.6 578.8,458.6 578.8,458.6 578.8,458.6 578.8,458.6 578.8,458.6 578.8,458.6 578.8,458.6 578.8,458.7 578.8,458.7 578.8,458.7 578.8,458.7 578.8,458.7 583.7,458.5 583.7,458.5 583.7,458.5 583.7,458.5 583.7,458.5 583.7,458.6 583.7,458.6 583.7,458.6 583.7,458.6 583.7,458.6 583.7,458.6 583.7,458.6 583.7,458.6 583.7,458.6 583.7,458.7 583.7,458.7 583.7,458.7 583.7,458.7 583.7,458.7 583.7,458.7 583.7,458.7 583.7,458.7 583.7,458.7 583.7,458.8 583.7,458.8 583.7,458.8 583.7,458.8 583.7,458.8 583.7,458.8 583.7,458.8 583.7,458.8 583.7,458.8 583.7,458.9 583.7,458.9 583.7,458.9 583.7,458.9 583.7,458.9 583.7,458.9 583.7,458.9 583.7,458.9 583.7,458.9 583.7,459.0 583.7,459.0 583.7,459.0 583.7,459.0 583.7,459.0 583.7,459.0 583.7,459.0 583.7,459.0 583.7,459.0 583.7,459.0 583.7,459.1 583.7,459.1 583.7,459.1 583.7,459.1 583.7,459.1 583.7,459.1 583.7,459.1 583.7,459.1 583.7,459.1 583.7,459.2 583.7,459.2 583.7,459.2 583.7,459.2 583.7,459.2 583.7,459.2 583.7,459.2 583.7,459.2 583.7,459.2 583.7,459.3 583.7,459.3 583.7,459.3 583.7,459.3 583.7,459.3 583.7,459.3 583.7,459.3 583.7,459.3 583.7,459.3 583.7,459.4 583.7,459.4 583.7,459.4 583.7,459.4 583.7,459.4 583.7,459.4 583.7,459.4 583.7,459.4 583.7,459.4 583.7,459.4 583.7,459.5 583.7,459.5 583.7,459.5 588.7,459.3 588.7,459.3 588.7,459.3 588.7,459.3 588.7,459.3 588.7,459.3 588.7,459.3 588.7,459.4 588.7,459.4 588.7,459.4 588.7,459.4 588.7,459.4 588.7,459.4 588.7,459.4 588.7,459.4 588.7,459.4 588.7,459.4 588.7,459.5 588.7,459.5 588.7,459.5 588.7,459.5 588.7,459.5 588.7,459.5 588.7,459.5 588.7,459.5 588.7,459.5 588.7,459.6 588.7,459.6 588.7,459.6 588.7,459.6 588.7,459.6 588.7,459.6 588.7,459.6 588.7,459.6 588.7,459.6 588.7,459.6 588.7,459.7 588.7,459.7 588.7,459.7 588.7,459.7 588.7,459.7 588.7,459.7 588.7,459.7 588.7,459.7 588.7,459.7 588.7,459.7 588.7,459.8 588.7,459.8 588.7,459.8 588.7,459.8 588.7,459.8 588.7,459.8 588.7,459.8 588.7,459.8 588.7,459.8 588.7,459.8 588.7,459.8 588.7,459.9 588.7,459.9 588.7,459.9 588.7,459.9 588.7,459.9 588.7,459.9 588.7,459.9 588.7,459.9 588.7,459.9 588.7,459.9 588.7,460.0 588.7,460.0 588.7,460.0 588.7,460.0 588.7,460.0 588.7,460.0 588.7,460.0 588.7,460.0 588.7,460.0 588.7,460.0 588.7,460.1 588.7,460.1 588.7,460.1 588.7,460.1 588.7,460.1 588.7,460.1 588.7,460.1 588.7,460.1 588.7,460.1 588.7,460.1 588.7,460.1 588.7,460.2 588.7,460.2 588.7,460.2 588.7,460.2 588.7,460.2 588.7,460.2 588.7,460.2 588.7,460.2 588.7,460.2 588.7,460.2 588.7,460.3 588.7,460.3 588.7,460.3 593.6,460.1 593.6,460.1 593.6,460.1 593.6,460.1 593.6,460.1 593.6,460.1 593.6,460.1 593.6,460.2 593.6,460.2 593.6,460.2 593.6,460.2 593.6,460.2 593.6,460.2 593.6,460.2 593.6,460.2 593.6,460.2 593.6,460.2 598.6,460.1 598.6,460.1 598.6,460.1 598.6,460.1 598.6,460.1 598.6,460.1 598.6,460.1 598.6,460.1 598.6,460.1 598.6,460.1 598.6,460.1 598.6,460.2 598.6,460.2 598.6,460.2 598.6,460.2 598.6,460.2 598.6,460.2 598.6,460.2 598.6,460.2 598.6,460.2 598.6,460.2 598.6,460.2 598.6,460.3 598.6,460.3 598.6,460.3 598.6,460.3 598.6,460.3 598.6,460.3 598.6,460.3 598.6,460.3 598.6,460.3 598.6,460.3 598.6,460.3 598.6,460.4 598.6,460.4 598.6,460.4 598.6,460.4 598.6,460.4 598.6,460.4 598.6,460.4 598.6,460.4 598.6,460.4 598.6,460.4 598.6,460.4 598.6,460.5 598.6,460.5 598.6,460.5 598.6,460.5 598.6,460.5 598.6,460.5 598.6,460.5 598.6,460.5 598.6,460.5 598.6,460.5 598.6,460.5 598.6,460.6 598.6,460.6 598.6,460.6 598.6,460.6 598.6,460.6 598.6,460.6 598.6,460.6 598.6,460.6 598.6,460.6 598.6,460.6 598.6,460.6 598.6,460.7 598.6,460.7 598.6,460.7 598.6,460.7 598.6,460.7 598.6,460.7 598.6,460.7 598.6,460.7 598.6,460.7 598.6,460.7 598.6,460.7 598.6,460.8 598.6,460.8 598.6,460.8 598.6,460.8 598.6,460.8 598.6,460.8 598.6,460.8 598.6,460.8 598.6,460.8 598.6,460.8 598.6,460.8 598.6,460.8 598.6,460.9 598.6,460.9 598.6,460.9 598.6,460.9 598.6,460.9 598.6,460.9 598.6,460.9 598.6,460.9 598.6,460.9 598.6,460.9 598.6,460.9 598.6,461.0 598.6,461.0 598.6,461.0 598.6,461.0 598.6,461.0 598.6,461.0 598.6,461.0 598.6,461.0 598.6,461.0 598.6,461.0 598.6,461.0 598.6,461.0 598.6,461.1 598.6,461.1 598.6,461.1 598.6,461.1 598.6,461.1 598.6,461.1 598.6,461.1 598.6,461.1 598.6,461.1 598.6,461.1 598.6,461.1 598.6,461.1 598.6,461.2 598.6,461.2 598.6,461.2 598.6,461.2 598.6,461.2 598.6,461.2 598.6,461.2 598.6,461.2 598.6,461.2 603.6,461.0 603.6,461.1 603.6,461.1 603.6,461.1 603.6,461.1 603.6,461.1 603.6,461.1 603.6,461.1 603.6,461.1 603.6,461.1 603.6,461.1 603.6,461.1 603.6,461.1 603.6,461.2 603.6,461.2 603.6,461.2 608.5,461.0 608.5,461.0 608.5,461.0 608.5,461.0 608.5,461.0 608.5,461.0 608.5,461.1 608.5,461.1 608.5,461.1 608.5,461.1 608.5,461.1 608.5,461.1 608.5,461.1 608.5,461.1 608.5,461.1 613.5,460.9 613.5,461.0 613.5,461.0 613.5,461.0 613.5,461.0 613.5,461.0 613.5,461.0 613.5,461.0 613.5,461.0 613.5,461.0 613.5,461.0 613.5,461.0 613.5,461.0 613.5,461.1 613.5,461.1 613.5,461.1 613.5,461.1 613.5,461.1 613.5,461.1 613.5,461.1 613.5,461.1 613.5,461.1 613.5,461.1 613.5,461.1 613.5,461.1 613.5,461.2 613.5,461.2 613.5,461.2 613.5,461.2 613.5,461.2 613.5,461.2 613.5,461.2 613.5,461.2 613.5,461.2 613.5,461.2 613.5,461.2 613.5,461.2 613.5,461.3 613.5,461.3 613.5,461.3 613.5,461.3 613.5,461.3 613.5,461.3 613.5,461.3 613.5,461.3 613.5,461.3 613.5,461.3 613.5,461.3 613.5,461.3 613.5,461.3 613.5,461.4 613.5,461.4 613.5,461.4 613.5,461.4 613.5,461.4 613.5,461.4 613.5,461.4 613.5,461.4 613.5,461.4 613.5,461.4 613.5,461.4 613.5,461.4 613.5,461.5 613.5,461.5 613.5,461.5 613.5,461.5 613.5,461.5 613.5,461.5 613.5,461.5 613.5,461.5 613.5,461.5 613.5,461.5 613.5,461.5 613.5,461.5 613.5,461.5 613.5,461.6 613.5,461.6 613.5,461.6 613.5,461.6 613.5,461.6 613.5,461.6 613.5,461.6 613.5,461.6 613.5,461.6 613.5,461.6 613.5,461.6 613.5,461.6 613.5,461.6 613.5,461.7 613.5,461.7 613.5,461.7 613.5,461.7 613.5,461.7 613.5,461.7 613.5,461.7 613.5,461.7 613.5,461.7 613.5,461.7 613.5,461.7 613.5,461.7 613.5,461.7 613.5,461.8 613.5,461.8 613.5,461.8 613.5,461.8 613.5,461.8 613.5,461.8 613.5,461.8 613.5,461.8 613.5,461.8 613.5,461.8 613.5,461.8 613.5,461.8 613.5,461.8 613.5,461.9 613.5,461.9 613.5,461.9 613.5,461.9 613.5,461.9 613.5,461.9 613.5,461.9 613.5,461.9 613.5,461.9 613.5,461.9 613.5,461.9 613.5,461.9 613.5,461.9 613.5,462.0 613.5,462.0 613.5,462.0 618.4,461.8 618.4,461.8 618.4,461.8 618.4,461.8 618.4,461.8 618.4,461.8 618.4,461.8 618.4,461.9 618.4,461.9 618.4,461.9 618.4,461.9 618.4,461.9 618.4,461.9 618.4,461.9 618.4,461.9 618.4,461.9 618.4,461.9 618.4,461.9 618.4,461.9 618.4,461.9 618.4,462.0 618.4,462.0 618.4,462.0 618.4,462.0 618.4,462.0 618.4,462.0 618.4,462.0 618.4,462.0 618.4,462.0 618.4,462.0 618.4,462.0 618.4,462.0 618.4,462.0 618.4,462.0 618.4,462.1 618.4,462.1 618.4,462.1 618.4,462.1 618.4,462.1 618.4,462.1 618.4,462.1 618.4,462.1 618.4,462.1 618.4,462.1 618.4,462.1 618.4,462.1 618.4,462.1 618.4,462.2 618.4,462.2 623.4,462.0 623.4,462.0 623.4,462.0 623.4,462.0 623.4,462.0 623.4,462.0 623.4,462.0 623.4,462.1 623.4,462.1 623.4,462.1 623.4,462.1 623.4,462.1 623.4,462.1 623.4,462.1 623.4,462.1 623.4,462.1 623.4,462.1 623.4,462.1 623.4,462.1 623.4,462.1 623.4,462.1 623.4,462.2 623.4,462.2 623.4,462.2 623.4,462.2 623.4,462.2 623.4,462.2 623.4,462.2 623.4,462.2 623.4,462.2 623.4,462.2 623.4,462.2 623.4,462.2 623.4,462.2 623.4,462.2 623.4,462.3 623.4,462.3 623.4,462.3 623.4,462.3 623.4,462.3 623.4,462.3 623.4,462.3 623.4,462.3 623.4,462.3 623.4,462.3 623.4,462.3 623.4,462.3 623.4,462.3 623.4,462.3 623.4,462.4 623.4,462.4 623.4,462.4 623.4,462.4 623.4,462.4 623.4,462.4 623.4,462.4 623.4,462.4 623.4,462.4 623.4,462.4 623.4,462.4 623.4,462.4 623.4,462.4 623.4,462.4 623.4,462.4 623.4,462.5 623.4,462.5 623.4,462.5 623.4,462.5 623.4,462.5 623.4,462.5 623.4,462.5 623.4,462.5 623.4,462.5 623.4,462.5 623.4,462.5 623.4,462.5 623.4,462.5 623.4,462.5 623.4,462.6 623.4,462.6 623.4,462.6 623.4,462.6 623.4,462.6 623.4,462.6 623.4,462.6 623.4,462.6 623.4,462.6 623.4,462.6 623.4,462.6 623.4,462.6 623.4,462.6 623.4,462.6 628.3,462.5 628.3,462.5 628.3,462.5 628.3,462.5 628.3,462.5 628.3,462.5 628.3,462.5 628.3,462.5 628.3,462.5 628.3,462.5 628.3,462.6 628.3,462.6 628.3,462.6 628.3,462.6 628.3,462.6 628.3,462.6 628.3,462.6 628.3,462.6 628.3,462.6 628.3,462.6 628.3,462.6 628.3,462.6 628.3,462.6 628.3,462.6 628.3,462.7 628.3,462.7 628.3,462.7 628.3,462.7 628.3,462.7 628.3,462.7 628.3,462.7 628.3,462.7 628.3,462.7 628.3,462.7 628.3,462.7 628.3,462.7 628.3,462.7 628.3,462.7 628.3,462.7 628.3,462.8 628.3,462.8 628.3,462.8 628.3,462.8 628.3,462.8 628.3,462.8 628.3,462.8 628.3,462.8 628.3,462.8 628.3,462.8 628.3,462.8 628.3,462.8 628.3,462.8 628.3,462.8 628.3,462.8 628.3,462.9 628.3,462.9 628.3,462.9 628.3,462.9 628.3,462.9 628.3,462.9 633.3,462.7 633.3,462.7 633.3,462.7 633.3,462.8 633.3,462.8 633.3,462.8 633.3,462.8 633.3,462.8 633.3,462.8 633.3,462.8 633.3,462.8 633.3,462.8 633.3,462.8 633.3,462.8 633.3,462.8 633.3,462.8 633.3,462.8 633.3,462.8 633.3,462.9 633.3,462.9 633.3,462.9 633.3,462.9 633.3,462.9 633.3,462.9 633.3,462.9 633.3,462.9 633.3,462.9 633.3,462.9 633.3,462.9 633.3,462.9 633.3,462.9 633.3,462.9 633.3,462.9 633.3,462.9 633.3,463.0 633.3,463.0 633.3,463.0 633.3,463.0 633.3,463.0 633.3,463.0 633.3,463.0 633.3,463.0 633.3,463.0 633.3,463.0 633.3,463.0 633.3,463.0 633.3,463.0 633.3,463.0 633.3,463.0 633.3,463.1 633.3,463.1 633.3,463.1 633.3,463.1 633.3,463.1 633.3,463.1 633.3,463.1 633.3,463.1 633.3,463.1 633.3,463.1 633.3,463.1 633.3,463.1 633.3,463.1 633.3,463.1 633.3,463.1 633.3,463.1 633.3,463.2 633.3,463.2 633.3,463.2 633.3,463.2 633.3,463.2 633.3,463.2 633.3,463.2 633.3,463.2 633.3,463.2 633.3,463.2 633.3,463.2 633.3,463.2 633.3,463.2 633.3,463.2 633.3,463.2 633.3,463.2 633.3,463.3 633.3,463.3 633.3,463.3 633.3,463.3 633.3,463.3 633.3,463.3 633.3,463.3 633.3,463.3 633.3,463.3 633.3,463.3 633.3,463.3 633.3,463.3 633.3,463.3 633.3,463.3 633.3,463.3 633.3,463.3 633.3,463.4 633.3,463.4 633.3,463.4 633.3,463.4 633.3,463.4 633.3,463.4 633.3,463.4 633.3,463.4 633.3,463.4 633.3,463.4 633.3,463.4 633.3,463.4 633.3,463.4 633.3,463.4 633.3,463.4 633.3,463.4 633.3,463.4 633.3,463.5 633.3,463.5 633.3,463.5 633.3,463.5 633.3,463.5 633.3,463.5 633.3,463.5 633.3,463.5 633.3,463.5 633.3,463.5 633.3,463.5 633.3,463.5 633.3,463.5 633.3,463.5 633.3,463.5 633.3,463.5 633.3,463.6 633.3,463.6 633.3,463.6 633.3,463.6 633.3,463.6 633.3,463.6 633.3,463.6 633.3,463.6 633.3,463.6 633.3,463.6 633.3,463.6 633.3,463.6 633.3,463.6 633.3,463.6 633.3,463.6 633.3,463.6 633.3,463.6 633.3,463.7 633.3,463.7 633.3,463.7 633.3,463.7 633.3,463.7 633.3,463.7 633.3,463.7 633.3,463.7 633.3,463.7 633.3,463.7 633.3,463.7 633.3,463.7 633.3,463.7 633.3,463.7 633.3,463.7 633.3,463.7 633.3,463.7 633.3,463.8 633.3,463.8 633.3,463.8 633.3,463.8 633.3,463.8 633.3,463.8 633.3,463.8 633.3,463.8 633.3,463.8 633.3,463.8 633.3,463.8 633.3,463.8 633.3,463.8 633.3,463.8 633.3,463.8 633.3,463.8 633.3,463.8 633.3,463.9 633.3,463.9 633.3,463.9 633.3,463.9 633.3,463.9 633.3,463.9 633.3,463.9 633.3,463.9 633.3,463.9 633.3,463.9 633.3,463.9 633.3,463.9 633.3,463.9 633.3,463.9 633.3,463.9 633.3,463.9 633.3,463.9 633.3,464.0 633.3,464.0 633.3,464.0 633.3,464.0 638.3,463.8 638.3,463.8 638.3,463.8 638.3,463.8 638.3,463.9 638.3,463.9 638.3,463.9 638.3,463.9 638.3,463.9 638.3,463.9 638.3,463.9 638.3,463.9 638.3,463.9 638.3,463.9 638.3,463.9 638.3,463.9 638.3,463.9 638.3,463.9 638.3,463.9 638.3,463.9 638.3,463.9 638.3,463.9 638.3,464.0 638.3,464.0 638.3,464.0 638.3,464.0 638.3,464.0 638.3,464.0 638.3,464.0 638.3,464.0 638.3,464.0 638.3,464.0 638.3,464.0 638.3,464.0 638.3,464.0 638.3,464.0 638.3,464.0 638.3,464.0 638.3,464.0 638.3,464.0 638.3,464.1 638.3,464.1 638.3,464.1 638.3,464.1 638.3,464.1 638.3,464.1 638.3,464.1 638.3,464.1 638.3,464.1 638.3,464.1 638.3,464.1 638.3,464.1 638.3,464.1 638.3,464.1 638.3,464.1 638.3,464.1 638.3,464.1 638.3,464.1 638.3,464.2 638.3,464.2 638.3,464.2 638.3,464.2 638.3,464.2 638.3,464.2 638.3,464.2 638.3,464.2 638.3,464.2 638.3,464.2 638.3,464.2 638.3,464.2 638.3,464.2 638.3,464.2 638.3,464.2 638.3,464.2 638.3,464.2 638.3,464.2 638.3,464.3 638.3,464.3 638.3,464.3 638.3,464.3 638.3,464.3 638.3,464.3 638.3,464.3 638.3,464.3 638.3,464.3 638.3,464.3 638.3,464.3 638.3,464.3 638.3,464.3 638.3,464.3 638.3,464.3 638.3,464.3 638.3,464.3 638.3,464.3 638.3,464.4 638.3,464.4 638.3,464.4 638.3,464.4 638.3,464.4 638.3,464.4 638.3,464.4 638.3,464.4 638.3,464.4 638.3,464.4 638.3,464.4 638.3,464.4 638.3,464.4 638.3,464.4 638.3,464.4 638.3,464.4 638.3,464.4 638.3,464.4 638.3,464.4 638.3,464.5 638.3,464.5 638.3,464.5 638.3,464.5 638.3,464.5 638.3,464.5 638.3,464.5 638.3,464.5 638.3,464.5 638.3,464.5 638.3,464.5 638.3,464.5 638.3,464.5 638.3,464.5 638.3,464.5 638.3,464.5 638.3,464.5 638.3,464.5 638.3,464.5 638.3,464.6 638.3,464.6 638.3,464.6 638.3,464.6 638.3,464.6 638.3,464.6 638.3,464.6 638.3,464.6 638.3,464.6 638.3,464.6 638.3,464.6 638.3,464.6 638.3,464.6 638.3,464.6 638.3,464.6 638.3,464.6 638.3,464.6 638.3,464.6 638.3,464.6 638.3,464.7 638.3,464.7 638.3,464.7 638.3,464.7 638.3,464.7 638.3,464.7 638.3,464.7 638.3,464.7 638.3,464.7 638.3,464.7 638.3,464.7 638.3,464.7 638.3,464.7 638.3,464.7 638.3,464.7 638.3,464.7 638.3,464.7 638.3,464.7 638.3,464.7 638.3,464.7 638.3,464.8 638.3,464.8 638.3,464.8 638.3,464.8 638.3,464.8 638.3,464.8 638.3,464.8 638.3,464.8 638.3,464.8 638.3,464.8 638.3,464.8 638.3,464.8 638.3,464.8 638.3,464.8 638.3,464.8 638.3,464.8 638.3,464.8 638.3,464.8 638.3,464.8 638.3,464.9 638.3,464.9 638.3,464.9 638.3,464.9 638.3,464.9 638.3,464.9 638.3,464.9 638.3,464.9 638.3,464.9 638.3,464.9 638.3,464.9 638.3,464.9 638.3,464.9 638.3,464.9 638.3,464.9 638.3,464.9 638.3,464.9 638.3,464.9 638.3,464.9 638.3,464.9 638.3,465.0 638.3,465.0 638.3,465.0 638.3,465.0 638.3,465.0 638.3,465.0 638.3,465.0 638.3,465.0 638.3,465.0 638.3,465.0 638.3,465.0 638.3,465.0 638.3,465.0 638.3,465.0 638.3,465.0 638.3,465.0 638.3,465.0 638.3,465.0 638.3,465.0 638.3,465.0 638.3,465.1 638.3,465.1 638.3,465.1 638.3,465.1 638.3,465.1 638.3,465.1 638.3,465.1 638.3,465.1 638.3,465.1 638.3,465.1 638.3,465.1 638.3,465.1 638.3,465.1 638.3,465.1 638.3,465.1 638.3,465.1 638.3,465.1 638.3,465.1 638.3,465.1 638.3,465.1 638.3,465.2 638.3,465.2 638.3,465.2 638.3,465.2 638.3,465.2 638.3,465.2 638.3,465.2 638.3,465.2 638.3,465.2 638.3,465.2 638.3,465.2 638.3,465.2 638.3,465.2 638.3,465.2 638.3,465.2 638.3,465.2 638.3,465.2 638.3,465.2 638.3,465.2 638.3,465.2 638.3,465.3 638.3,465.3 638.3,465.3 638.3,465.3 638.3,465.3 638.3,465.3 638.3,465.3 638.3,465.3 638.3,465.3 638.3,465.3 638.3,465.3 638.3,465.3 638.3,465.3 638.3,465.3 638.3,465.3 638.3,465.3 638.3,465.3 638.3,465.3 638.3,465.3 638.3,465.3 638.3,465.3 638.3,465.4 638.3,465.4 638.3,465.4 638.3,465.4 638.3,465.4 638.3,465.4 638.3,465.4 638.3,465.4 638.3,465.4 638.3,465.4 638.3,465.4 638.3,465.4 638.3,465.4 638.3,465.4 638.3,465.4 638.3,465.4 638.3,465.4 638.3,465.4 638.3,465.4 638.3,465.4 638.3,465.4 638.3,465.5 638.3,465.5 638.3,465.5 638.3,465.5 638.3,465.5 638.3,465.5 638.3,465.5 638.3,465.5 638.3,465.5 638.3,465.5 638.3,465.5 638.3,465.5 638.3,465.5 638.3,465.5 638.3,465.5 638.3,465.5 638.3,465.5 638.3,465.5 638.3,465.5 638.3,465.5 638.3,465.5 638.3,465.5 638.3,465.6 638.3,465.6 638.3,465.6 638.3,465.6 638.3,465.6 638.3,465.6 638.3,465.6 638.3,465.6 638.3,465.6 638.3,465.6 638.3,465.6 638.3,465.6 638.3,465.6 638.3,465.6 638.3,465.6 638.3,465.6 638.3,465.6 638.3,465.6 638.3,465.6 638.3,465.6 638.3,465.6 638.3,465.7 638.3,465.7 638.3,465.7 638.3,465.7 638.3,465.7 638.3,465.7 638.3,465.7 638.3,465.7 638.3,465.7 638.3,465.7 638.3,465.7 638.3,465.7 638.3,465.7 638.3,465.7 638.3,465.7 638.3,465.7 638.3,465.7 638.3,465.7 638.3,465.7 638.3,465.7 638.3,465.7 638.3,465.7 638.3,465.8 638.3,465.8 638.3,465.8 638.3,465.8 638.3,465.8 638.3,465.8 638.3,465.8 638.3,465.8 638.3,465.8 638.3,465.8 638.3,465.8 638.3,465.8 638.3,465.8 638.3,465.8 638.3,465.8 638.3,465.8 638.3,465.8 638.3,465.8 638.3,465.8 638.3,465.8 638.3,465.8 638.3,465.8 638.3,465.8 638.3,465.9 638.3,465.9 638.3,465.9 638.3,465.9 638.3,465.9 638.3,465.9 638.3,465.9 638.3,465.9 638.3,465.9 638.3,465.9 638.3,465.9 638.3,465.9 638.3,465.9 638.3,465.9 638.3,465.9 638.3,465.9 638.3,465.9 638.3,465.9 638.3,465.9 638.3,465.9 638.3,465.9 638.3,465.9 638.3,465.9 638.3,466.0 638.3,466.0 638.3,466.0 638.3,466.0 638.3,466.0 638.3,466.0 638.3,466.0 643.2,465.9 643.2,465.9 643.2,465.9 643.2,465.9 643.2,465.9 643.2,465.9 643.2,465.9 643.2,465.9 643.2,465.9 643.2,465.9 643.2,465.9 643.2,465.9 643.2,465.9 643.2,465.9 643.2,465.9 643.2,465.9 643.2,465.9 643.2,465.9 643.2,465.9 643.2,465.9 643.2,465.9 643.2,465.9 643.2,466.0 643.2,466.0 643.2,466.0 643.2,466.0 643.2,466.0 643.2,466.0 643.2,466.0 643.2,466.0 643.2,466.0 643.2,466.0 643.2,466.0 643.2,466.0 643.2,466.0 643.2,466.0 643.2,466.0 643.2,466.0 643.2,466.0 643.2,466.0 643.2,466.0 643.2,466.0 643.2,466.0 643.2,466.0 643.2,466.0 643.2,466.1 643.2,466.1 643.2,466.1 643.2,466.1 643.2,466.1 643.2,466.1 643.2,466.1 643.2,466.1 643.2,466.1 643.2,466.1 643.2,466.1 643.2,466.1 643.2,466.1 643.2,466.1 643.2,466.1 643.2,466.1 643.2,466.1 643.2,466.1 643.2,466.1 643.2,466.1 643.2,466.1 643.2,466.1 643.2,466.1 643.2,466.1 643.2,466.2 643.2,466.2 643.2,466.2 643.2,466.2 643.2,466.2 643.2,466.2 643.2,466.2 643.2,466.2 643.2,466.2 643.2,466.2 643.2,466.2 643.2,466.2 643.2,466.2 643.2,466.2 643.2,466.2 643.2,466.2 643.2,466.2 643.2,466.2 643.2,466.2 643.2,466.2 643.2,466.2 643.2,466.2 643.2,466.2 643.2,466.2 643.2,466.3 643.2,466.3 643.2,466.3 643.2,466.3 643.2,466.3 643.2,466.3 643.2,466.3 643.2,466.3 643.2,466.3 643.2,466.3 643.2,466.3 643.2,466.3 643.2,466.3 643.2,466.3 643.2,466.3 643.2,466.3 643.2,466.3 643.2,466.3 643.2,466.3 643.2,466.3 643.2,466.3 643.2,466.3 643.2,466.3 643.2,466.3 643.2,466.3 643.2,466.4 643.2,466.4 643.2,466.4 643.2,466.4 643.2,466.4 643.2,466.4 643.2,466.4 643.2,466.4 643.2,466.4 643.2,466.4 643.2,466.4 643.2,466.4 643.2,466.4 643.2,466.4 643.2,466.4 643.2,466.4 643.2,466.4 643.2,466.4 643.2,466.4 643.2,466.4 643.2,466.4 643.2,466.4 643.2,466.4 643.2,466.4 643.2,466.5 643.2,466.5 643.2,466.5 643.2,466.5 643.2,466.5 643.2,466.5 643.2,466.5 643.2,466.5 643.2,466.5 643.2,466.5 643.2,466.5 643.2,466.5 643.2,466.5 643.2,466.5 643.2,466.5 643.2,466.5 643.2,466.5 643.2,466.5 643.2,466.5 643.2,466.5 643.2,466.5 643.2,466.5 643.2,466.5 643.2,466.5 643.2,466.5 643.2,466.5 643.2,466.6 643.2,466.6 643.2,466.6 643.2,466.6 643.2,466.6 643.2,466.6 643.2,466.6 643.2,466.6 643.2,466.6 643.2,466.6 643.2,466.6 643.2,466.6 643.2,466.6 643.2,466.6 643.2,466.6 643.2,466.6 643.2,466.6 643.2,466.6 643.2,466.6 643.2,466.6 643.2,466.6 643.2,466.6 643.2,466.6 643.2,466.6 643.2,466.6 643.2,466.7 643.2,466.7 643.2,466.7 643.2,466.7 643.2,466.7 643.2,466.7 643.2,466.7 643.2,466.7 643.2,466.7 643.2,466.7 643.2,466.7 643.2,466.7 643.2,466.7 643.2,466.7 643.2,466.7 643.2,466.7 643.2,466.7 643.2,466.7 643.2,466.7 643.2,466.7 643.2,466.7 643.2,466.7 643.2,466.7 643.2,466.7 643.2,466.7 643.2,466.7 643.2,466.8 643.2,466.8 643.2,466.8 643.2,466.8 643.2,466.8 643.2,466.8 643.2,466.8 643.2,466.8 643.2,466.8 643.2,466.8 643.2,466.8 643.2,466.8 643.2,466.8 643.2,466.8 643.2,466.8 643.2,466.8 643.2,466.8 643.2,466.8 643.2,466.8 643.2,466.8 643.2,466.8 643.2,466.8 643.2,466.8 643.2,466.8 643.2,466.8 643.2,466.8 643.2,466.9 643.2,466.9 643.2,466.9 643.2,466.9 643.2,466.9 643.2,466.9 643.2,466.9 643.2,466.9 643.2,466.9 643.2,466.9 643.2,466.9 643.2,466.9 643.2,466.9 643.2,466.9 643.2,466.9 643.2,466.9 643.2,466.9 643.2,466.9 643.2,466.9 643.2,466.9 643.2,466.9 643.2,466.9 643.2,466.9 643.2,466.9 643.2,466.9 643.2,466.9 643.2,467.0 643.2,467.0 643.2,467.0 643.2,467.0 643.2,467.0 643.2,467.0 643.2,467.0 643.2,467.0 643.2,467.0 643.2,467.0 643.2,467.0 643.2,467.0 643.2,467.0 643.2,467.0 643.2,467.0 643.2,467.0 643.2,467.0 643.2,467.0 643.2,467.0 643.2,467.0 643.2,467.0 643.2,467.0 643.2,467.0 643.2,467.0 643.2,467.0 643.2,467.0 643.2,467.0 643.2,467.1 643.2,467.1 643.2,467.1 643.2,467.1 643.2,467.1 643.2,467.1 643.2,467.1 643.2,467.1 643.2,467.1 643.2,467.1 643.2,467.1 643.2,467.1 643.2,467.1 643.2,467.1 643.2,467.1 643.2,467.1 643.2,467.1 643.2,467.1 643.2,467.1 643.2,467.1 643.2,467.1 643.2,467.1 643.2,467.1 643.2,467.1 643.2,467.1 643.2,467.1 643.2,467.1 643.2,467.1 643.2,467.2 643.2,467.2 643.2,467.2 643.2,467.2 643.2,467.2 643.2,467.2 643.2,467.2 643.2,467.2 643.2,467.2 643.2,467.2 643.2,467.2 643.2,467.2 643.2,467.2 643.2,467.2 643.2,467.2 643.2,467.2 643.2,467.2 643.2,467.2 643.2,467.2 643.2,467.2 643.2,467.2 643.2,467.2 643.2,467.2 643.2,467.2 643.2,467.2 643.2,467.2 643.2,467.2 643.2,467.2 643.2,467.3 643.2,467.3 643.2,467.3 643.2,467.3 643.2,467.3 643.2,467.3 643.2,467.3 643.2,467.3 643.2,467.3 643.2,467.3 643.2,467.3 643.2,467.3 643.2,467.3 643.2,467.3 643.2,467.3 643.2,467.3 643.2,467.3 643.2,467.3 643.2,467.3 643.2,467.3 643.2,467.3 643.2,467.3 643.2,467.3 643.2,467.3 643.2,467.3 643.2,467.3 643.2,467.3 643.2,467.3 643.2,467.3 643.2,467.4 643.2,467.4 643.2,467.4 643.2,467.4 643.2,467.4 643.2,467.4 643.2,467.4 643.2,467.4 643.2,467.4 643.2,467.4 643.2,467.4 643.2,467.4 643.2,467.4 643.2,467.4 643.2,467.4 643.2,467.4 643.2,467.4 643.2,467.4 643.2,467.4 643.2,467.4 643.2,467.4 643.2,467.4 643.2,467.4 643.2,467.4 643.2,467.4 643.2,467.4 643.2,467.4 643.2,467.5 643.2,467.5 643.2,467.5 643.2,467.5 643.2,467.5 643.2,467.5 643.2,467.5 643.2,467.5 643.2,467.5 643.2,467.5 643.2,467.5 643.2,467.5 643.2,467.5 643.2,467.5 643.2,467.5 643.2,467.5 643.2,467.5 643.2,467.5 643.2,467.5 643.2,467.5 643.2,467.5 643.2,467.5 643.2,467.5 643.2,467.5 643.2,467.5 643.2,467.5 643.2,467.5 643.2,467.5 643.2,467.5 643.2,467.5 643.2,467.6 643.2,467.6 643.2,467.6 643.2,467.6 643.2,467.6 643.2,467.6 643.2,467.6 643.2,467.6 643.2,467.6 643.2,467.6 643.2,467.6 643.2,467.6 643.2,467.6 643.2,467.6 643.2,467.6 643.2,467.6 643.2,467.6 643.2,467.6 643.2,467.6 643.2,467.6 643.2,467.6 643.2,467.6 643.2,467.6 643.2,467.6 643.2,467.6 643.2,467.6 643.2,467.6 643.2,467.6 643.2,467.6 643.2,467.6 643.2,467.7 643.2,467.7 643.2,467.7 643.2,467.7 643.2,467.7 643.2,467.7 643.2,467.7 643.2,467.7 643.2,467.7 643.2,467.7 643.2,467.7 643.2,467.7 643.2,467.7 643.2,467.7 643.2,467.7 643.2,467.7 643.2,467.7 643.2,467.7 643.2,467.7 643.2,467.7 643.2,467.7 643.2,467.7 643.2,467.7 643.2,467.7 643.2,467.7 643.2,467.7 643.2,467.7 643.2,467.7 643.2,467.7 643.2,467.7 643.2,467.8 643.2,467.8 643.2,467.8 643.2,467.8 643.2,467.8 643.2,467.8 643.2,467.8 643.2,467.8 643.2,467.8 643.2,467.8 643.2,467.8 643.2,467.8 643.2,467.8 643.2,467.8 643.2,467.8 643.2,467.8 643.2,467.8 643.2,467.8 643.2,467.8 643.2,467.8 643.2,467.8 643.2,467.8 643.2,467.8 643.2,467.8 643.2,467.8 643.2,467.8 643.2,467.8 643.2,467.8 643.2,467.8 643.2,467.8 643.2,467.8 643.2,467.9 643.2,467.9 643.2,467.9 643.2,467.9 643.2,467.9 643.2,467.9 643.2,467.9 643.2,467.9 643.2,467.9 643.2,467.9 643.2,467.9 643.2,467.9 643.2,467.9 643.2,467.9 643.2,467.9 643.2,467.9 643.2,467.9 643.2,467.9 643.2,467.9 643.2,467.9 643.2,467.9 643.2,467.9 643.2,467.9 643.2,467.9 643.2,467.9 643.2,467.9 643.2,467.9 643.2,467.9 643.2,467.9 643.2,467.9 643.2,467.9 643.2,468.0 643.2,468.0 643.2,468.0 643.2,468.0 643.2,468.0 643.2,468.0 643.2,468.0 643.2,468.0 643.2,468.0 643.2,468.0 643.2,468.0 643.2,468.0 643.2,468.0 643.2,468.0 643.2,468.0 643.2,468.0 643.2,468.0 643.2,468.0 643.2,468.0 643.2,468.0 643.2,468.0 643.2,468.0 643.2,468.0 643.2,468.0 643.2,468.0 643.2,468.0 643.2,468.0 643.2,468.0 643.2,468.0 643.2,468.0 643.2,468.0 643.2,468.0 643.2,468.1 643.2,468.1 643.2,468.1 643.2,468.1 643.2,468.1 643.2,468.1 643.2,468.1 643.2,468.1 643.2,468.1 643.2,468.1 643.2,468.1 643.2,468.1 643.2,468.1 643.2,468.1 643.2,468.1 643.2,468.1 643.2,468.1 643.2,468.1 643.2,468.1 643.2,468.1 643.2,468.1 643.2,468.1 643.2,468.1 643.2,468.1 643.2,468.1 643.2,468.1 643.2,468.1 643.2,468.1 643.2,468.1 643.2,468.1 643.2,468.1 643.2,468.1 643.2,468.1 643.2,468.2 643.2,468.2 643.2,468.2 643.2,468.2 643.2,468.2 643.2,468.2 643.2,468.2 643.2,468.2 643.2,468.2 643.2,468.2 643.2,468.2 643.2,468.2 643.2,468.2 643.2,468.2 643.2,468.2 643.2,468.2 643.2,468.2 643.2,468.2 643.2,468.2 643.2,468.2 643.2,468.2 643.2,468.2 643.2,468.2 643.2,468.2 643.2,468.2 643.2,468.2 643.2,468.2 643.2,468.2 643.2,468.2 643.2,468.2 643.2,468.2 643.2,468.2 643.2,468.2 643.2,468.3 643.2,468.3 643.2,468.3 643.2,468.3 643.2,468.3 643.2,468.3 643.2,468.3 643.2,468.3 643.2,468.3 643.2,468.3 643.2,468.3 643.2,468.3 643.2,468.3 643.2,468.3 643.2,468.3 643.2,468.3 643.2,468.3 643.2,468.3 643.2,468.3 643.2,468.3 643.2,468.3 643.2,468.3 643.2,468.3 643.2,468.3 643.2,468.3 643.2,468.3 643.2,468.3 643.2,468.3 643.2,468.3 643.2,468.3 643.2,468.3 643.2,468.3 643.2,468.3 643.2,468.4 643.2,468.4 643.2,468.4 643.2,468.4 643.2,468.4 643.2,468.4 643.2,468.4 643.2,468.4 643.2,468.4 643.2,468.4 643.2,468.4 643.2,468.4 643.2,468.4 643.2,468.4 643.2,468.4 643.2,468.4 643.2,468.4 643.2,468.4 643.2,468.4 643.2,468.4 643.2,468.4 643.2,468.4 643.2,468.4 643.2,468.4 643.2,468.4 643.2,468.4 643.2,468.4 643.2,468.4 643.2,468.4 643.2,468.4 643.2,468.4 643.2,468.4 643.2,468.4 643.2,468.4 643.2,468.5 643.2,468.5 643.2,468.5 643.2,468.5 643.2,468.5 643.2,468.5 643.2,468.5 643.2,468.5 643.2,468.5 643.2,468.5 643.2,468.5 643.2,468.5 643.2,468.5 643.2,468.5 643.2,468.5 643.2,468.5 643.2,468.5 643.2,468.5 643.2,468.5 643.2,468.5 643.2,468.5 643.2,468.5 643.2,468.5 643.2,468.5 643.2,468.5 643.2,468.5 643.2,468.5 643.2,468.5 643.2,468.5 643.2,468.5 643.2,468.5 643.2,468.5 643.2,468.5 643.2,468.5 643.2,468.5 643.2,468.6 643.2,468.6 643.2,468.6 643.2,468.6 643.2,468.6 643.2,468.6 643.2,468.6 643.2,468.6 643.2,468.6 643.2,468.6 643.2,468.6 643.2,468.6 643.2,468.6 643.2,468.6 643.2,468.6 643.2,468.6 643.2,468.6 643.2,468.6 643.2,468.6 643.2,468.6 643.2,468.6 643.2,468.6 643.2,468.6 643.2,468.6 643.2,468.6 643.2,468.6 643.2,468.6 643.2,468.6 643.2,468.6 643.2,468.6 643.2,468.6 643.2,468.6 643.2,468.6 643.2,468.6 643.2,468.6 643.2,468.7 643.2,468.7 643.2,468.7 643.2,468.7 643.2,468.7 643.2,468.7 643.2,468.7 643.2,468.7 643.2,468.7 643.2,468.7 643.2,468.7 643.2,468.7 643.2,468.7 643.2,468.7 643.2,468.7 643.2,468.7 643.2,468.7 643.2,468.7 643.2,468.7 643.2,468.7 643.2,468.7 643.2,468.7 643.2,468.7 643.2,468.7 643.2,468.7 643.2,468.7 643.2,468.7 643.2,468.7 643.2,468.7 643.2,468.7 643.2,468.7 643.2,468.7 643.2,468.7 643.2,468.7 643.2,468.7 643.2,468.7 643.2,468.8 643.2,468.8 643.2,468.8 643.2,468.8 643.2,468.8 643.2,468.8 643.2,468.8 643.2,468.8 643.2,468.8 643.2,468.8 643.2,468.8 643.2,468.8 643.2,468.8 643.2,468.8 643.2,468.8 643.2,468.8 643.2,468.8 643.2,468.8 643.2,468.8 643.2,468.8 643.2,468.8 643.2,468.8 643.2,468.8 643.2,468.8 643.2,468.8 643.2,468.8 643.2,468.8 643.2,468.8 643.2,468.8 643.2,468.8 643.2,468.8 643.2,468.8 643.2,468.8 643.2,468.8 643.2,468.8 643.2,468.8 643.2,468.8 643.2,468.9 643.2,468.9 643.2,468.9 643.2,468.9 643.2,468.9 643.2,468.9 643.2,468.9 643.2,468.9 643.2,468.9 643.2,468.9 643.2,468.9 643.2,468.9 643.2,468.9 643.2,468.9 643.2,468.9 643.2,468.9 643.2,468.9 643.2,468.9 643.2,468.9 643.2,468.9 643.2,468.9 643.2,468.9 643.2,468.9 643.2,468.9 643.2,468.9 643.2,468.9 643.2,468.9 643.2,468.9 643.2,468.9 643.2,468.9 643.2,468.9 643.2,468.9 643.2,468.9 643.2,468.9 643.2,468.9 643.2,468.9 643.2,468.9 643.2,469.0 643.2,469.0 643.2,469.0 643.2,469.0 643.2,469.0 643.2,469.0 643.2,469.0 643.2,469.0 643.2,469.0 648.2,468.9 648.2,468.9 648.2,468.9 648.2,468.9 648.2,468.9 648.2,468.9 648.2,468.9 648.2,468.9 648.2,468.9 648.2,468.9 648.2,468.9 648.2,468.9 648.2,468.9 648.2,468.9 648.2,468.9 648.2,468.9 648.2,468.9 648.2,468.9 648.2,468.9 648.2,468.9 648.2,468.9 648.2,468.9 648.2,468.9 648.2,468.9 648.2,468.9 648.2,468.9 648.2,468.9 648.2,468.9 648.2,469.0 648.2,469.0 648.2,469.0 648.2,469.0 648.2,469.0 648.2,469.0 648.2,469.0 648.2,469.0 648.2,469.0 648.2,469.0 648.2,469.0 648.2,469.0 648.2,469.0 648.2,469.0 648.2,469.0 648.2,469.0 648.2,469.0 648.2,469.0 648.2,469.0 648.2,469.0 648.2,469.0 648.2,469.0 648.2,469.0 648.2,469.0 648.2,469.0 648.2,469.0 648.2,469.0 648.2,469.0 648.2,469.0 648.2,469.0 648.2,469.0 648.2,469.0 648.2,469.0 648.2,469.0 648.2,469.0 648.2,469.0 648.2,469.0 648.2,469.0 648.2,469.0 648.2,469.1 648.2,469.1 648.2,469.1 648.2,469.1 648.2,469.1 648.2,469.1 648.2,469.1 648.2,469.1 648.2,469.1 648.2,469.1 648.2,469.1 648.2,469.1 648.2,469.1 648.2,469.1 648.2,469.1 648.2,469.1 648.2,469.1 648.2,469.1 648.2,469.1 648.2,469.1 648.2,469.1 648.2,469.1 648.2,469.1 648.2,469.1 648.2,469.1 648.2,469.1 648.2,469.1 648.2,469.1 648.2,469.1 648.2,469.1 648.2,469.1 648.2,469.1 648.2,469.1 648.2,469.1 648.2,469.1 648.2,469.1 648.2,469.1 648.2,469.1 648.2,469.1 648.2,469.2 648.2,469.2 648.2,469.2 648.2,469.2 648.2,469.2 648.2,469.2 648.2,469.2 648.2,469.2 648.2,469.2 648.2,469.2 648.2,469.2 648.2,469.2 648.2,469.2 648.2,469.2 648.2,469.2 648.2,469.2 648.2,469.2 648.2,469.2 648.2,469.2 648.2,469.2 648.2,469.2 648.2,469.2 648.2,469.2 648.2,469.2 648.2,469.2 648.2,469.2 648.2,469.2 648.2,469.2 648.2,469.2 648.2,469.2 648.2,469.2 648.2,469.2 648.2,469.2 648.2,469.2 648.2,469.2 648.2,469.2 648.2,469.2 648.2,469.2 648.2,469.2 648.2,469.3 648.2,469.3 648.2,469.3 648.2,469.3 648.2,469.3 648.2,469.3 648.2,469.3 648.2,469.3 648.2,469.3 648.2,469.3 648.2,469.3 648.2,469.3 648.2,469.3 648.2,469.3 648.2,469.3 648.2,469.3 648.2,469.3 648.2,469.3 648.2,469.3 648.2,469.3 648.2,469.3 648.2,469.3 648.2,469.3 648.2,469.3 648.2,469.3 648.2,469.3 648.2,469.3 648.2,469.3 653.1,469.2 653.1,469.2 653.1,469.2 653.1,469.2 653.1,469.2 653.1,469.2 653.1,469.2 653.1,469.2 653.1,469.2 653.1,469.2 653.1,469.3 653.1,469.3 653.1,469.3 653.1,469.3 653.1,469.3 653.1,469.3 653.1,469.3 653.1,469.3 653.1,469.3 653.1,469.3 653.1,469.3 653.1,469.3 653.1,469.3 653.1,469.3 653.1,469.3 653.1,469.3 653.1,469.3 653.1,469.3 653.1,469.3 653.1,469.3 653.1,469.3 653.1,469.3 653.1,469.3 653.1,469.3 653.1,469.3 653.1,469.3 653.1,469.3 653.1,469.3 653.1,469.3 653.1,469.3 653.1,469.3 653.1,469.3 653.1,469.3 653.1,469.3 653.1,469.3 653.1,469.3 653.1,469.3 653.1,469.3 653.1,469.3 653.1,469.3 653.1,469.4 653.1,469.4 653.1,469.4 653.1,469.4 653.1,469.4 653.1,469.4 653.1,469.4 653.1,469.4 653.1,469.4 653.1,469.4 653.1,469.4 653.1,469.4 653.1,469.4 653.1,469.4 653.1,469.4 653.1,469.4 653.1,469.4 653.1,469.4 653.1,469.4 653.1,469.4 653.1,469.4 653.1,469.4 653.1,469.4 653.1,469.4 653.1,469.4 653.1,469.4 653.1,469.4 653.1,469.4 653.1,469.4 653.1,469.4 653.1,469.4 653.1,469.4 653.1,469.4 653.1,469.4 653.1,469.4 653.1,469.4 653.1,469.4 653.1,469.4 653.1,469.4 653.1,469.4 653.1,469.4 653.1,469.4 653.1,469.5 653.1,469.5 653.1,469.5 653.1,469.5 653.1,469.5 653.1,469.5 653.1,469.5 653.1,469.5 653.1,469.5 653.1,469.5 653.1,469.5 653.1,469.5 653.1,469.5 653.1,469.5 653.1,469.5 653.1,469.5 653.1,469.5 653.1,469.5 653.1,469.5 653.1,469.5 653.1,469.5 653.1,469.5 653.1,469.5 653.1,469.5 653.1,469.5 653.1,469.5 653.1,469.5 653.1,469.5 653.1,469.5 653.1,469.5 653.1,469.5 653.1,469.5 653.1,469.5 653.1,469.5 653.1,469.5 653.1,469.5 653.1,469.5 653.1,469.5 653.1,469.5 653.1,469.5 653.1,469.5 653.1,469.5 653.1,469.6 653.1,469.6 653.1,469.6 653.1,469.6 653.1,469.6 653.1,469.6 653.1,469.6 653.1,469.6 653.1,469.6 653.1,469.6 653.1,469.6 653.1,469.6 653.1,469.6 653.1,469.6 653.1,469.6 653.1,469.6 653.1,469.6 653.1,469.6 653.1,469.6 653.1,469.6 653.1,469.6 653.1,469.6 653.1,469.6 653.1,469.6 653.1,469.6 653.1,469.6 653.1,469.6 653.1,469.6 653.1,469.6 653.1,469.6 653.1,469.6 653.1,469.6 653.1,469.6 653.1,469.6 653.1,469.6 653.1,469.6 653.1,469.6 653.1,469.6 653.1,469.6 653.1,469.6 653.1,469.6 653.1,469.6 653.1,469.6 653.1,469.7 653.1,469.7 653.1,469.7 653.1,469.7 653.1,469.7 653.1,469.7 653.1,469.7 653.1,469.7 653.1,469.7 653.1,469.7 653.1,469.7 653.1,469.7 653.1,469.7 653.1,469.7 653.1,469.7 653.1,469.7 653.1,469.7 653.1,469.7 653.1,469.7 653.1,469.7 653.1,469.7 653.1,469.7 653.1,469.7 653.1,469.7 653.1,469.7 653.1,469.7 653.1,469.7 653.1,469.7 653.1,469.7 653.1,469.7 653.1,469.7 653.1,469.7 653.1,469.7 653.1,469.7 653.1,469.7 653.1,469.7 653.1,469.7 653.1,469.7 653.1,469.7 653.1,469.7 653.1,469.7 653.1,469.7 653.1,469.7 653.1,469.7 653.1,469.8 653.1,469.8 653.1,469.8 653.1,469.8 653.1,469.8 653.1,469.8 653.1,469.8 653.1,469.8 653.1,469.8 653.1,469.8 653.1,469.8 653.1,469.8 653.1,469.8 653.1,469.8 653.1,469.8 653.1,469.8 653.1,469.8 653.1,469.8 653.1,469.8 653.1,469.8 653.1,469.8 653.1,469.8 653.1,469.8 653.1,469.8 653.1,469.8 653.1,469.8 653.1,469.8 653.1,469.8 653.1,469.8 653.1,469.8 653.1,469.8 653.1,469.8 653.1,469.8 653.1,469.8 653.1,469.8 653.1,469.8 653.1,469.8 653.1,469.8 653.1,469.8 653.1,469.8 653.1,469.8 653.1,469.8 653.1,469.8 653.1,469.8 653.1,469.8 653.1,469.9 653.1,469.9 653.1,469.9 653.1,469.9 653.1,469.9 658.1,469.8 658.1,469.8 658.1,469.8 658.1,469.8 658.1,469.8 658.1,469.8 658.1,469.8 658.1,469.8 658.1,469.8 658.1,469.8 658.1,469.8 658.1,469.8 658.1,469.8 658.1,469.8 658.1,469.8 658.1,469.8 658.1,469.8 658.1,469.8 658.1,469.8 658.1,469.8 658.1,469.8 658.1,469.8 658.1,469.8 658.1,469.8 658.1,469.8 658.1,469.8 658.1,469.8 658.1,469.8 658.1,469.8 658.1,469.8 658.1,469.8 658.1,469.8 658.1,469.8 658.1,469.8 658.1,469.9 658.1,469.9 658.1,469.9 658.1,469.9 658.1,469.9 658.1,469.9 658.1,469.9 658.1,469.9 658.1,469.9 658.1,469.9 658.1,469.9 658.1,469.9 658.1,469.9 658.1,469.9 658.1,469.9 658.1,469.9 658.1,469.9 658.1,469.9 658.1,469.9 658.1,469.9 658.1,469.9 658.1,469.9 658.1,469.9 658.1,469.9 658.1,469.9 658.1,469.9 658.1,469.9 658.1,469.9 658.1,469.9 658.1,469.9 658.1,469.9 658.1,469.9 658.1,469.9 658.1,469.9 658.1,469.9 658.1,469.9 658.1,469.9 658.1,469.9 658.1,469.9 658.1,469.9 658.1,469.9 658.1,469.9 658.1,469.9 658.1,469.9 658.1,469.9 658.1,470.0 658.1,470.0 658.1,470.0 658.1,470.0 658.1,470.0 658.1,470.0 658.1,470.0 658.1,470.0 658.1,470.0 658.1,470.0 658.1,470.0 658.1,470.0 658.1,470.0 658.1,470.0 658.1,470.0 658.1,470.0 658.1,470.0 658.1,470.0 658.1,470.0 658.1,470.0 658.1,470.0 658.1,470.0 658.1,470.0 658.1,470.0 658.1,470.0 658.1,470.0 658.1,470.0 658.1,470.0 658.1,470.0 658.1,470.0 658.1,470.0 658.1,470.0 658.1,470.0 658.1,470.0 658.1,470.0 658.1,470.0 658.1,470.0 658.1,470.0 658.1,470.0 658.1,470.0 658.1,470.0 658.1,470.0 658.1,470.0 658.1,470.0 658.1,470.0 658.1,470.0 658.1,470.0 658.1,470.1 658.1,470.1 658.1,470.1 658.1,470.1 658.1,470.1 658.1,470.1 658.1,470.1 658.1,470.1 658.1,470.1 658.1,470.1 658.1,470.1 658.1,470.1 658.1,470.1 658.1,470.1 658.1,470.1 658.1,470.1 658.1,470.1 658.1,470.1 658.1,470.1 658.1,470.1 658.1,470.1 658.1,470.1 658.1,470.1 658.1,470.1 658.1,470.1 658.1,470.1 658.1,470.1 658.1,470.1 658.1,470.1 658.1,470.1 658.1,470.1 658.1,470.1 658.1,470.1 658.1,470.1 658.1,470.1 658.1,470.1 658.1,470.1 658.1,470.1 658.1,470.1 658.1,470.1 658.1,470.1 658.1,470.1 658.1,470.1 658.1,470.1 658.1,470.1 658.1,470.1 658.1,470.1 658.1,470.1 658.1,470.2 658.1,470.2 658.1,470.2 658.1,470.2 658.1,470.2 658.1,470.2 658.1,470.2 658.1,470.2 658.1,470.2 658.1,470.2 658.1,470.2 658.1,470.2 658.1,470.2 658.1,470.2 658.1,470.2 658.1,470.2 658.1,470.2 658.1,470.2 658.1,470.2 658.1,470.2 658.1,470.2 658.1,470.2 658.1,470.2 658.1,470.2 658.1,470.2 658.1,470.2 658.1,470.2 658.1,470.2 658.1,470.2 658.1,470.2 658.1,470.2 658.1,470.2 658.1,470.2 658.1,470.2 658.1,470.2 658.1,470.2 658.1,470.2 658.1,470.2 658.1,470.2 658.1,470.2 658.1,470.2 658.1,470.2 658.1,470.2 658.1,470.2 658.1,470.2 658.1,470.2 658.1,470.2 658.1,470.2 658.1,470.3 658.1,470.3 658.1,470.3 658.1,470.3 658.1,470.3 658.1,470.3 658.1,470.3 658.1,470.3 658.1,470.3 658.1,470.3 658.1,470.3 658.1,470.3 658.1,470.3 658.1,470.3 658.1,470.3 658.1,470.3 658.1,470.3 658.1,470.3 658.1,470.3 658.1,470.3 658.1,470.3 658.1,470.3 658.1,470.3 658.1,470.3 658.1,470.3 658.1,470.3 658.1,470.3 658.1,470.3 658.1,470.3 658.1,470.3 658.1,470.3 658.1,470.3 658.1,470.3 658.1,470.3 658.1,470.3 658.1,470.3 658.1,470.3 658.1,470.3 658.1,470.3 658.1,470.3 658.1,470.3 658.1,470.3 658.1,470.3 658.1,470.3 658.1,470.3 658.1,470.3 658.1,470.3 658.1,470.3 658.1,470.3 658.1,470.3 658.1,470.3 658.1,470.4 658.1,470.4 658.1,470.4 658.1,470.4 658.1,470.4 658.1,470.4 658.1,470.4 658.1,470.4 658.1,470.4 658.1,470.4 658.1,470.4 658.1,470.4 658.1,470.4 658.1,470.4 658.1,470.4 658.1,470.4 658.1,470.4 658.1,470.4 658.1,470.4 658.1,470.4 658.1,470.4 658.1,470.4 658.1,470.4 658.1,470.4 658.1,470.4 658.1,470.4 658.1,470.4 658.1,470.4 658.1,470.4 658.1,470.4 658.1,470.4 658.1,470.4 658.1,470.4 658.1,470.4 658.1,470.4 658.1,470.4 658.1,470.4 658.1,470.4 658.1,470.4 658.1,470.4 658.1,470.4 658.1,470.4 658.1,470.4 658.1,470.4 658.1,470.4 658.1,470.4 658.1,470.4 658.1,470.4 658.1,470.4 658.1,470.4 658.1,470.5 658.1,470.5 658.1,470.5 658.1,470.5 658.1,470.5 658.1,470.5 658.1,470.5 658.1,470.5 658.1,470.5 658.1,470.5 658.1,470.5 658.1,470.5 658.1,470.5 658.1,470.5 658.1,470.5 658.1,470.5 658.1,470.5 658.1,470.5 658.1,470.5 658.1,470.5 658.1,470.5 658.1,470.5 658.1,470.5 658.1,470.5 658.1,470.5 658.1,470.5 658.1,470.5 658.1,470.5 658.1,470.5 658.1,470.5 658.1,470.5 658.1,470.5 658.1,470.5 658.1,470.5 658.1,470.5 658.1,470.5 658.1,470.5 658.1,470.5 658.1,470.5 658.1,470.5 658.1,470.5 658.1,470.5 658.1,470.5 658.1,470.5 658.1,470.5 658.1,470.5 658.1,470.5 658.1,470.5 658.1,470.5 658.1,470.5 658.1,470.5 658.1,470.5 658.1,470.6 658.1,470.6 658.1,470.6 658.1,470.6 658.1,470.6 658.1,470.6 658.1,470.6 658.1,470.6 658.1,470.6 658.1,470.6 658.1,470.6 658.1,470.6 658.1,470.6 658.1,470.6 658.1,470.6 658.1,470.6 658.1,470.6 658.1,470.6 658.1,470.6 658.1,470.6 658.1,470.6 658.1,470.6 658.1,470.6 658.1,470.6 658.1,470.6 658.1,470.6 658.1,470.6 658.1,470.6 658.1,470.6 658.1,470.6 658.1,470.6 658.1,470.6 658.1,470.6 658.1,470.6 658.1,470.6 658.1,470.6 658.1,470.6 658.1,470.6 658.1,470.6 658.1,470.6 658.1,470.6 658.1,470.6 658.1,470.6 658.1,470.6 658.1,470.6 658.1,470.6 658.1,470.6 658.1,470.6 658.1,470.6 658.1,470.6 658.1,470.6 658.1,470.6 658.1,470.6 658.1,470.7 658.1,470.7 658.1,470.7 658.1,470.7 658.1,470.7 658.1,470.7 658.1,470.7 658.1,470.7 658.1,470.7 658.1,470.7 658.1,470.7 658.1,470.7 658.1,470.7 658.1,470.7 658.1,470.7 658.1,470.7 658.1,470.7 658.1,470.7 658.1,470.7 658.1,470.7 658.1,470.7 658.1,470.7 658.1,470.7 658.1,470.7 658.1,470.7 658.1,470.7 658.1,470.7 658.1,470.7 658.1,470.7 658.1,470.7 658.1,470.7 658.1,470.7 658.1,470.7 658.1,470.7 658.1,470.7 658.1,470.7 658.1,470.7 658.1,470.7 658.1,470.7 658.1,470.7 658.1,470.7 658.1,470.7 658.1,470.7 658.1,470.7 658.1,470.7 658.1,470.7 658.1,470.7 658.1,470.7 658.1,470.7 658.1,470.7 658.1,470.7 658.1,470.7 658.1,470.7 658.1,470.7 658.1,470.7 658.1,470.8 658.1,470.8 658.1,470.8 658.1,470.8 658.1,470.8 658.1,470.8 658.1,470.8 658.1,470.8 658.1,470.8 658.1,470.8 658.1,470.8 658.1,470.8 658.1,470.8 658.1,470.8 658.1,470.8 658.1,470.8 658.1,470.8 658.1,470.8 658.1,470.8 658.1,470.8 658.1,470.8 658.1,470.8 658.1,470.8 658.1,470.8 658.1,470.8 658.1,470.8 658.1,470.8 658.1,470.8 658.1,470.8 658.1,470.8 658.1,470.8 658.1,470.8 658.1,470.8 658.1,470.8 658.1,470.8 658.1,470.8 658.1,470.8 658.1,470.8 658.1,470.8 658.1,470.8 658.1,470.8 658.1,470.8 658.1,470.8 658.1,470.8 658.1,470.8 658.1,470.8 658.1,470.8 658.1,470.8 658.1,470.8 658.1,470.8 658.1,470.8 658.1,470.8 658.1,470.8 658.1,470.8 658.1,470.8 658.1,470.8 658.1,470.9 658.1,470.9 658.1,470.9 658.1,470.9 658.1,470.9 658.1,470.9 658.1,470.9 658.1,470.9 658.1,470.9 658.1,470.9 658.1,470.9 658.1,470.9 658.1,470.9 658.1,470.9 658.1,470.9 658.1,470.9 658.1,470.9 658.1,470.9 658.1,470.9 658.1,470.9 658.1,470.9 658.1,470.9 658.1,470.9 658.1,470.9 658.1,470.9 658.1,470.9 658.1,470.9 658.1,470.9 658.1,470.9 658.1,470.9 658.1,470.9 658.1,470.9 658.1,470.9 658.1,470.9 658.1,470.9 658.1,470.9 658.1,470.9 658.1,470.9 658.1,470.9 658.1,470.9 658.1,470.9 658.1,470.9 658.1,470.9 658.1,470.9 658.1,470.9 658.1,470.9 658.1,470.9 658.1,470.9 658.1,470.9 658.1,470.9 658.1,470.9 658.1,470.9 658.1,470.9 658.1,470.9 658.1,470.9 658.1,471.0 658.1,471.0 658.1,471.0 658.1,471.0 658.1,471.0 658.1,471.0 658.1,471.0 658.1,471.0 658.1,471.0 658.1,471.0 658.1,471.0 658.1,471.0 658.1,471.0 658.1,471.0 658.1,471.0 658.1,471.0 658.1,471.0 658.1,471.0 658.1,471.0 658.1,471.0 658.1,471.0 658.1,471.0 658.1,471.0 658.1,471.0 658.1,471.0 658.1,471.0 658.1,471.0 658.1,471.0 658.1,471.0 658.1,471.0 658.1,471.0 658.1,471.0 658.1,471.0 658.1,471.0 658.1,471.0 658.1,471.0 658.1,471.0 658.1,471.0 658.1,471.0 658.1,471.0 658.1,471.0 658.1,471.0 658.1,471.0 658.1,471.0 658.1,471.0 658.1,471.0 658.1,471.0 658.1,471.0 658.1,471.0 658.1,471.0 658.1,471.0 658.1,471.0 658.1,471.0 658.1,471.0 658.1,471.0 658.1,471.0 658.1,471.0 658.1,471.0 658.1,471.0 658.1,471.1 658.1,471.1 658.1,471.1 658.1,471.1 658.1,471.1 658.1,471.1 658.1,471.1 658.1,471.1 658.1,471.1 658.1,471.1 658.1,471.1 658.1,471.1 658.1,471.1 658.1,471.1 658.1,471.1 658.1,471.1 658.1,471.1 658.1,471.1 658.1,471.1 658.1,471.1 658.1,471.1 658.1,471.1 658.1,471.1 658.1,471.1 658.1,471.1 658.1,471.1 658.1,471.1 658.1,471.1 658.1,471.1 658.1,471.1 658.1,471.1 658.1,471.1 658.1,471.1 658.1,471.1 658.1,471.1 658.1,471.1 658.1,471.1 658.1,471.1 658.1,471.1 658.1,471.1 658.1,471.1 658.1,471.1 658.1,471.1 658.1,471.1 658.1,471.1 658.1,471.1 658.1,471.1 658.1,471.1 658.1,471.1 658.1,471.1 658.1,471.1 658.1,471.1 658.1,471.1 658.1,471.1 658.1,471.1 658.1,471.1 658.1,471.1 658.1,471.1 658.1,471.1 658.1,471.2 658.1,471.2 658.1,471.2 658.1,471.2 658.1,471.2 658.1,471.2 658.1,471.2 658.1,471.2 658.1,471.2 658.1,471.2 658.1,471.2 663.0,471.1 663.0,471.1 663.0,471.1 663.0,471.1 663.0,471.1 663.0,471.1 663.0,471.1 663.0,471.1 663.0,471.1 663.0,471.1 663.0,471.1 663.0,471.1 663.0,471.1 663.0,471.1 663.0,471.1 663.0,471.1 663.0,471.1 663.0,471.1 663.0,471.1 663.0,471.1 663.0,471.1 663.0,471.1 663.0,471.1 663.0,471.1 663.0,471.1 663.0,471.1 663.0,471.1 663.0,471.1 663.0,471.1 663.0,471.1 663.0,471.1 663.0,471.1 663.0,471.1 663.0,471.1 663.0,471.1 663.0,471.1 663.0,471.2 663.0,471.2 663.0,471.2 663.0,471.2 663.0,471.2 663.0,471.2 663.0,471.2 663.0,471.2 663.0,471.2 663.0,471.2 663.0,471.2 663.0,471.2 663.0,471.2 663.0,471.2 663.0,471.2 663.0,471.2 663.0,471.2 663.0,471.2 663.0,471.2 663.0,471.2 663.0,471.2 663.0,471.2 663.0,471.2 663.0,471.2 663.0,471.2 663.0,471.2 663.0,471.2 663.0,471.2 663.0,471.2 663.0,471.2 663.0,471.2 663.0,471.2 663.0,471.2 663.0,471.2 663.0,471.2 663.0,471.2 663.0,471.2 663.0,471.2 663.0,471.2 663.0,471.2 663.0,471.2 663.0,471.2 663.0,471.2 663.0,471.2 663.0,471.2 663.0,471.2 663.0,471.2 663.0,471.2 663.0,471.2 663.0,471.2 663.0,471.2 663.0,471.2 663.0,471.2 663.0,471.2 663.0,471.2 663.0,471.2 663.0,471.2 663.0,471.2 663.0,471.2 663.0,471.2 663.0,471.2 663.0,471.3 663.0,471.3 663.0,471.3 663.0,471.3 663.0,471.3 663.0,471.3 663.0,471.3 663.0,471.3 663.0,471.3 663.0,471.3 663.0,471.3 663.0,471.3 663.0,471.3 663.0,471.3 663.0,471.3 663.0,471.3 663.0,471.3 663.0,471.3 663.0,471.3 663.0,471.3 663.0,471.3 663.0,471.3 663.0,471.3 663.0,471.3 663.0,471.3 663.0,471.3 663.0,471.3 663.0,471.3 663.0,471.3 663.0,471.3 663.0,471.3 663.0,471.3 663.0,471.3 663.0,471.3 663.0,471.3 663.0,471.3 663.0,471.3 663.0,471.3 663.0,471.3 663.0,471.3 663.0,471.3 663.0,471.3 663.0,471.3 663.0,471.3 663.0,471.3 663.0,471.3 663.0,471.3 663.0,471.3 663.0,471.3 663.0,471.3 663.0,471.3 663.0,471.3 663.0,471.3 663.0,471.3 663.0,471.3 663.0,471.3 663.0,471.3 663.0,471.3 663.0,471.3 663.0,471.3 663.0,471.3 663.0,471.3 663.0,471.3 663.0,471.4 663.0,471.4 663.0,471.4 663.0,471.4 663.0,471.4 663.0,471.4 663.0,471.4 663.0,471.4 663.0,471.4 663.0,471.4 663.0,471.4 663.0,471.4 663.0,471.4 663.0,471.4 663.0,471.4 663.0,471.4 663.0,471.4 663.0,471.4 663.0,471.4 663.0,471.4 663.0,471.4 663.0,471.4 663.0,471.4 663.0,471.4 663.0,471.4 663.0,471.4 663.0,471.4 663.0,471.4 663.0,471.4 663.0,471.4 663.0,471.4 663.0,471.4 663.0,471.4 663.0,471.4 663.0,471.4 663.0,471.4 663.0,471.4 663.0,471.4 663.0,471.4 663.0,471.4 663.0,471.4 663.0,471.4 663.0,471.4 663.0,471.4 663.0,471.4 663.0,471.4 663.0,471.4 663.0,471.4 663.0,471.4 663.0,471.4 663.0,471.4 663.0,471.4 663.0,471.4 663.0,471.4 663.0,471.4 663.0,471.4 663.0,471.4 663.0,471.4 663.0,471.4 663.0,471.4 663.0,471.4 663.0,471.4 663.0,471.4 663.0,471.4 663.0,471.5 663.0,471.5 663.0,471.5 663.0,471.5 663.0,471.5 663.0,471.5 663.0,471.5 663.0,471.5 663.0,471.5 663.0,471.5 663.0,471.5 663.0,471.5 663.0,471.5 663.0,471.5 663.0,471.5 663.0,471.5 663.0,471.5 663.0,471.5 663.0,471.5 663.0,471.5 663.0,471.5 663.0,471.5 663.0,471.5 663.0,471.5 663.0,471.5 663.0,471.5 663.0,471.5 663.0,471.5 663.0,471.5 663.0,471.5 663.0,471.5 663.0,471.5 663.0,471.5 663.0,471.5 663.0,471.5 663.0,471.5 663.0,471.5 663.0,471.5 663.0,471.5 663.0,471.5 663.0,471.5 663.0,471.5 663.0,471.5 663.0,471.5 663.0,471.5 663.0,471.5 663.0,471.5 663.0,471.5 663.0,471.5 663.0,471.5 663.0,471.5 663.0,471.5 663.0,471.5 663.0,471.5 663.0,471.5 663.0,471.5 663.0,471.5 663.0,471.5 663.0,471.5 663.0,471.5 663.0,471.5 663.0,471.5 663.0,471.5 663.0,471.5 663.0,471.5 663.0,471.5 663.0,471.6 663.0,471.6 663.0,471.6 663.0,471.6 663.0,471.6 663.0,471.6 663.0,471.6 663.0,471.6 663.0,471.6 663.0,471.6 663.0,471.6 663.0,471.6 663.0,471.6 663.0,471.6 663.0,471.6 663.0,471.6 663.0,471.6 663.0,471.6 663.0,471.6 663.0,471.6 663.0,471.6 663.0,471.6 663.0,471.6 663.0,471.6 663.0,471.6 663.0,471.6 663.0,471.6 663.0,471.6 663.0,471.6 663.0,471.6 663.0,471.6 663.0,471.6 663.0,471.6 663.0,471.6 663.0,471.6 663.0,471.6 663.0,471.6 663.0,471.6 663.0,471.6 663.0,471.6 663.0,471.6 663.0,471.6 663.0,471.6 663.0,471.6 663.0,471.6 663.0,471.6 663.0,471.6 663.0,471.6 663.0,471.6 663.0,471.6 663.0,471.6 663.0,471.6 663.0,471.6 663.0,471.6 663.0,471.6 663.0,471.6 663.0,471.6 663.0,471.6 663.0,471.6 663.0,471.6 663.0,471.6 663.0,471.6 663.0,471.6 663.0,471.6 663.0,471.6 663.0,471.6 663.0,471.6 663.0,471.7 663.0,471.7 663.0,471.7 663.0,471.7 663.0,471.7 663.0,471.7 663.0,471.7 663.0,471.7 663.0,471.7 663.0,471.7 663.0,471.7 663.0,471.7 663.0,471.7 663.0,471.7 663.0,471.7 663.0,471.7 663.0,471.7 663.0,471.7 663.0,471.7 663.0,471.7 663.0,471.7 663.0,471.7 663.0,471.7 663.0,471.7 663.0,471.7 663.0,471.7 663.0,471.7 663.0,471.7 663.0,471.7 663.0,471.7 663.0,471.7 663.0,471.7 663.0,471.7 663.0,471.7 663.0,471.7 663.0,471.7 663.0,471.7 663.0,471.7 663.0,471.7 663.0,471.7 663.0,471.7 663.0,471.7 663.0,471.7 663.0,471.7 663.0,471.7 663.0,471.7 663.0,471.7 663.0,471.7 663.0,471.7 663.0,471.7 663.0,471.7 663.0,471.7 663.0,471.7 663.0,471.7 663.0,471.7 663.0,471.7 663.0,471.7 663.0,471.7 663.0,471.7 663.0,471.7 663.0,471.7 663.0,471.7 663.0,471.7 663.0,471.7 663.0,471.7 663.0,471.7 663.0,471.7 663.0,471.7 663.0,471.8 663.0,471.8 663.0,471.8 663.0,471.8 663.0,471.8 663.0,471.8 663.0,471.8 663.0,471.8 663.0,471.8 663.0,471.8 663.0,471.8 663.0,471.8 663.0,471.8 663.0,471.8 663.0,471.8 663.0,471.8 663.0,471.8 663.0,471.8 663.0,471.8 663.0,471.8 663.0,471.8 663.0,471.8 663.0,471.8 663.0,471.8 663.0,471.8 663.0,471.8 663.0,471.8 663.0,471.8 663.0,471.8 663.0,471.8 663.0,471.8 663.0,471.8 663.0,471.8 663.0,471.8 663.0,471.8 663.0,471.8 663.0,471.8 663.0,471.8 663.0,471.8 663.0,471.8 663.0,471.8 663.0,471.8 663.0,471.8 663.0,471.8 663.0,471.8 663.0,471.8 663.0,471.8 663.0,471.8 663.0,471.8 663.0,471.8 663.0,471.8 663.0,471.8 663.0,471.8 663.0,471.8 663.0,471.8 663.0,471.8 663.0,471.8 663.0,471.8 663.0,471.8 663.0,471.8 663.0,471.8 663.0,471.8 663.0,471.8 663.0,471.8 663.0,471.8 663.0,471.8 663.0,471.8 663.0,471.8 663.0,471.8 663.0,471.8 663.0,471.8 663.0,471.9 663.0,471.9 663.0,471.9 663.0,471.9 663.0,471.9 663.0,471.9 663.0,471.9 663.0,471.9 663.0,471.9 663.0,471.9 663.0,471.9 663.0,471.9 663.0,471.9 663.0,471.9 663.0,471.9 663.0,471.9 663.0,471.9 663.0,471.9 663.0,471.9 663.0,471.9 663.0,471.9 663.0,471.9 663.0,471.9 663.0,471.9 663.0,471.9 663.0,471.9 663.0,471.9 663.0,471.9 663.0,471.9 663.0,471.9 663.0,471.9 663.0,471.9 663.0,471.9 663.0,471.9 663.0,471.9 663.0,471.9 663.0,471.9 663.0,471.9 663.0,471.9 663.0,471.9 663.0,471.9 663.0,471.9 663.0,471.9 663.0,471.9 663.0,471.9 663.0,471.9 663.0,471.9 663.0,471.9 663.0,471.9 663.0,471.9 663.0,471.9 663.0,471.9 663.0,471.9 663.0,471.9 663.0,471.9 663.0,471.9 663.0,471.9 663.0,471.9 663.0,471.9 663.0,471.9 663.0,471.9 663.0,471.9 663.0,471.9 663.0,471.9 663.0,471.9 663.0,471.9 663.0,471.9 663.0,471.9 663.0,471.9 663.0,471.9 663.0,471.9 663.0,471.9 663.0,472.0 663.0,472.0 663.0,472.0 663.0,472.0 663.0,472.0 663.0,472.0 663.0,472.0 663.0,472.0 663.0,472.0 663.0,472.0 663.0,472.0 663.0,472.0 663.0,472.0 663.0,472.0 663.0,472.0 663.0,472.0 663.0,472.0 663.0,472.0 663.0,472.0 663.0,472.0 663.0,472.0 663.0,472.0 663.0,472.0 663.0,472.0 663.0,472.0 663.0,472.0 663.0,472.0 663.0,472.0 663.0,472.0 663.0,472.0 663.0,472.0 663.0,472.0 663.0,472.0 663.0,472.0 663.0,472.0 663.0,472.0 663.0,472.0 663.0,472.0 663.0,472.0 663.0,472.0 663.0,472.0 663.0,472.0 663.0,472.0 663.0,472.0 663.0,472.0 663.0,472.0 663.0,472.0 663.0,472.0 663.0,472.0 663.0,472.0 663.0,472.0 663.0,472.0 663.0,472.0 663.0,472.0 663.0,472.0 663.0,472.0 663.0,472.0 663.0,472.0 663.0,472.0 663.0,472.0 663.0,472.0 663.0,472.0 663.0,472.0 663.0,472.0 663.0,472.0 663.0,472.0 663.0,472.0 663.0,472.0 663.0,472.0 663.0,472.0 663.0,472.0 663.0,472.0 663.0,472.0 663.0,472.0 663.0,472.1 663.0,472.1 663.0,472.1 663.0,472.1 663.0,472.1 663.0,472.1 663.0,472.1 663.0,472.1 663.0,472.1 663.0,472.1 663.0,472.1 663.0,472.1 663.0,472.1 663.0,472.1 663.0,472.1 663.0,472.1 663.0,472.1 663.0,472.1 663.0,472.1 663.0,472.1 663.0,472.1 663.0,472.1 663.0,472.1 663.0,472.1 663.0,472.1 663.0,472.1 663.0,472.1 663.0,472.1 663.0,472.1 663.0,472.1 663.0,472.1 663.0,472.1 663.0,472.1 663.0,472.1 663.0,472.1 663.0,472.1 663.0,472.1 663.0,472.1 663.0,472.1 663.0,472.1 663.0,472.1 663.0,472.1 663.0,472.1 663.0,472.1 663.0,472.1 663.0,472.1 663.0,472.1 663.0,472.1 663.0,472.1 663.0,472.1 663.0,472.1 663.0,472.1 663.0,472.1 663.0,472.1 663.0,472.1 663.0,472.1 663.0,472.1 663.0,472.1 663.0,472.1 663.0,472.1 663.0,472.1 663.0,472.1 663.0,472.1 663.0,472.1 663.0,472.1 663.0,472.1 663.0,472.1 663.0,472.1 663.0,472.1 663.0,472.1 663.0,472.1 663.0,472.1 663.0,472.1 663.0,472.1 663.0,472.1 663.0,472.1 663.0,472.2 663.0,472.2 663.0,472.2 663.0,472.2 663.0,472.2 663.0,472.2 663.0,472.2 663.0,472.2 663.0,472.2 663.0,472.2 663.0,472.2 663.0,472.2 663.0,472.2 663.0,472.2 663.0,472.2 663.0,472.2 663.0,472.2 663.0,472.2 663.0,472.2 663.0,472.2 663.0,472.2 663.0,472.2 663.0,472.2 663.0,472.2 663.0,472.2 663.0,472.2 663.0,472.2 663.0,472.2 663.0,472.2 663.0,472.2 663.0,472.2 663.0,472.2 663.0,472.2 663.0,472.2 663.0,472.2 663.0,472.2 663.0,472.2 663.0,472.2 663.0,472.2 663.0,472.2 663.0,472.2 663.0,472.2 663.0,472.2 663.0,472.2 668.0,472.1 668.0,472.1 668.0,472.1 668.0,472.1 668.0,472.1 668.0,472.1 668.0,472.1 668.0,472.1 668.0,472.2 668.0,472.2 668.0,472.2 668.0,472.2 668.0,472.2 668.0,472.2 668.0,472.2 668.0,472.2 668.0,472.2 668.0,472.2 668.0,472.2 668.0,472.2 668.0,472.2 668.0,472.2 668.0,472.2 668.0,472.2 668.0,472.2 668.0,472.2 668.0,472.2 668.0,472.2 668.0,472.2 668.0,472.2 668.0,472.2 668.0,472.2 668.0,472.2 668.0,472.2 668.0,472.2 668.0,472.2 668.0,472.2 668.0,472.2 668.0,472.2 668.0,472.2 668.0,472.2 668.0,472.2 668.0,472.2 668.0,472.2 668.0,472.2 668.0,472.2 668.0,472.2 668.0,472.2 668.0,472.2 668.0,472.2 668.0,472.2 668.0,472.2 668.0,472.2 668.0,472.2 668.0,472.2 668.0,472.2 668.0,472.2 668.0,472.2 668.0,472.2 668.0,472.2 668.0,472.2 668.0,472.2 668.0,472.2 668.0,472.2 668.0,472.2 668.0,472.2 668.0,472.2 668.0,472.2 668.0,472.2 668.0,472.2 668.0,472.2 668.0,472.2 668.0,472.2 668.0,472.2 668.0,472.2 668.0,472.2 668.0,472.2 668.0,472.2 668.0,472.2 668.0,472.2 668.0,472.2 668.0,472.2 668.0,472.2 668.0,472.2 668.0,472.2 668.0,472.2 668.0,472.2 668.0,472.3 668.0,472.3 668.0,472.3 668.0,472.3 668.0,472.3 668.0,472.3 668.0,472.3 668.0,472.3 668.0,472.3 668.0,472.3 668.0,472.3 668.0,472.3 668.0,472.3 668.0,472.3 668.0,472.3 668.0,472.3 668.0,472.3 668.0,472.3 668.0,472.3 668.0,472.3 668.0,472.3 668.0,472.3 668.0,472.3 668.0,472.3 668.0,472.3 668.0,472.3 668.0,472.3 668.0,472.3 668.0,472.3 668.0,472.3 668.0,472.3 668.0,472.3 668.0,472.3 668.0,472.3 668.0,472.3 668.0,472.3 668.0,472.3 668.0,472.3 668.0,472.3 668.0,472.3 668.0,472.3 668.0,472.3 668.0,472.3 668.0,472.3 668.0,472.3 668.0,472.3 668.0,472.3 668.0,472.3 668.0,472.3 668.0,472.3 668.0,472.3 668.0,472.3 668.0,472.3 668.0,472.3 668.0,472.3 668.0,472.3 668.0,472.3 668.0,472.3 668.0,472.3 668.0,472.3 668.0,472.3 668.0,472.3 668.0,472.3 668.0,472.3 668.0,472.3 668.0,472.3 668.0,472.3 668.0,472.3 668.0,472.3 668.0,472.3 668.0,472.3 668.0,472.3 668.0,472.3 668.0,472.3 668.0,472.3 668.0,472.3 668.0,472.3 668.0,472.3 668.0,472.3 668.0,472.3 668.0,472.3 668.0,472.4 668.0,472.4 668.0,472.4 668.0,472.4 668.0,472.4 668.0,472.4 668.0,472.4 668.0,472.4 668.0,472.4 668.0,472.4 668.0,472.4 668.0,472.4 668.0,472.4 668.0,472.4 668.0,472.4 668.0,472.4 668.0,472.4 668.0,472.4 668.0,472.4 668.0,472.4 668.0,472.4 668.0,472.4 668.0,472.4 668.0,472.4 668.0,472.4 668.0,472.4 668.0,472.4 668.0,472.4 668.0,472.4 668.0,472.4 668.0,472.4 668.0,472.4 668.0,472.4 668.0,472.4 668.0,472.4 668.0,472.4 668.0,472.4 668.0,472.4 668.0,472.4 668.0,472.4 668.0,472.4 668.0,472.4 668.0,472.4 668.0,472.4 668.0,472.4 668.0,472.4 668.0,472.4 668.0,472.4 668.0,472.4 668.0,472.4 668.0,472.4 668.0,472.4 668.0,472.4 668.0,472.4 668.0,472.4 668.0,472.4 668.0,472.4 668.0,472.4 668.0,472.4 668.0,472.4 668.0,472.4 668.0,472.4 668.0,472.4 668.0,472.4 668.0,472.4 668.0,472.4 668.0,472.4 668.0,472.4 668.0,472.4 668.0,472.4 668.0,472.4 668.0,472.4 668.0,472.4 668.0,472.4 668.0,472.4 668.0,472.4 668.0,472.4 668.0,472.4 668.0,472.4 668.0,472.4 668.0,472.4 668.0,472.4 668.0,472.4 668.0,472.5 668.0,472.5 668.0,472.5 668.0,472.5 668.0,472.5 668.0,472.5 668.0,472.5 668.0,472.5 668.0,472.5 668.0,472.5 668.0,472.5 668.0,472.5 668.0,472.5 668.0,472.5 668.0,472.5 668.0,472.5 668.0,472.5 668.0,472.5 668.0,472.5 668.0,472.5 668.0,472.5 668.0,472.5 668.0,472.5 668.0,472.5 668.0,472.5 668.0,472.5 668.0,472.5 668.0,472.5 668.0,472.5 668.0,472.5 668.0,472.5 668.0,472.5 668.0,472.5 668.0,472.5 668.0,472.5 668.0,472.5 668.0,472.5 668.0,472.5 668.0,472.5 668.0,472.5 668.0,472.5 668.0,472.5 668.0,472.5 668.0,472.5 668.0,472.5 668.0,472.5 668.0,472.5 668.0,472.5 668.0,472.5 668.0,472.5 668.0,472.5 668.0,472.5 668.0,472.5 668.0,472.5 668.0,472.5 668.0,472.5 668.0,472.5 668.0,472.5 668.0,472.5 668.0,472.5 668.0,472.5 668.0,472.5 668.0,472.5 668.0,472.5 668.0,472.5 668.0,472.5 668.0,472.5 668.0,472.5 668.0,472.5 668.0,472.5 668.0,472.5 668.0,472.5 668.0,472.5 668.0,472.5 668.0,472.5 668.0,472.5 668.0,472.5 668.0,472.5 668.0,472.5 668.0,472.5 668.0,472.5 668.0,472.5 668.0,472.5 668.0,472.5 668.0,472.5 668.0,472.6 668.0,472.6 668.0,472.6 668.0,472.6 668.0,472.6 668.0,472.6 668.0,472.6 668.0,472.6 668.0,472.6 668.0,472.6 668.0,472.6 668.0,472.6 668.0,472.6 668.0,472.6 668.0,472.6 668.0,472.6 668.0,472.6 668.0,472.6 668.0,472.6 668.0,472.6 668.0,472.6 668.0,472.6 668.0,472.6 668.0,472.6 668.0,472.6 668.0,472.6 668.0,472.6 668.0,472.6 668.0,472.6 668.0,472.6 668.0,472.6 668.0,472.6 668.0,472.6 668.0,472.6 668.0,472.6 668.0,472.6 668.0,472.6 668.0,472.6 668.0,472.6 668.0,472.6 668.0,472.6 668.0,472.6 668.0,472.6 668.0,472.6 668.0,472.6 668.0,472.6 668.0,472.6 668.0,472.6 668.0,472.6 668.0,472.6 668.0,472.6 668.0,472.6 668.0,472.6 668.0,472.6 668.0,472.6 668.0,472.6 668.0,472.6 668.0,472.6 668.0,472.6 668.0,472.6 668.0,472.6 668.0,472.6 668.0,472.6 668.0,472.6 668.0,472.6 668.0,472.6 668.0,472.6 668.0,472.6 668.0,472.6 668.0,472.6 668.0,472.6 668.0,472.6 668.0,472.6 668.0,472.6 668.0,472.6 668.0,472.6 668.0,472.6 668.0,472.6 668.0,472.6 668.0,472.6 668.0,472.6 668.0,472.6 668.0,472.6 668.0,472.6 668.0,472.6 668.0,472.6 668.0,472.6 668.0,472.7 668.0,472.7 668.0,472.7 668.0,472.7 668.0,472.7 668.0,472.7 668.0,472.7 668.0,472.7 668.0,472.7 668.0,472.7 668.0,472.7 668.0,472.7 668.0,472.7 668.0,472.7 668.0,472.7 668.0,472.7 668.0,472.7 668.0,472.7 668.0,472.7 668.0,472.7 668.0,472.7 668.0,472.7 668.0,472.7 668.0,472.7 668.0,472.7 668.0,472.7 668.0,472.7 668.0,472.7 668.0,472.7 668.0,472.7 668.0,472.7 668.0,472.7 668.0,472.7 668.0,472.7 668.0,472.7 668.0,472.7 668.0,472.7 668.0,472.7 668.0,472.7 668.0,472.7 668.0,472.7 668.0,472.7 668.0,472.7 668.0,472.7 668.0,472.7 668.0,472.7 668.0,472.7 668.0,472.7 668.0,472.7 668.0,472.7 668.0,472.7 668.0,472.7 668.0,472.7 668.0,472.7 668.0,472.7 668.0,472.7 668.0,472.7 668.0,472.7 668.0,472.7 668.0,472.7 668.0,472.7 668.0,472.7 668.0,472.7 668.0,472.7 668.0,472.7 668.0,472.7 668.0,472.7 668.0,472.7 668.0,472.7 668.0,472.7 668.0,472.7 668.0,472.7 668.0,472.7 668.0,472.7 668.0,472.7 668.0,472.7 668.0,472.7 668.0,472.7 668.0,472.7 668.0,472.7 668.0,472.7 668.0,472.7 668.0,472.7 668.0,472.7 668.0,472.7 668.0,472.7 668.0,472.7 668.0,472.7 668.0,472.7 668.0,472.7 668.0,472.8 668.0,472.8 668.0,472.8 668.0,472.8 668.0,472.8 668.0,472.8 668.0,472.8 668.0,472.8 668.0,472.8 668.0,472.8"/>
<text class="label" x="333.0" y="554">Recall</text>
<text class="label" transform="translate(28 320.0) rotate(-90)">Precision</text>
</svg>