<svg xmlns="http://www.w3.org/2000/svg" width="760" height="590" viewBox="0 0 760 590">
<rect width="100%" height="100%" fill="#ffffff"/>
<style>text{font-family:Arial,sans-serif;fill:#111827}.title{font-size:26px;font-weight:700}.subtitle{font-size:16px;fill:#4b5563}.section{font-size:20px;font-weight:700}.panel-title{font-size:19px;font-weight:700}.tick{font-size:13px;fill:#4b5563}.label{font-size:15px}.label-strong{font-size:18px;font-weight:700}.value{font-size:15px;font-weight:700}.metric{font-size:28px;font-weight:700}.metric-label{font-size:14px;fill:#4b5563}.note{font-size:18px;font-weight:700;fill:#991b1b}.grid{stroke:#e5e7eb;stroke-width:1}.axis{stroke:#d1d5db;stroke-width:1}</style>
<text class="title" x="88" y="40">Precision-Recall Curve</text>
<line class="grid" x1="88.0" y1="70" x2="88.0" y2="480"/>
<line class="grid" x1="88" y1="480.0" x2="668" y2="480.0"/>
<text class="tick" x="78.0" y="506">0.0</text>
<text class="tick" x="43" y="485.0">0.0</text>
<line class="grid" x1="204.0" y1="70" x2="204.0" y2="480"/>
<line class="grid" x1="88" y1="398.0" x2="668" y2="398.0"/>
<text class="tick" x="194.0" y="506">0.2</text>
<text class="tick" x="43" y="403.0">0.2</text>
<line class="grid" x1="320.0" y1="70" x2="320.0" y2="480"/>
<line class="grid" x1="88" y1="316.0" x2="668" y2="316.0"/>
<text class="tick" x="310.0" y="506">0.4</text>
<text class="tick" x="43" y="321.0">0.4</text>
<line class="grid" x1="436.0" y1="70" x2="436.0" y2="480"/>
<line class="grid" x1="88" y1="234.0" x2="668" y2="234.0"/>
<text class="tick" x="426.0" y="506">0.6</text>
<text class="tick" x="43" y="239.0">0.6</text>
<line class="grid" x1="552.0" y1="70" x2="552.0" y2="480"/>
<line class="grid" x1="88" y1="152.0" x2="668" y2="152.0"/>
<text class="tick" x="542.0" y="506">0.8</text>
<text class="tick" x="43" y="157.0">0.8</text>
<line class="grid" x1="668.0" y1="70" x2="668.0" y2="480"/>
<line class="grid" x1="88" y1="70.0" x2="668" y2="70.0"/>
<text class="tick" x="658.0" y="506">1.0</text>
<text class="tick" x="43" y="75.0">1.0</text>
<line class="axis" x1="88" y1="480" x2="668" y2="480"/>
<line class="axis" x1="88" y1="70" x2="88" y2="480"/>
<polyline fill="none" stroke="#dc2626" stroke-width="3" points="88.0,480.0 88.0,480.0 93.0,343.3 97.9,275.0 102.9,234.0 102.9,275.0 102.9,304.3 102.9,326.2 107.8,297.8 112.8,275.0 117.7,256.4 117.7,275.0 117.7,290.8 122.7,275.0 122.7,288.7 122.7,300.6 127.7,287.1 127.7,297.8 127.7,307.4 127.7,316.0 127.7,323.8 127.7,330.9 127.7,337.4 127.7,343.3 127.7,348.8 127.7,353.8 132.6,343.3 132.6,348.2 132.6,352.8 132.6,357.0 132.6,361.0 132.6,364.7 132.6,368.2 137.6,359.4 137.6,362.9 137.6,366.1 137.6,369.2 137.6,372.1 137.6,374.9 137.6,377.5 137.6,380.0 137.6,382.4 137.6,384.7 137.6,386.8 137.6,388.9 137.6,390.9 137.6,392.8 137.6,394.6 142.5,388.0 142.5,389.8 142.5,391.6 142.5,393.3 142.5,394.9 142.5,396.5 142.5,398.0 142.5,399.5 142.5,402.2 147.5,396.6 147.5,398.0 152.4,392.6 152.4,394.0 152.4,395.4 152.4,396.7 152.4,398.0 152.4,399.2 152.4,400.4 152.4,401.6 152.4,402.8 152.4,403.9 152.4,404.9 152.4,406.0 152.4,407.0 152.4,408.0 152.4,408.9 152.4,409.9 152.4,410.8 152.4,411.7 152.4,412.5 152.4,413.4 152.4,414.2 152.4,415.0 152.4,415.8 152.4,416.5 152.4,417.3 152.4,418.0 157.4,414.0 157.4,414.8 162.4,410.9 162.4,411.7 162.4,412.4 162.4,413.2 162.4,413.9 162.4,414.6 162.4,415.3 162.4,415.9 162.4,416.6 162.4,417.2 162.4,417.9 167.3,414.4 172.3,411.0 172.3,411.7 172.3,412.3 177.2,409.0 177.2,409.7 177.2,410.4 177.2,411.0 177.2,411.7 177.2,412.3 177.2,412.9 177.2,413.5 177.2,414.1 177.2,414.7 177.2,415.3 177.2,415.8 177.2,416.4 177.2,416.9 177.2,417.5 177.2,418.0 182.2,415.1 182.2,415.6 182.2,416.1 187.1,413.3 187.1,413.9 187.1,414.4 187.1,414.9 187.1,415.4 187.1,415.9 192.1,413.3 192.1,413.8 197.1,411.1 197.1,411.7 202.0,409.1 202.0,409.6 202.0,410.1 207.0,407.6 207.0,408.2 207.0,408.7 211.9,406.3 211.9,406.8 211.9,407.3 211.9,407.8 216.9,405.5 216.9,406.0 216.9,406.5 216.9,407.0 216.9,407.5 216.9,408.0 216.9,408.5 216.9,408.9 216.9,409.4 216.9,409.9 216.9,410.3 216.9,410.8 216.9,411.2 216.9,411.7 216.9,412.1 221.8,409.9 221.8,410.4 221.8,410.8 221.8,411.2 221.8,411.7 221.8,412.1 226.8,410.0 226.8,410.4 231.8,408.4 231.8,408.8 236.7,406.8 236.7,407.2 236.7,407.6 236.7,408.1 236.7,408.5 236.7,408.9 236.7,409.3 236.7,409.7 236.7,410.1 236.7,410.5 236.7,410.9 236.7,411.3 236.7,411.7 236.7,412.0 236.7,412.4 236.7,412.8 236.7,413.2 236.7,413.5 236.7,413.9 236.7,414.2 236.7,414.6 236.7,414.9 236.7,415.3 236.7,415.6 236.7,415.9 236.7,416.3 236.7,416.6 236.7,416.9 236.7,417.2 236.7,417.6 236.7,417.9 236.7,418.2 236.7,418.5 236.7,418.8 236.7,419.1 236.7,419.4 236.7,419.7 236.7,420.0 236.7,420.3 236.7,420.6 236.7,420.9 236.7,421.1 236.7,421.4 236.7,421.7 236.7,422.0 236.7,422.3 241.7,420.6 241.7,420.9 241.7,421.2 246.6,419.5 246.6,419.8 246.6,420.1 246.6,420.4 246.6,420.6 246.6,420.9 246.6,421.2 246.6,421.4 251.6,419.9 251.6,420.1 251.6,420.4 251.6,420.7 251.6,420.9 251.6,421.2 251.6,421.4 251.6,421.7 251.6,421.9 251.6,422.2 251.6,422.4 251.6,422.7 251.6,422.9 251.6,423.2 251.6,423.4 251.6,423.6 251.6,423.9 256.5,422.4 256.5,422.6 256.5,422.9 261.5,421.4 261.5,421.7 266.5,420.2 266.5,420.5 266.5,420.7 271.4,419.3 271.4,419.6 271.4,419.8 271.4,420.0 271.4,420.3 271.4,420.5 271.4,420.7 271.4,421.0 271.4,421.2 271.4,421.4 271.4,421.7 271.4,421.9 271.4,422.1 271.4,422.3 271.4,422.5 271.4,422.8 271.4,423.0 276.4,421.6 276.4,421.9 276.4,422.1 276.4,422.3 276.4,422.5 276.4,422.7 276.4,422.9 276.4,423.1 276.4,423.3 276.4,423.6 276.4,423.8 276.4,424.0 276.4,424.2 276.4,424.4 276.4,424.6 276.4,424.8 276.4,424.9 276.4,425.1 276.4,425.3 276.4,425.5 276.4,425.7 276.4,425.9 276.4,426.1 276.4,426.3 276.4,426.5 276.4,426.6 276.4,426.8 276.4,427.0 276.4,427.2 276.4,427.4 276.4,427.5 276.4,427.7 276.4,427.9 276.4,428.1 276.4,428.2 276.4,428.4 276.4,428.6 276.4,428.8 276.4,428.9 276.4,429.1 276.4,429.3 276.4,429.4 276.4,429.6 276.4,429.7 276.4,429.9 276.4,430.1 276.4,430.2 276.4,430.4 276.4,430.5 276.4,430.7 276.4,430.9 276.4,431.0 281.3,429.9 281.3,430.0 281.3,430.2 281.3,430.3 281.3,430.5 281.3,430.6 281.3,430.8 281.3,431.0 281.3,431.1 281.3,431.2 281.3,431.4 281.3,431.5 281.3,431.7 281.3,431.8 281.3,432.0 281.3,432.1 281.3,432.3 281.3,432.4 281.3,432.6 281.3,432.7 281.3,432.8 281.3,433.0 281.3,433.1 281.3,433.2 286.3,432.2 286.3,432.5 286.3,432.6 286.3,432.7 286.3,432.9 286.3,433.0 286.3,433.1 286.3,433.3 286.3,433.4 286.3,433.5 286.3,433.7 286.3,433.8 286.3,433.9 286.3,434.1 286.3,434.2 291.2,433.2 291.2,433.3 291.2,433.4 291.2,433.6 291.2,433.7 296.2,432.7 296.2,432.8 296.2,433.0 296.2,433.1 296.2,433.2 301.2,432.2 301.2,432.4 301.2,432.5 301.2,432.6 301.2,432.7 301.2,432.9 301.2,433.0 301.2,433.1 301.2,433.2 301.2,433.4 301.2,433.5 301.2,433.6 301.2,433.7 301.2,433.8 301.2,434.0 301.2,434.1 301.2,434.2 301.2,434.3 301.2,434.4 301.2,434.6 306.1,433.6 306.1,433.7 306.1,433.9 306.1,434.0 306.1,434.1 306.1,434.2 306.1,434.3 306.1,434.4 311.1,433.5 311.1,433.6 311.1,433.8 311.1,433.9 311.1,434.0 311.1,434.1 311.1,434.2 311.1,434.3 311.1,434.4 311.1,434.6 311.1,434.7 311.1,434.8 311.1,434.9 311.1,435.0 311.1,435.1 316.0,434.2 316.0,434.3 316.0,434.4 316.0,434.6 316.0,434.7 316.0,434.8 316.0,434.9 316.0,435.0 316.0,435.1 316.0,435.2 316.0,435.3 316.0,435.4 316.0,435.5 316.0,435.6 316.0,435.7 316.0,435.8 316.0,435.9 316.0,436.0 316.0,436.1 321.0,435.3 321.0,435.4 321.0,435.5 321.0,435.6 321.0,435.7 321.0,435.8 321.0,435.9 321.0,436.0 321.0,436.1 321.0,436.2 321.0,436.3 325.9,435.5 325.9,435.6 325.9,435.7 325.9,435.8 325.9,435.9 330.9,435.1 330.9,435.2 330.9,435.3 330.9,435.4 330.9,435.5 330.9,435.6 330.9,435.7 335.9,434.8 335.9,434.9 335.9,435.0 335.9,435.1 335.9,435.2 335.9,435.3 335.9,435.4 335.9,435.5 340.8,434.7 340.8,434.8 340.8,434.9 340.8,435.0 340.8,435.1 340.8,435.2 340.8,435.3 340.8,435.4 340.8,435.5 340.8,435.6 340.8,435.7 340.8,435.8 340.8,435.9 340.8,436.0 340.8,436.1 340.8,436.2 340.8,436.3 340.8,436.3 340.8,436.4 340.8,436.5 340.8,436.6 340.8,436.7 340.8,436.8 340.8,436.9 340.8,437.0 340.8,437.1 340.8,437.2 340.8,437.2 340.8,437.3 340.8,437.4 340.8,437.5 340.8,437.6 340.8,437.7 340.8,437.8 340.8,437.8 340.8,437.9 345.8,437.2 345.8,437.3 350.7,436.5 350.7,436.6 350.7,436.7 350.7,436.8 350.7,436.9 350.7,437.0 350.7,437.1 350.7,437.1 350.7,437.2 350.7,437.3 350.7,437.4 350.7,437.5 350.7,437.6 350.7,437.6 350.7,437.7 350.7,437.8 350.7,437.9 350.7,438.0 350.7,438.1 350.7,438.1 350.7,438.2 350.7,438.3 350.7,438.4 350.7,438.5 350.7,438.5 350.7,438.6 350.7,438.7 350.7,438.8 350.7,438.8 350.7,438.9 350.7,439.0 350.7,439.1 350.7,439.2 350.7,439.2 350.7,439.3 350.7,439.4 350.7,439.5 350.7,439.5 350.7,439.6 350.7,439.7 350.7,439.8 350.7,439.8 350.7,439.9 355.7,439.2 355.7,439.3 355.7,439.4 355.7,439.5 355.7,439.5 355.7,439.6 355.7,439.7 355.7,439.7 355.7,439.8 355.7,439.9 355.7,440.0 355.7,440.0 355.7,440.1 355.7,440.2 355.7,440.3 355.7,440.3 355.7,440.4 355.7,440.5 355.7,440.5 355.7,440.6 355.7,440.7 360.6,440.0 360.6,440.1 360.6,440.2 360.6,440.2 360.6,440.3 360.6,440.4 360.6,440.4 360.6,440.5 360.6,440.6 365.6,439.9 365.6,440.0 365.6,440.1 365.6,440.1 365.6,440.2 365.6,440.3 365.6,440.3 365.6,440.4 365.6,440.5 365.6,440.5 365.6,440.6 365.6,440.7 365.6,440.8 365.6,440.8 365.6,440.9 365.6,441.0 370.6,440.3 370.6,440.4 370.6,440.5 370.6,440.5 370.6,440.6 370.6,440.7 370.6,440.7 370.6,440.8 370.6,440.9 370.6,440.9 370.6,441.0 370.6,441.1 370.6,441.1 370.6,441.2 370.6,441.2 370.6,441.3 370.6,441.4 370.6,441.4 370.6,441.5 370.6,441.6 370.6,441.6 370.6,441.7 370.6,441.8 370.6,441.8 370.6,441.9 370.6,441.9 370.6,442.0 370.6,442.1 370.6,442.1 370.6,442.2 370.6,442.2 370.6,442.3 370.6,442.4 370.6,442.4 375.5,441.8 375.5,441.9 375.5,442.0 375.5,442.0 375.5,442.1 375.5,442.1 375.5,442.2 375.5,442.3 375.5,442.3 375.5,442.4 375.5,442.4 375.5,442.5 375.5,442.6 375.5,442.6 375.5,442.7 380.5,442.1 380.5,442.1 380.5,442.2 380.5,442.3 385.4,441.7 385.4,441.7 385.4,441.8 385.4,441.9 385.4,441.9 385.4,442.0 385.4,442.0 385.4,442.1 385.4,442.2 385.4,442.2 385.4,442.3 385.4,442.3 385.4,442.4 385.4,442.4 385.4,442.5 385.4,442.6 385.4,442.6 385.4,442.7 385.4,442.7 385.4,442.8 385.4,442.8 385.4,442.9 385.4,443.0 385.4,443.0 385.4,443.1 385.4,443.1 385.4,443.2 385.4,443.2 385.4,443.3 385.4,443.3 385.4,443.4 385.4,443.4 385.4,443.5 385.4,443.6 385.4,443.6 385.4,443.7 385.4,443.7 385.4,443.8 385.4,443.8 385.4,443.9 385.4,443.9 385.4,444.0 385.4,444.0 385.4,444.1 385.4,444.1 385.4,444.2 385.4,444.2 385.4,444.3 385.4,444.3 385.4,444.4 385.4,444.5 385.4,444.5 385.4,444.6 385.4,444.6 385.4,444.7 385.4,444.7 385.4,444.8 385.4,444.8 385.4,444.9 385.4,444.9 385.4,445.0 385.4,445.0 385.4,445.1 385.4,445.1 385.4,445.2 385.4,445.2 385.4,445.3 385.4,445.3 385.4,445.4 385.4,445.4 385.4,445.4 385.4,445.5 385.4,445.5 385.4,445.6 385.4,445.6 385.4,445.7 385.4,445.7 385.4,445.8 385.4,445.8 385.4,445.9 385.4,445.9 385.4,446.0 390.4,445.5 390.4,445.5 390.4,445.6 390.4,445.6 390.4,445.6 390.4,445.7 390.4,445.7 390.4,445.8 390.4,445.8 390.4,445.9 390.4,445.9 390.4,446.0 390.4,446.0 390.4,446.1 390.4,446.1 395.4,445.6 395.4,445.6 395.4,445.7 395.4,445.7 395.4,445.8 395.4,445.8 395.4,445.9 400.3,445.4 400.3,445.4 400.3,445.5 400.3,445.5 400.3,445.6 400.3,445.6 405.3,445.1 405.3,445.2 405.3,445.2 405.3,445.2 405.3,445.3 405.3,445.3 405.3,445.4 405.3,445.4 405.3,445.5 405.3,445.5 405.3,445.6 405.3,445.6 405.3,445.7 405.3,445.7 405.3,445.7 405.3,445.8 405.3,445.8 405.3,445.9 405.3,445.9 405.3,446.0 405.3,446.0 405.3,446.1 405.3,446.1 405.3,446.1 405.3,446.2 405.3,446.2 405.3,446.3 405.3,446.3 405.3,446.4 405.3,446.4 405.3,446.4 405.3,446.5 405.3,446.5 405.3,446.6 405.3,446.6 405.3,446.7 405.3,446.7 405.3,446.7 405.3,446.8 405.3,446.8 405.3,446.9 405.3,446.9 405.3,447.0 405.3,447.0 405.3,447.0 405.3,447.1 405.3,447.1 405.3,447.2 405.3,447.2 410.2,446.7 410.2,446.8 410.2,446.8 410.2,446.9 410.2,446.9 410.2,446.9 410.2,447.0 410.2,447.0 410.2,447.1 410.2,447.1 410.2,447.1 410.2,447.2 410.2,447.2 410.2,447.3 410.2,447.3 410.2,447.3 410.2,447.4 410.2,447.4 410.2,447.5 410.2,447.5 410.2,447.5 410.2,447.6 410.2,447.6 410.2,447.7 410.2,447.7 410.2,447.7 410.2,447.8 410.2,447.8 415.2,447.4 415.2,447.4 415.2,447.4 415.2,447.5 415.2,447.5 415.2,447.6 415.2,447.6 415.2,447.6 415.2,447.7 415.2,447.7 415.2,447.7 415.2,447.8 415.2,447.8 415.2,447.9 415.2,447.9 415.2,447.9 415.2,448.0 415.2,448.0 420.1,447.6 420.1,447.6 420.1,447.6 420.1,447.7 420.1,447.7 425.1,447.3 425.1,447.3 425.1,447.4 425.1,447.4 430.1,447.0 430.1,447.0 430.1,447.0 430.1,447.1 430.1,447.1 430.1,447.1 435.0,446.7 435.0,446.7 435.0,446.8 435.0,446.8 435.0,446.9 435.0,446.9 435.0,446.9 435.0,447.0 435.0,447.0 435.0,447.0 435.0,447.1 435.0,447.1 435.0,447.2 435.0,447.2 435.0,447.2 435.0,447.3 435.0,447.3 435.0,447.3 435.0,447.4 435.0,447.4 435.0,447.5 435.0,447.5 435.0,447.5 435.0,447.6 435.0,447.6 435.0,447.6 435.0,447.7 435.0,447.7 435.0,447.8 435.0,447.8 435.0,447.8 435.0,447.9 435.0,447.9 435.0,447.9 435.0,448.0 435.0,448.0 435.0,448.0 435.0,448.1 440.0,447.7 440.0,447.7 440.0,447.7 440.0,447.8 440.0,447.8 440.0,447.8 440.0,447.9 440.0,447.9 444.9,447.5 444.9,447.5 444.9,447.6 444.9,447.6 444.9,447.6 444.9,447.7 444.9,447.7 444.9,447.7 444.9,447.8 444.9,447.8 444.9,447.8 444.9,447.9 444.9,447.9 444.9,447.9 444.9,448.0 444.9,448.0 444.9,448.1 444.9,448.1 444.9,448.1 444.9,448.2 444.9,448.2 444.9,448.2 444.9,448.3 444.9,448.3 444.9,448.3 444.9,448.4 444.9,448.4 444.9,448.4 444.9,448.5 444.9,448.5 444.9,448.5 444.9,448.6 444.9,448.6 444.9,448.6 444.9,448.7 444.9,448.7 444.9,448.7 444.9,448.8 444.9,448.8 444.9,448.8 444.9,448.9 444.9,448.9 444.9,448.9 444.9,449.0 444.9,449.0 444.9,449.0 444.9,449.1 444.9,449.1 444.9,449.1 444.9,449.2 444.9,449.2 444.9,449.2 444.9,449.2 444.9,449.3 444.9,449.3 444.9,449.3 444.9,449.4 444.9,449.4 444.9,449.4 444.9,449.5 444.9,449.5 444.9,449.5 444.9,449.6 444.9,449.6 444.9,449.6 444.9,449.7 444.9,449.7 444.9,449.7 444.9,449.8 444.9,449.8 444.9,449.8 444.9,449.8 444.9,449.9 444.9,449.9 444.9,449.9 444.9,450.0 444.9,450.0 444.9,450.0 444.9,450.1 444.9,450.1 444.9,450.1 444.9,450.2 444.9,450.2 444.9,450.2 444.9,450.2 444.9,450.3 444.9,450.3 449.9,449.9 449.9,449.9 449.9,450.0 449.9,450.0 449.9,450.0 449.9,450.1 449.9,450.1 449.9,450.1 449.9,450.2 449.9,450.2 449.9,450.2 449.9,450.2 449.9,450.3 449.9,450.3 449.9,450.3 449.9,450.4 449.9,450.4 454.8,450.0 454.8,450.0 454.8,450.1 454.8,450.1 454.8,450.1 454.8,450.2 454.8,450.2 454.8,450.2 454.8,450.3 454.8,450.3 454.8,450.3 454.8,450.3 454.8,450.4 454.8,450.4 454.8,450.4 454.8,450.5 454.8,450.5 454.8,450.5 454.8,450.5 454.8,450.6 454.8,450.6 454.8,450.6 454.8,450.7 454.8,450.7 454.8,450.7 454.8,450.7 454.8,450.8 454.8,450.8 454.8,450.8 454.8,450.9 454.8,450.9 454.8,450.9 454.8,450.9 454.8,451.0 454.8,451.0 454.8,451.0 454.8,451.0 459.8,450.7 459.8,450.7 459.8,450.7 459.8,450.8 459.8,450.8 459.8,450.8 459.8,450.9 459.8,450.9 459.8,450.9 459.8,450.9 459.8,451.0 459.8,451.0 459.8,451.0 459.8,451.0 459.8,451.1 459.8,451.1 459.8,451.1 459.8,451.2 459.8,451.2 459.8,451.2 459.8,451.2 459.8,451.3 459.8,451.3 459.8,451.3 459.8,451.3 459.8,451.4 459.8,451.4 459.8,451.4 459.8,451.4 459.8,451.5 459.8,451.5 459.8,451.5 459.8,451.6 464.8,451.2 464.8,451.2 464.8,451.3 464.8,451.3 464.8,451.3 464.8,451.3 464.8,451.4 464.8,451.4 464.8,451.4 464.8,451.4 464.8,451.5 464.8,451.5 464.8,451.5 469.7,451.2 469.7,451.2 469.7,451.2 469.7,451.2 469.7,451.3 469.7,451.3 469.7,451.3 469.7,451.4 469.7,451.4 469.7,451.4 469.7,451.4 474.7,451.1 474.7,451.1 474.7,451.1 474.7,451.2 474.7,451.2 474.7,451.2 474.7,451.2 474.7,451.3 474.7,451.3 479.6,451.0 479.6,451.0 479.6,451.0 479.6,451.0 479.6,451.1 479.6,451.1 479.6,451.1 479.6,451.1 479.6,451.2 479.6,451.2 479.6,451.2 479.6,451.2 479.6,451.3 479.6,451.3 479.6,451.3 479.6,451.3 479.6,451.4 479.6,451.4 479.6,451.4 479.6,451.4 479.6,451.5 479.6,451.5 479.6,451.5 479.6,451.5 479.6,451.6 479.6,451.6 479.6,451.6 484.6,451.3 484.6,451.3 484.6,451.3 484.6,451.4 484.6,451.4 484.6,451.4 484.6,451.4 484.6,451.5 484.6,451.5 484.6,451.5 484.6,451.5 484.6,451.6 484.6,451.6 484.6,451.6 484.6,451.6 484.6,451.7 484.6,451.7 484.6,451.7 484.6,451.7 484.6,451.7 489.5,451.4 489.5,451.4 489.5,451.5 489.5,451.5 489.5,451.5 489.5,451.5 489.5,451.6 489.5,451.6 489.5,451.6 489.5,451.6 489.5,451.7 489.5,451.7 489.5,451.7 489.5,451.7 489.5,451.8 489.5,451.8 489.5,451.8 494.5,451.5 494.5,451.5 494.5,451.5 494.5,451.6 494.5,451.6 494.5,451.6 494.5,451.6 494.5,451.7 494.5,451.7 494.5,451.7 494.5,451.7 494.5,451.7 494.5,451.8 494.5,451.8 494.5,451.8 494.5,451.8 494.5,451.9 494.5,451.9 494.5,451.9 494.5,451.9 494.5,452.0 494.5,452.0 494.5,452.0 494.5,452.0 494.5,452.1 494.5,452.1 494.5,452.1 494.5,452.1 494.5,452.1 494.5,452.2 494.5,452.2 494.5,452.2 494.5,452.2 494.5,452.3 494.5,452.3 494.5,452.3 494.5,452.3 494.5,452.4 494.5,452.4 494.5,452.4 494.5,452.4 494.5,452.4 494.5,452.5 494.5,452.5 494.5,452.5 494.5,452.5 494.5,452.6 494.5,452.6 494.5,452.6 494.5,452.6 494.5,452.6 494.5,452.7 494.5,452.7 494.5,452.7 494.5,452.7 494.5,452.8 494.5,452.8 494.5,452.8 494.5,452.8 494.5,452.8 494.5,452.9 494.5,452.9 494.5,452.9 494.5,452.9 494.5,453.0 494.5,453.0 494.5,453.0 494.5,453.0 494.5,453.0 494.5,453.1 494.5,453.1 494.5,453.1 494.5,453.1 494.5,453.1 494.5,453.2 494.5,453.2 494.5,453.2 494.5,453.2 494.5,453.3 494.5,453.3 499.5,453.0 499.5,453.0 499.5,453.0 499.5,453.0 499.5,453.1 499.5,453.1 499.5,453.1 499.5,453.1 499.5,453.1 499.5,453.2 499.5,453.2 499.5,453.2 499.5,453.2 499.5,453.2 499.5,453.3 499.5,453.3 499.5,453.3 499.5,453.3 499.5,453.4 499.5,453.4 499.5,453.4 499.5,453.4 499.5,453.4 499.5,453.5 499.5,453.5 499.5,453.5 499.5,453.5 499.5,453.5 499.5,453.6 499.5,453.6 499.5,453.6 499.5,453.6 499.5,453.6 499.5,453.7 499.5,453.7 499.5,453.7 499.5,453.7 499.5,453.7 499.5,453.8 499.5,453.8 499.5,453.8 499.5,453.8 499.5,453.8 499.5,453.9 499.5,453.9 499.5,453.9 499.5,453.9 499.5,453.9 499.5,454.0 499.5,454.0 499.5,454.0 499.5,454.0 499.5,454.0 499.5,454.1 499.5,454.1 499.5,454.1 499.5,454.1 499.5,454.1 499.5,454.2 499.5,454.2 499.5,454.2 504.4,453.9 504.4,453.9 504.4,453.9 504.4,454.0 504.4,454.0 504.4,454.0 504.4,454.0 504.4,454.0 504.4,454.1 504.4,454.1 504.4,454.1 509.4,453.8 509.4,453.8 509.4,453.9 509.4,453.9 509.4,453.9 509.4,453.9 509.4,453.9 509.4,454.0 509.4,454.0 509.4,454.0 509.4,454.0 509.4,454.0 509.4,454.1 509.4,454.1 509.4,454.1 509.4,454.1 509.4,454.1 509.4,454.1 509.4,454.2 509.4,454.2 509.4,454.2 509.4,454.2 509.4,454.2 509.4,454.3 509.4,454.3 509.4,454.3 509.4,454.3 509.4,454.3 509.4,454.4 509.4,454.4 509.4,454.4 509.4,454.4 509.4,454.4 509.4,454.5 509.4,454.5 509.4,454.5 509.4,454.5 509.4,454.5 509.4,454.5 509.4,454.6 509.4,454.6 509.4,454.6 509.4,454.6 509.4,454.6 509.4,454.7 509.4,454.7 509.4,454.7 509.4,454.7 509.4,454.7 509.4,454.7 509.4,454.8 514.3,454.5 514.3,454.5 514.3,454.5 514.3,454.5 514.3,454.6 514.3,454.6 514.3,454.6 514.3,454.6 514.3,454.6 514.3,454.7 514.3,454.7 514.3,454.7 514.3,454.7 514.3,454.7 514.3,454.7 514.3,454.8 514.3,454.8 514.3,454.8 514.3,454.8 514.3,454.8 514.3,454.9 514.3,454.9 514.3,454.9 514.3,454.9 514.3,454.9 514.3,454.9 514.3,455.0 514.3,455.0 514.3,455.0 514.3,455.0 514.3,455.0 514.3,455.1 514.3,455.1 514.3,455.1 514.3,455.1 519.3,454.8 519.3,454.9 519.3,454.9 519.3,454.9 519.3,454.9 519.3,454.9 519.3,455.0 519.3,455.0 519.3,455.0 519.3,455.0 519.3,455.0 519.3,455.0 519.3,455.1 519.3,455.1 519.3,455.1 519.3,455.1 519.3,455.1 519.3,455.1 519.3,455.2 519.3,455.2 524.2,454.9 524.2,454.9 524.2,454.9 524.2,455.0 524.2,455.0 524.2,455.0 524.2,455.0 524.2,455.0 524.2,455.0 524.2,455.1 524.2,455.1 524.2,455.1 524.2,455.1 524.2,455.1 524.2,455.2 524.2,455.2 524.2,455.2 524.2,455.2 524.2,455.2 524.2,455.2 524.2,455.3 524.2,455.3 524.2,455.3 524.2,455.3 524.2,455.3 524.2,455.3 524.2,455.4 524.2,455.4 524.2,455.4 524.2,455.4 524.2,455.4 524.2,455.4 524.2,455.5 524.2,455.5 524.2,455.5 524.2,455.5 524.2,455.5 524.2,455.5 524.2,455.6 524.2,455.6 529.2,455.3 529.2,455.3 529.2,455.3 529.2,455.4 529.2,455.4 529.2,455.4 529.2,455.4 529.2,455.4 529.2,455.4 529.2,455.5 529.2,455.5 529.2,455.5 529.2,455.5 529.2,455.5 529.2,455.5 529.2,455.6 529.2,455.6 529.2,455.6 529.2,455.6 529.2,455.6 529.2,455.6 529.2,455.7 529.2,455.7 529.2,455.7 529.2,455.7 529.2,455.7 529.2,455.7 529.2,455.8 529.2,455.8 529.2,455.8 529.2,455.8 529.2,455.8 529.2,455.8 529.2,455.9 529.2,455.9 529.2,455.9 529.2,455.9 529.2,455.9 529.2,455.9 529.2,455.9 529.2,456.0 529.2,456.0 529.2,456.0 529.2,456.0 529.2,456.0 529.2,456.0 529.2,456.1 529.2,456.1 529.2,456.1 529.2,456.1 529.2,456.1 529.2,456.1 529.2,456.2 529.2,456.2 529.2,456.2 529.2,456.2 529.2,456.2 529.2,456.2 529.2,456.2 529.2,456.3 529.2,456.3 529.2,456.3 529.2,456.3 529.2,456.3 529.2,456.3 529.2,456.4 529.2,456.4 529.2,456.4 529.2,456.4 529.2,456.4 529.2,456.4 529.2,456.4 529.2,456.5 529.2,456.5 529.2,456.5 529.2,456.5 529.2,456.5 529.2,456.5 529.2,456.5 529.2,456.6 529.2,456.6 529.2,456.6 534.2,456.3 534.2,456.4 534.2,456.4 534.2,456.4 534.2,456.4 534.2,456.4 534.2,456.4 534.2,456.5 534.2,456.5 534.2,456.5 534.2,456.5 534.2,456.5 534.2,456.5 534.2,456.5 534.2,456.6 534.2,456.6 534.2,456.6 534.2,456.6 534.2,456.6 534.2,456.6 534.2,456.6 534.2,456.7 534.2,456.7 534.2,456.7 534.2,456.7 534.2,456.7 534.2,456.7 534.2,456.7 534.2,456.8 534.2,456.8 534.2,456.8 534.2,456.8 534.2,456.8 534.2,456.8 534.2,456.9 534.2,456.9 534.2,456.9 534.2,456.9 534.2,456.9 534.2,456.9 534.2,456.9 534.2,457.0 534.2,457.0 534.2,457.0 534.2,457.0 534.2,457.0 534.2,457.0 534.2,457.0 534.2,457.1 534.2,457.1 534.2,457.1 534.2,457.1 534.2,457.1 534.2,457.1 534.2,457.1 534.2,457.2 534.2,457.2 534.2,457.2 534.2,457.2 534.2,457.2 534.2,457.2 534.2,457.2 534.2,457.3 534.2,457.3 534.2,457.3 534.2,457.3 534.2,457.3 534.2,457.3 534.2,457.3 534.2,457.3 534.2,457.4 534.2,457.4 534.2,457.4 534.2,457.4 534.2,457.4 534.2,457.4 534.2,457.4 534.2,457.5 534.2,457.5 534.2,457.5 534.2,457.5 534.2,457.5 534.2,457.5 534.2,457.5 534.2,457.6 534.2,457.6 534.2,457.6 534.2,457.6 534.2,457.6 534.2,457.6 534.2,457.6 534.2,457.6 534.2,457.7 534.2,457.7 534.2,457.7 534.2,457.7 534.2,457.7 534.2,457.7 534.2,457.7 534.2,457.8 534.2,457.8 534.2,457.8 534.2,457.8 534.2,457.8 534.2,457.8 534.2,457.8 534.2,457.9 534.2,457.9 534.2,457.9 534.2,457.9 534.2,457.9 534.2,457.9 534.2,457.9 534.2,457.9 534.2,458.0 534.2,458.0 534.2,458.0 534.2,458.0 534.2,458.0 534.2,458.0 534.2,458.0 534.2,458.0 534.2,458.1 534.2,458.1 534.2,458.1 534.2,458.1 534.2,458.1 534.2,458.1 534.2,458.1 534.2,458.2 534.2,458.2 534.2,458.2 534.2,458.2 534.2,458.2 534.2,458.2 534.2,458.2 534.2,458.2 534.2,458.3 534.2,458.3 534.2,458.3 534.2,458.3 534.2,458.3 534.2,458.3 534.2,458.3 534.2,458.3 534.2,458.4 534.2,458.4 534.2,458.4 534.2,458.4 534.2,458.4 534.2,458.4 534.2,458.4 534.2,458.4 534.2,458.5 534.2,458.5 534.2,458.5 534.2,458.5 534.2,458.5 534.2,458.5 534.2,458.5 534.2,458.5 534.2,458.6 534.2,458.6 534.2,458.6 534.2,458.6 534.2,458.6 534.2,458.6 534.2,458.6 534.2,458.6 534.2,458.7 534.2,458.7 534.2,458.7 534.2,458.7 539.1,458.5 539.1,458.5 539.1,458.5 539.1,458.5 539.1,458.5 539.1,458.5 539.1,458.5 539.1,458.6 539.1,458.6 539.1,458.6 539.1,458.6 539.1,458.6 539.1,458.6 539.1,458.6 539.1,458.6 539.1,458.7 539.1,458.7 539.1,458.7 539.1,458.7 539.1,458.7 539.1,458.7 539.1,458.7 539.1,458.7 539.1,458.8 539.1,458.8 539.1,458.8 539.1,458.8 539.1,458.8 539.1,458.8 539.1,458.8 539.1,458.8 539.1,458.8 539.1,458.9 539.1,458.9 539.1,458.9 539.1,458.9 539.1,458.9 539.1,458.9 539.1,458.9 544.1,458.7 544.1,458.7 544.1,458.7 544.1,458.7 544.1,458.8 544.1,458.8 544.1,458.8 544.1,458.8 544.1,458.8 549.0,458.6 549.0,458.6 549.0,458.6 549.0,458.6 549.0,458.6 549.0,458.7 554.0,458.4 554.0,458.4 554.0,458.5 554.0,458.5 554.0,458.5 554.0,458.5 558.9,458.3 558.9,458.3 558.9,458.3 558.9,458.3 558.9,458.3 558.9,458.3 558.9,458.3 558.9,458.4 558.9,458.4 558.9,458.4 558.9,458.4 558.9,458.4 558.9,458.4 558.9,458.4 558.9,458.4 558.9,458.5 558.9,458.5 558.9,458.5 558.9,458.5 558.9,458.5 558.9,458.5 558.9,458.5 558.9,458.5 558.9,458.6 558.9,458.6 558.9,458.6 558.9,458.6 558.9,458.6 558.9,458.6 558.9,458.6 558.9,458.6 558.9,458.6 558.9,458.7 558.9,458.7 558.9,458.7 558.9,458.7 558.9,458.7 558.9,458.7 558.9,458.7 558.9,458.7 558.9,458.8 558.9,458.8 558.9,458.8 558.9,458.8 558.9,458.8 558.9,458.8 558.9,458.8 558.9,458.8 558.9,458.8 558.9,458.9 558.9,458.9 558.9,458.9 558.9,458.9 558.9,458.9 558.9,458.9 558.9,458.9 558.9,458.9 558.9,458.9 558.9,459.0 558.9,459.0 558.9,459.0 558.9,459.0 558.9,459.0 563.9,458.8 563.9,458.8 563.9,458.8 563.9,458.8 563.9,458.8 563.9,458.9 563.9,458.9 563.9,458.9 563.9,458.9 563.9,458.9 563.9,458.9 563.9,458.9 563.9,458.9 563.9,459.0 563.9,459.0 563.9,459.0 563.9,459.0 563.9,459.0 563.9,459.0 563.9,459.0 563.9,459.0 563.9,459.0 563.9,459.1 563.9,459.1 563.9,459.1 563.9,459.1 563.9,459.1 563.9,459.1 563.9,459.1 563.9,459.1 563.9,459.1 563.9,459.2 563.9,459.2 563.9,459.2 563.9,459.2 563.9,459.2 563.9,459.2 563.9,459.2 563.9,459.2 563.9,459.2 563.9,459.3 563.9,459.3 563.9,459.3 563.9,459.3 563.9,459.3 563.9,459.3 563.9,459.3 563.9,459.3 563.9,459.3 563.9,459.3 563.9,459.4 563.9,459.4 563.9,459.4 563.9,459.4 563.9,459.4 563.9,459.4 563.9,459.4 563.9,459.4 563.9,459.4 563.9,459.5 563.9,459.5 563.9,459.5 563.9,459.5 563.9,459.5 563.9,459.5 563.9,459.5 563.9,459.5 563.9,459.5 563.9,459.6 563.9,459.6 563.9,459.6 563.9,459.6 563.9,459.6 563.9,459.6 563.9,459.6 563.9,459.6 563.9,459.6 563.9,459.6 563.9,459.7 563.9,459.7 563.9,459.7 563.9,459.7 563.9,459.7 568.9,459.5 568.9,459.5 568.9,459.5 568.9,459.5 568.9,459.5 568.9,459.6 568.9,459.6 568.9,459.6 573.8,459.4 573.8,459.4 573.8,459.4 573.8,459.4 573.8,459.4 573.8,459.4 573.8,459.4 573.8,459.4 573.8,459.5 573.8,459.5 573.8,459.5 573.8,459.5 573.8,459.5 573.8,459.5 573.8,459.5 573.8,459.5 573.8,459.5 573.8,459.6 573.8,459.6 573.8,459.6 573.8,459.6 573.8,459.6 573.8,459.6 573.8,459.6 573.8,459.6 573.8,459.6 573.8,459.6 573.8,459.7 573.8,459.7 573.8,459.7 573.8,459.7 573.8,459.7 578.8,459.5 578.8,459.5 578.8,459.5 578.8,459.5 578.8,459.5 578.8,459.6 578.8,459.6 578.8,459.6 578.8,459.6 578.8,459.6 578.8,459.6 578.8,459.6 578.8,459.6 578.8,459.6 578.8,459.6 578.8,459.7 578.8,459.7 578.8,459.7 578.8,459.7 578.8,459.7 578.8,459.7 578.8,459.7 578.8,459.7 578.8,459.7 578.8,459.7 578.8,459.8 578.8,459.8 578.8,459.8 578.8,459.8 578.8,459.8 578.8,459.8 578.8,459.8 578.8,459.8 578.8,459.8 578.8,459.8 578.8,459.9 578.8,459.9 583.7,459.7 583.7,459.7 583.7,459.7 583.7,459.7 583.7,459.7 583.7,459.7 583.7,459.7 588.7,459.5 588.7,459.6 593.6,459.4 593.6,459.4 593.6,459.4 593.6,459.4 593.6,459.4 593.6,459.4 593.6,459.4 593.6,459.4 593.6,459.4 593.6,459.4 593.6,459.5 593.6,459.5 593.6,459.5 593.6,459.5 593.6,459.5 593.6,459.5 593.6,459.5 593.6,459.5 593.6,459.5 598.6,459.3 598.6,459.4 598.6,459.4 598.6,459.4 598.6,459.4 598.6,459.4 598.6,459.4 598.6,459.4 598.6,459.4 598.6,459.4 598.6,459.5 598.6,459.5 598.6,459.5 598.6,459.5 603.6,459.3 603.6,459.3 603.6,459.3 603.6,459.3 603.6,459.3 603.6,459.3 603.6,459.4 603.6,459.4 603.6,459.4 603.6,459.4 603.6,459.4 603.6,459.4 603.6,459.4 603.6,459.4 603.6,459.4 603.6,459.4 603.6,459.5 603.6,459.5 603.6,459.5 603.6,459.5 603.6,459.5 603.6,459.5 603.6,459.5 603.6,459.5 603.6,459.5 603.6,459.5 603.6,459.5 603.6,459.6 603.6,459.6 603.6,459.6 603.6,459.6 603.6,459.6 603.6,459.6 603.6,459.6 603.6,459.6 603.6,459.6 603.6,459.6 603.6,459.7 603.6,459.7 603.6,459.7 603.6,459.7 603.6,459.7 603.6,459.7 603.6,459.7 603.6,459.7 603.6,459.7 603.6,459.7 603.6,459.8 603.6,459.8 603.6,459.8 603.6,459.8 603.6,459.8 603.6,459.8 603.6,459.8 603.6,459.8 603.6,459.8 603.6,459.8 603.6,459.8 603.6,459.9 603.6,459.9 603.6,459.9 603.6,459.9 603.6,459.9 603.6,459.9 603.6,459.9 603.6,459.9 603.6,459.9 603.6,459.9 603.6,460.0 603.6,460.0 603.6,460.0 603.6,460.0 603.6,460.0 603.6,460.0 603.6,460.0 603.6,460.0 603.6,460.0 603.6,460.0 603.6,460.0 603.6,460.1 603.6,460.1 603.6,460.1 603.6,460.1 603.6,460.1 603.6,460.1 603.6,460.1 603.6,460.1 603.6,460.1 603.6,460.1 603.6,460.1 603.6,460.2 603.6,460.2 603.6,460.2 603.6,460.2 603.6,460.2 603.6,460.2 603.6,460.2 603.6,460.2 603.6,460.2 603.6,460.2 603.6,460.3 603.6,460.3 603.6,460.3 603.6,460.3 603.6,460.3 603.6,460.3 603.6,460.3 603.6,460.3 603.6,460.3 603.6,460.3 603.6,460.3 603.6,460.4 603.6,460.4 603.6,460.4 603.6,460.4 603.6,460.4 603.6,460.4 603.6,460.4 603.6,460.4 603.6,460.4 603.6,460.4 603.6,460.4 603.6,460.4 603.6,460.5 603.6,460.5 603.6,460.5 603.6,460.5 603.6,460.5 603.6,460.5 608.5,460.3 608.5,460.3 608.5,460.3 608.5,460.4 608.5,460.4 608.5,460.4 608.5,460.4 608.5,460.4 608.5,460.4 608.5,460.4 608.5,460.4 608.5,460.4 608.5,460.4 608.5,460.4 608.5,460.4 608.5,460.5 608.5,460.5 608.5,460.5 608.5,460.5 608.5,460.5 608.5,460.5 608.5,460.5 608.5,460.5 608.5,460.5 608.5,460.5 608.5,460.5 608.5,460.6 608.5,460.6 608.5,460.6 608.5,460.6 608.5,460.6 608.5,460.6 608.5,460.6 608.5,460.6 608.5,460.6 608.5,460.6 608.5,460.6 608.5,460.7 608.5,460.7 608.5,460.7 608.5,460.7 608.5,460.7 608.5,460.7 608.5,460.7 608.5,460.7 608.5,460.7 608.5,460.7 608.5,460.7 608.5,460.7 608.5,460.8 608.5,460.8 608.5,460.8 608.5,460.8 608.5,460.8 608.5,460.8 608.5,460.8 608.5,460.8 608.5,460.8 608.5,460.8 608.5,460.8 608.5,460.8 608.5,460.9 608.5,460.9 608.5,460.9 608.5,460.9 608.5,460.9 608.5,460.9 608.5,460.9 608.5,460.9 608.5,460.9 608.5,460.9 608.5,460.9 608.5,461.0 608.5,461.0 608.5,461.0 608.5,461.0 608.5,461.0 608.5,461.0 608.5,461.0 608.5,461.0 608.5,461.0 608.5,461.0 608.5,461.0 608.5,461.0 608.5,461.1 608.5,461.1 608.5,461.1 608.5,461.1 608.5,461.1 608.5,461.1 608.5,461.1 608.5,461.1 608.5,461.1 608.5,461.1 608.5,461.1 608.5,461.1 608.5,461.2 608.5,461.2 613.5,461.0 613.5,461.0 613.5,461.0 613.5,461.0 613.5,461.0 613.5,461.0 613.5,461.0 613.5,461.0 613.5,461.1 613.5,461.1 613.5,461.1 613.5,461.1 613.5,461.1 613.5,461.1 613.5,461.1 613.5,461.1 613.5,461.1 613.5,461.1 613.5,461.1 618.4,461.0 618.4,461.0 618.4,461.0 618.4,461.0 618.4,461.0 618.4,461.0 618.4,461.0 618.4,461.0 618.4,461.0 618.4,461.0 618.4,461.0 618.4,461.1 618.4,461.1 618.4,461.1 618.4,461.1 618.4,461.1 618.4,461.1 618.4,461.1 618.4,461.1 618.4,461.1 618.4,461.1 618.4,461.1 618.4,461.1 618.4,461.2 618.4,461.2 618.4,461.2 618.4,461.2 618.4,461.2 618.4,461.2 618.4,461.2 618.4,461.2 618.4,461.2 618.4,461.2 618.4,461.2 618.4,461.2 618.4,461.3 618.4,461.3 618.4,461.3 618.4,461.3 618.4,461.3 618.4,461.3 618.4,461.3 618.4,461.3 618.4,461.3 618.4,461.3 618.4,461.3 618.4,461.3 618.4,461.3 618.4,461.4 618.4,461.4 618.4,461.4 618.4,461.4 618.4,461.4 618.4,461.4 618.4,461.4 618.4,461.4 618.4,461.4 618.4,461.4 618.4,461.4 618.4,461.4 618.4,461.5 618.4,461.5 618.4,461.5 618.4,461.5 618.4,461.5 618.4,461.5 618.4,461.5 618.4,461.5 623.4,461.3 623.4,461.3 623.4,461.4 623.4,461.4 623.4,461.4 623.4,461.4 623.4,461.4 623.4,461.4 623.4,461.4 623.4,461.4 623.4,461.4 623.4,461.4 623.4,461.4 623.4,461.4 623.4,461.4 623.4,461.5 623.4,461.5 623.4,461.5 623.4,461.5 623.4,461.5 623.4,461.5 623.4,461.5 623.4,461.5 623.4,461.5 623.4,461.5 623.4,461.5 623.4,461.5 623.4,461.6 623.4,461.6 623.4,461.6 623.4,461.6 623.4,461.6 623.4,461.6 623.4,461.6 623.4,461.6 623.4,461.6 623.4,461.6 623.4,461.6 623.4,461.6 623.4,461.6 623.4,461.6 623.4,461.7 623.4,461.7 623.4,461.7 623.4,461.7 623.4,461.7 623.4,461.7 623.4,461.7 623.4,461.7 623.4,461.7 623.4,461.7 623.4,461.7 623.4,461.7 623.4,461.7 623.4,461.8 623.4,461.8 623.4,461.8 623.4,461.8 623.4,461.8 623.4,461.8 623.4,461.8 623.4,461.8 623.4,461.8 623.4,461.8 623.4,461.8 623.4,461.8 623.4,461.8 623.4,461.9 623.4,461.9 623.4,461.9 623.4,461.9 623.4,461.9 623.4,461.9 623.4,461.9 623.4,461.9 623.4,461.9 623.4,461.9 623.4,461.9 623.4,461.9 623.4,461.9 623.4,461.9 623.4,462.0 623.4,462.0 623.4,462.0 623.4,462.0 623.4,462.0 623.4,462.0 623.4,462.0 623.4,462.0 623.4,462.0 623.4,462.0 623.4,462.0 623.4,462.0 623.4,462.0 623.4,462.1 623.4,462.1 623.4,462.1 623.4,462.1 623.4,462.1 623.4,462.1 628.3,461.9 628.3,461.9 628.3,461.9 628.3,462.0 628.3,462.0 628.3,462.0 628.3,462.0 628.3,462.0 628.3,462.0 628.3,462.0 628.3,462.0 628.3,462.0 628.3,462.0 628.3,462.0 628.3,462.0 628.3,462.0 628.3,462.0 628.3,462.1 628.3,462.1 628.3,462.1 628.3,462.1 628.3,462.1 628.3,462.1 628.3,462.1 628.3,462.1 628.3,462.1 628.3,462.1 628.3,462.1 628.3,462.1 628.3,462.1 628.3,462.1 628.3,462.2 628.3,462.2 628.3,462.2 628.3,462.2 628.3,462.2 628.3,462.2 628.3,462.2 628.3,462.2 628.3,462.2 628.3,462.2 628.3,462.2 628.3,462.2 628.3,462.2 628.3,462.3 628.3,462.3 628.3,462.3 628.3,462.3 628.3,462.3 628.3,462.3 628.3,462.3 628.3,462.3 628.3,462.3 628.3,462.3 628.3,462.3 628.3,462.3 628.3,462.3 628.3,462.3 628.3,462.3 628.3,462.4 628.3,462.4 628.3,462.4 628.3,462.4 628.3,462.4 628.3,462.4 628.3,462.4 628.3,462.4 628.3,462.4 628.3,462.4 628.3,462.4 628.3,462.4 628.3,462.4 628.3,462.4 628.3,462.5 628.3,462.5 628.3,462.5 628.3,462.5 628.3,462.5 628.3,462.5 628.3,462.5 628.3,462.5 628.3,462.5 628.3,462.5 628.3,462.5 628.3,462.5 633.3,462.4 633.3,462.4 633.3,462.4 633.3,462.4 633.3,462.4 633.3,462.4 633.3,462.4 633.3,462.4 633.3,462.4 633.3,462.4 633.3,462.4 633.3,462.5 633.3,462.5 633.3,462.5 633.3,462.5 633.3,462.5 633.3,462.5 633.3,462.5 633.3,462.5 633.3,462.5 633.3,462.5 633.3,462.5 633.3,462.5 633.3,462.5 633.3,462.5 633.3,462.5 633.3,462.6 633.3,462.6 633.3,462.6 633.3,462.6 633.3,462.6 633.3,462.6 633.3,462.6 633.3,462.6 633.3,462.6 633.3,462.6 633.3,462.6 633.3,462.6 633.3,462.6 633.3,462.6 633.3,462.6 633.3,462.7 633.3,462.7 633.3,462.7 633.3,462.7 633.3,462.7 633.3,462.7 633.3,462.7 633.3,462.7 633.3,462.7 633.3,462.7 633.3,462.7 633.3,462.7 633.3,462.7 633.3,462.7 633.3,462.7 633.3,462.8 633.3,462.8 633.3,462.8 633.3,462.8 633.3,462.8 633.3,462.8 633.3,462.8 633.3,462.8 633.3,462.8 633.3,462.8 633.3,462.8 633.3,462.8 633.3,462.8 633.3,462.8 633.3,462.8 633.3,462.9 633.3,462.9 633.3,462.9 633.3,462.9 633.3,462.9 633.3,462.9 633.3,462.9 633.3,462.9 633.3,462.9 633.3,462.9 633.3,462.9 633.3,462.9 633.3,462.9 633.3,462.9 633.3,462.9 633.3,462.9 633.3,463.0 633.3,463.0 638.3,462.8 638.3,462.8 638.3,462.8 638.3,462.8 638.3,462.8 638.3,462.9 638.3,462.9 638.3,462.9 638.3,462.9 638.3,462.9 638.3,462.9 638.3,462.9 638.3,462.9 638.3,462.9 638.3,462.9 638.3,462.9 638.3,462.9 638.3,462.9 638.3,462.9 638.3,462.9 638.3,462.9 638.3,463.0 638.3,463.0 638.3,463.0 638.3,463.0 638.3,463.0 638.3,463.0 638.3,463.0 638.3,463.0 638.3,463.0 638.3,463.0 638.3,463.0 638.3,463.0 638.3,463.0 638.3,463.0 638.3,463.0 638.3,463.1 638.3,463.1 638.3,463.1 638.3,463.1 638.3,463.1 638.3,463.1 638.3,463.1 638.3,463.1 643.2,462.9 643.2,463.0 643.2,463.0 643.2,463.0 643.2,463.0 643.2,463.0 643.2,463.0 643.2,463.0 643.2,463.0 643.2,463.0 643.2,463.0 643.2,463.0 643.2,463.0 643.2,463.0 643.2,463.0 643.2,463.0 643.2,463.0 643.2,463.1 643.2,463.1 643.2,463.1 643.2,463.1 643.2,463.1 643.2,463.1 643.2,463.1 643.2,463.1 643.2,463.1 643.2,463.1 643.2,463.1 643.2,463.1 643.2,463.1 643.2,463.1 643.2,463.1 643.2,463.1 643.2,463.2 643.2,463.2 643.2,463.2 643.2,463.2 643.2,463.2 643.2,463.2 643.2,463.2 643.2,463.2 643.2,463.2 643.2,463.2 643.2,463.2 643.2,463.2 643.2,463.2 643.2,463.2 643.2,463.2 643.2,463.2 643.2,463.3 643.2,463.3 643.2,463.3 643.2,463.3 643.2,463.3 643.2,463.3 643.2,463.3 643.2,463.3 643.2,463.3 643.2,463.3 643.2,463.3 643.2,463.3 643.2,463.3 643.2,463.3 643.2,463.3 643.2,463.3 643.2,463.4 643.2,463.4 643.2,463.4 643.2,463.4 643.2,463.4 643.2,463.4 643.2,463.4 643.2,463.4 643.2,463.4 643.2,463.4 643.2,463.4 643.2,463.4 643.2,463.4 643.2,463.4 643.2,463.4 643.2,463.4 643.2,463.4 643.2,463.5 643.2,463.5 643.2,463.5 643.2,463.5 643.2,463.5 643.2,463.5 643.2,463.5 643.2,463.5 643.2,463.5 643.2,463.5 643.2,463.5 643.2,463.5 643.2,463.5 643.2,463.5 643.2,463.5 643.2,463.5 643.2,463.5 643.2,463.6 643.2,463.6 643.2,463.6 643.2,463.6 643.2,463.6 643.2,463.6 643.2,463.6 643.2,463.6 643.2,463.6 643.2,463.6 643.2,463.6 643.2,463.6 643.2,463.6 643.2,463.6 643.2,463.6 643.2,463.6 643.2,463.6 643.2,463.7 643.2,463.7 643.2,463.7 643.2,463.7 643.2,463.7 643.2,463.7 643.2,463.7 643.2,463.7 643.2,463.7 643.2,463.7 643.2,463.7 643.2,463.7 643.2,463.7 643.2,463.7 643.2,463.7 643.2,463.7 643.2,463.7 643.2,463.8 643.2,463.8 643.2,463.8 643.2,463.8 643.2,463.8 643.2,463.8 643.2,463.8 643.2,463.8 643.2,463.8 643.2,463.8 643.2,463.8 643.2,463.8 643.2,463.8 643.2,463.8 643.2,463.8 643.2,463.8 643.2,463.8 643.2,463.9 643.2,463.9 643.2,463.9 643.2,463.9 643.2,463.9 643.2,463.9 643.2,463.9 643.2,463.9 643.2,463.9 643.2,463.9 643.2,463.9 643.2,463.9 643.2,463.9 643.2,463.9 643.2,463.9 643.2,463.9 643.2,463.9 643.2,464.0 643.2,464.0 643.2,464.0 643.2,464.0 643.2,464.0 643.2,464.0 643.2,464.0 643.2,464.0 643.2,464.0 643.2,464.0 643.2,464.0 643.2,464.0 643.2,464.0 643.2,464.0 643.2,464.0 643.2,464.0 643.2,464.0 643.2,464.1 643.2,464.1 643.2,464.1 643.2,464.1 643.2,464.1 643.2,464.1 643.2,464.1 643.2,464.1 643.2,464.1 643.2,464.1 643.2,464.1 643.2,464.1 643.2,464.1 643.2,464.1 643.2,464.1 643.2,464.1 643.2,464.1 643.2,464.1 643.2,464.1 643.2,464.2 643.2,464.2 643.2,464.2 643.2,464.2 643.2,464.2 643.2,464.2 643.2,464.2 643.2,464.2 643.2,464.2 643.2,464.2 643.2,464.2 643.2,464.2 643.2,464.2 643.2,464.2 643.2,464.2 643.2,464.2 643.2,464.2 643.2,464.2 643.2,464.3 643.2,464.3 643.2,464.3 643.2,464.3 643.2,464.3 643.2,464.3 643.2,464.3 643.2,464.3 643.2,464.3 643.2,464.3 643.2,464.3 643.2,464.3 643.2,464.3 643.2,464.3 643.2,464.3 643.2,464.3 643.2,464.3 643.2,464.3 643.2,464.3 643.2,464.4 643.2,464.4 643.2,464.4 643.2,464.4 643.2,464.4 643.2,464.4 643.2,464.4 643.2,464.4 643.2,464.4 643.2,464.4 643.2,464.4 643.2,464.4 643.2,464.4 643.2,464.4 643.2,464.4 643.2,464.4 643.2,464.4 643.2,464.4 643.2,464.5 643.2,464.5 643.2,464.5 643.2,464.5 643.2,464.5 643.2,464.5 643.2,464.5 643.2,464.5 643.2,464.5 643.2,464.5 643.2,464.5 643.2,464.5 643.2,464.5 643.2,464.5 643.2,464.5 643.2,464.5 643.2,464.5 643.2,464.5 643.2,464.5 643.2,464.6 643.2,464.6 643.2,464.6 643.2,464.6 643.2,464.6 643.2,464.6 643.2,464.6 643.2,464.6 643.2,464.6 643.2,464.6 643.2,464.6 643.2,464.6 643.2,464.6 643.2,464.6 643.2,464.6 643.2,464.6 643.2,464.6 643.2,464.6 643.2,464.6 643.2,464.7 643.2,464.7 643.2,464.7 643.2,464.7 643.2,464.7 643.2,464.7 643.2,464.7 643.2,464.7 643.2,464.7 643.2,464.7 643.2,464.7 643.2,464.7 643.2,464.7 643.2,464.7 643.2,464.7 643.2,464.7 643.2,464.7 643.2,464.7 643.2,464.7 643.2,464.7 643.2,464.8 643.2,464.8 643.2,464.8 643.2,464.8 643.2,464.8 643.2,464.8 643.2,464.8 643.2,464.8 643.2,464.8 643.2,464.8 643.2,464.8 643.2,464.8 643.2,464.8 643.2,464.8 643.2,464.8 643.2,464.8 643.2,464.8 643.2,464.8 643.2,464.8 643.2,464.8 643.2,464.9 643.2,464.9 643.2,464.9 643.2,464.9 643.2,464.9 643.2,464.9 643.2,464.9 643.2,464.9 643.2,464.9 643.2,464.9 643.2,464.9 643.2,464.9 643.2,464.9 643.2,464.9 643.2,464.9 643.2,464.9 643.2,464.9 643.2,464.9 643.2,464.9 643.2,464.9 643.2,465.0 643.2,465.0 643.2,465.0 643.2,465.0 643.2,465.0 643.2,465.0 643.2,465.0 643.2,465.0 643.2,465.0 643.2,465.0 643.2,465.0 643.2,465.0 643.2,465.0 643.2,465.0 643.2,465.0 643.2,465.0 643.2,465.0 643.2,465.0 643.2,465.0 643.2,465.0 643.2,465.1 643.2,465.1 643.2,465.1 643.2,465.1 643.2,465.1 643.2,465.1 643.2,465.1 643.2,465.1 643.2,465.1 643.2,465.1 643.2,465.1 643.2,465.1 643.2,465.1 643.2,465.1 643.2,465.1 643.2,465.1 643.2,465.1 643.2,465.1 643.2,465.1 643.2,465.1 643.2,465.1 643.2,465.2 643.2,465.2 643.2,465.2 643.2,465.2 643.2,465.2 643.2,465.2 643.2,465.2 643.2,465.2 643.2,465.2 643.2,465.2 643.2,465.2 643.2,465.2 643.2,465.2 643.2,465.2 643.2,465.2 643.2,465.2 643.2,465.2 643.2,465.2 643.2,465.2 643.2,465.2 643.2,465.2 643.2,465.3 643.2,465.3 643.2,465.3 643.2,465.3 643.2,465.3 643.2,465.3 643.2,465.3 643.2,465.3 643.2,465.3 643.2,465.3 643.2,465.3 643.2,465.3 643.2,465.3 643.2,465.3 643.2,465.3 643.2,465.3 643.2,465.3 643.2,465.3 643.2,465.3 643.2,465.3 643.2,465.3 643.2,465.4 643.2,465.4 643.2,465.4 643.2,465.4 643.2,465.4 643.2,465.4 643.2,465.4 643.2,465.4 643.2,465.4 643.2,465.4 643.2,465.4 643.2,465.4 643.2,465.4 643.2,465.4 643.2,465.4 643.2,465.4 643.2,465.4 643.2,465.4 643.2,465.4 643.2,465.4 643.2,465.4 643.2,465.4 643.2,465.5 643.2,465.5 643.2,465.5 643.2,465.5 643.2,465.5 643.2,465.5 643.2,465.5 643.2,465.5 643.2,465.5 643.2,465.5 643.2,465.5 643.2,465.5 643.2,465.5 643.2,465.5 643.2,465.5 643.2,465.5 643.2,465.5 643.2,465.5 643.2,465.5 643.2,465.5 643.2,465.5 643.2,465.6 643.2,465.6 643.2,465.6 643.2,465.6 643.2,465.6 643.2,465.6 643.2,465.6 643.2,465.6 643.2,465.6 643.2,465.6 643.2,465.6 643.2,465.6 643.2,465.6 643.2,465.6 643.2,465.6 643.2,465.6 643.2,465.6 643.2,465.6 643.2,465.6 643.2,465.6 643.2,465.6 643.2,465.6 643.2,465.6 643.2,465.7 643.2,465.7 643.2,465.7 643.2,465.7 643.2,465.7 643.2,465.7 643.2,465.7 643.2,465.7 643.2,465.7 643.2,465.7 643.2,465.7 643.2,465.7 643.2,465.7 643.2,465.7 643.2,465.7 643.2,465.7 643.2,465.7 643.2,465.7 643.2,465.7 643.2,465.7 643.2,465.7 643.2,465.7 643.2,465.8 643.2,465.8 643.2,465.8 643.2,465.8 643.2,465.8 643.2,465.8 643.2,465.8 643.2,465.8 643.2,465.8 643.2,465.8 643.2,465.8 643.2,465.8 643.2,465.8 643.2,465.8 643.2,465.8 643.2,465.8 643.2,465.8 643.2,465.8 643.2,465.8 643.2,465.8 643.2,465.8 643.2,465.8 643.2,465.8 643.2,465.9 643.2,465.9 643.2,465.9 643.2,465.9 643.2,465.9 643.2,465.9 643.2,465.9 643.2,465.9 643.2,465.9 643.2,465.9 643.2,465.9 643.2,465.9 643.2,465.9 643.2,465.9 643.2,465.9 643.2,465.9 643.2,465.9 643.2,465.9 643.2,465.9 643.2,465.9 643.2,465.9 643.2,465.9 643.2,465.9 643.2,466.0 643.2,466.0 643.2,466.0 643.2,466.0 643.2,466.0 643.2,466.0 643.2,466.0 643.2,466.0 643.2,466.0 643.2,466.0 643.2,466.0 643.2,466.0 643.2,466.0 643.2,466.0 643.2,466.0 643.2,466.0 643.2,466.0 643.2,466.0 643.2,466.0 643.2,466.0 643.2,466.0 643.2,466.0 643.2,466.0 643.2,466.1 643.2,466.1 643.2,466.1 643.2,466.1 643.2,466.1 643.2,466.1 643.2,466.1 643.2,466.1 643.2,466.1 643.2,466.1 643.2,466.1 643.2,466.1 643.2,466.1 643.2,466.1 643.2,466.1 643.2,466.1 643.2,466.1 643.2,466.1 643.2,466.1 643.2,466.1 643.2,466.1 643.2,466.1 643.2,466.1 643.2,466.1 643.2,466.2 643.2,466.2 643.2,466.2 643.2,466.2 643.2,466.2 643.2,466.2 643.2,466.2 643.2,466.2 643.2,466.2 643.2,466.2 643.2,466.2 643.2,466.2 643.2,466.2 643.2,466.2 643.2,466.2 643.2,466.2 643.2,466.2 643.2,466.2 643.2,466.2 643.2,466.2 643.2,466.2 643.2,466.2 643.2,466.2 643.2,466.2 643.2,466.3 643.2,466.3 643.2,466.3 643.2,466.3 643.2,466.3 643.2,466.3 643.2,466.3 643.2,466.3 643.2,466.3 643.2,466.3 643.2,466.3 643.2,466.3 643.2,466.3 643.2,466.3 643.2,466.3 643.2,466.3 643.2,466.3 643.2,466.3 643.2,466.3 643.2,466.3 643.2,466.3 643.2,466.3 643.2,466.3 643.2,466.3 643.2,466.3 643.2,466.4 643.2,466.4 643.2,466.4 643.2,466.4 643.2,466.4 643.2,466.4 643.2,466.4 643.2,466.4 643.2,466.4 643.2,466.4 643.2,466.4 643.2,466.4 643.2,466.4 643.2,466.4 643.2,466.4 643.2,466.4 643.2,466.4 643.2,466.4 643.2,466.4 643.2,466.4 643.2,466.4 643.2,466.4 643.2,466.4 643.2,466.4 643.2,466.5 643.2,466.5 643.2,466.5 643.2,466.5 643.2,466.5 643.2,466.5 643.2,466.5 643.2,466.5 643.2,466.5 643.2,466.5 643.2,466.5 643.2,466.5 643.2,466.5 643.2,466.5 643.2,466.5 643.2,466.5 643.2,466.5 643.2,466.5 643.2,466.5 643.2,466.5 643.2,466.5 643.2,466.5 643.2,466.5 643.2,466.5 643.2,466.5 643.2,466.5 643.2,466.6 643.2,466.6 643.2,466.6 643.2,466.6 643.2,466.6 643.2,466.6 643.2,466.6 643.2,466.6 643.2,466.6 643.2,466.6 643.2,466.6 643.2,466.6 643.2,466.6 643.2,466.6 643.2,466.6 643.2,466.6 643.2,466.6 643.2,466.6 643.2,466.6 643.2,466.6 643.2,466.6 643.2,466.6 643.2,466.6 643.2,466.6 643.2,466.6 643.2,466.7 643.2,466.7 643.2,466.7 643.2,466.7 643.2,466.7 643.2,466.7 643.2,466.7 643.2,466.7 643.2,466.7 643.2,466.7 643.2,466.7 643.2,466.7 643.2,466.7 643.2,466.7 643.2,466.7 643.2,466.7 643.2,466.7 643.2,466.7 643.2,466.7 643.2,466.7 643.2,466.7 643.2,466.7 643.2,466.7 643.2,466.7 643.2,466.7 643.2,466.7 643.2,466.8 643.2,466.8 643.2,466.8 643.2,466.8 643.2,466.8 643.2,466.8 643.2,466.8 643.2,466.8 643.2,466.8 643.2,466.8 643.2,466.8 643.2,466.8 643.2,466.8 643.2,466.8 643.2,466.8 643.2,466.8 643.2,466.8 643.2,466.8 643.2,466.8 643.2,466.8 643.2,466.8 643.2,466.8 643.2,466.8 643.2,466.8 643.2,466.8 643.2,466.8 643.2,466.8 643.2,466.9 643.2,466.9 643.2,466.9 643.2,466.9 643.2,466.9 643.2,466.9 643.2,466.9 643.2,466.9 643.2,466.9 643.2,466.9 643.2,466.9 643.2,466.9 643.2,466.9 643.2,466.9 643.2,466.9 643.2,466.9 643.2,466.9 643.2,466.9 643.2,466.9 643.2,466.9 643.2,466.9 643.2,466.9 643.2,466.9 643.2,466.9 643.2,466.9 643.2,466.9 643.2,467.0 643.2,467.0 643.2,467.0 643.2,467.0 643.2,467.0 643.2,467.0 643.2,467.0 643.2,467.0 643.2,467.0 643.2,467.0 643.2,467.0 643.2,467.0 643.2,467.0 643.2,467.0 643.2,467.0 643.2,467.0 643.2,467.0 643.2,467.0 643.2,467.0 643.2,467.0 643.2,467.0 643.2,467.0 643.2,467.0 643.2,467.0 643.2,467.0 643.2,467.0 643.2,467.0 643.2,467.1 643.2,467.1 643.2,467.1 643.2,467.1 643.2,467.1 643.2,467.1 643.2,467.1 643.2,467.1 643.2,467.1 643.2,467.1 643.2,467.1 643.2,467.1 643.2,467.1 643.2,467.1 643.2,467.1 643.2,467.1 643.2,467.1 643.2,467.1 643.2,467.1 643.2,467.1 643.2,467.1 643.2,467.1 643.2,467.1 643.2,467.1 643.2,467.1 643.2,467.1 643.2,467.1 643.2,467.1 643.2,467.2 643.2,467.2 643.2,467.2 643.2,467.2 643.2,467.2 643.2,467.2 643.2,467.2 643.2,467.2 643.2,467.2 643.2,467.2 643.2,467.2 643.2,467.2 643.2,467.2 643.2,467.2 643.2,467.2 643.2,467.2 643.2,467.2 643.2,467.2 643.2,467.2 643.2,467.2 643.2,467.2 643.2,467.2 643.2,467.2 643.2,467.2 643.2,467.2 643.2,467.2 643.2,467.2 643.2,467.2 643.2,467.3 643.2,467.3 643.2,467.3 643.2,467.3 643.2,467.3 643.2,467.3 643.2,467.3 643.2,467.3 643.2,467.3 643.2,467.3 643.2,467.3 643.2,467.3 643.2,467.3 643.2,467.3 643.2,467.3 643.2,467.3 643.2,467.3 643.2,467.3 643.2,467.3 643.2,467.3 643.2,467.3 643.2,467.3 643.2,467.3 643.2,467.3 643.2,467.3 643.2,467.3 643.2,467.3 643.2,467.3 643.2,467.3 643.2,467.4 643.2,467.4 643.2,467.4 643.2,467.4 643.2,467.4 643.2,467.4 643.2,467.4 643.2,467.4 643.2,467.4 643.2,467.4 643.2,467.4 643.2,467.4 643.2,467.4 643.2,467.4 643.2,467.4 643.2,467.4 643.2,467.4 643.2,467.4 643.2,467.4 643.2,467.4 643.2,467.4 643.2,467.4 643.2,467.4 643.2,467.4 643.2,467.4 643.2,467.4 643.2,467.4 643.2,467.4 643.2,467.5 643.2,467.5 643.2,467.5 643.2,467.5 643.2,467.5 643.2,467.5 643.2,467.5 643.2,467.5 643.2,467.5 643.2,467.5 643.2,467.5 643.2,467.5 643.2,467.5 643.2,467.5 643.2,467.5 643.2,467.5 643.2,467.5 643.2,467.5 643.2,467.5 643.2,467.5 643.2,467.5 643.2,467.5 643.2,467.5 643.2,467.5 643.2,467.5 643.2,467.5 643.2,467.5 643.2,467.5 643.2,467.5 643.2,467.5 643.2,467.6 643.2,467.6 643.2,467.6 643.2,467.6 643.2,467.6 643.2,467.6 643.2,467.6 643.2,467.6 643.2,467.6 643.2,467.6 643.2,467.6 643.2,467.6 643.2,467.6 643.2,467.6 643.2,467.6 643.2,467.6 643.2,467.6 643.2,467.6 643.2,467.6 643.2,467.6 643.2,467.6 643.2,467.6 643.2,467.6 643.2,467.6 643.2,467.6 643.2,467.6 643.2,467.6 643.2,467.6 643.2,467.6 643.2,467.6 643.2,467.7 643.2,467.7 643.2,467.7 643.2,467.7 643.2,467.7 643.2,467.7 643.2,467.7 643.2,467.7 643.2,467.7 643.2,467.7 643.2,467.7 643.2,467.7 643.2,467.7 643.2,467.7 643.2,467.7 643.2,467.7 643.2,467.7 643.2,467.7 643.2,467.7 643.2,467.7 643.2,467.7 643.2,467.7 643.2,467.7 643.2,467.7 643.2,467.7 643.2,467.7 643.2,467.7 643.2,467.7 643.2,467.7 643.2,467.7 643.2,467.8 643.2,467.8 643.2,467.8 643.2,467.8 643.2,467.8 643.2,467.8 643.2,467.8 643.2,467.8 643.2,467.8 643.2,467.8 643.2,467.8 643.2,467.8 643.2,467.8 643.2,467.8 643.2,467.8 643.2,467.8 643.2,467.8 643.2,467.8 643.2,467.8 643.2,467.8 643.2,467.8 643.2,467.8 643.2,467.8 643.2,467.8 643.2,467.8 643.2,467.8 643.2,467.8 643.2,467.8 643.2,467.8 643.2,467.8 643.2,467.8 643.2,467.9 643.2,467.9 643.2,467.9 643.2,467.9 643.2,467.9 643.2,467.9 643.2,467.9 643.2,467.9 643.2,467.9 643.2,467.9 643.2,467.9 643.2,467.9 643.2,467.9 643.2,467.9 643.2,467.9 643.2,467.9 643.2,467.9 643.2,467.9 643.2,467.9 643.2,467.9 643.2,467.9 643.2,467.9 643.2,467.9 643.2,467.9 643.2,467.9 643.2,467.9 643.2,467.9 643.2,467.9 643.2,467.9 643.2,467.9 643.2,467.9 643.2,468.0 643.2,468.0 643.2,468.0 643.2,468.0 643.2,468.0 643.2,468.0 643.2,468.0 643.2,468.0 643.2,468.0 643.2,468.0 643.2,468.0 643.2,468.0 643.2,468.0 643.2,468.0 643.2,468.0 643.2,468.0 643.2,468.0 643.2,468.0 643.2,468.0 643.2,468.0 643.2,468.0 643.2,468.0 643.2,468.0 643.2,468.0 643.2,468.0 643.2,468.0 643.2,468.0 643.2,468.0 643.2,468.0 643.2,468.0 643.2,468.0 643.2,468.0 643.2,468.1 643.2,468.1 643.2,468.1 643.2,468.1 643.2,468.1 643.2,468.1 643.2,468.1 643.2,468.1 643.2,468.1 643.2,468.1 643.2,468.1 643.2,468.1 643.2,468.1 643.2,468.1 643.2,468.1 643.2,468.1 643.2,468.1 643.2,468.1 643.2,468.1 643.2,468.1 643.2,468.1 643.2,468.1 643.2,468.1 643.2,468.1 643.2,468.1 643.2,468.1 643.2,468.1 643.2,468.1 643.2,468.1 643.2,468.1 643.2,468.1 643.2,468.1 643.2,468.1 643.2,468.2 643.2,468.2 643.2,468.2 643.2,468.2 643.2,468.2 643.2,468.2 643.2,468.2 643.2,468.2 643.2,468.2 643.2,468.2 643.2,468.2 643.2,468.2 643.2,468.2 643.2,468.2 643.2,468.2 643.2,468.2 643.2,468.2 643.2,468.2 643.2,468.2 643.2,468.2 643.2,468.2 643.2,468.2 643.2,468.2 643.2,468.2 643.2,468.2 643.2,468.2 643.2,468.2 643.2,468.2 643.2,468.2 643.2,468.2 643.2,468.2 643.2,468.2 643.2,468.2 643.2,468.3 643.2,468.3 643.2,468.3 643.2,468.3 643.2,468.3 643.2,468.3 643.2,468.3 643.2,468.3 643.2,468.3 643.2,468.3 643.2,468.3 643.2,468.3 643.2,468.3 643.2,468.3 643.2,468.3 643.2,468.3 643.2,468.3 643.2,468.3 643.2,468.3 643.2,468.3 643.2,468.3 643.2,468.3 643.2,468.3 643.2,468.3 643.2,468.3 643.2,468.3 643.2,468.3 643.2,468.3 643.2,468.3 643.2,468.3 643.2,468.3 643.2,468.3 643.2,468.4 643.2,468.4 643.2,468.4 643.2,468.4 643.2,468.4 643.2,468.4 643.2,468.4 643.2,468.4 643.2,468.4 643.2,468.4 643.2,468.4 643.2,468.4 643.2,468.4 643.2,468.4 643.2,468.4 643.2,468.4 643.2,468.4 643.2,468.4 643.2,468.4 643.2,468.4 643.2,468.4 643.2,468.4 643.2,468.4 643.2,468.4 643.2,468.4 643.2,468.4 643.2,468.4 643.2,468.4 643.2,468.4 643.2,468.4 643.2,468.4 643.2,468.4 643.2,468.4 643.2,468.5 643.2,468.5 643.2,468.5 643.2,468.5 643.2,468.5 643.2,468.5 643.2,468.5 643.2,468.5 643.2,468.5 643.2,468.5 643.2,468.5 643.2,468.5 643.2,468.5 643.2,468.5 643.2,468.5 643.2,468.5 643.2,468.5 643.2,468.5 643.2,468.5 643.2,468.5 643.2,468.5 643.2,468.5 643.2,468.5 643.2,468.5 643.2,468.5 643.2,468.5 643.2,468.5 643.2,468.5 643.2,468.5 643.2,468.5 643.2,468.5 643.2,468.5 643.2,468.5 643.2,468.5 643.2,468.5 643.2,468.6 643.2,468.6 643.2,468.6 643.2,468.6 643.2,468.6 643.2,468.6 643.2,468.6 643.2,468.6 643.2,468.6 643.2,468.6 643.2,468.6 643.2,468.6 643.2,468.6 643.2,468.6 643.2,468.6 643.2,468.6 643.2,468.6 643.2,468.6 643.2,468.6 643.2,468.6 643.2,468.6 643.2,468.6 643.2,468.6 643.2,468.6 643.2,468.6 643.2,468.6 643.2,468.6 643.2,468.6 643.2,468.6 643.2,468.6 643.2,468.6 643.2,468.6 643.2,468.6 643.2,468.6 643.2,468.6 643.2,468.7 643.2,468.7 643.2,468.7 643.2,468.7 643.2,468.7 643.2,468.7 643.2,468.7 643.2,468.7 643.2,468.7 643.2,468.7 643.2,468.7 643.2,468.7 643.2,468.7 643.2,468.7 643.2,468.7 643.2,468.7 643.2,468.7 643.2,468.7 643.2,468.7 643.2,468.7 643.2,468.7 643.2,468.7 643.2,468.7 643.2,468.7 643.2,468.7 643.2,468.7 643.2,468.7 643.2,468.7 643.2,468.7 643.2,468.7 643.2,468.7 643.2,468.7 643.2,468.7 643.2,468.7 643.2,468.7 643.2,468.7 643.2,468.8 643.2,468.8 643.2,468.8 643.2,468.8 643.2,468.8 643.2,468.8 643.2,468.8 643.2,468.8 643.2,468.8 643.2,468.8 643.2,468.8 643.2,468.8 643.2,468.8 643.2,468.8 643.2,468.8 643.2,468.8 643.2,468.8 643.2,468.8 643.2,468.8 643.2,468.8 643.2,468.8 643.2,468.8 643.2,468.8 643.2,468.8 643.2,468.8 643.2,468.8 643.2,468.8 643.2,468.8 643.2,468.8 643.2,468.8 643.2,468.8 643.2,468.8 643.2,468.8 643.2,468.8 643.2,468.8 643.2,468.8 643.2,468.8 643.2,468.9 643.2,468.9 643.2,468.9 643.2,468.9 643.2,468.9 643.2,468.9 643.2,468.9 643.2,468.9 643.2,468.9 643.2,468.9 643.2,468.9 643.2,468.9 643.2,468.9 643.2,468.9 643.2,468.9 643.2,468.9 643.2,468.9 643.2,468.9 643.2,468.9 643.2,468.9 643.2,468.9 643.2,468.9 643.2,468.9 643.2,468.9 643.2,468.9 643.2,468.9 643.2,468.9 643.2,468.9 643.2,468.9 643.2,468.9 643.2,468.9 643.2,468.9 643.2,468.9 643.2,468.9 643.2,468.9 643.2,468.9 643.2,468.9 643.2,469.0 643.2,469.0 643.2,469.0 643.2,469.0 643.2,469.0 643.2,469.0 643.2,469.0 643.2,469.0 643.2,469.0 643.2,469.0 643.2,469.0 643.2,469.0 643.2,469.0 643.2,469.0 643.2,469.0 643.2,469.0 643.2,469.0 643.2,469.0 643.2,469.0 643.2,469.0 643.2,469.0 643.2,469.0 643.2,469.0 643.2,469.0 643.2,469.0 643.2,469.0 643.2,469.0 643.2,469.0 643.2,469.0 643.2,469.0 643.2,469.0 643.2,469.0 643.2,469.0 643.2,469.0 643.2,469.0 643.2,469.0 643.2,469.0 643.2,469.0 643.2,469.1 643.2,469.1 643.2,469.1 643.2,469.1 643.2,469.1 643.2,469.1 643.2,469.1 643.2,469.1 643.2,469.1 643.2,469.1 643.2,469.1 643.2,469.1 643.2,469.1 643.2,469.1 643.2,469.1 643.2,469.1 643.2,469.1 643.2,469.1 643.2,469.1 643.2,469.1 643.2,469.1 643.2,469.1 643.2,469.1 643.2,469.1 643.2,469.1 643.2,469.1 643.2,469.1 643.2,469.1 643.2,469.1 643.2,469.1 643.2,469.1 643.2,469.1 643.2,469.1 643.2,469.1 643.2,469.1 643.2,469.1 643.2,469.1 643.2,469.1 643.2,469.1 643.2,469.2 643.2,469.2 643.2,469.2 643.2,469.2 643.2,469.2 643.2,469.2 643.2,469.2 643.2,469.2 643.2,469.2 643.2,469.2 643.2,469.2 643.2,469.2 643.2,469.2 643.2,469.2 643.2,469.2 643.2,469.2 643.2,469.2 643.2,469.2 643.2,469.2 643.2,469.2 643.2,469.2 643.2,469.2 648.2,469.1 648.2,469.1 648.2,469.1 648.2,469.1 648.2,469.1 648.2,469.1 648.2,469.1 648.2,469.1 648.2,469.1 648.2,469.1 648.2,469.1 648.2,469.1 648.2,469.1 648.2,469.1 648.2,469.1 648.2,469.1 648.2,469.2 648.2,469.2 648.2,469.2 648.2,469.2 648.2,469.2 648.2,469.2 648.2,469.2 648.2,469.2 648.2,469.2 648.2,469.2 648.2,469.2 648.2,469.2 648.2,469.2 648.2,469.2 648.2,469.2 648.2,469.2 648.2,469.2 648.2,469.2 648.2,469.2 648.2,469.2 648.2,469.2 648.2,469.2 648.2,469.2 648.2,469.2 648.2,469.2 648.2,469.2 648.2,469.2 648.2,469.2 648.2,469.2 648.2,469.2 648.2,469.2 648.2,469.2 648.2,469.2 648.2,469.2 648.2,469.2 653.1,469.1 653.1,469.1 653.1,469.2 653.1,469.2 653.1,469.2 653.1,469.2 653.1,469.2 653.1,469.2 653.1,469.2 653.1,469.2 653.1,469.2 653.1,469.2 653.1,469.2 653.1,469.2 653.1,469.2 658.1,469.1 658.1,469.1 658.1,469.1 658.1,469.1 658.1,469.1 658.1,469.1 658.1,469.1 658.1,469.1 658.1,469.1 658.1,469.1 658.1,469.1 658.1,469.1 658.1,469.1 658.1,469.1 658.1,469.1 658.1,469.1 658.1,469.1 658.1,469.1 658.1,469.1 658.1,469.1 658.1,469.1 658.1,469.1 658.1,469.1 658.1,469.1 658.1,469.1 658.1,469.2 658.1,469.2 658.1,469.2 658.1,469.2 658.1,469.2 658.1,469.2 658.1,469.2 658.1,469.2 658.1,469.2 658.1,469.2 658.1,469.2 658.1,469.2 658.1,469.2 658.1,469.2 658.1,469.2 658.1,469.2 658.1,469.2 658.1,469.2 658.1,469.2 658.1,469.2 658.1,469.2 658.1,469.2 658.1,469.2 658.1,469.2 658.1,469.2 658.1,469.2 658.1,469.2 658.1,469.2 658.1,469.2 658.1,469.2 658.1,469.2 658.1,469.2 658.1,469.2 658.1,469.2 658.1,469.2 658.1,469.2 658.1,469.2 658.1,469.2 658.1,469.2 658.1,469.2 658.1,469.2 658.1,469.3 658.1,469.3 658.1,469.3 658.1,469.3 658.1,469.3 658.1,469.3 658.1,469.3 658.1,469.3 658.1,469.3 658.1,469.3 658.1,469.3 658.1,469.3 658.1,469.3 658.1,469.3 658.1,469.3 658.1,469.3 658.1,469.3 658.1,469.3 658.1,469.3 658.1,469.3 658.1,469.3 658.1,469.3 658.1,469.3 658.1,469.3 658.1,469.3 658.1,469.3 658.1,469.3 658.1,469.3 658.1,469.3 658.1,469.3 658.1,469.3 658.1,469.3 658.1,469.3 658.1,469.3 658.1,469.3 658.1,469.3 658.1,469.3 658.1,469.3 658.1,469.3 658.1,469.3 658.1,469.3 658.1,469.4 658.1,469.4 658.1,469.4 658.1,469.4 658.1,469.4 658.1,469.4 658.1,469.4 658.1,469.4 658.1,469.4 658.1,469.4 658.1,469.4 658.1,469.4 658.1,469.4 658.1,469.4 658.1,469.4 658.1,469.4 658.1,469.4 658.1,469.4 658.1,469.4 658.1,469.4 658.1,469.4 658.1,469.4 658.1,469.4 658.1,469.4 658.1,469.4 658.1,469.4 658.1,469.4 658.1,469.4 658.1,469.4 658.1,469.4 658.1,469.4 658.1,469.4 658.1,469.4 658.1,469.4 658.1,469.4 658.1,469.4 658.1,469.4 658.1,469.4 658.1,469.4 658.1,469.4 658.1,469.4 658.1,469.5 658.1,469.5 658.1,469.5 658.1,469.5 658.1,469.5 658.1,469.5 658.1,469.5 658.1,469.5 658.1,469.5 658.1,469.5 658.1,469.5 658.1,469.5 658.1,469.5 658.1,469.5 658.1,469.5 658.1,469.5 658.1,469.5 658.1,469.5 658.1,469.5 658.1,469.5 658.1,469.5 658.1,469.5 658.1,469.5 658.1,469.5 658.1,469.5 658.1,469.5 658.1,469.5 658.1,469.5 658.1,469.5 658.1,469.5 658.1,469.5 658.1,469.5 658.1,469.5 658.1,469.5 658.1,469.5 658.1,469.5 658.1,469.5 658.1,469.5 658.1,469.5 658.1,469.5 658.1,469.5 658.1,469.5 658.1,469.6 658.1,469.6 658.1,469.6 658.1,469.6 658.1,469.6 658.1,469.6 658.1,469.6 658.1,469.6 658.1,469.6 658.1,469.6 658.1,469.6 658.1,469.6 658.1,469.6 658.1,469.6 658.1,469.6 658.1,469.6 658.1,469.6 658.1,469.6 658.1,469.6 658.1,469.6 658.1,469.6 658.1,469.6 658.1,469.6 658.1,469.6 658.1,469.6 658.1,469.6 658.1,469.6 658.1,469.6 658.1,469.6 658.1,469.6 658.1,469.6 658.1,469.6 658.1,469.6 658.1,469.6 658.1,469.6 658.1,469.6 658.1,469.6 658.1,469.6 658.1,469.6 658.1,469.6 658.1,469.6 658.1,469.6 658.1,469.6 658.1,469.6 658.1,469.7 658.1,469.7 658.1,469.7 658.1,469.7 658.1,469.7 658.1,469.7 658.1,469.7 658.1,469.7 658.1,469.7 658.1,469.7 658.1,469.7 658.1,469.7 658.1,469.7 658.1,469.7 658.1,469.7 658.1,469.7 658.1,469.7 658.1,469.7 658.1,469.7 658.1,469.7 658.1,469.7 658.1,469.7 658.1,469.7 658.1,469.7 658.1,469.7 658.1,469.7 658.1,469.7 658.1,469.7 658.1,469.7 658.1,469.7 658.1,469.7 658.1,469.7 658.1,469.7 658.1,469.7 658.1,469.7 658.1,469.7 658.1,469.7 658.1,469.7 658.1,469.7 658.1,469.7 658.1,469.7 658.1,469.7 658.1,469.7 658.1,469.7 658.1,469.8 658.1,469.8 658.1,469.8 658.1,469.8 658.1,469.8 658.1,469.8 658.1,469.8 658.1,469.8 658.1,469.8 658.1,469.8 658.1,469.8 658.1,469.8 658.1,469.8 658.1,469.8 658.1,469.8 658.1,469.8 658.1,469.8 658.1,469.8 658.1,469.8 658.1,469.8 658.1,469.8 658.1,469.8 658.1,469.8 658.1,469.8 658.1,469.8 658.1,469.8 658.1,469.8 658.1,469.8 658.1,469.8 658.1,469.8 658.1,469.8 658.1,469.8 658.1,469.8 658.1,469.8 658.1,469.8 658.1,469.8 658.1,469.8 658.1,469.8 658.1,469.8 658.1,469.8 658.1,469.8 658.1,469.8 658.1,469.8 658.1,469.8 658.1,469.8 658.1,469.9 658.1,469.9 658.1,469.9 658.1,469.9 658.1,469.9 658.1,469.9 658.1,469.9 658.1,469.9 658.1,469.9 658.1,469.9 658.1,469.9 658.1,469.9 658.1,469.9 658.1,469.9 658.1,469.9 658.1,469.9 658.1,469.9 658.1,469.9 658.1,469.9 658.1,469.9 658.1,469.9 658.1,469.9 658.1,469.9 658.1,469.9 658.1,469.9 658.1,469.9 658.1,469.9 658.1,469.9 658.1,469.9 658.1,469.9 658.1,469.9 658.1,469.9 658.1,469.9 658.1,469.9 658.1,469.9 658.1,469.9 658.1,469.9 658.1,469.9 658.1,469.9 658.1,469.9 658.1,469.9 658.1,469.9 658.1,469.9 658.1,469.9 658.1,469.9 658.1,469.9 658.1,470.0 658.1,470.0 658.1,470.0 658.1,470.0 658.1,470.0 658.1,470.0 658.1,470.0 658.1,470.0 658.1,470.0 658.1,470.0 658.1,470.0 658.1,470.0 658.1,470.0 658.1,470.0 658.1,470.0 658.1,470.0 658.1,470.0 658.1,470.0 658.1,470.0 658.1,470.0 658.1,470.0 658.1,470.0 658.1,470.0 658.1,470.0 658.1,470.0 658.1,470.0 658.1,470.0 658.1,470.0 658.1,470.0 658.1,470.0 658.1,470.0 658.1,470.0 658.1,470.0 658.1,470.0 658.1,470.0 658.1,470.0 658.1,470.0 658.1,470.0 658.1,470.0 658.1,470.0 658.1,470.0 658.1,470.0 658.1,470.0 658.1,470.0 658.1,470.0 658.1,470.0 658.1,470.0 658.1,470.1 658.1,470.1 658.1,470.1 658.1,470.1 658.1,470.1 658.1,470.1 658.1,470.1 658.1,470.1 658.1,470.1 658.1,470.1 658.1,470.1 658.1,470.1 658.1,470.1 658.1,470.1 658.1,470.1 658.1,470.1 658.1,470.1 658.1,470.1 658.1,470.1 658.1,470.1 658.1,470.1 658.1,470.1 658.1,470.1 658.1,470.1 658.1,470.1 658.1,470.1 658.1,470.1 658.1,470.1 658.1,470.1 658.1,470.1 658.1,470.1 658.1,470.1 658.1,470.1 658.1,470.1 658.1,470.1 658.1,470.1 658.1,470.1 658.1,470.1 658.1,470.1 658.1,470.1 658.1,470.1 658.1,470.1 658.1,470.1 658.1,470.1 658.1,470.1 658.1,470.1 658.1,470.1 658.1,470.1 658.1,470.2 658.1,470.2 658.1,470.2 658.1,470.2 658.1,470.2 658.1,470.2 658.1,470.2 658.1,470.2 658.1,470.2 658.1,470.2 658.1,470.2 658.1,470.2 658.1,470.2 658.1,470.2 658.1,470.2 658.1,470.2 658.1,470.2 658.1,470.2 658.1,470.2 658.1,470.2 658.1,470.2 658.1,470.2 658.1,470.2 658.1,470.2 658.1,470.2 658.1,470.2 658.1,470.2 658.1,470.2 658.1,470.2 658.1,470.2 658.1,470.2 658.1,470.2 658.1,470.2 658.1,470.2 658.1,470.2 658.1,470.2 658.1,470.2 658.1,470.2 658.1,470.2 658.1,470.2 658.1,470.2 658.1,470.2 658.1,470.2 658.1,470.2 658.1,470.2 658.1,470.2 658.1,470.2 658.1,470.2 658.1,470.3 658.1,470.3 658.1,470.3 658.1,470.3 658.1,470.3 658.1,470.3 658.1,470.3 658.1,470.3 658.1,470.3 658.1,470.3 658.1,470.3 658.1,470.3 658.1,470.3 658.1,470.3 658.1,470.3 658.1,470.3 658.1,470.3 658.1,470.3 658.1,470.3 658.1,470.3 658.1,470.3 658.1,470.3 658.1,470.3 658.1,470.3 658.1,470.3 658.1,470.3 658.1,470.3 658.1,470.3 658.1,470.3 658.1,470.3 658.1,470.3 658.1,470.3 658.1,470.3 658.1,470.3 658.1,470.3 658.1,470.3 658.1,470.3 658.1,470.3 658.1,470.3 658.1,470.3 658.1,470.3 658.1,470.3 658.1,470.3 658.1,470.3 658.1,470.3 658.1,470.3 658.1,470.3 658.1,470.3 658.1,470.3 658.1,470.3 658.1,470.4 658.1,470.4 658.1,470.4 658.1,470.4 658.1,470.4 658.1,470.4 658.1,470.4 658.1,470.4 658.1,470.4 658.1,470.4 658.1,470.4 658.1,470.4 658.1,470.4 658.1,470.4 658.1,470.4 658.1,470.4 658.1,470.4 658.1,470.4 658.1,470.4 658.1,470.4 658.1,470.4 658.1,470.4 658.1,470.4 658.1,470.4 658.1,470.4 658.1,470.4 658.1,470.4 658.1,470.4 658.1,470.4 658.1,470.4 658.1,470.4 658.1,470.4 658.1,470.4 658.1,470.4 658.1,470.4 658.1,470.4 658.1,470.4 658.1,470.4 658.1,470.4 658.1,470.4 658.1,470.4 658.1,470.4 658.1,470.4 658.1,470.4 658.1,470.4 658.1,470.4 658.1,470.4 658.1,470.4 658.1,470.4 658.1,470.4 658.1,470.4 658.1,470.5 658.1,470.5 658.1,470.5 658.1,470.5 658.1,470.5 658.1,470.5 658.1,470.5 658.1,470.5 658.1,470.5 658.1,470.5 658.1,470.5 658.1,470.5 658.1,470.5 658.1,470.5 658.1,470.5 658.1,470.5 658.1,470.5 658.1,470.5 658.1,470.5 658.1,470.5 658.1,470.5 658.1,470.5 658.1,470.5 658.1,470.5 658.1,470.5 658.1,470.5 658.1,470.5 658.1,470.5 658.1,470.5 658.1,470.5 658.1,470.5 658.1,470.5 658.1,470.5 658.1,470.5 658.1,470.5 658.1,470.5 658.1,470.5 658.1,470.5 658.1,470.5 658.1,470.5 658.1,470.5 658.1,470.5 658.1,470.5 658.1,470.5 658.1,470.5 658.1,470.5 658.1,470.5 658.1,470.5 658.1,470.5 658.1,470.5 658.1,470.5 658.1,470.6 658.1,470.6 658.1,470.6 658.1,470.6 658.1,470.6 658.1,470.6 658.1,470.6 658.1,470.6 658.1,470.6 658.1,470.6 658.1,470.6 658.1,470.6 658.1,470.6 658.1,470.6 658.1,470.6 658.1,470.6 658.1,470.6 658.1,470.6 658.1,470.6 658.1,470.6 658.1,470.6 658.1,470.6 658.1,470.6 658.1,470.6 658.1,470.6 658.1,470.6 658.1,470.6 658.1,470.6 658.1,470.6 658.1,470.6 658.1,470.6 658.1,470.6 658.1,470.6 658.1,470.6 658.1,470.6 658.1,470.6 658.1,470.6 658.1,470.6 658.1,470.6 658.1,470.6 658.1,470.6 658.1,470.6 658.1,470.6 658.1,470.6 658.1,470.6 658.1,470.6 658.1,470.6 658.1,470.6 658.1,470.6 658.1,470.6 658.1,470.6 658.1,470.6 658.1,470.6 658.1,470.7 658.1,470.7 658.1,470.7 658.1,470.7 658.1,470.7 658.1,470.7 658.1,470.7 658.1,470.7 658.1,470.7 658.1,470.7 658.1,470.7 658.1,470.7 658.1,470.7 658.1,470.7 658.1,470.7 658.1,470.7 658.1,470.7 658.1,470.7 658.1,470.7 658.1,470.7 658.1,470.7 658.1,470.7 658.1,470.7 658.1,470.7 658.1,470.7 658.1,470.7 658.1,470.7 658.1,470.7 658.1,470.7 658.1,470.7 658.1,470.7 658.1,470.7 658.1,470.7 658.1,470.7 658.1,470.7 658.1,470.7 658.1,470.7 658.1,470.7 658.1,470.7 658.1,470.7 658.1,470.7 658.1,470.7 658.1,470.7 658.1,470.7 658.1,470.7 658.1,470.7 658.1,470.7 658.1,470.7 658.1,470.7 658.1,470.7 658.1,470.7 658.1,470.7 658.1,470.7 658.1,470.7 658.1,470.7 658.1,470.8 658.1,470.8 658.1,470.8 658.1,470.8 658.1,470.8 658.1,470.8 658.1,470.8 658.1,470.8 658.1,470.8 658.1,470.8 658.1,470.8 658.1,470.8 658.1,470.8 658.1,470.8 658.1,470.8 658.1,470.8 658.1,470.8 658.1,470.8 658.1,470.8 658.1,470.8 658.1,470.8 658.1,470.8 658.1,470.8 658.1,470.8 658.1,470.8 658.1,470.8 658.1,470.8 658.1,470.8 658.1,470.8 658.1,470.8 658.1,470.8 658.1,470.8 658.1,470.8 658.1,470.8 658.1,470.8 658.1,470.8 658.1,470.8 658.1,470.8 658.1,470.8 658.1,470.8 658.1,470.8 658.1,470.8 658.1,470.8 658.1,470.8 658.1,470.8 658.1,470.8 658.1,470.8 658.1,470.8 658.1,470.8 658.1,470.8 658.1,470.8 658.1,470.8 658.1,470.8 658.1,470.8 658.1,470.8 658.1,470.9 658.1,470.9 658.1,470.9 658.1,470.9 658.1,470.9 658.1,470.9 658.1,470.9 658.1,470.9 658.1,470.9 658.1,470.9 658.1,470.9 658.1,470.9 658.1,470.9 658.1,470.9 658.1,470.9 658.1,470.9 658.1,470.9 658.1,470.9 658.1,470.9 658.1,470.9 658.1,470.9 658.1,470.9 658.1,470.9 658.1,470.9 658.1,470.9 658.1,470.9 658.1,470.9 658.1,470.9 658.1,470.9 658.1,470.9 658.1,470.9 658.1,470.9 658.1,470.9 658.1,470.9 658.1,470.9 658.1,470.9 658.1,470.9 658.1,470.9 658.1,470.9 658.1,470.9 658.1,470.9 658.1,470.9 658.1,470.9 658.1,470.9 658.1,470.9 658.1,470.9 658.1,470.9 658.1,470.9 658.1,470.9 658.1,470.9 658.1,470.9 658.1,470.9 658.1,470.9 658.1,470.9 658.1,470.9 658.1,470.9 658.1,471.0 658.1,471.0 658.1,471.0 658.1,471.0 658.1,471.0 658.1,471.0 658.1,471.0 658.1,471.0 658.1,471.0 658.1,471.0 658.1,471.0 658.1,471.0 658.1,471.0 658.1,471.0 658.1,471.0 658.1,471.0 658.1,471.0 658.1,471.0 658.1,471.0 658.1,471.0 658.1,471.0 658.1,471.0 658.1,471.0 658.1,471.0 658.1,471.0 658.1,471.0 658.1,471.0 658.1,471.0 658.1,471.0 658.1,471.0 658.1,471.0 658.1,471.0 658.1,471.0 658.1,471.0 658.1,471.0 658.1,471.0 658.1,471.0 658.1,471.0 658.1,471.0 658.1,471.0 658.1,471.0 658.1,471.0 658.1,471.0 658.1,471.0 658.1,471.0 658.1,471.0 658.1,471.0 658.1,471.0 658.1,471.0 658.1,471.0 658.1,471.0 658.1,471.0 658.1,471.0 658.1,471.0 658.1,471.0 658.1,471.0 658.1,471.0 658.1,471.0 658.1,471.0 658.1,471.1 658.1,471.1 658.1,471.1 658.1,471.1 658.1,471.1 658.1,471.1 658.1,471.1 658.1,471.1 658.1,471.1 658.1,471.1 658.1,471.1 658.1,471.1 658.1,471.1 658.1,471.1 658.1,471.1 658.1,471.1 658.1,471.1 658.1,471.1 658.1,471.1 658.1,471.1 658.1,471.1 658.1,471.1 658.1,471.1 658.1,471.1 658.1,471.1 658.1,471.1 658.1,471.1 658.1,471.1 658.1,471.1 658.1,471.1 658.1,471.1 658.1,471.1 658.1,471.1 658.1,471.1 658.1,471.1 658.1,471.1 658.1,471.1 658.1,471.1 658.1,471.1 658.1,471.1 658.1,471.1 658.1,471.1 658.1,471.1 658.1,471.1 658.1,471.1 658.1,471.1 658.1,471.1 658.1,471.1 658.1,471.1 658.1,471.1 658.1,471.1 658.1,471.1 658.1,471.1 658.1,471.1 658.1,471.1 658.1,471.1 658.1,471.1 658.1,471.1 658.1,471.1 658.1,471.2 658.1,471.2 658.1,471.2 658.1,471.2 658.1,471.2 658.1,471.2 658.1,471.2 658.1,471.2 658.1,471.2 658.1,471.2 658.1,471.2 658.1,471.2 658.1,471.2 658.1,471.2 658.1,471.2 658.1,471.2 658.1,471.2 658.1,471.2 658.1,471.2 658.1,471.2 658.1,471.2 658.1,471.2 658.1,471.2 658.1,471.2 658.1,471.2 658.1,471.2 658.1,471.2 658.1,471.2 658.1,471.2 658.1,471.2 658.1,471.2 658.1,471.2 658.1,471.2 658.1,471.2 658.1,471.2 658.1,471.2 658.1,471.2 658.1,471.2 658.1,471.2 658.1,471.2 658.1,471.2 658.1,471.2 658.1,471.2 658.1,471.2 658.1,471.2 658.1,471.2 658.1,471.2 658.1,471.2 658.1,471.2 658.1,471.2 658.1,471.2 658.1,471.2 658.1,471.2 658.1,471.2 658.1,471.2 658.1,471.2 658.1,471.2 658.1,471.2 658.1,471.2 658.1,471.2 658.1,471.2 658.1,471.3 658.1,471.3 658.1,471.3 658.1,471.3 658.1,471.3 658.1,471.3 658.1,471.3 658.1,471.3 658.1,471.3 658.1,471.3 658.1,471.3 658.1,471.3 658.1,471.3 658.1,471.3 658.1,471.3 658.1,471.3 658.1,471.3 658.1,471.3 658.1,471.3 658.1,471.3 658.1,471.3 658.1,471.3 658.1,471.3 658.1,471.3 658.1,471.3 658.1,471.3 658.1,471.3 658.1,471.3 658.1,471.3 658.1,471.3 658.1,471.3 658.1,471.3 658.1,471.3 658.1,471.3 658.1,471.3 658.1,471.3 658.1,471.3 658.1,471.3 658.1,471.3 658.1,471.3 658.1,471.3 658.1,471.3 658.1,471.3 658.1,471.3 658.1,471.3 658.1,471.3 658.1,471.3 658.1,471.3 658.1,471.3 658.1,471.3 658.1,471.3 658.1,471.3 658.1,471.3 658.1,471.3 658.1,471.3 658.1,471.3 658.1,471.3 658.1,471.3 658.1,471.3 658.1,471.3 658.1,471.3 658.1,471.3 658.1,471.4 658.1,471.4 658.1,471.4 658.1,471.4 658.1,471.4 658.1,471.4 658.1,471.4 658.1,471.4 658.1,471.4 658.1,471.4 658.1,471.4 658.1,471.4 658.1,471.4 658.1,471.4 658.1,471.4 658.1,471.4 658.1,471.4 658.1,471.4 658.1,471.4 658.1,471.4 658.1,471.4 658.1,471.4 658.1,471.4 658.1,471.4 658.1,471.4 658.1,471.4 658.1,471.4 658.1,471.4 658.1,471.4 658.1,471.4 658.1,471.4 658.1,471.4 658.1,471.4 658.1,471.4 658.1,471.4 658.1,471.4 658.1,471.4 658.1,471.4 658.1,471.4 658.1,471.4 658.1,471.4 658.1,471.4 658.1,471.4 658.1,471.4 658.1,471.4 658.1,471.4 658.1,471.4 658.1,471.4 658.1,471.4 658.1,471.4 658.1,471.4 658.1,471.4 658.1,471.4 658.1,471.4 658.1,471.4 658.1,471.4 658.1,471.4 658.1,471.4 658.1,471.4 658.1,471.4 658.1,471.4 658.1,471.4 658.1,471.4 658.1,471.4 658.1,471.5 658.1,471.5 658.1,471.5 658.1,471.5 658.1,471.5 658.1,471.5 658.1,471.5 658.1,471.5 658.1,471.5 658.1,471.5 658.1,471.5 658.1,471.5 658.1,471.5 658.1,471.5 658.1,471.5 658.1,471.5 658.1,471.5 658.1,471.5 658.1,471.5 658.1,471.5 658.1,471.5 658.1,471.5 658.1,471.5 658.1,471.5 658.1,471.5 658.1,471.5 658.1,471.5 658.1,471.5 658.1,471.5 658.1,471.5 658.1,471.5 658.1,471.5 658.1,471.5 658.1,471.5 658.1,471.5 658.1,471.5 658.1,471.5 658.1,471.5 658.1,471.5 658.1,471.5 658.1,471.5 658.1,471.5 658.1,471.5 658.1,471.5 658.1,471.5 658.1,471.5 658.1,471.5 658.1,471.5 658.1,471.5 658.1,471.5 658.1,471.5 658.1,471.5 658.1,471.5 658.1,471.5 658.1,471.5 658.1,471.5 658.1,471.5 658.1,471.5 658.1,471.5 658.1,471.5 658.1,471.5 658.1,471.5 658.1,471.5 658.1,471.5 658.1,471.6 658.1,471.6 658.1,471.6 658.1,471.6 658.1,471.6 658.1,471.6 658.1,471.6 658.1,471.6 658.1,471.6 658.1,471.6 658.1,471.6 658.1,471.6 663.0,471.5 663.0,471.5 663.0,471.5 663.0,471.5 663.0,471.5 663.0,471.5 663.0,471.5 663.0,471.5 663.0,471.5 663.0,471.5 663.0,471.5 663.0,471.5 663.0,471.5 663.0,471.5 663.0,471.5 663.0,471.5 663.0,471.5 663.0,471.5 663.0,471.5 663.0,471.5 663.0,471.5 663.0,471.5 663.0,471.5 663.0,471.5 663.0,471.5 663.0,471.5 663.0,471.5 663.0,471.5 663.0,471.5 663.0,471.5 663.0,471.5 663.0,471.5 663.0,471.5 663.0,471.5 663.0,471.5 663.0,471.5 663.0,471.5 663.0,471.6 663.0,471.6 663.0,471.6 663.0,471.6 663.0,471.6 663.0,471.6 663.0,471.6 663.0,471.6 663.0,471.6 663.0,471.6 663.0,471.6 663.0,471.6 663.0,471.6 663.0,471.6 663.0,471.6 663.0,471.6 663.0,471.6 663.0,471.6 663.0,471.6 663.0,471.6 663.0,471.6 663.0,471.6 663.0,471.6 663.0,471.6 663.0,471.6 663.0,471.6 663.0,471.6 663.0,471.6 663.0,471.6 663.0,471.6 663.0,471.6 663.0,471.6 663.0,471.6 663.0,471.6 663.0,471.6 663.0,471.6 663.0,471.6 663.0,471.6 663.0,471.6 663.0,471.6 663.0,471.6 663.0,471.6 663.0,471.6 663.0,471.6 663.0,471.6 663.0,471.6 663.0,471.6 663.0,471.6 663.0,471.6 663.0,471.6 663.0,471.6 663.0,471.6 663.0,471.6 663.0,471.6 663.0,471.6 663.0,471.6 663.0,471.6 663.0,471.6 663.0,471.6 663.0,471.6 663.0,471.6 663.0,471.6 663.0,471.6 663.0,471.6 663.0,471.6 663.0,471.6 663.0,471.6 663.0,471.7 663.0,471.7 663.0,471.7 663.0,471.7 663.0,471.7 663.0,471.7 663.0,471.7 663.0,471.7 663.0,471.7 663.0,471.7 663.0,471.7 663.0,471.7 663.0,471.7 663.0,471.7 663.0,471.7 663.0,471.7 663.0,471.7 663.0,471.7 663.0,471.7 663.0,471.7 663.0,471.7 663.0,471.7 663.0,471.7 663.0,471.7 663.0,471.7 663.0,471.7 663.0,471.7 663.0,471.7 663.0,471.7 663.0,471.7 663.0,471.7 663.0,471.7 663.0,471.7 663.0,471.7 663.0,471.7 663.0,471.7 663.0,471.7 663.0,471.7 663.0,471.7 663.0,471.7 663.0,471.7 663.0,471.7 663.0,471.7 663.0,471.7 663.0,471.7 663.0,471.7 663.0,471.7 663.0,471.7 663.0,471.7 663.0,471.7 663.0,471.7 663.0,471.7 663.0,471.7 663.0,471.7 663.0,471.7 663.0,471.7 663.0,471.7 663.0,471.7 663.0,471.7 663.0,471.7 663.0,471.7 663.0,471.7 663.0,471.7 663.0,471.7 663.0,471.7 663.0,471.7 663.0,471.7 663.0,471.7 663.0,471.7 663.0,471.8 663.0,471.8 663.0,471.8 663.0,471.8 663.0,471.8 663.0,471.8 663.0,471.8 663.0,471.8 663.0,471.8 663.0,471.8 663.0,471.8 663.0,471.8 663.0,471.8 663.0,471.8 663.0,471.8 663.0,471.8 663.0,471.8 663.0,471.8 663.0,471.8 663.0,471.8 663.0,471.8 663.0,471.8 663.0,471.8 663.0,471.8 663.0,471.8 663.0,471.8 663.0,471.8 663.0,471.8 663.0,471.8 663.0,471.8 663.0,471.8 663.0,471.8 663.0,471.8 663.0,471.8 663.0,471.8 663.0,471.8 663.0,471.8 663.0,471.8 663.0,471.8 663.0,471.8 663.0,471.8 663.0,471.8 663.0,471.8 663.0,471.8 663.0,471.8 663.0,471.8 663.0,471.8 663.0,471.8 663.0,471.8 663.0,471.8 663.0,471.8 663.0,471.8 663.0,471.8 663.0,471.8 663.0,471.8 663.0,471.8 663.0,471.8 663.0,471.8 663.0,471.8 663.0,471.8 663.0,471.8 663.0,471.8 663.0,471.8 663.0,471.8 663.0,471.8 663.0,471.8 663.0,471.8 663.0,471.8 663.0,471.8 663.0,471.8 663.0,471.8 663.0,471.9 663.0,471.9 663.0,471.9 663.0,471.9 663.0,471.9 663.0,471.9 663.0,471.9 663.0,471.9 663.0,471.9 663.0,471.9 663.0,471.9 663.0,471.9 663.0,471.9 663.0,471.9 663.0,471.9 663.0,471.9 663.0,471.9 663.0,471.9 663.0,471.9 663.0,471.9 663.0,471.9 663.0,471.9 668.0,471.8 668.0,471.8 668.0,471.8 668.0,471.8 668.0,471.8 668.0,471.8 668.0,471.8 668.0,471.8 668.0,471.8 668.0,471.8 668.0,471.8 668.0,471.8 668.0,471.8 668.0,471.8 668.0,471.8 668.0,471.8 668.0,471.8 668.0,471.8 668.0,471.8 668.0,471.8 668.0,471.8 668.0,471.8 668.0,471.8 668.0,471.8 668.0,471.8 668.0,471.8 668.0,471.8 668.0,471.8 668.0,471.9 668.0,471.9 668.0,471.9 668.0,471.9 668.0,471.9 668.0,471.9 668.0,471.9 668.0,471.9 668.0,471.9 668.0,471.9 668.0,471.9 668.0,471.9 668.0,471.9 668.0,471.9 668.0,471.9 668.0,471.9 668.0,471.9 668.0,471.9 668.0,471.9 668.0,471.9 668.0,471.9 668.0,471.9 668.0,471.9 668.0,471.9 668.0,471.9 668.0,471.9 668.0,471.9 668.0,471.9 668.0,471.9 668.0,471.9 668.0,471.9 668.0,471.9 668.0,471.9 668.0,471.9 668.0,471.9 668.0,471.9 668.0,471.9 668.0,471.9 668.0,471.9 668.0,471.9 668.0,471.9 668.0,471.9 668.0,471.9 668.0,471.9 668.0,471.9 668.0,471.9 668.0,471.9 668.0,471.9 668.0,471.9 668.0,471.9 668.0,471.9 668.0,471.9 668.0,471.9 668.0,471.9 668.0,471.9 668.0,471.9 668.0,471.9 668.0,471.9 668.0,471.9 668.0,471.9 668.0,471.9 668.0,471.9 668.0,471.9 668.0,471.9 668.0,471.9 668.0,471.9 668.0,471.9 668.0,471.9 668.0,471.9 668.0,471.9 668.0,471.9 668.0,471.9 668.0,471.9 668.0,472.0 668.0,472.0 668.0,472.0 668.0,472.0 668.0,472.0 668.0,472.0 668.0,472.0 668.0,472.0 668.0,472.0 668.0,472.0 668.0,472.0 668.0,472.0 668.0,472.0 668.0,472.0 668.0,472.0 668.0,472.0 668.0,472.0 668.0,472.0 668.0,472.0 668.0,472.0 668.0,472.0 668.0,472.0 668.0,472.0 668.0,472.0 668.0,472.0 668.0,472.0 668.0,472.0 668.0,472.0 668.0,472.0 668.0,472.0 668.0,472.0 668.0,472.0 668.0,472.0 668.0,472.0 668.0,472.0 668.0,472.0 668.0,472.0 668.0,472.0 668.0,472.0 668.0,472.0 668.0,472.0 668.0,472.0 668.0,472.0 668.0,472.0 668.0,472.0 668.0,472.0 668.0,472.0 668.0,472.0 668.0,472.0 668.0,472.0 668.0,472.0 668.0,472.0 668.0,472.0 668.0,472.0 668.0,472.0 668.0,472.0 668.0,472.0 668.0,472.0 668.0,472.0 668.0,472.0 668.0,472.0 668.0,472.0 668.0,472.0 668.0,472.0 668.0,472.0 668.0,472.0 668.0,472.0 668.0,472.0 668.0,472.0 668.0,472.0 668.0,472.0 668.0,472.0 668.0,472.0 668.0,472.0 668.0,472.1 668.0,472.1 668.0,472.1 668.0,472.1 668.0,472.1 668.0,472.1 668.0,472.1 668.0,472.1 668.0,472.1 668.0,472.1 668.0,472.1 668.0,472.1 668.0,472.1 668.0,472.1 668.0,472.1 668.0,472.1 668.0,472.1 668.0,472.1 668.0,472.1 668.0,472.1 668.0,472.1 668.0,472.1 668.0,472.1 668.0,472.1 668.0,472.1 668.0,472.1 668.0,472.1 668.0,472.1 668.0,472.1 668.0,472.1 668.0,472.1 668.0,472.1 668.0,472.1 668.0,472.1 668.0,472.1 668.0,472.1 668.0,472.1 668.0,472.1 668.0,472.1 668.0,472.1 668.0,472.1 668.0,472.1 668.0,472.1 668.0,472.1 668.0,472.1 668.0,472.1 668.0,472.1 668.0,472.1 668.0,472.1 668.0,472.1 668.0,472.1 668.0,472.1 668.0,472.1 668.0,472.1 668.0,472.1 668.0,472.1 668.0,472.1 668.0,472.1 668.0,472.1 668.0,472.1 668.0,472.1 668.0,472.1 668.0,472.1 668.0,472.1 668.0,472.1 668.0,472.1 668.0,472.1 668.0,472.1 668.0,472.1 668.0,472.1 668.0,472.1 668.0,472.1 668.0,472.1 668.0,472.1 668.0,472.1 668.0,472.1 668.0,472.1 668.0,472.2 668.0,472.2 668.0,472.2 668.0,472.2 668.0,472.2 668.0,472.2 668.0,472.2 668.0,472.2 668.0,472.2 668.0,472.2 668.0,472.2 668.0,472.2 668.0,472.2 668.0,472.2 668.0,472.2 668.0,472.2 668.0,472.2 668.0,472.2 668.0,472.2 668.0,472.2 668.0,472.2 668.0,472.2 668.0,472.2 668.0,472.2 668.0,472.2 668.0,472.2 668.0,472.2 668.0,472.2 668.0,472.2 668.0,472.2 668.0,472.2 668.0,472.2 668.0,472.2 668.0,472.2 668.0,472.2 668.0,472.2 668.0,472.2 668.0,472.2 668.0,472.2 668.0,472.2 668.0,472.2 668.0,472.2 668.0,472.2 668.0,472.2 668.0,472.2 668.0,472.2 668.0,472.2 668.0,472.2 668.0,472.2 668.0,472.2 668.0,472.2 668.0,472.2 668.0,472.2 668.0,472.2 668.0,472.2 668.0,472.2 668.0,472.2 668.0,472.2 668.0,472.2 668.0,472.2 668.0,472.2 668.0,472.2 668.0,472.2 668.0,472.2 668.0,472.2 668.0,472.2 668.0,472.2 668.0,472.2 668.0,472.2 668.0,472.2 668.0,472.2 668.0,472.2 668.0,472.2 668.0,472.2 668.0,472.2 668.0,472.2 668.0,472.2 668.0,472.2 668.0,472.2 668.0,472.3 668.0,472.3 668.0,472.3 668.0,472.3 668.0,472.3 668.0,472.3 668.0,472.3 668.0,472.3 668.0,472.3 668.0,472.3 668.0,472.3 668.0,472.3 668.0,472.3 668.0,472.3 668.0,472.3 668.0,472.3 668.0,472.3 668.0,472.3 668.0,472.3 668.0,472.3 668.0,472.3 668.0,472.3 668.0,472.3 668.0,472.3 668.0,472.3 668.0,472.3 668.0,472.3 668.0,472.3 668.0,472.3 668.0,472.3 668.0,472.3 668.0,472.3 668.0,472.3 668.0,472.3 668.0,472.3 668.0,472.3 668.0,472.3 668.0,472.3 668.0,472.3 668.0,472.3 668.0,472.3 668.0,472.3 668.0,472.3 668.0,472.3 668.0,472.3 668.0,472.3 668.0,472.3 668.0,472.3 668.0,472.3 668.0,472.3 668.0,472.3 668.0,472.3 668.0,472.3 668.0,472.3 668.0,472.3 668.0,472.3 668.0,472.3 668.0,472.3 668.0,472.3 668.0,472.3 668.0,472.3 668.0,472.3 668.0,472.3 668.0,472.3 668.0,472.3 668.0,472.3 668.0,472.3 668.0,472.3 668.0,472.3 668.0,472.3 668.0,472.3 668.0,472.3 668.0,472.3 668.0,472.3 668.0,472.3 668.0,472.3 668.0,472.3 668.0,472.3 668.0,472.3 668.0,472.3 668.0,472.3 668.0,472.4 668.0,472.4 668.0,472.4 668.0,472.4 668.0,472.4 668.0,472.4 668.0,472.4 668.0,472.4 668.0,472.4 668.0,472.4 668.0,472.4 668.0,472.4 668.0,472.4 668.0,472.4 668.0,472.4 668.0,472.4 668.0,472.4 668.0,472.4 668.0,472.4 668.0,472.4 668.0,472.4 668.0,472.4 668.0,472.4 668.0,472.4 668.0,472.4 668.0,472.4 668.0,472.4 668.0,472.4 668.0,472.4 668.0,472.4 668.0,472.4 668.0,472.4 668.0,472.4 668.0,472.4 668.0,472.4 668.0,472.4 668.0,472.4 668.0,472.4 668.0,472.4 668.0,472.4 668.0,472.4 668.0,472.4 668.0,472.4 668.0,472.4 668.0,472.4 668.0,472.4 668.0,472.4 668.0,472.4 668.0,472.4 668.0,472.4 668.0,472.4 668.0,472.4 668.0,472.4 668.0,472.4 668.0,472.4 668.0,472.4 668.0,472.4 668.0,472.4 668.0,472.4 668.0,472.4 668.0,472.4 668.0,472.4 668.0,472.4 668.0,472.4 668.0,472.4 668.0,472.4 668.0,472.4 668.0,472.4 668.0,472.4 668.0,472.4 668.0,472.4 668.0,472.4 668.0,472.4 668.0,472.4 668.0,472.4 668.0,472.4 668.0,472.4 668.0,472.4 668.0,472.4 668.0,472.4 668.0,472.4 668.0,472.4 668.0,472.4 668.0,472.5 668.0,472.5 668.0,472.5 668.0,472.5 668.0,472.5 668.0,472.5 668.0,472.5 668.0,472.5 668.0,472.5 668.0,472.5 668.0,472.5 668.0,472.5 668.0,472.5 668.0,472.5 668.0,472.5 668.0,472.5 668.0,472.5 668.0,472.5 668.0,472.5 668.0,472.5 668.0,472.5 668.0,472.5 668.0,472.5 668.0,472.5 668.0,472.5 668.0,472.5 668.0,472.5 668.0,472.5 668.0,472.5 668.0,472.5 668.0,472.5 668.0,472.5 668.0,472.5 668.0,472.5 668.0,472.5 668.0,472.5 668.0,472.5 668.0,472.5 668.0,472.5 668.0,472.5 668.0,472.5 668.0,472.5 668.0,472.5 668.0,472.5 668.0,472.5 668.0,472.5 668.0,472.5 668.0,472.5 668.0,472.5 668.0,472.5 668.0,472.5 668.0,472.5 668.0,472.5 668.0,472.5 668.0,472.5 668.0,472.5 668.0,472.5 668.0,472.5 668.0,472.5 668.0,472.5 668.0,472.5 668.0,472.5 668.0,472.5 668.0,472.5 668.0,472.5 668.0,472.5 668.0,472.5 668.0,472.5 668.0,472.5 668.0,472.5 668.0,472.5 668.0,472.5 668.0,472.5 668.0,472.5 668.0,472.5 668.0,472.5 668.0,472.5 668.0,472.5 668.0,472.5 668.0,472.5 668.0,472.5 668.0,472.5 668.0,472.5 668.0,472.5 668.0,472.6 668.0,472.6 668.0,472.6 668.0,472.6 668.0,472.6 668.0,472.6 668.0,472.6 668.0,472.6 668.0,472.6 668.0,472.6 668.0,472.6 668.0,472.6 668.0,472.6 668.0,472.6 668.0,472.6 668.0,472.6 668.0,472.6 668.0,472.6 668.0,472.6 668.0,472.6 668.0,472.6 668.0,472.6 668.0,472.6 668.0,472.6 668.0,472.6 668.0,472.6 668.0,472.6 668.0,472.6 668.0,472.6 668.0,472.6 668.0,472.6 668.0,472.6 668.0,472.6 668.0,472.6 668.0,472.6 668.0,472.6 668.0,472.6 668.0,472.6 668.0,472.6 668.0,472.6 668.0,472.6 668.0,472.6 668.0,472.6 668.0,472.6 668.0,472.6 668.0,472.6 668.0,472.6 668.0,472.6 668.0,472.6 668.0,472.6 668.0,472.6 668.0,472.6 668.0,472.6 668.0,472.6 668.0,472.6 668.0,472.6 668.0,472.6 668.0,472.6 668.0,472.6 668.0,472.6 668.0,472.6 668.0,472.6 668.0,472.6 668.0,472.6 668.0,472.6 668.0,472.6 668.0,472.6 668.0,472.6 668.0,472.6 668.0,472.6 668.0,472.6 668.0,472.6 668.0,472.6 668.0,472.6 668.0,472.6 668.0,472.6 668.0,472.6 668.0,472.6 668.0,472.6 668.0,472.6 668.0,472.6 668.0,472.6 668.0,472.6 668.0,472.6 668.0,472.6 668.0,472.6 668.0,472.6 668.0,472.6 668.0,472.7 668.0,472.7 668.0,472.7 668.0,472.7 668.0,472.7 668.0,472.7 668.0,472.7 668.0,472.7 668.0,472.7 668.0,472.7 668.0,472.7 668.0,472.7 668.0,472.7 668.0,472.7 668.0,472.7 668.0,472.7 668.0,472.7 668.0,472.7 668.0,472.7 668.0,472.7 668.0,472.7 668.0,472.7 668.0,472.7 668.0,472.7 668.0,472.7 668.0,472.7 668.0,472.7 668.0,472.7 668.0,472.7 668.0,472.7 668.0,472.7 668.0,472.7 668.0,472.7 668.0,472.7 668.0,472.7 668.0,472.7 668.0,472.7 668.0,472.7 668.0,472.7 668.0,472.7 668.0,472.7 668.0,472.7 668.0,472.7 668.0,472.7 668.0,472.7 668.0,472.7 668.0,472.7 668.0,472.7 668.0,472.7 668.0,472.7 668.0,472.7 668.0,472.7 668.0,472.7 668.0,472.7 668.0,472.7 668.0,472.7 668.0,472.7 668.0,472.7 668.0,472.7 668.0,472.7 668.0,472.7 668.0,472.7 668.0,472.7 668.0,472.7 668.0,472.7 668.0,472.7 668.0,472.7 668.0,472.7 668.0,472.7 668.0,472.7 668.0,472.7 668.0,472.7 668.0,472.7 668.0,472.7 668.0,472.7 668.0,472.7 668.0,472.7 668.0,472.7 668.0,472.7 668.0,472.7 668.0,472.7 668.0,472.7 668.0,472.7 668.0,472.7 668.0,472.7 668.0,472.7 668.0,472.7 668.0,472.7 668.0,472.7 668.0,472.7 668.0,472.8 668.0,472.8 668.0,472.8 668.0,472.8 668.0,472.8 668.0,472.8 668.0,472.8 668.0,472.8 668.0,472.8 668.0,472.8"/>
<text class="label" x="333.0" y="554">Recall</text>
<text class="label" transform="translate(28 320.0) rotate(-90)">Precision</text>
</svg>