<svg xmlns="http://www.w3.org/2000/svg" width="980" height="620" viewBox="0 0 980 620">
<rect width="100%" height="100%" fill="#ffffff"/>
<style>text{font-family:Arial,sans-serif;fill:#111827}.title{font-size:26px;font-weight:700}.subtitle{font-size:16px;fill:#4b5563}.section{font-size:20px;font-weight:700}.panel-title{font-size:19px;font-weight:700}.tick{font-size:13px;fill:#4b5563}.label{font-size:15px}.label-strong{font-size:18px;font-weight:700}.value{font-size:15px;font-weight:700}.metric{font-size:28px;font-weight:700}.metric-label{font-size:14px;fill:#4b5563}.note{font-size:18px;font-weight:700;fill:#991b1b}.grid{stroke:#e5e7eb;stroke-width:1}.axis{stroke:#d1d5db;stroke-width:1}</style>
<text class="title" x="70" y="45">Threshold Sweep</text>
<text class="subtitle" x="70" y="73">Shows the trade-off between malignant sensitivity, specificity, precision, and F1.</text>
<line class="grid" x1="95.0" y1="90" x2="95.0" y2="490"/>
<line class="grid" x1="95" y1="490.0" x2="885" y2="490.0"/>
<text class="tick" x="85.0" y="516">0.0</text>
<text class="tick" x="50" y="495.0">0.0</text>
<line class="grid" x1="253.0" y1="90" x2="253.0" y2="490"/>
<line class="grid" x1="95" y1="410.0" x2="885" y2="410.0"/>
<text class="tick" x="243.0" y="516">0.2</text>
<text class="tick" x="50" y="415.0">0.2</text>
<line class="grid" x1="411.0" y1="90" x2="411.0" y2="490"/>
<line class="grid" x1="95" y1="330.0" x2="885" y2="330.0"/>
<text class="tick" x="401.0" y="516">0.4</text>
<text class="tick" x="50" y="335.0">0.4</text>
<line class="grid" x1="569.0" y1="90" x2="569.0" y2="490"/>
<line class="grid" x1="95" y1="250.0" x2="885" y2="250.0"/>
<text class="tick" x="559.0" y="516">0.6</text>
<text class="tick" x="50" y="255.0">0.6</text>
<line class="grid" x1="727.0" y1="90" x2="727.0" y2="490"/>
<line class="grid" x1="95" y1="170.0" x2="885" y2="170.0"/>
<text class="tick" x="717.0" y="516">0.8</text>
<text class="tick" x="50" y="175.0">0.8</text>
<line class="grid" x1="885.0" y1="90" x2="885.0" y2="490"/>
<line class="grid" x1="95" y1="90.0" x2="885" y2="90.0"/>
<text class="tick" x="875.0" y="516">1.0</text>
<text class="tick" x="50" y="95.0">1.0</text>
<polyline points="95.0,90.0 102.9,90.0 110.8,90.0 118.7,93.4 126.6,93.4 134.5,93.4 142.4,96.8 150.3,96.8 158.2,96.8 166.1,100.3 174.0,100.3 181.9,103.7 189.8,107.1 197.7,107.1 205.6,107.1 213.5,107.1 221.4,107.1 229.3,107.1 237.2,107.1 245.1,107.1 253.0,107.1 260.9,110.5 268.8,110.5 276.7,110.5 284.6,110.5 292.5,110.5 300.4,113.9 308.3,113.9 316.2,117.4 324.1,120.8 332.0,127.6 339.9,127.6 347.8,137.9 355.7,137.9 363.6,137.9 371.5,144.7 379.4,148.1 387.3,151.5 395.2,155.0 403.1,158.4 411.0,161.8 418.9,168.6 426.8,175.5 434.7,182.3 442.6,189.1 450.5,199.4 458.4,202.8 466.3,202.8 474.2,213.1 482.1,223.3 490.0,233.6 497.9,240.4 505.8,243.8 513.7,250.7 521.6,260.9 529.5,264.4 537.4,267.8 545.3,278.0 553.2,284.9 561.1,295.1 569.0,305.4 576.9,312.2 584.8,315.6 592.7,319.1 600.6,329.3 608.5,339.6 616.4,346.4 624.3,349.8 632.2,356.7 640.1,377.2 648.0,384.0 655.9,387.4 663.8,390.9 671.7,401.1 679.6,401.1 687.5,407.9 695.4,414.8 703.3,428.5 711.2,431.9 719.1,435.3 727.0,449.0 734.9,449.0 742.8,449.0 750.7,455.8 758.6,459.2 766.5,462.6 774.4,469.5 782.3,479.7 790.2,479.7 798.1,483.2 806.0,483.2 813.9,486.6 821.8,490.0 829.7,490.0 837.6,490.0 845.5,490.0 853.4,490.0 861.3,490.0 869.2,490.0 877.1,490.0 885.0,490.0" fill="none" stroke="#dc2626" stroke-width="3"/>
<line x1="620" y1="42" x2="654" y2="42" stroke="#dc2626" stroke-width="3"/>
<text class="label" x="663" y="47">sensitivity</text>
<polyline points="95.0,490.0 102.9,485.5 110.8,472.0 118.7,452.9 126.6,433.9 134.5,417.2 142.4,403.5 150.3,389.8 158.2,377.4 166.1,366.2 174.0,357.7 181.9,348.0 189.8,338.1 197.7,330.8 205.6,322.8 213.5,315.9 221.4,309.5 229.3,301.4 237.2,295.4 245.1,289.8 253.0,284.3 260.9,279.1 268.8,274.0 276.7,268.1 284.6,262.1 292.5,257.1 300.4,251.3 308.3,245.7 316.2,240.8 324.1,235.9 332.0,230.5 339.9,226.3 347.8,221.8 355.7,217.8 363.6,213.8 371.5,210.2 379.4,205.2 387.3,200.3 395.2,196.0 403.1,191.4 411.0,187.8 418.9,183.5 426.8,180.3 434.7,176.4 442.6,172.5 450.5,169.0 458.4,165.6 466.3,161.5 474.2,157.2 482.1,153.9 490.0,150.8 497.9,148.3 505.8,145.6 513.7,142.6 521.6,139.3 529.5,136.5 537.4,133.5 545.3,130.6 553.2,127.8 561.1,125.5 569.0,122.3 576.9,119.5 584.8,117.7 592.7,115.2 600.6,113.2 608.5,111.3 616.4,109.1 624.3,107.6 632.2,105.6 640.1,104.3 648.0,103.0 655.9,101.3 663.8,99.5 671.7,98.0 679.6,96.9 687.5,96.3 695.4,95.5 703.3,94.6 711.2,94.2 719.1,93.1 727.0,92.5 734.9,92.1 742.8,91.7 750.7,91.3 758.6,90.9 766.5,90.7 774.4,90.6 782.3,90.6 790.2,90.3 798.1,90.2 806.0,90.1 813.9,90.1 821.8,90.1 829.7,90.0 837.6,90.0 845.5,90.0 853.4,90.0 861.3,90.0 869.2,90.0 877.1,90.0 885.0,90.0" fill="none" stroke="#2563eb" stroke-width="3"/>
<line x1="620" y1="66" x2="654" y2="66" stroke="#2563eb" stroke-width="3"/>
<text class="label" x="663" y="71">specificity</text>
<polyline points="95.0,482.9 102.9,482.9 110.8,482.6 118.7,482.3 126.6,481.9 134.5,481.5 142.4,481.2 150.3,480.8 158.2,480.4 166.1,480.1 174.0,479.8 181.9,479.5 189.8,479.2 197.7,478.9 205.6,478.5 213.5,478.2 221.4,477.8 229.3,477.4 237.2,477.0 245.1,476.7 253.0,476.3 260.9,476.1 268.8,475.7 276.7,475.2 284.6,474.7 292.5,474.3 300.4,473.9 308.3,473.4 316.2,473.0 324.1,472.6 332.0,472.3 339.9,471.7 347.8,471.7 355.7,471.1 363.6,470.5 371.5,470.4 379.4,469.7 387.3,469.1 395.2,468.5 403.1,467.8 411.0,467.3 418.9,466.7 426.8,466.4 434.7,465.9 442.6,465.4 450.5,465.2 458.4,464.4 466.3,463.1 474.2,462.4 482.1,462.1 490.0,461.8 497.9,461.4 505.8,460.5 513.7,459.8 521.6,459.2 529.5,457.9 537.4,456.4 545.3,455.7 553.2,454.4 561.1,454.0 569.0,452.7 576.9,450.9 584.8,449.4 592.7,446.5 600.6,445.7 608.5,444.9 616.4,442.4 624.3,439.8 632.2,436.8 640.1,440.2 648.0,438.8 655.9,433.9 663.8,426.6 671.7,423.3 679.6,414.6 687.5,414.4 695.4,411.4 703.3,412.6 711.2,410.0 719.1,394.5 727.0,397.7 734.9,385.7 742.8,366.9 750.7,361.0 758.6,340.0 766.5,321.6 774.4,340.0 782.3,390.0 790.2,340.0 798.1,330.0 806.0,290.0 813.9,290.0 821.8,490.0 829.7,490.0 837.6,490.0 845.5,490.0 853.4,490.0 861.3,490.0 869.2,490.0 877.1,490.0 885.0,490.0" fill="none" stroke="#0f766e" stroke-width="3"/>
<line x1="620" y1="90" x2="654" y2="90" stroke="#0f766e" stroke-width="3"/>
<text class="label" x="663" y="95">precision</text>
<polyline points="95.0,476.1 102.9,476.0 110.8,475.5 118.7,474.9 126.6,474.1 134.5,473.3 142.4,472.7 150.3,472.0 158.2,471.3 166.1,470.7 174.0,470.1 181.9,469.6 189.8,469.0 197.7,468.4 205.6,467.7 213.5,467.0 221.4,466.4 229.3,465.6 237.2,464.9 245.1,464.2 253.0,463.6 260.9,463.1 268.8,462.4 276.7,461.6 284.6,460.7 292.5,459.9 300.4,459.1 308.3,458.1 316.2,457.5 324.1,456.8 332.0,456.2 339.9,455.2 347.8,455.2 355.7,454.2 363.6,453.1 371.5,452.8 379.4,451.8 387.3,450.6 395.2,449.6 403.1,448.3 411.0,447.5 418.9,446.6 426.8,446.1 434.7,445.3 442.6,444.5 450.5,444.3 458.4,443.0 466.3,440.8 474.2,439.8 482.1,439.4 490.0,439.2 497.9,438.7 505.8,437.3 513.7,436.3 521.6,435.6 529.5,433.8 537.4,431.6 545.3,431.0 553.2,429.4 561.1,429.3 569.0,427.9 576.9,425.9 584.8,424.1 592.7,420.7 600.6,420.5 608.5,420.6 616.4,418.5 624.3,416.1 632.2,413.9 640.1,420.9 648.0,420.9 655.9,417.5 663.8,412.7 671.7,413.8 679.6,408.4 687.5,411.3 695.4,413.1 703.3,421.4 711.2,422.7 719.1,420.4 727.0,433.2 734.9,431.1 742.8,428.5 750.7,435.9 758.6,438.9 766.5,442.9 774.4,453.9 782.3,471.4 790.2,470.8 798.1,476.9 806.0,476.8 813.9,483.3 821.8,490.0 829.7,490.0 837.6,490.0 845.5,490.0 853.4,490.0 861.3,490.0 869.2,490.0 877.1,490.0 885.0,490.0" fill="none" stroke="#7c3aed" stroke-width="3"/>
<line x1="620" y1="114" x2="654" y2="114" stroke="#7c3aed" stroke-width="3"/>
<text class="label" x="663" y="119">f1</text>
<line class="axis" x1="95" y1="490" x2="885" y2="490"/>
<line class="axis" x1="95" y1="90" x2="95" y2="490"/>
<text class="label" x="458.0" y="582">Threshold</text>
<text class="label" transform="translate(28 310.0) rotate(-90)">Metric value</text>
</svg>