<svg xmlns="http://www.w3.org/2000/svg" width="980" height="620" viewBox="0 0 980 620">
<rect width="100%" height="100%" fill="#ffffff"/>
<style>text{font-family:Arial,sans-serif;fill:#111827}.title{font-size:26px;font-weight:700}.subtitle{font-size:16px;fill:#4b5563}.section{font-size:20px;font-weight:700}.panel-title{font-size:19px;font-weight:700}.tick{font-size:13px;fill:#4b5563}.label{font-size:15px}.label-strong{font-size:18px;font-weight:700}.value{font-size:15px;font-weight:700}.metric{font-size:28px;font-weight:700}.metric-label{font-size:14px;fill:#4b5563}.note{font-size:18px;font-weight:700;fill:#991b1b}.grid{stroke:#e5e7eb;stroke-width:1}.axis{stroke:#d1d5db;stroke-width:1}</style>
<text class="title" x="70" y="45">Threshold Sweep</text>
<text class="subtitle" x="70" y="73">Shows the trade-off between malignant sensitivity, specificity, precision, and F1.</text>
<line class="grid" x1="95.0" y1="90" x2="95.0" y2="490"/>
<line class="grid" x1="95" y1="490.0" x2="885" y2="490.0"/>
<text class="tick" x="85.0" y="516">0.0</text>
<text class="tick" x="50" y="495.0">0.0</text>
<line class="grid" x1="253.0" y1="90" x2="253.0" y2="490"/>
<line class="grid" x1="95" y1="410.0" x2="885" y2="410.0"/>
<text class="tick" x="243.0" y="516">0.2</text>
<text class="tick" x="50" y="415.0">0.2</text>
<line class="grid" x1="411.0" y1="90" x2="411.0" y2="490"/>
<line class="grid" x1="95" y1="330.0" x2="885" y2="330.0"/>
<text class="tick" x="401.0" y="516">0.4</text>
<text class="tick" x="50" y="335.0">0.4</text>
<line class="grid" x1="569.0" y1="90" x2="569.0" y2="490"/>
<line class="grid" x1="95" y1="250.0" x2="885" y2="250.0"/>
<text class="tick" x="559.0" y="516">0.6</text>
<text class="tick" x="50" y="255.0">0.6</text>
<line class="grid" x1="727.0" y1="90" x2="727.0" y2="490"/>
<line class="grid" x1="95" y1="170.0" x2="885" y2="170.0"/>
<text class="tick" x="717.0" y="516">0.8</text>
<text class="tick" x="50" y="175.0">0.8</text>
<line class="grid" x1="885.0" y1="90" x2="885.0" y2="490"/>
<line class="grid" x1="95" y1="90.0" x2="885" y2="90.0"/>
<text class="tick" x="875.0" y="516">1.0</text>
<text class="tick" x="50" y="95.0">1.0</text>
<polyline points="95.0,90.0 102.9,90.0 110.8,93.4 118.7,96.8 126.6,96.8 134.5,96.8 142.4,96.8 150.3,103.7 158.2,107.1 166.1,107.1 174.0,107.1 181.9,107.1 189.8,107.1 197.7,107.1 205.6,107.1 213.5,107.1 221.4,107.1 229.3,107.1 237.2,107.1 245.1,107.1 253.0,113.9 260.9,117.4 268.8,120.8 276.7,124.2 284.6,131.0 292.5,134.4 300.4,134.4 308.3,151.5 316.2,161.8 324.1,161.8 332.0,172.1 339.9,182.3 347.8,182.3 355.7,182.3 363.6,185.7 371.5,192.6 379.4,199.4 387.3,206.2 395.2,209.7 403.1,213.1 411.0,219.9 418.9,233.6 426.8,237.0 434.7,243.8 442.6,243.8 450.5,250.7 458.4,267.8 466.3,271.2 474.2,278.0 482.1,284.9 490.0,284.9 497.9,295.1 505.8,305.4 513.7,308.8 521.6,315.6 529.5,329.3 537.4,336.2 545.3,343.0 553.2,353.2 561.1,360.1 569.0,360.1 576.9,363.5 584.8,377.2 592.7,380.6 600.6,387.4 608.5,387.4 616.4,397.7 624.3,404.5 632.2,421.6 640.1,428.5 648.0,438.7 655.9,445.6 663.8,445.6 671.7,452.4 679.6,452.4 687.5,455.8 695.4,455.8 703.3,459.2 711.2,462.6 719.1,462.6 727.0,469.5 734.9,472.9 742.8,479.7 750.7,479.7 758.6,479.7 766.5,479.7 774.4,479.7 782.3,486.6 790.2,490.0 798.1,490.0 806.0,490.0 813.9,490.0 821.8,490.0 829.7,490.0 837.6,490.0 845.5,490.0 853.4,490.0 861.3,490.0 869.2,490.0 877.1,490.0 885.0,490.0" fill="none" stroke="#dc2626" stroke-width="3"/>
<line x1="620" y1="42" x2="654" y2="42" stroke="#dc2626" stroke-width="3"/>
<text class="label" x="663" y="47">sensitivity</text>
<polyline points="95.0,490.0 102.9,472.9 110.8,438.2 118.7,412.9 126.6,393.4 134.5,374.7 142.4,359.8 150.3,346.1 158.2,334.5 166.1,323.6 174.0,314.7 181.9,305.7 189.8,297.5 197.7,290.6 205.6,283.7 213.5,276.0 221.4,269.5 229.3,263.6 237.2,256.3 245.1,250.5 253.0,243.6 260.9,237.3 268.8,231.9 276.7,226.5 284.6,221.2 292.5,216.3 300.4,211.7 308.3,207.6 316.2,203.2 324.1,198.6 332.0,194.1 339.9,190.2 347.8,185.7 355.7,181.0 363.6,176.0 371.5,172.1 379.4,168.2 387.3,164.4 395.2,160.3 403.1,157.4 411.0,154.3 418.9,151.3 426.8,148.3 434.7,145.3 442.6,141.7 450.5,138.9 458.4,136.3 466.3,134.1 474.2,131.7 482.1,128.7 490.0,126.4 497.9,123.7 505.8,120.9 513.7,118.8 521.6,115.8 529.5,113.9 537.4,112.1 545.3,110.3 553.2,108.8 561.1,106.6 569.0,105.5 576.9,103.8 584.8,102.8 592.7,101.4 600.6,99.6 608.5,98.7 616.4,98.1 624.3,97.2 632.2,96.6 640.1,95.7 648.0,95.0 655.9,94.4 663.8,93.6 671.7,92.9 679.6,92.5 687.5,92.1 695.4,91.7 703.3,91.4 711.2,91.0 719.1,90.7 727.0,90.4 734.9,90.3 742.8,90.3 750.7,90.2 758.6,90.1 766.5,90.1 774.4,90.1 782.3,90.1 790.2,90.1 798.1,90.1 806.0,90.0 813.9,90.0 821.8,90.0 829.7,90.0 837.6,90.0 845.5,90.0 853.4,90.0 861.3,90.0 869.2,90.0 877.1,90.0 885.0,90.0" fill="none" stroke="#2563eb" stroke-width="3"/>
<line x1="620" y1="66" x2="654" y2="66" stroke="#2563eb" stroke-width="3"/>
<text class="label" x="663" y="71">specificity</text>
<polyline points="95.0,482.9 102.9,482.6 110.8,482.0 118.7,481.4 126.6,480.9 134.5,480.3 142.4,479.8 150.3,479.4 158.2,479.0 166.1,478.5 174.0,478.1 181.9,477.6 189.8,477.2 197.7,476.7 205.6,476.3 213.5,475.7 221.4,475.2 229.3,474.7 237.2,474.1 245.1,473.6 253.0,473.1 260.9,472.6 268.8,472.1 276.7,471.6 284.6,471.2 292.5,470.7 300.4,470.0 308.3,470.3 316.2,470.2 324.1,469.4 332.0,469.2 339.9,469.1 347.8,468.1 355.7,467.1 363.6,466.1 371.5,465.5 379.4,464.9 387.3,464.3 395.2,463.2 403.1,462.5 411.0,461.9 418.9,462.0 426.8,461.1 434.7,460.4 442.6,458.5 450.5,457.7 458.4,458.3 466.3,457.2 474.2,456.5 482.1,455.2 490.0,453.2 497.9,452.4 505.8,451.2 513.7,449.4 521.6,446.6 529.5,446.9 537.4,445.6 545.3,444.0 553.2,443.8 561.1,440.6 569.0,437.6 576.9,433.3 584.8,435.2 592.7,431.3 600.6,425.8 608.5,419.8 616.4,422.1 624.3,419.6 632.2,427.5 640.1,425.1 648.0,428.1 655.9,428.1 663.8,417.8 671.7,414.1 679.6,403.7 687.5,399.1 695.4,381.9 703.3,373.9 711.2,362.0 719.1,330.0 727.0,305.4 734.9,290.0 742.8,340.0 750.7,290.0 758.6,250.0 766.5,250.0 774.4,250.0 782.3,356.7 790.2,490.0 798.1,490.0 806.0,490.0 813.9,490.0 821.8,490.0 829.7,490.0 837.6,490.0 845.5,490.0 853.4,490.0 861.3,490.0 869.2,490.0 877.1,490.0 885.0,490.0" fill="none" stroke="#0f766e" stroke-width="3"/>
<line x1="620" y1="90" x2="654" y2="90" stroke="#0f766e" stroke-width="3"/>
<text class="label" x="663" y="95">precision</text>
<polyline points="95.0,476.1 102.9,475.5 110.8,474.3 118.7,473.2 126.6,472.2 134.5,471.1 142.4,470.1 150.3,469.4 158.2,468.7 166.1,467.8 174.0,466.9 181.9,466.0 189.8,465.1 197.7,464.3 205.6,463.5 213.5,462.5 221.4,461.6 229.3,460.7 237.2,459.5 245.1,458.5 253.0,457.7 260.9,456.7 268.8,455.9 276.7,455.0 284.6,454.3 292.5,453.4 300.4,452.2 308.3,452.8 316.2,452.6 324.1,451.2 332.0,450.9 339.9,450.8 347.8,449.2 355.7,447.3 363.6,445.7 371.5,444.8 379.4,443.9 387.3,442.9 395.2,441.1 403.1,439.9 411.0,439.1 418.9,439.5 426.8,438.1 434.7,437.1 442.6,434.1 450.5,433.0 458.4,434.4 466.3,433.0 474.2,432.2 482.1,430.5 490.0,427.6 497.9,426.9 505.8,425.9 513.7,423.6 521.6,420.5 529.5,422.0 537.4,421.0 545.3,419.9 553.2,420.9 561.1,418.5 569.0,415.3 576.9,411.7 584.8,416.3 592.7,413.6 600.6,411.1 608.5,406.7 616.4,411.7 624.3,412.8 632.2,424.7 640.1,426.8 648.0,433.9 655.9,438.3 663.8,435.0 671.7,439.7 679.6,437.6 687.5,440.3 695.4,438.1 703.3,441.4 711.2,444.9 719.1,443.3 727.0,453.1 734.9,458.5 742.8,470.8 750.7,470.5 758.6,470.3 766.5,470.3 774.4,470.3 782.3,483.3 790.2,490.0 798.1,490.0 806.0,490.0 813.9,490.0 821.8,490.0 829.7,490.0 837.6,490.0 845.5,490.0 853.4,490.0 861.3,490.0 869.2,490.0 877.1,490.0 885.0,490.0" fill="none" stroke="#7c3aed" stroke-width="3"/>
<line x1="620" y1="114" x2="654" y2="114" stroke="#7c3aed" stroke-width="3"/>
<text class="label" x="663" y="119">f1</text>
<line class="axis" x1="95" y1="490" x2="885" y2="490"/>
<line class="axis" x1="95" y1="90" x2="95" y2="490"/>
<text class="label" x="458.0" y="582">Threshold</text>
<text class="label" transform="translate(28 310.0) rotate(-90)">Metric value</text>
</svg>