<svg xmlns="http://www.w3.org/2000/svg" width="1100" height="498" viewBox="0 0 1100 498">
<rect width="100%" height="100%" fill="#ffffff"/>
<style>text{font-family:Arial,sans-serif;fill:#111827}.title{font-size:26px;font-weight:700}.subtitle{font-size:16px;fill:#4b5563}.section{font-size:20px;font-weight:700}.panel-title{font-size:19px;font-weight:700}.tick{font-size:13px;fill:#4b5563}.label{font-size:15px}.label-strong{font-size:18px;font-weight:700}.value{font-size:15px;font-weight:700}.metric{font-size:28px;font-weight:700}.metric-label{font-size:14px;fill:#4b5563}.note{font-size:18px;font-weight:700;fill:#991b1b}.grid{stroke:#e5e7eb;stroke-width:1}.axis{stroke:#d1d5db;stroke-width:1}</style>
<text class="title" x="60" y="45">ISIC2020 Age Distribution</text>
<text class="subtitle" x="60" y="73">Age is available for all prepared training samples.</text>
<text class="label" x="60" y="127">0-19</text>
<rect x="260" y="105" width="17.6" height="30" fill="#0891b2" rx="4"/>
<text class="value" x="287.6" y="127">219 (0.7%)</text>
<text class="label" x="60" y="173">20-29</text>
<rect x="260" y="151" width="176.6" height="30" fill="#0891b2" rx="4"/>
<text class="value" x="446.6" y="173">2,199 (6.6%)</text>
<text class="label" x="60" y="219">30-39</text>
<rect x="260" y="197" width="418.2" height="30" fill="#0891b2" rx="4"/>
<text class="value" x="688.2" y="219">5,208 (15.7%)</text>
<text class="label" x="60" y="265">40-49</text>
<rect x="260" y="243" width="645.8" height="30" fill="#0891b2" rx="4"/>
<text class="value" x="915.8" y="265">8,042 (24.3%)</text>
<text class="label" x="60" y="311">50-59</text>
<rect x="260" y="289" width="650.0" height="30" fill="#0891b2" rx="4"/>
<text class="value" x="920.0" y="311">8,094 (24.4%)</text>
<text class="label" x="60" y="357">60-69</text>
<rect x="260" y="335" width="463.1" height="30" fill="#0891b2" rx="4"/>
<text class="value" x="733.1" y="357">5,767 (17.4%)</text>
<text class="label" x="60" y="403">70-79</text>
<rect x="260" y="381" width="236.8" height="30" fill="#0891b2" rx="4"/>
<text class="value" x="506.8" y="403">2,949 (8.9%)</text>
<text class="label" x="60" y="449">80+</text>
<rect x="260" y="427" width="52.0" height="30" fill="#0891b2" rx="4"/>
<text class="value" x="322.0" y="449">648 (2.0%)</text>
</svg>